<svg width="180" height="69" viewBox="0 0 180 69" fill="none" xmlns="http://www.w3.org/2000/svg">
  <rect x="70" y="67" width="40" height="2" fill="#DBDEDE"/>
  <path fill-rule="evenodd" clip-rule="evenodd" d="M176.017 22.855C176.017 20.5159 174.639 18.7549 172.464 18.7549C170.288 18.7549 168.909 20.5159 168.909 22.855C168.909 25.194 170.288 26.955 172.464 26.955C174.644 26.9595 176.017 25.1985 176.017 22.855ZM175.911 17.1853V11.0575C175.911 10.6528 176.182 10.3015 176.573 10.1992L179.824 9.33203V30.0678H176.217V28.3069C175.31 29.6275 173.682 30.4013 171.644 30.4013C167.459 30.4013 165.008 27.0439 165.008 22.8595C165.008 18.6749 167.459 15.3176 171.644 15.3176C173.677 15.3131 175.168 16.1936 175.911 17.1853ZM153.719 15.6422V17.4032C154.382 16.1625 155.868 15.3087 158.015 15.3087C161.486 15.3087 163.331 17.621 163.331 21.0629V30.0678H159.422V21.5076C159.422 19.8266 158.706 18.6705 156.97 18.6705C155.071 18.6705 154.026 19.8801 154.026 21.81V30.0678H150.117V15.6422H153.719ZM140.975 30.4013C136.763 30.4013 134.419 28.5826 134.419 23.9044V15.6422H138.328V23.9579C138.328 25.9678 139.236 26.9016 140.971 26.9016C142.705 26.9016 143.613 25.9633 143.613 23.9579V15.6422H147.523V23.8999C147.532 28.5826 145.187 30.4013 140.975 30.4013ZM121.51 22.855C121.51 25.443 123.107 26.955 125.171 26.955C127.235 26.955 128.832 25.4386 128.832 22.855C128.832 20.2713 127.235 18.7549 125.171 18.7549C123.111 18.7549 121.51 20.2669 121.51 22.855ZM125.175 30.4013C120.549 30.4013 117.6 26.9595 117.6 22.8595C117.6 18.7595 120.545 15.3176 125.175 15.3176C129.801 15.3176 132.75 18.7595 132.75 22.8595C132.746 26.9595 129.801 30.4013 125.175 30.4013ZM105.684 22.855C105.684 25.194 107.063 26.955 109.238 26.955C111.413 26.955 112.792 25.194 112.792 22.855C112.792 20.5159 111.413 18.7549 109.238 18.7549C107.063 18.7549 105.684 20.5159 105.684 22.855ZM105.795 28.5291V34.5279C105.795 34.9327 105.523 35.2839 105.132 35.3862L101.885 36.2401V15.6422H105.492V17.4032C106.4 16.0825 108.028 15.3087 110.065 15.3087C114.251 15.3087 116.702 18.666 116.702 22.8506C116.702 27.035 114.251 30.3924 110.065 30.3924C108.023 30.4013 106.538 29.5208 105.795 28.5291ZM90.2708 21.8633V30.0678H86.361V21.5076C86.361 19.9112 85.7827 18.6705 84.0479 18.6705C82.2287 18.6705 81.2367 19.8534 81.2367 21.7833V30.0722H77.3268V15.6422H80.9342V17.4032C81.5969 16.1625 83.0293 15.3087 85.0932 15.3087C87.0503 15.3087 88.4516 16.078 89.279 17.3453C90.5466 15.9401 92.0057 15.3087 94.0695 15.3087C97.5391 15.3087 99.3005 17.7056 99.3005 21.0629V30.0678H95.3906V21.5076C95.3906 19.9112 94.8124 18.6705 93.0775 18.6705C91.2317 18.6705 90.2708 19.8534 90.2708 21.8633ZM64.2804 22.855C64.2804 25.443 65.8773 26.955 67.9412 26.955C70.0052 26.955 71.6021 25.4386 71.6021 22.855C71.6021 20.2713 70.0052 18.7549 67.9412 18.7549C65.8773 18.7549 64.2804 20.2669 64.2804 22.855ZM67.9412 30.4013C63.3151 30.4013 60.3661 26.9595 60.3661 22.8595C60.3661 18.7595 63.3107 15.3176 67.9412 15.3176C72.5717 15.3176 75.5164 18.7595 75.5164 22.8595C75.5164 26.9595 72.5672 30.4013 67.9412 30.4013ZM40.0781 20.2669C40.0781 14.1569 44.2906 10.1058 49.9085 10.1058C54.7837 10.1058 58.6402 12.9963 59.383 17.7589H55.0861C54.5079 15.3087 52.524 13.9301 49.9085 13.9301C46.3278 13.9301 44.3173 16.407 44.3173 20.2625C44.3173 24.1179 46.3278 26.5948 49.9085 26.5948C52.524 26.5948 54.5079 25.2162 55.0861 22.766H59.383C58.6402 27.5287 54.7837 30.419 49.9085 30.419C44.2906 30.4279 40.0781 26.3813 40.0781 20.2669Z" fill="#263238"/>
  <path fill-rule="evenodd" clip-rule="evenodd" d="M1.60578 31.276C0.609393 30.6667 0 29.5818 0 28.4166V21.9109C0 21.6618 0.066722 21.4218 0.191269 21.2083C0.578257 20.5412 1.43675 20.3146 2.10396 20.7058L16.7918 29.266C17.6502 29.7685 18.1796 30.6846 18.1796 31.6806V38.4221C18.1796 38.7289 18.0949 39.0357 17.9349 39.2981C17.45 40.0897 16.418 40.3387 15.6262 39.854L1.60578 31.276ZM23.4994 18.9226C24.3579 19.4251 24.8872 20.3412 24.8872 21.3372V35.0157C24.8872 35.4205 24.6693 35.794 24.3179 35.9897L21.1019 37.7996C21.0619 37.8218 21.0174 37.8396 20.9729 37.8529V30.2577C20.9729 29.2749 20.4569 28.3633 19.6118 27.8563L6.71223 20.1411V11.5675C6.71223 11.3185 6.77896 11.0784 6.9035 10.8649C7.29048 10.1979 8.14898 9.97114 8.81619 10.3624L23.4994 18.9226ZM29.9271 8.8194C30.79 9.31745 31.3193 10.2423 31.3193 11.2385V31.2183C31.3193 31.6273 31.0924 32.0052 30.7322 32.2009L27.6851 33.8463V19.9365C27.6851 18.9538 27.1692 18.0466 26.3285 17.5396L13.1442 9.63318V1.49987C13.1442 1.25084 13.2109 1.01071 13.331 0.79726C13.718 0.130232 14.5765 -0.0965579 15.2438 0.290319L29.9271 8.8194Z" fill="#00D395"/>
</svg>
