<svg width="161" height="71" viewBox="0 0 161 71" fill="none" xmlns="http://www.w3.org/2000/svg">
  <path d="M9.02796 14.7962L9.64635 14.5552C10.0174 14.3141 9.89371 14.3141 9.89371 13.9525V13.3499C9.89371 13.1088 9.77003 12.9883 9.39899 13.1088L8.90428 13.3499C8.53324 13.5909 8.65692 13.5909 8.65692 13.9525V14.5552C8.53324 14.9168 8.7806 15.0373 9.02796 14.7962Z" fill="#263434"/>
  <path d="M7.91491 15.0372V14.4346C7.91491 14.1935 7.79123 14.073 7.42019 14.1935L5.68869 15.1578C5.31765 15.3988 5.19397 15.6399 5.19397 16.122V18.8942C5.19397 19.1353 5.44133 19.2558 5.68869 19.1353C5.81237 19.1353 6.1834 18.8942 6.1834 18.8942C6.43076 18.7737 6.43076 18.5326 6.43076 18.0505V16.9657C6.43076 16.6041 6.67812 16.2425 6.92548 16.122L7.66755 15.7604C7.91491 15.3988 7.91491 15.3988 7.91491 15.0372Z" fill="#263434"/>
  <path d="M7.6676 18.0504V21.7868C7.6676 21.9073 7.79128 22.0279 7.91496 22.0279C8.03864 22.0279 8.03864 22.0279 8.16232 22.0279C8.40968 21.9073 8.78071 21.6663 8.78071 21.6663C9.02807 21.5458 9.02807 21.4252 9.02807 20.8226V18.653C9.02807 18.2914 9.15175 18.0504 9.52279 17.9298L12.6148 16.2424C12.7384 16.1219 12.8621 16.1219 13.1095 16.1219C13.2332 16.1219 13.4805 16.1219 13.6042 16.2424L17.5619 18.5325C17.6856 18.653 17.8093 18.5325 17.8093 18.412C17.8093 18.412 17.8093 18.2914 17.8093 18.1709C17.8093 17.9298 17.8093 17.5683 17.8093 17.5683C17.8093 17.3272 17.6856 17.2067 17.3146 17.0861L13.3568 14.7961C13.2332 14.6755 12.9858 14.6755 12.8621 14.6755C12.7384 14.6755 12.6148 14.6755 12.3674 14.7961L8.03864 17.2067C7.79128 17.3272 7.6676 17.5683 7.6676 18.0504Z" fill="#263434"/>
  <path d="M17.5613 23.9563C17.5613 23.8358 17.4376 23.7153 17.3139 23.5947C17.3139 23.5947 16.8192 23.2332 16.5719 23.2332C16.4482 23.2332 16.3245 23.2332 16.2008 23.2332C16.0771 23.2332 15.9535 23.2332 15.7061 23.3537L10.0169 26.608C9.89319 26.608 9.89319 26.7285 9.89319 26.7285C9.89319 26.8491 9.89319 26.8491 10.0169 26.9696C10.2642 27.2106 10.8826 27.4517 10.8826 27.4517C11.0063 27.4517 11.13 27.5722 11.13 27.5722C11.2537 27.5722 11.501 27.4517 11.7484 27.3312L17.1903 24.1974C17.4376 24.1974 17.5613 24.0769 17.5613 23.9563Z" fill="#263434"/>
  <path d="M14.4696 22.1485C14.4696 22.0279 14.3459 21.9074 14.2222 21.7869C14.2222 21.7869 13.7275 21.4253 13.4802 21.4253C13.3565 21.4253 13.2328 21.4253 13.1091 21.4253C12.9855 21.4253 12.8618 21.4253 12.7381 21.5458L7.66726 24.4385C7.54358 24.4385 7.54358 24.5591 7.54358 24.5591C7.54358 24.6796 7.54358 24.6796 7.66726 24.8001C7.91462 25.0412 8.53301 25.2823 8.53301 25.2823C8.65669 25.2823 8.78037 25.4028 8.78037 25.4028C8.90405 25.4028 9.15141 25.2823 9.39877 25.1617L14.2222 22.3895C14.3459 22.269 14.4696 22.269 14.4696 22.1485Z" fill="#263434"/>
  <path d="M30.1767 14.4346L30.7951 14.7962C31.1661 14.9167 31.2898 14.7962 31.2898 14.5551V13.9524C31.2898 13.5909 31.2898 13.4703 31.0424 13.3498L30.424 12.9882C30.053 12.8677 29.9293 12.9882 29.9293 13.2293V13.8319C29.9293 14.1935 29.9293 14.314 30.1767 14.4346Z" fill="#263434"/>
  <path d="M34.2586 15.1578L32.5271 14.1935C32.156 14.073 32.0323 14.1935 32.0323 14.4346V15.0372C32.0323 15.3988 32.0323 15.3988 32.2797 15.6399L33.0218 16.0015C33.3928 16.2425 33.5165 16.4836 33.5165 16.8452V17.93C33.5165 18.4121 33.5165 18.6531 33.7639 18.7737C33.7639 18.7737 34.1349 19.0147 34.2586 19.0147C34.5059 19.1353 34.7533 19.0147 34.7533 18.7737V16.0015C34.877 15.6399 34.7533 15.3988 34.2586 15.1578Z" fill="#263434"/>
  <path d="M27.0849 14.5549C26.9612 14.5549 26.7138 14.5549 26.5901 14.6755L22.6324 16.9655C22.2614 17.2066 22.1377 17.2066 22.1377 17.4477C22.1377 17.4477 22.1377 17.8092 22.1377 18.0503C22.1377 18.1708 22.1377 18.1708 22.1377 18.2914C22.2614 18.4119 22.3851 18.4119 22.3851 18.4119L26.3428 16.1218C26.4665 16.0013 26.5901 16.0013 26.8375 16.0013C26.9612 16.0013 27.2085 16.0013 27.3322 16.1218L30.4242 17.8092C30.6716 17.9298 30.9189 18.2914 30.9189 18.5324V20.702C30.9189 21.1841 30.9189 21.3046 31.1663 21.5457C31.1663 21.5457 31.5373 21.7867 31.7847 21.9073C31.9083 21.9073 31.9083 21.9073 32.032 21.9073C32.1557 21.9073 32.2794 21.7867 32.2794 21.6662V17.8092C32.2794 17.3271 32.1557 17.2066 31.7847 16.9655L27.4559 14.5549C27.3322 14.6755 27.2085 14.5549 27.0849 14.5549Z" fill="#263434"/>
  <path d="M29.93 26.608L24.2408 23.3537C24.1171 23.2332 23.9934 23.2332 23.7461 23.2332C23.6224 23.2332 23.4987 23.2332 23.3751 23.2332C23.1277 23.3537 22.633 23.5947 22.633 23.5947C22.5093 23.7153 22.3856 23.8358 22.3856 23.9563C22.3856 24.0769 22.3856 24.0769 22.5093 24.1974L27.9512 27.3312C28.1985 27.4517 28.4459 27.5722 28.5696 27.5722C28.6933 27.5722 28.8169 27.5722 28.8169 27.4517C28.8169 27.4517 29.4353 27.2106 29.6827 26.9696C29.8064 26.8491 29.8064 26.8491 29.8064 26.7285C30.0537 26.7285 29.93 26.7285 29.93 26.608Z" fill="#263434"/>
  <path d="M27.3325 28.5365L20.7775 24.8001V22.6305L26.5904 19.3762C26.8378 19.2557 27.0851 19.2557 27.3325 19.3762L28.693 20.0994C29.064 20.2199 29.1877 20.0994 29.1877 19.8583V19.3762C29.1877 19.0146 29.1877 18.8941 28.9403 18.7736C28.9403 18.7736 27.5798 18.0504 27.5798 17.9298C27.3325 17.8093 26.9614 17.6888 26.5904 17.9298L20.9012 21.1842V16.2424L26.7141 12.9881C26.9614 12.8676 27.2088 12.8676 27.4562 12.9881L28.8166 13.7113C29.1877 13.8318 29.3114 13.7113 29.3114 13.4702V12.8676C29.3114 12.506 29.3114 12.3855 29.064 12.2649C29.064 12.2649 27.7035 11.5417 27.7035 11.4212C27.4562 11.3007 27.0851 11.1802 26.7141 11.4212L20.7775 14.555V10.698C20.7775 10.3364 20.4065 9.97485 20.0354 9.97485C19.6644 9.97485 19.2933 10.3364 19.2933 10.698V14.555L13.6041 11.3007C13.2331 11.0596 12.862 11.1802 12.6147 11.3007L11.2542 12.1444C10.8832 12.3855 11.0068 12.3855 11.0068 12.747V13.3497C11.0068 13.5908 11.1305 13.7113 11.5016 13.5908L12.862 12.8676C13.1094 12.747 13.3568 12.747 13.6041 12.8676L19.417 16.1219V21.0636L13.7278 17.8093C13.3568 17.5682 12.9857 17.6888 12.7384 17.8093L11.3779 18.653C11.0068 18.8941 11.1305 18.8941 11.1305 19.2557V19.8583C11.1305 20.0994 11.2542 20.2199 11.6252 20.0994L12.9857 19.3762C13.2331 19.2557 13.4804 19.2557 13.7278 19.3762L19.5407 22.6305V24.8001L12.9857 28.5365C12.862 28.5365 12.862 28.657 12.862 28.657C12.862 28.7775 12.862 28.7775 12.9857 28.8981C13.2331 29.1391 13.8515 29.3802 13.8515 29.3802C13.9751 29.3802 14.0988 29.5007 14.0988 29.5007C14.2225 29.5007 14.4699 29.3802 14.7172 29.2597L19.5407 26.608V35.2862C19.5407 35.6478 19.9117 36.0093 20.2828 36.0093C20.6538 36.0093 21.0249 35.6478 21.0249 35.2862V26.608L25.8483 29.2597C26.0957 29.3802 26.3431 29.5007 26.4667 29.5007C26.5904 29.5007 26.7141 29.5007 26.7141 29.3802C26.7141 29.3802 27.3325 29.1391 27.5798 28.8981C27.7035 28.7775 27.7035 28.7775 27.7035 28.657C27.4562 28.657 27.4562 28.657 27.3325 28.5365Z" fill="#263434"/>
  <path d="M32.2795 24.3179L27.2087 21.4252C27.085 21.3047 26.9613 21.3047 26.8376 21.3047C26.714 21.3047 26.5903 21.3047 26.4666 21.3047C26.2192 21.4252 25.7245 21.6663 25.7245 21.6663C25.6009 21.7868 25.4772 21.9073 25.4772 22.0279C25.4772 22.1484 25.4772 22.1484 25.6009 22.2689L30.4243 25.0411C30.6717 25.1616 30.9191 25.2822 31.0427 25.2822C31.1664 25.2822 31.2901 25.2822 31.2901 25.1616C31.2901 25.1616 31.9085 24.9206 32.1558 24.6795C32.2795 24.559 32.2795 24.559 32.2795 24.4385C32.4032 24.4385 32.4032 24.4385 32.2795 24.3179Z" fill="#263434"/>
  <path d="M9.77126 5.99751C9.52391 5.99751 9.40023 5.87698 9.27655 5.75645C9.15287 5.39486 9.27655 5.1538 9.52391 4.91274L11.6264 3.70744C11.8738 3.58691 12.2448 3.70744 12.3685 3.9485C12.4922 4.18956 12.4922 4.55115 12.1212 4.67168L10.0186 5.87698C10.0186 5.99751 9.89494 5.99751 9.77126 5.99751Z" fill="#E8AF59"/>
  <path d="M0.618919 20.9431C0.371561 20.9431 0.124202 20.702 0.124202 20.4609V14.1934C0.000523277 11.7828 1.23731 9.61323 3.33986 8.52846L5.31872 7.32316C5.56608 7.20263 5.93712 7.32316 6.0608 7.56422C6.18448 7.80528 6.18448 8.16687 5.81344 8.2874L3.83457 9.37217C2.10307 10.3364 1.11364 12.1444 1.11364 14.0728V20.3404C1.11364 20.702 0.866277 20.9431 0.618919 20.9431Z" fill="#E8AF59"/>
  <path d="M20.036 42.9999C18.7992 42.9999 17.6861 42.7589 16.6967 42.1562L3.33934 34.6833C1.36047 33.478 0.123679 31.429 0 29.0184V25.4025C0 25.1615 0.247358 24.9204 0.494716 24.9204C0.742074 24.9204 0.989433 25.1615 0.989433 25.4025V29.0184C0.989433 30.9469 2.10254 32.7549 3.83405 33.7191L17.3151 41.192C18.1808 41.6741 19.0466 41.9152 20.036 41.9152C21.0254 41.9152 22.0149 41.6741 22.8806 41.192L28.1988 38.1787C28.4462 38.0582 28.8172 38.0582 28.9409 38.4198C29.0646 38.6608 29.0646 39.0224 28.6935 39.143L23.3753 42.1562C22.3859 42.6383 21.2728 42.9999 20.036 42.9999Z" fill="#E8AF59"/>
  <path d="M37.1038 22.0278C36.8564 22.0278 36.609 21.7867 36.609 21.5456V14.0728C36.609 12.988 35.9907 11.9032 35.0012 11.3006L32.1566 9.73369C31.9092 9.61316 31.7856 9.25157 31.9092 9.01051C32.0329 8.76945 32.404 8.64892 32.6513 8.76945L35.4959 10.3363C36.8564 11.0595 37.7222 12.5059 37.7222 13.9522V21.4251C37.5985 21.7867 37.3511 22.0278 37.1038 22.0278Z" fill="#E8AF59"/>
  <path d="M32.4035 36.8531C32.2799 36.8531 32.0325 36.7326 31.9088 36.6121L30.5484 34.8041C30.4247 34.6836 30.4247 34.5631 30.4247 34.322C30.4247 34.2015 30.5484 34.0809 30.672 33.9604L34.7534 31.6703C35.7429 31.0677 36.3613 30.1035 36.3613 28.8982V27.2107C36.3613 26.9697 36.6086 26.7286 36.856 26.7286C37.1033 26.7286 37.3507 26.9697 37.3507 27.2107V28.8982C37.3507 30.3445 36.485 31.7909 35.2482 32.5141L31.6615 34.5631L32.4035 35.5273L35.8666 33.5988C37.5981 32.6346 38.5875 30.8266 38.5875 28.8982V13.9524C38.5875 12.0239 37.4744 10.216 35.7429 9.25176C35.4955 9.13123 35.3718 8.76964 35.4955 8.52858C35.6192 8.28752 35.9902 8.16699 36.2376 8.28752C38.3401 9.49282 39.5769 11.5418 39.5769 13.8319V28.7776C39.5769 31.0677 38.3401 33.2372 36.2376 34.4425L32.2799 36.6121C32.6509 36.8531 32.5272 36.8531 32.4035 36.8531Z" fill="#E8AF59"/>
  <path d="M20.0363 40.7102C19.2942 40.7102 18.5521 40.4692 17.9337 40.1076L14.347 38.1791C14.0997 38.0586 13.976 37.697 14.0997 37.4559C14.2233 37.2149 14.5944 37.0943 14.8417 37.2149L18.4284 39.1434C18.9232 39.3844 19.4179 39.5049 20.0363 39.5049C20.6547 39.5049 21.1494 39.3844 21.6441 39.0228L29.0648 34.8043C29.3122 34.6837 29.6832 34.6837 29.8069 35.0453C29.9306 35.2864 29.9306 35.648 29.5596 35.7685L22.1388 39.9871C21.5204 40.4692 20.7783 40.7102 20.0363 40.7102Z" fill="#E8AF59"/>
  <path d="M9.64667 35.4066C9.52299 35.4066 9.39932 35.4066 9.39932 35.2861L4.57583 32.6344C3.21536 31.9113 2.34961 30.4649 2.34961 29.0185V18.5324C2.34961 18.2914 2.59697 18.0503 2.84433 18.0503C3.09168 18.0503 3.33904 18.2914 3.33904 18.5324V29.0185C3.33904 30.1033 3.95744 31.1881 4.94687 31.7907L9.89403 34.4424C10.1414 34.5629 10.2651 34.9245 10.1414 35.1656C10.0177 35.2861 9.77035 35.4066 9.64667 35.4066Z" fill="#E8AF59"/>
  <path d="M2.84433 14.6757C2.59697 14.6757 2.34961 14.4346 2.34961 14.1936C2.34961 12.7472 3.21536 11.3009 4.45215 10.5777L10.5124 7.08231C10.8835 6.84125 11.1308 6.84125 11.3782 7.20284C11.5019 7.4439 11.3782 7.68496 11.1308 7.92602L5.07055 11.3009C4.08112 11.9035 3.46272 12.8678 3.46272 14.0731C3.46272 14.4346 3.21536 14.6757 2.84433 14.6757Z" fill="#E8AF59"/>
  <path d="M28.4462 7.68379C28.3226 7.68379 28.1989 7.68379 28.1989 7.56326L21.5202 3.82683C20.5308 3.22418 19.294 3.34471 18.3046 3.82683L14.2231 6.1169C13.9758 6.23743 13.6048 6.23743 13.4811 5.87584C13.3574 5.63478 13.3574 5.27319 13.7284 5.15266L17.8098 2.86259C19.1703 2.13941 20.7781 2.13941 22.1386 2.86259L28.4462 6.35796L29.1883 5.39372L22.757 1.77782C21.1492 0.813578 18.923 0.813578 17.1914 1.77782L14.5942 3.22418C14.3468 3.34471 13.9758 3.34471 13.8521 2.98312C13.7284 2.74206 13.7284 2.38047 14.0995 2.25994L16.6967 0.813578C18.6756 -0.271193 21.3965 -0.271193 23.3754 0.813578L30.3014 4.67054C30.4251 4.79107 30.5488 4.9116 30.5488 5.03213C30.5488 5.15266 30.5488 5.39372 30.4251 5.51425L29.0646 7.3222C28.8173 7.56326 28.6936 7.68379 28.4462 7.68379Z" fill="#E8AF59"/>
  <g clip-path="url(#clip0)">
    <path d="M79.5503 10.1497C79.2643 10.1497 79.0444 10.1922 78.8684 10.2774C78.7144 10.3626 78.5605 10.4904 78.4065 10.682L71.9618 18.9012L65.561 10.6607C65.4071 10.4691 65.2531 10.3413 65.0771 10.2561C64.9012 10.1922 64.6592 10.1497 64.3513 10.1497C63.9554 10.1497 63.6474 10.2348 63.3835 10.3839C63.1195 10.5542 62.9875 10.7885 62.9875 11.1504V21.3712H65.2971V14.1315L70.818 21.137C71.0819 21.4564 71.4339 21.6055 71.9398 21.6055C72.4237 21.6055 72.7976 21.4564 73.0615 21.137L78.6044 14.1315V21.3712H80.914V11.1504C80.914 10.8098 80.782 10.5542 80.5181 10.3839C80.2541 10.2348 79.9242 10.1497 79.5503 10.1497Z" fill="#263434"/>
    <path d="M142.238 10.149C141.952 10.149 141.732 10.1916 141.556 10.2767C141.402 10.3619 141.248 10.4897 141.094 10.6813L134.649 18.9005L128.249 10.66C128.095 10.4684 127.941 10.3406 127.765 10.2554C127.589 10.1703 127.347 10.1277 127.039 10.1277C126.643 10.1277 126.335 10.2129 126.071 10.3619C125.807 10.5323 125.675 10.7665 125.675 11.1285V21.3493H127.985V14.1095L133.505 21.115C133.769 21.4344 134.121 21.5835 134.627 21.5835C135.111 21.5835 135.485 21.4344 135.749 21.115L141.292 14.1095V21.3493H143.601V11.1285C143.601 10.7878 143.47 10.5323 143.206 10.3619C142.942 10.2342 142.612 10.149 142.238 10.149Z" fill="#263434"/>
    <path d="M88.3704 10.384H85.8409V21.3714H88.3704V10.384Z" fill="#263434"/>
    <path d="M154.489 17.6449H156.491C157.261 17.6449 157.943 17.6023 158.515 17.4958C159.086 17.3893 159.548 17.2403 159.922 16.9848C160.296 16.7505 160.56 16.4099 160.736 16.0053C160.912 15.6007 161 15.0684 161 14.4296V13.663C161 13.0029 160.912 12.4706 160.758 12.0447C160.582 11.6189 160.318 11.2782 159.966 11.0226C159.614 10.7671 159.152 10.5968 158.581 10.5116C158.009 10.4051 157.327 10.3625 156.535 10.3625H147.649V12.428H156.359C156.777 12.428 157.107 12.4493 157.393 12.4706C157.679 12.5132 157.877 12.5771 158.053 12.6622C158.207 12.7687 158.317 12.8965 158.383 13.0881C158.449 13.2797 158.493 13.514 158.493 13.7908V14.4083C158.493 14.7064 158.449 14.9406 158.383 15.1323C158.317 15.3239 158.207 15.4517 158.031 15.5581C157.877 15.6646 157.657 15.7285 157.371 15.7498C157.107 15.7923 156.755 15.7923 156.337 15.7923H147.627V21.3712H150.134V17.6449H154.489Z" fill="#263434"/>
    <path d="M49.5702 19.2207C49.3283 19.1781 49.1523 19.0929 49.0203 18.9652C48.8883 18.8374 48.8004 18.6671 48.7564 18.4541C48.7124 18.2412 48.6904 17.9644 48.6904 17.6237V16.8571H58.3465V14.9194H46.1609V17.6024C46.1609 18.3051 46.2269 18.88 46.3588 19.3697C46.4908 19.8382 46.7328 20.2428 47.0627 20.5196C47.3926 20.8177 47.8326 21.0306 48.4044 21.1584C48.9543 21.2861 49.6582 21.35 50.494 21.35H58.4125V19.3059H50.494C50.1201 19.3059 49.8122 19.2633 49.5702 19.2207Z" fill="#263434"/>
    <path d="M58.3905 10.384H50.4941C49.6582 10.384 48.9764 10.4479 48.4045 10.5757C47.8546 10.7034 47.4147 10.9164 47.0627 11.2145C46.7328 11.5126 46.4909 11.8959 46.3589 12.3856C46.3589 12.3856 46.3589 12.4069 46.3589 12.4282H58.3905V10.384Z" fill="#263434"/>
    <path d="M79.0004 29.8035H46.3589V30.2932H79.0004V29.8035Z" fill="#E8AF59"/>
    <path d="M160.978 29.8035H128.337V30.2932H160.978V29.8035Z" fill="#E8AF59"/>
    <path d="M97.1907 21.4351C96.3548 21.4351 95.673 21.3712 95.1011 21.2434C94.5512 21.1157 94.1113 20.9027 93.7813 20.6046C93.4514 20.3065 93.2095 19.9232 93.0775 19.4548C92.9455 18.9863 92.8795 18.3901 92.8795 17.6874V14.2166C92.8795 13.5352 92.9455 12.939 93.0775 12.4706C93.2095 11.9808 93.4514 11.5975 93.7813 11.2994C94.1113 11.0013 94.5512 10.7884 95.1011 10.6606C95.651 10.5329 96.3548 10.469 97.1907 10.469H105.065V12.577H97.3226C96.9267 12.577 96.6188 12.5983 96.3768 12.6622C96.1349 12.7261 95.9369 12.8113 95.7829 12.9603C95.629 13.1094 95.541 13.2797 95.475 13.5139C95.409 13.7482 95.387 14.025 95.387 14.3657V17.581C95.387 17.9217 95.409 18.1985 95.475 18.4327C95.541 18.6669 95.629 18.8373 95.7829 18.9863C95.9369 19.1354 96.1349 19.2206 96.3768 19.2844C96.6408 19.3483 96.9487 19.3696 97.3446 19.3696H105.087V21.4351H97.1907Z" fill="#263434"/>
    <path d="M113.093 21.4351C112.258 21.4351 111.576 21.3712 111.004 21.2434C110.454 21.1157 110.014 20.9027 109.684 20.6046C109.354 20.3065 109.112 19.9232 108.98 19.4548C108.848 18.9863 108.782 18.3901 108.782 17.6874V14.2166C108.782 13.5352 108.848 12.939 108.98 12.4706C109.112 11.9808 109.354 11.5975 109.684 11.2994C110.014 11.0013 110.454 10.7884 111.004 10.6606C111.554 10.5329 112.258 10.469 113.093 10.469H117.405C118.24 10.469 118.944 10.5329 119.494 10.6606C120.044 10.7884 120.484 11.0013 120.814 11.2994C121.144 11.5975 121.386 11.9808 121.518 12.4706C121.65 12.9603 121.716 13.5352 121.716 14.2166V17.6661C121.716 18.3688 121.65 18.9437 121.518 19.4335C121.386 19.9019 121.144 20.3065 120.814 20.5833C120.484 20.8814 120.044 21.0944 119.494 21.2221C118.944 21.3499 118.24 21.4138 117.405 21.4138H113.093V21.4351ZM119.23 14.3444C119.23 14.0037 119.208 13.7269 119.142 13.4926C119.076 13.2584 118.988 13.0881 118.834 12.939C118.68 12.79 118.504 12.7048 118.24 12.6409C117.998 12.577 117.69 12.5557 117.317 12.5557H113.225C112.829 12.5557 112.499 12.577 112.258 12.6409C112.016 12.7048 111.818 12.79 111.664 12.939C111.51 13.0881 111.422 13.2584 111.378 13.4926C111.334 13.7269 111.312 14.0037 111.312 14.3444V17.581C111.312 17.943 111.334 18.2198 111.378 18.454C111.422 18.6882 111.532 18.8586 111.664 19.0076C111.818 19.1354 111.994 19.2418 112.258 19.2844C112.521 19.327 112.829 19.3483 113.225 19.3483H117.317C117.69 19.3483 117.998 19.327 118.24 19.2844C118.482 19.2418 118.68 19.1354 118.834 19.0076C118.988 18.8799 119.076 18.6882 119.142 18.454C119.208 18.2198 119.23 17.9217 119.23 17.581V14.3444Z" fill="#263434"/>
    <path d="M90.6581 35.0415C90.5041 34.8924 90.3721 34.8072 90.2841 34.7646H90.2401C90.2401 34.7646 90.1961 34.8072 90.1082 34.8711C90.0202 34.935 89.9542 35.0202 89.8662 35.1053C89.7782 35.1905 89.6902 35.2757 89.6243 35.3609C89.5583 35.446 89.5143 35.4886 89.5143 35.4886V35.5312C89.6683 35.6164 89.8002 35.7016 89.9322 35.8293C90.0642 35.9571 90.1742 36.0848 90.2621 36.17H90.3061C90.3501 36.1274 90.3941 36.0848 90.4601 36.021C90.5261 35.9571 90.5921 35.8932 90.6581 35.8293C90.724 35.7654 90.812 35.6803 90.878 35.6164C90.944 35.5525 91.01 35.4886 91.054 35.446V35.4034C90.944 35.3183 90.812 35.1905 90.6581 35.0415Z" fill="#E8AF59"/>
    <path d="M102.03 30.0377C101.854 29.8248 101.656 29.6545 101.436 29.5054C101.216 29.3564 100.996 29.2925 100.776 29.2925C100.688 29.2925 100.6 29.3138 100.468 29.3351C100.336 29.3564 100.182 29.4415 100.028 29.548C99.8522 29.6758 99.6763 29.8461 99.5003 30.059C99.3243 30.272 99.1264 30.5914 98.9504 30.9747C98.8184 31.2515 98.7085 31.4857 98.5765 31.6347C98.4445 31.8051 98.3125 31.9329 98.2026 32.018C98.0926 32.1032 97.9606 32.1671 97.8506 32.1884C97.7407 32.2097 97.6527 32.231 97.5647 32.231C97.2348 32.231 96.9928 32.2097 96.7948 32.1671C96.5969 32.1245 96.4429 32.0819 96.3329 31.9967C96.223 31.9116 96.135 31.8264 96.113 31.7199C96.069 31.6135 96.047 31.4857 96.047 31.3579C96.047 31.2515 96.047 31.145 96.069 31.0385C96.091 30.9321 96.113 30.8469 96.135 30.7617L96.245 30.4636C96.223 30.4423 96.179 30.421 96.135 30.421C96.091 30.421 96.047 30.4423 96.003 30.4849C95.959 30.5275 95.893 30.5914 95.805 30.6765C95.7171 30.7617 95.6291 30.8469 95.4971 30.9321C95.3651 31.0385 95.2112 31.1237 95.0132 31.2089C94.7053 31.3366 94.3093 31.4857 93.8474 31.6347C93.3635 31.7838 92.8576 31.9116 92.2857 32.018C91.7139 32.1245 91.098 32.2097 90.4601 32.2948C89.8222 32.3587 89.1624 32.4013 88.5025 32.4013C87.7986 32.4013 87.2048 32.3587 86.6989 32.2523C86.193 32.1671 85.797 32.018 85.4671 31.8264C85.1592 31.6347 84.9172 31.4005 84.7852 31.1237C84.6313 30.8469 84.5653 30.5275 84.5653 30.1868C84.5653 30.1442 84.5653 30.0803 84.5873 29.9739C84.5873 29.8674 84.6093 29.7822 84.6093 29.7183C84.5873 29.6971 84.5653 29.6758 84.5213 29.6758C84.4993 29.6758 84.4773 29.6758 84.4773 29.6971C84.3893 29.7822 84.3013 29.9526 84.2353 30.1868C84.1474 30.421 84.1254 30.7191 84.1254 31.0598C84.1254 31.3792 84.1914 31.6986 84.3013 32.018C84.4113 32.3374 84.6093 32.6142 84.8952 32.8698C85.1812 33.1253 85.5551 33.3169 86.039 33.4873C86.5229 33.6363 87.1388 33.7215 87.8866 33.7215C88.3485 33.7215 88.8984 33.7002 89.5143 33.6363C90.1302 33.5724 90.79 33.466 91.4719 33.3382C92.1538 33.2105 92.8356 33.0401 93.5395 32.8485C94.2214 32.6568 94.8592 32.4226 95.4531 32.1671C95.4751 32.3161 95.5191 32.4652 95.5631 32.5929C95.6071 32.7207 95.6951 32.8485 95.849 32.9549C95.981 33.0614 96.179 33.1466 96.3989 33.2317C96.6189 33.2956 96.9268 33.3382 97.3227 33.3382C97.7187 33.3382 98.0486 33.2317 98.2905 33.0401C98.5325 32.8485 98.7085 32.6142 98.8404 32.38L98.8844 32.2948C99.2803 32.6994 99.7203 32.9762 100.204 33.1466C100.688 33.3169 101.128 33.4021 101.568 33.4021C101.656 33.4021 101.766 33.3382 101.898 33.2105C102.03 33.0827 102.14 32.9336 102.272 32.742C102.382 32.5504 102.492 32.3374 102.58 32.1245C102.668 31.9116 102.712 31.6986 102.712 31.5283C102.712 31.2728 102.668 30.9959 102.558 30.7404C102.338 30.4849 102.206 30.2507 102.03 30.0377ZM101.898 32.4439C101.81 32.4652 101.7 32.4865 101.568 32.4865C101.392 32.4865 101.194 32.4652 100.974 32.4226C100.754 32.38 100.534 32.3161 100.292 32.2097C100.072 32.1245 99.8522 31.9967 99.6543 31.869C99.4563 31.7412 99.2803 31.5709 99.1484 31.4005C99.3243 31.0385 99.5003 30.7404 99.7203 30.5488C99.9402 30.3571 100.182 30.2507 100.468 30.2507C100.644 30.2507 100.82 30.3146 100.996 30.4636C101.172 30.5914 101.348 30.7617 101.502 30.9747C101.656 31.1876 101.766 31.4005 101.876 31.6347C101.964 31.869 102.03 32.1032 102.03 32.2948C102.03 32.3587 101.986 32.4226 101.898 32.4439Z" fill="#E8AF59"/>
    <path d="M115.667 38.9594L115.403 39.4705L117.691 38.5335C117.845 38.4697 117.977 38.3632 118.109 38.2141C118.219 38.0651 118.306 37.9586 118.372 37.8522L118.328 37.8096L115.667 38.9594Z" fill="#E8AF59"/>
    <path d="M119.099 30.0377C118.923 29.8247 118.725 29.6544 118.505 29.5053C118.285 29.3563 118.065 29.2924 117.845 29.2924C117.757 29.2924 117.669 29.3137 117.537 29.335C117.405 29.3563 117.251 29.4415 117.097 29.5479C116.921 29.6757 116.745 29.846 116.569 30.059C116.393 30.2719 116.195 30.5913 116.019 30.9746C115.887 31.2514 115.777 31.4856 115.645 31.6347C115.513 31.805 115.381 31.9328 115.271 32.018C115.161 32.1031 115.029 32.167 114.919 32.1883C114.809 32.2096 114.721 32.2309 114.633 32.2309C114.369 32.2309 114.127 32.2096 113.908 32.1457C113.688 32.0818 113.468 31.9754 113.226 31.805C113.006 31.6347 112.764 31.4217 112.544 31.1662C112.302 30.8894 112.038 30.5487 111.752 30.1441C111.334 29.5479 111.004 29.0369 110.718 28.611C110.432 28.1852 110.212 27.8232 110.036 27.5464C109.838 27.2057 109.662 26.9289 109.552 26.6733C109.728 26.5669 109.97 26.4391 110.278 26.3113C110.586 26.1836 110.938 26.0345 111.334 25.8855C111.73 25.7364 112.126 25.5874 112.566 25.4383C112.984 25.2893 113.402 25.1402 113.776 25.0125C113.842 24.9912 113.908 24.9273 113.974 24.8421C114.061 24.7356 114.127 24.6505 114.193 24.544C114.259 24.4375 114.325 24.3311 114.369 24.2459C114.413 24.1607 114.457 24.0968 114.457 24.0755L114.413 24.033C113.996 24.1181 113.534 24.2459 113.05 24.3949C112.566 24.544 112.082 24.7143 111.598 24.8847C111.114 25.055 110.674 25.2467 110.278 25.417C109.86 25.5874 109.552 25.7577 109.288 25.8855C109.244 25.9281 109.178 26.0132 109.112 26.1197C109.047 26.2262 108.981 26.3539 108.937 26.4817C108.893 26.6095 108.849 26.7585 108.805 26.8863C108.761 27.014 108.761 27.1205 108.761 27.2057C108.761 27.2483 108.827 27.3547 108.937 27.5251C109.046 27.6954 109.178 27.9296 109.354 28.1639C109.53 28.4194 109.706 28.6962 109.904 28.9943C110.102 29.2924 110.278 29.5905 110.454 29.8886C110.63 30.1867 110.762 30.4423 110.872 30.6978C110.982 30.9533 111.048 31.1449 111.048 31.2727C111.048 31.5708 110.85 31.805 110.476 31.9754C110.102 32.1457 109.442 32.2309 108.519 32.2309H107.551C107.551 31.8902 107.507 31.5495 107.419 31.2088C107.331 30.8681 107.221 30.5487 107.045 30.2719C106.891 29.9951 106.693 29.7609 106.473 29.5905C106.253 29.4202 105.989 29.3137 105.725 29.3137C105.461 29.3137 105.241 29.3989 105.021 29.5692C104.801 29.7396 104.625 29.9525 104.471 30.2293C104.317 30.4848 104.207 30.7617 104.119 31.0598C104.031 31.3579 104.009 31.6347 104.009 31.8902C104.009 32.8484 104.647 33.3169 105.923 33.3169H107.023C107.001 33.5511 106.935 33.8066 106.803 34.126C106.671 34.4241 106.451 34.7222 106.143 35.0203C105.835 35.2971 105.417 35.5527 104.889 35.7656C104.361 35.9785 103.702 36.085 102.888 36.1276L102.866 36.2127C103.108 36.2979 103.372 36.3831 103.658 36.447C103.878 36.5109 104.119 36.5747 104.361 36.6173C104.603 36.6599 104.823 36.6812 104.999 36.6812C105.219 36.6812 105.461 36.596 105.725 36.4257C105.989 36.2553 106.253 36.0211 106.495 35.723C106.737 35.4249 106.957 35.0842 107.133 34.6796C107.309 34.2751 107.441 33.8279 107.485 33.3594H108.211C108.783 33.3594 109.244 33.3169 109.618 33.2317C109.992 33.1465 110.3 33.0187 110.542 32.8484C110.784 32.6781 110.96 32.4864 111.092 32.2522C111.224 32.018 111.334 31.7624 111.422 31.4856C111.686 31.8263 111.95 32.1244 112.192 32.3587C112.434 32.5929 112.676 32.7845 112.918 32.9336C113.16 33.0826 113.38 33.1891 113.622 33.253C113.864 33.3169 114.083 33.3594 114.325 33.3594C114.325 33.3594 114.325 33.3594 114.347 33.3594C114.743 33.3594 115.051 33.253 115.293 33.0613C115.535 32.8697 115.711 32.6355 115.843 32.4012L115.887 32.3161C116.283 32.7206 116.723 32.9975 117.207 33.1678C117.691 33.3381 118.131 33.4233 118.571 33.4233C118.659 33.4233 118.769 33.3594 118.901 33.2317C119.033 33.1039 119.142 32.9549 119.274 32.7632C119.384 32.5716 119.494 32.3587 119.582 32.1457C119.67 31.9328 119.714 31.7199 119.714 31.5495C119.714 31.294 119.67 31.0172 119.56 30.7617C119.406 30.4848 119.274 30.2506 119.099 30.0377ZM106.407 32.2735C105.769 32.2735 105.263 32.2309 104.933 32.1457C104.603 32.0605 104.427 31.9115 104.427 31.656C104.427 31.5069 104.449 31.3579 104.515 31.2088C104.581 31.0598 104.647 30.9107 104.757 30.8042C104.867 30.6765 104.977 30.5913 105.109 30.5061C105.241 30.421 105.373 30.3997 105.505 30.3997C105.703 30.3997 105.879 30.4423 106.033 30.5487C106.209 30.6552 106.363 30.7829 106.495 30.932C106.627 31.1023 106.737 31.294 106.847 31.5282C106.935 31.7624 107.001 31.9967 107.023 32.2735H106.407ZM118.967 32.4438C118.879 32.4651 118.769 32.4864 118.637 32.4864C118.461 32.4864 118.263 32.4651 118.043 32.4225C117.823 32.3799 117.603 32.3161 117.361 32.2096C117.141 32.1244 116.921 31.9967 116.723 31.8689C116.525 31.7411 116.349 31.5708 116.217 31.4005C116.393 31.0385 116.569 30.7404 116.789 30.5487C117.009 30.3571 117.251 30.2506 117.537 30.2506C117.713 30.2506 117.889 30.3145 118.065 30.4635C118.241 30.5913 118.417 30.7617 118.571 30.9746C118.725 31.1875 118.835 31.4005 118.945 31.6347C119.033 31.8689 119.099 32.1031 119.099 32.2948C119.099 32.3587 119.055 32.4225 118.967 32.4438Z" fill="#E8AF59"/>
    <path d="M123.212 36.021C123.058 36.0849 122.904 36.1488 122.772 36.1914C122.64 36.234 122.464 36.2553 122.244 36.2553C122.068 36.2553 121.914 36.2127 121.76 36.1488C121.628 36.0636 121.562 35.9572 121.562 35.7655C121.562 35.659 121.584 35.5739 121.628 35.4887C121.672 35.4035 121.738 35.3396 121.804 35.2971C121.87 35.2545 121.958 35.2119 122.046 35.1906C122.134 35.1693 122.222 35.1693 122.288 35.1693C122.53 35.1693 122.728 35.2119 122.838 35.3183C122.926 35.2119 122.948 35.0841 122.948 34.9351C122.948 34.8286 122.904 34.7434 122.794 34.7008C122.706 34.6583 122.596 34.637 122.508 34.637C122.31 34.637 122.134 34.7008 121.958 34.8073C121.782 34.9138 121.628 35.0415 121.474 35.1906C121.342 35.3396 121.232 35.4887 121.144 35.659C121.056 35.8294 121.012 35.9572 121.012 36.0849C121.012 36.234 121.056 36.3617 121.144 36.4469C121.232 36.5321 121.32 36.596 121.43 36.6385L121.078 36.8302C120.968 36.8941 120.902 37.0005 120.88 37.1283C120.858 37.256 120.858 37.3625 120.858 37.4264L121.606 37.0644C121.826 36.9579 122.068 36.8515 122.354 36.745C122.618 36.6385 122.904 36.5321 123.168 36.4682L123.212 36.021Z" fill="#E8AF59"/>
    <path d="M121.518 26.5028C121.562 26.95 121.584 27.4185 121.628 27.9082C121.65 28.398 121.672 28.8877 121.694 29.3775C121.716 29.8672 121.716 30.2931 121.716 30.6551C121.716 31.3364 121.716 31.9114 121.694 32.4011C121.672 32.8909 121.65 33.2315 121.606 33.4658L121.672 33.5297H121.738C121.892 33.2954 122.024 33.0825 122.134 32.8909C122.244 32.6992 122.332 32.5076 122.376 32.3372C122.442 32.1669 122.464 31.9752 122.486 31.7836C122.508 31.592 122.508 31.379 122.508 31.1448C122.508 30.7615 122.508 30.3357 122.508 29.8672C122.508 29.3987 122.486 28.9303 122.464 28.4405C122.442 27.9508 122.42 27.4823 122.398 27.0139C122.376 26.5454 122.332 26.1196 122.31 25.715C122.288 25.3104 122.266 24.9697 122.222 24.6716C122.2 24.3735 122.178 24.1606 122.156 24.0115L122.112 23.9902L121.474 24.7568C121.43 24.8207 121.408 24.8846 121.386 24.9484C121.364 25.0123 121.364 25.0762 121.364 25.1614C121.364 25.1827 121.364 25.204 121.364 25.2465C121.364 25.2891 121.364 25.3317 121.386 25.353C121.43 25.6937 121.474 26.0557 121.518 26.5028Z" fill="#E8AF59"/>
  </g>
  <rect x="60" y="69" width="40" height="2" fill="#DBDEDE"/>
  <defs>
    <clipPath id="clip0">
      <rect width="114.839" height="29.3209" fill="white" transform="translate(46.1609 10.1497)"/>
    </clipPath>
  </defs>
</svg>
