<svg width="125" height="34" viewBox="0 0 125 34" fill="none" xmlns="http://www.w3.org/2000/svg">
  <path d="M66.8519 7.875C66.5552 7.875 66.3574 7.875 66.2585 7.97017C66.1596 8.06533 65.9618 8.1605 65.8629 8.35083L60.0283 15.7738L54.1936 8.35083C54.0947 8.1605 53.8969 8.06533 53.798 7.97017C53.6003 7.875 53.4025 7.875 53.1058 7.875C52.7102 7.875 52.4135 7.97017 52.2158 8.06533C52.018 8.25566 51.8202 8.446 51.8202 8.7315V17.9626H53.8969V11.4913L58.9405 17.7723C59.1382 18.0578 59.5338 18.1529 59.9294 18.1529C60.325 18.1529 60.7205 18.0578 60.9183 17.7723L65.9618 11.4913V17.9626H68.0386V8.82666C68.0386 8.54116 67.9397 8.25566 67.643 8.1605C67.5441 7.97017 67.2474 7.875 66.8519 7.875Z" fill="white"/>
  <path d="M74.8617 8.16064H72.5872V18.0579H74.8617V8.16064Z" fill="white"/>
  <path d="M87.4214 14.6319C88.1137 14.6319 88.707 14.6319 89.2015 14.5368C89.6959 14.4416 90.0915 14.2513 90.4871 14.0609C90.8827 13.8706 91.0805 13.5851 91.2782 13.2044C91.476 12.8238 91.476 12.3479 91.476 11.777V11.1108C91.476 10.5398 91.3771 10.064 91.2782 9.6833C91.0805 9.30264 90.8827 9.01714 90.586 8.73164C90.2893 8.54131 89.7948 8.35098 89.3004 8.25581C88.8059 8.16064 88.2126 8.16064 87.4214 8.16064H79.4111V9.9688H87.3225C87.7181 9.9688 88.0148 9.9688 88.2126 9.9688C88.5092 9.9688 88.707 10.064 88.8059 10.1591C88.9048 10.2543 89.0037 10.3495 89.1026 10.5398C89.2015 10.7301 89.2015 10.9205 89.2015 11.206V11.777C89.2015 12.0624 89.2015 12.2528 89.1026 12.4431C89.0037 12.6334 88.9048 12.7286 88.8059 12.8238C88.707 12.9189 88.5092 13.0141 88.2126 13.0141C88.0148 13.0141 87.6192 13.0141 87.3225 13.0141H79.4111V18.0579H81.6857V14.4416L87.7181 18.0579H91.6738L85.6414 14.7271H87.4214V14.6319Z" fill="white"/>
  <path d="M98.5969 16.0581C98.3991 16.0581 98.2014 15.9629 98.1025 15.7726C98.0036 15.6774 97.9047 15.4871 97.8058 15.2967C97.8058 15.1064 97.7069 14.8209 97.7069 14.5354V13.8692H106.409V12.1562H95.5312V14.6306C95.5312 15.2967 95.6301 15.7726 95.729 16.2484C95.8279 16.7242 96.0257 17.0097 96.3224 17.2952C96.6191 17.5807 97.0146 17.7711 97.5091 17.8662C98.0036 17.9614 98.5969 18.0566 99.3881 18.0566H106.508V16.1532H99.3881C99.0914 16.1532 98.7947 16.1532 98.5969 16.0581Z" fill="white"/>
  <path d="M106.607 8.16064H99.4863C98.6951 8.16064 98.1018 8.25581 97.6073 8.35097C97.1129 8.44614 96.7173 8.63647 96.4206 8.92196C96.1239 9.20746 95.9262 9.49295 95.8273 9.96878H106.705V8.16064H106.607Z" fill="white"/>
  <path d="M39.7551 16.0581C39.5573 16.0581 39.3596 15.9629 39.2607 15.7726C39.1618 15.6774 39.0629 15.4871 38.964 15.2967C38.964 15.1064 38.8651 14.8209 38.8651 14.5354V13.8692H47.5676V12.1562H36.6895V14.6306C36.6895 15.2967 36.7883 15.7726 36.8872 16.2484C36.9861 16.7242 37.1839 17.0097 37.4806 17.2952C37.7773 17.5807 38.1728 17.7711 38.6673 17.8662C39.1618 17.9614 39.7551 18.0566 40.5463 18.0566H47.6665V16.1532H40.5463C40.2496 16.1532 39.9529 16.1532 39.7551 16.0581Z" fill="white"/>
  <path d="M47.765 8.16064H40.5459C39.7547 8.16064 39.1614 8.25581 38.6669 8.35097C38.1724 8.44614 37.7769 8.63647 37.4802 8.92196C37.1835 9.20746 36.9857 9.49295 36.8868 9.96878H47.765V8.16064Z" fill="white"/>
  <path d="M125 18.0579L119.264 12.9189L124.802 8.16064H121.737L117.682 11.5866L113.628 8.16064H110.364L115.902 12.9189L110.067 18.0579H113.232L117.583 14.3464L121.638 18.0579H125Z" fill="white"/>
  <path d="M7.21934 11.6817L7.71381 11.4913C8.01049 11.301 7.91159 11.301 7.91159 11.0155V10.5397C7.91159 10.3493 7.8127 10.2542 7.51602 10.3493L7.12045 10.5397C6.82377 10.73 6.92267 10.73 6.92267 11.0155V11.4913C6.82377 11.7768 7.02156 11.872 7.21934 11.6817Z" fill="white"/>
  <path d="M6.32919 11.8717V11.3959C6.32919 11.2055 6.2303 11.1104 5.93362 11.2055L4.54913 11.9669C4.25246 12.1573 4.15356 12.3476 4.15356 12.7283V14.9172C4.15356 15.1076 4.35135 15.2027 4.54913 15.1076C4.64803 15.1076 4.9447 14.9172 4.9447 14.9172C5.14249 14.822 5.14249 14.6317 5.14249 14.251V13.3945C5.14249 13.109 5.34027 12.8235 5.53806 12.7283L6.13141 12.4428C6.32919 12.1573 6.32919 12.1573 6.32919 11.8717Z" fill="white"/>
  <path d="M6.13147 14.2511V17.2012C6.13147 17.2963 6.23036 17.3915 6.32926 17.3915C6.42815 17.3915 6.42815 17.3915 6.52704 17.3915C6.72482 17.2963 7.0215 17.106 7.0215 17.106C7.21929 17.0108 7.21929 16.9157 7.21929 16.4399V14.7269C7.21929 14.4414 7.31818 14.2511 7.61486 14.1559L10.0872 12.8236C10.1861 12.7284 10.285 12.7284 10.4827 12.7284C10.5816 12.7284 10.7794 12.7284 10.8783 12.8236L14.0429 14.6317C14.1418 14.7269 14.2407 14.6317 14.2407 14.5365C14.2407 14.5365 14.2407 14.4414 14.2407 14.3462C14.2407 14.1559 14.2407 13.8704 14.2407 13.8704C14.2407 13.6801 14.1418 13.5849 13.8451 13.4897L10.6805 11.6816C10.5816 11.5864 10.3838 11.5864 10.285 11.5864C10.1861 11.5864 10.0872 11.5864 9.88939 11.6816L6.42815 13.5849C6.23036 13.6801 6.13147 13.8704 6.13147 14.2511Z" fill="white"/>
  <path d="M14.0427 18.9142C14.0427 18.8191 13.9438 18.7239 13.8449 18.6288C13.8449 18.6288 13.4494 18.3433 13.2516 18.3433C13.1527 18.3433 13.0538 18.3433 12.9549 18.3433C12.856 18.3433 12.7571 18.3433 12.5593 18.4384L8.01027 21.0079C7.91138 21.0079 7.91138 21.103 7.91138 21.103C7.91138 21.1982 7.91138 21.1982 8.01027 21.2934C8.20806 21.4837 8.70252 21.674 8.70252 21.674C8.80141 21.674 8.9003 21.7692 8.9003 21.7692C8.9992 21.7692 9.19698 21.674 9.39477 21.5789L13.746 19.1046C13.9438 19.1046 14.0427 19.0094 14.0427 18.9142Z" fill="white"/>
  <path d="M11.5703 17.4851C11.5703 17.3899 11.4714 17.2947 11.3725 17.1996C11.3725 17.1996 10.977 16.9141 10.7792 16.9141C10.6803 16.9141 10.5814 16.9141 10.4825 16.9141C10.3836 16.9141 10.2847 16.9141 10.1858 17.0092L6.13124 19.2932C6.03235 19.2932 6.03235 19.3884 6.03235 19.3884C6.03235 19.4836 6.03235 19.4836 6.13124 19.5787C6.32903 19.7691 6.82349 19.9594 6.82349 19.9594C6.92238 19.9594 7.02127 20.0546 7.02127 20.0546C7.12017 20.0546 7.31795 19.9594 7.51574 19.8642L11.3725 17.6754C11.4714 17.5802 11.5703 17.5802 11.5703 17.4851Z" fill="white"/>
  <path d="M24.1305 11.3943L24.625 11.6798C24.9217 11.775 25.0206 11.6798 25.0206 11.4895V11.0136C25.0206 10.7281 25.0206 10.6329 24.8228 10.5377L24.3283 10.2522C24.0316 10.157 23.9327 10.2522 23.9327 10.4425V10.9184C23.9327 11.2039 23.9327 11.2991 24.1305 11.3943Z" fill="white"/>
  <path d="M27.3931 11.9669L26.0086 11.2055C25.7119 11.1104 25.613 11.2055 25.613 11.3959V11.8717C25.613 12.1572 25.613 12.1572 25.8108 12.3476L26.4042 12.6331C26.7009 12.8234 26.7997 13.0138 26.7997 13.2993V14.1558C26.7997 14.5365 26.7997 14.7268 26.9975 14.822C26.9975 14.822 27.2942 15.0123 27.3931 15.0123C27.5909 15.1075 27.7887 15.0123 27.7887 14.822V12.6331C27.8876 12.3476 27.7887 12.1572 27.3931 11.9669Z" fill="white"/>
  <path d="M21.6576 11.4917C21.5587 11.4917 21.3609 11.4917 21.262 11.5869L18.0975 13.395C17.8008 13.5853 17.7019 13.5853 17.7019 13.7757C17.7019 13.7757 17.7019 14.0612 17.7019 14.2515C17.7019 14.3467 17.7019 14.3467 17.7019 14.4418C17.8008 14.537 17.8997 14.537 17.8997 14.537L21.0642 12.7288C21.1631 12.6337 21.262 12.6337 21.4598 12.6337C21.5587 12.6337 21.7565 12.6337 21.8554 12.7288L24.3277 14.0612C24.5255 14.1563 24.7233 14.4418 24.7233 14.6322V16.3451C24.7233 16.7258 24.7233 16.8209 24.9211 17.0113C24.9211 17.0113 25.2177 17.2016 25.4155 17.2968C25.5144 17.2968 25.5144 17.2968 25.6133 17.2968C25.7122 17.2968 25.8111 17.2016 25.8111 17.1064V14.0612C25.8111 13.6805 25.7122 13.5853 25.4155 13.395L21.9543 11.4917C21.8554 11.5869 21.7565 11.4917 21.6576 11.4917Z" fill="white"/>
  <path d="M23.9317 21.0079L19.3827 18.4384C19.2838 18.3433 19.1849 18.3433 18.9871 18.3433C18.8882 18.3433 18.7893 18.3433 18.6904 18.3433C18.4926 18.4384 18.0971 18.6288 18.0971 18.6288C17.9982 18.7239 17.8993 18.8191 17.8993 18.9142C17.8993 19.0094 17.8993 19.0094 17.9982 19.1046L22.3495 21.5789C22.5472 21.674 22.745 21.7692 22.8439 21.7692C22.9428 21.7692 23.0417 21.7692 23.0417 21.674C23.0417 21.674 23.5362 21.4837 23.734 21.2934C23.8328 21.1982 23.8328 21.1982 23.8328 21.103C24.0306 21.103 23.9317 21.103 23.9317 21.0079Z" fill="white"/>
  <path d="M21.855 22.5306L16.6137 19.5804V17.8674L21.2617 15.298C21.4595 15.2028 21.6573 15.2028 21.855 15.298L22.9429 15.8689C23.2395 15.9641 23.3384 15.8689 23.3384 15.6786V15.298C23.3384 15.0125 23.3384 14.9173 23.1406 14.8221C23.1406 14.8221 22.0528 14.2511 22.0528 14.156C21.855 14.0608 21.5584 13.9656 21.2617 14.156L16.7126 16.7254V12.8236L21.3606 10.2542C21.5584 10.159 21.7561 10.159 21.9539 10.2542L23.0417 10.8251C23.3384 10.9203 23.4373 10.8251 23.4373 10.6348V10.159C23.4373 9.87349 23.4373 9.77832 23.2395 9.68316C23.2395 9.68316 22.1517 9.11216 22.1517 9.01699C21.9539 8.92183 21.6573 8.82666 21.3606 9.01699L16.6137 11.4913V8.446C16.6137 8.1605 16.3171 7.875 16.0204 7.875C15.7237 7.875 15.427 8.1605 15.427 8.446V11.4913L10.878 8.92183C10.5813 8.73149 10.2846 8.82666 10.0868 8.92183L8.99901 9.58799C8.70233 9.77832 8.80122 9.77832 8.80122 10.0638V10.5396C8.80122 10.73 8.90012 10.8251 9.19679 10.73L10.2846 10.159C10.4824 10.0638 10.6802 10.0638 10.878 10.159L15.5259 12.7285V16.6303L10.9769 14.0608C10.6802 13.8705 10.3835 13.9656 10.1857 14.0608L9.0979 14.727C8.80122 14.9173 8.90012 14.9173 8.90012 15.2028V15.6786C8.90012 15.8689 8.99901 15.9641 9.29569 15.8689L10.3835 15.298C10.5813 15.2028 10.7791 15.2028 10.9769 15.298L15.6248 17.8674V19.5804L10.3835 22.5306C10.2846 22.5306 10.2846 22.6257 10.2846 22.6257C10.2846 22.7209 10.2846 22.7209 10.3835 22.8161C10.5813 23.0064 11.0758 23.1967 11.0758 23.1967C11.1746 23.1967 11.2735 23.2919 11.2735 23.2919C11.3724 23.2919 11.5702 23.1967 11.768 23.1016L15.6248 21.0079V27.8599C15.6248 28.1454 15.9215 28.4309 16.2182 28.4309C16.5148 28.4309 16.8115 28.1454 16.8115 27.8599V21.0079L20.6683 23.1016C20.8661 23.1967 21.0639 23.2919 21.1628 23.2919C21.2617 23.2919 21.3606 23.2919 21.3606 23.1967C21.3606 23.1967 21.855 23.0064 22.0528 22.8161C22.1517 22.7209 22.1517 22.7209 22.1517 22.6257C21.9539 22.6257 21.9539 22.6257 21.855 22.5306Z" fill="white"/>
  <path d="M25.8114 19.1998L21.7568 16.9157C21.6579 16.8206 21.559 16.8206 21.4601 16.8206C21.3612 16.8206 21.2623 16.8206 21.1635 16.8206C20.9657 16.9157 20.5701 17.1061 20.5701 17.1061C20.4712 17.2012 20.3723 17.2964 20.3723 17.3916C20.3723 17.4868 20.3723 17.4868 20.4712 17.5819L24.328 19.7709C24.5258 19.866 24.7236 19.9612 24.8225 19.9612C24.9214 19.9612 25.0203 19.9612 25.0203 19.866C25.0203 19.866 25.5147 19.6757 25.7125 19.4853C25.8114 19.3902 25.8114 19.3902 25.8114 19.295C25.9103 19.295 25.9103 19.295 25.8114 19.1998Z" fill="white"/>
  <path d="M7.81327 4.73618C7.61549 4.73618 7.51659 4.64101 7.4177 4.54584C7.31881 4.26033 7.4177 4.06999 7.61549 3.87965L9.29666 2.92796C9.49444 2.83279 9.79112 2.92796 9.89001 3.1183C9.9889 3.30864 9.9889 3.59415 9.69223 3.68932L8.01106 4.64101C8.01106 4.73618 7.91216 4.73618 7.81327 4.73618Z" fill="#FFD541"/>
  <path d="M0.494148 16.5333C0.296363 16.5333 0.0985772 16.343 0.0985772 16.1526V11.204C-0.000315547 9.30068 0.988612 7.58768 2.66979 6.73118L4.25207 5.77952C4.44986 5.68436 4.74654 5.77952 4.84543 5.96985C4.94432 6.16019 4.94432 6.44569 4.64764 6.54085L3.06536 7.39735C1.68086 8.15868 0.889719 9.58617 0.889719 11.1088V16.0575C0.889719 16.343 0.691934 16.5333 0.494148 16.5333Z" fill="#FFD541"/>
  <path d="M16.0206 33.9506C15.0317 33.9506 14.1416 33.7602 13.3505 33.2844L2.6701 27.384C1.08782 26.4324 0.0988925 24.8145 0 22.9112V20.0562C0 19.8659 0.197785 19.6755 0.39557 19.6755C0.593355 19.6755 0.79114 19.8659 0.79114 20.0562V22.9112C0.79114 24.4339 1.68117 25.8614 3.06567 26.6227L13.845 32.5231C14.5372 32.9037 15.2294 33.0941 16.0206 33.0941C16.8117 33.0941 17.6029 32.9037 18.2951 32.5231L22.5475 30.1439C22.7453 30.0487 23.042 30.0487 23.1408 30.3342C23.2397 30.5246 23.2397 30.8101 22.9431 30.9052L18.6907 33.2844C17.8995 33.6651 17.0095 33.9506 16.0206 33.9506Z" fill="#FFD541"/>
  <path d="M29.6674 17.3917C29.4696 17.3917 29.2718 17.2013 29.2718 17.011V11.1107C29.2718 10.2542 28.7774 9.39766 27.9862 8.92183L25.7117 7.68466C25.5139 7.58949 25.415 7.30399 25.5139 7.11365C25.6128 6.92332 25.9095 6.82815 26.1072 6.92332L28.3818 8.16049C29.4696 8.73149 30.1618 9.87349 30.1618 11.0155V16.9158C30.063 17.2013 29.8652 17.3917 29.6674 17.3917Z" fill="#FFD541"/>
  <path d="M25.9104 29.0957C25.8115 29.0957 25.6137 29.0005 25.5148 28.9053L24.427 27.4778C24.3281 27.3827 24.3281 27.2875 24.3281 27.0972C24.3281 27.002 24.427 26.9068 24.5259 26.8117L27.7894 25.0035C28.5805 24.5277 29.075 23.7663 29.075 22.8147V21.4824C29.075 21.292 29.2728 21.1017 29.4705 21.1017C29.6683 21.1017 29.8661 21.292 29.8661 21.4824V22.8147C29.8661 23.9567 29.1739 25.0987 28.1849 25.6697L25.3171 27.2875L25.9104 28.0488L28.6794 26.5262C30.0639 25.7648 30.855 24.3373 30.855 22.8147V11.0141C30.855 9.4914 29.965 8.0639 28.5805 7.30257C28.3827 7.2074 28.2838 6.92191 28.3827 6.73157C28.4816 6.54124 28.7783 6.44607 28.9761 6.54124C30.6572 7.4929 31.6462 9.11073 31.6462 10.9189V22.7195C31.6462 24.5277 30.6572 26.2407 28.9761 27.1923L25.8115 28.9053C26.1082 29.0957 26.0093 29.0957 25.9104 29.0957Z" fill="#FFD541"/>
  <path d="M16.0206 32.1426C15.4273 32.1426 14.8339 31.9523 14.3394 31.6668L11.4716 30.1442C11.2738 30.049 11.1749 29.7635 11.2738 29.5732C11.3727 29.3828 11.6694 29.2877 11.8671 29.3828L14.735 30.9055C15.1306 31.0958 15.5262 31.191 16.0206 31.191C16.5151 31.191 16.9107 31.0958 17.3062 30.8103L23.2398 27.4795C23.4376 27.3844 23.7342 27.3844 23.8331 27.6699C23.932 27.8602 23.932 28.1457 23.6353 28.2408L17.7018 31.5716C17.2073 31.9523 16.614 32.1426 16.0206 32.1426Z" fill="#FFD541"/>
  <path d="M7.71357 27.9539C7.61468 27.9539 7.51578 27.9539 7.51578 27.8587L3.65897 25.7651C2.57115 25.1941 1.87891 24.0521 1.87891 22.9101V14.6307C1.87891 14.4403 2.07669 14.25 2.27448 14.25C2.47226 14.25 2.67005 14.4403 2.67005 14.6307V22.9101C2.67005 23.7666 3.16451 24.6231 3.95565 25.0989L7.91135 27.1925C8.10914 27.2877 8.20803 27.5732 8.10914 27.7635C8.01024 27.8587 7.81246 27.9539 7.71357 27.9539Z" fill="#FFD541"/>
  <path d="M2.27448 11.5852C2.07669 11.5852 1.87891 11.3949 1.87891 11.2046C1.87891 10.0626 2.57115 8.92055 3.56008 8.34955L8.40582 5.58968C8.70249 5.39935 8.90028 5.39935 9.09806 5.68485C9.19696 5.87519 9.09806 6.06552 8.90028 6.25586L4.05454 8.92055C3.2634 9.39639 2.76894 10.1577 2.76894 11.1094C2.76894 11.3949 2.57115 11.5852 2.27448 11.5852Z" fill="#FFD541"/>
  <path d="M22.7455 6.06688C22.6466 6.06688 22.5477 6.06688 22.5477 5.97171L17.2075 3.02154C16.4164 2.54571 15.4274 2.64088 14.6363 3.02154L11.3728 4.82971C11.1751 4.92488 10.8784 4.92488 10.7795 4.63938C10.6806 4.44904 10.6806 4.16354 10.9773 4.06838L14.2407 2.26021C15.3285 1.68921 16.6141 1.68921 17.702 2.26021L22.7455 5.02004L23.3388 4.25871L18.1964 1.40371C16.9108 0.642375 15.1308 0.642375 13.7463 1.40371L11.6695 2.54571C11.4717 2.64088 11.1751 2.64088 11.0762 2.35538C10.9773 2.16504 10.9773 1.87954 11.2739 1.78438L13.3507 0.642375C14.933 -0.214125 17.1086 -0.214125 18.6909 0.642375L24.2289 3.68771C24.3278 3.78288 24.4267 3.87804 24.4267 3.97321C24.4267 4.06838 24.4267 4.25871 24.3278 4.35388L23.2399 5.78138C23.0422 5.97171 22.9433 6.06688 22.7455 6.06688Z" fill="#FFD541"/>
  <path d="M66.4556 25.5742H36.8867V26.0499H66.4556V25.5742Z" fill="#FFD541"/>
  <path d="M124.803 25.5742H96.8164V26.0499H124.803V25.5742Z" fill="#FFD541"/>
  <path d="M92.9593 29.1932C93.0582 29.0029 93.1571 28.9077 93.1571 28.7174C93.1571 28.5271 92.9593 28.3367 92.6626 28.3367C92.3659 28.3367 92.0692 28.4319 91.8715 28.6222C91.5748 28.9077 91.4759 29.0981 91.4759 29.2884C91.4759 29.5739 91.5748 29.6691 91.8715 29.7642C91.7726 29.9546 91.6737 30.0497 91.5748 30.2401L91.6737 30.3352C92.0692 30.1449 92.5637 29.9546 93.256 29.8594C93.3549 29.6691 93.4537 29.4787 93.5526 29.3836V29.2884C93.3548 29.2884 93.1571 29.2884 92.8604 29.2884C92.267 29.2884 91.9704 29.0981 91.9704 29.0029C91.9704 28.9077 92.1681 28.8126 92.3659 28.8126C92.4648 28.8126 92.5637 28.8126 92.5637 28.9077L92.9593 29.1932ZM92.267 28.1464C92.4648 27.8609 92.6626 27.6706 92.7615 27.3851C92.8604 27.1947 92.9593 26.5286 92.9593 25.5769C92.9593 24.3397 92.9593 23.1026 92.7615 21.7702L92.6626 21.6751C92.3659 21.8654 92.1681 22.1509 91.8715 22.4364C92.0692 23.7687 92.0692 25.1962 92.0692 26.5286C92.0692 27.0996 92.0692 27.5754 91.9704 28.0512L92.267 28.1464ZM88.3113 26.0527C88.5091 25.6721 88.7069 25.4817 89.1025 25.4817C89.498 25.4817 89.8936 25.9576 90.0914 26.6237C90.0914 26.6237 89.9925 26.7189 89.8936 26.7189C89.3003 26.7189 88.8058 26.4334 88.3113 26.0527ZM87.9158 27.1947C88.5091 27.6706 89.1025 27.8609 89.5969 27.8609C90.487 27.8609 90.6847 26.7189 90.6847 26.6237C90.6847 25.9576 90.2892 24.3397 89.2014 24.3397C88.9047 24.3397 88.608 24.4349 88.3113 24.7204C87.718 25.2914 87.8169 26.1479 87.3224 26.4334C87.2235 26.6237 87.0257 26.7189 86.8279 26.7189H86.729C86.4324 26.7189 86.2346 27.0044 86.2346 27.3851C86.2346 27.6706 86.4324 28.0512 86.729 28.0512H86.8279C87.3224 27.9561 87.718 27.6706 87.9158 27.1947ZM90.2892 30.0497C89.498 30.3352 88.7069 30.5256 87.9158 30.8111L87.718 31.3821C88.5091 31.0966 89.2014 30.9062 89.9925 30.6207L90.2892 30.0497ZM86.729 26.7189C85.9379 26.7189 85.5423 26.2431 85.2457 25.4817H85.1468C84.949 25.7672 84.8501 26.0527 84.6523 26.4334C84.8501 26.9092 85.1468 27.2899 85.3446 27.5754C85.2457 27.9561 85.0479 28.4319 84.5534 28.8126C84.1578 29.1932 83.6634 29.3836 83.1689 29.3836C83.07 29.3836 82.8722 29.3836 82.5756 29.2884L82.4767 29.5739C83.1689 30.0497 83.7623 30.2401 84.2567 30.2401C84.7512 30.2401 85.2457 29.8594 85.5423 29.2884C85.7401 28.9077 85.9379 28.5271 85.9379 27.8609C86.1357 27.9561 86.3335 27.9561 86.6302 27.9561H86.729V26.7189ZM81.9822 23.4832C81.5866 23.3881 81.0922 23.3881 80.6966 23.2929C81.4877 22.9122 82.4767 22.6267 83.5645 22.2461C83.7623 21.8654 83.9601 21.5799 84.1578 21.1992C82.6745 21.6751 81.4877 22.0557 80.7955 22.4364C80.301 22.6267 80.1033 22.9122 80.1033 23.3881C80.1033 23.6736 80.1033 23.8639 80.2021 24.1494C81.4877 25.0059 82.3778 25.7672 82.3778 26.2431C82.3778 26.5286 81.4877 26.7189 80.2021 26.7189H80.1033C79.8066 26.7189 79.6088 27.0044 79.6088 27.3851C79.6088 27.6706 79.7077 28.0512 80.1033 28.0512H80.2021C81.5866 28.0512 82.4767 27.7657 82.7733 27.1947C82.9711 26.8141 83.07 26.4334 83.07 26.0527C83.07 25.2914 82.7733 24.9107 81.7844 24.0542L81.9822 23.4832ZM75.4553 27.9561C75.9498 27.9561 76.3453 27.7657 76.642 27.3851C76.8398 27.7657 77.1365 27.8609 77.4332 27.8609C77.8287 27.8609 78.2243 27.6706 78.521 27.2899C78.7188 27.6706 79.3121 27.8609 80.0044 27.8609H80.1033V26.7189H80.0044C79.7077 26.7189 79.411 26.6237 79.2132 26.5286C79.0154 26.4334 79.0154 26.2431 79.0154 25.9576C79.0154 25.7672 79.1143 25.4817 79.2132 25.1962H79.1143L78.6199 25.4817C78.521 25.8624 78.4221 26.1479 78.2243 26.4334C78.0265 26.6237 77.8287 26.7189 77.5321 26.7189C77.4332 26.7189 77.3343 26.7189 77.2354 26.6237C77.2354 26.5286 77.1365 26.4334 77.1365 26.3382C77.1365 26.2431 77.2354 25.8624 77.4332 25.3866C77.2354 25.4817 77.0376 25.5769 76.8398 25.6721C76.7409 26.0527 76.642 26.3382 76.4442 26.4334C76.2465 26.6237 76.1476 26.6237 75.9498 26.6237C75.6531 26.6237 75.5542 26.4334 75.4553 26.2431C75.2575 25.8624 75.1586 25.5769 74.9608 25.1962H74.8619C74.6642 25.5769 74.4664 25.8624 74.2686 26.2431C74.7631 26.9092 74.9608 27.3851 74.9608 27.8609C74.9608 28.0512 74.6642 28.2416 74.3675 28.4319C73.9719 28.7174 73.5764 28.8126 73.0819 28.8126C72.6863 28.8126 72.2908 28.7174 71.9941 28.4319C71.5985 28.1464 71.4996 27.7657 71.4996 27.2899C71.4996 27.0996 71.5985 26.7189 71.7963 26.2431L71.4007 26.0527C71.0051 26.6237 70.9062 27.2899 70.9062 27.8609C70.9062 29.0029 71.5985 29.9546 72.8841 29.9546C73.6752 29.9546 74.3675 29.5739 74.8619 29.0981C75.2575 28.9077 75.3564 28.5271 75.4553 27.9561Z" fill="#FFD541"/>
</svg>
