<svg width="143" height="39" viewBox="0 0 143 39" fill="none" xmlns="http://www.w3.org/2000/svg">
  <path d="M8.01863 13.1204L8.56788 12.9067C8.89744 12.6929 8.78759 12.6929 8.78759 12.3723V11.8379C8.78759 11.6241 8.67773 11.5173 8.34818 11.6241L7.90877 11.8379C7.57922 12.0517 7.68907 12.0517 7.68907 12.3723V12.9067C7.57922 13.2273 7.79892 13.3342 8.01863 13.1204Z" fill="#ccc"/>
  <path d="M7.02996 13.3341V12.7997C7.02996 12.586 6.9201 12.4791 6.59055 12.586L5.05263 13.441C4.72307 13.6548 4.61322 13.8685 4.61322 14.296V16.7542C4.61322 16.968 4.83292 17.0749 5.05263 16.968C5.16248 16.968 5.49203 16.7542 5.49203 16.7542C5.71174 16.6474 5.71174 16.4336 5.71174 16.0061V15.0442C5.71174 14.7235 5.93144 14.4029 6.15114 14.296L6.81025 13.9754C7.02996 13.6548 7.02996 13.6548 7.02996 13.3341Z" fill="#ccc"/>
  <path d="M6.81024 16.0061V19.3193C6.81024 19.4262 6.92009 19.5331 7.02995 19.5331C7.1398 19.5331 7.1398 19.5331 7.24965 19.5331C7.46935 19.4262 7.79891 19.2125 7.79891 19.2125C8.01861 19.1056 8.01861 18.9987 8.01861 18.4643V16.5405C8.01861 16.2198 8.12846 16.0061 8.45802 15.8992L11.2043 14.4029C11.3142 14.296 11.424 14.296 11.6437 14.296C11.7536 14.296 11.9733 14.296 12.0831 14.4029L15.5984 16.4336C15.7082 16.5405 15.8181 16.4336 15.8181 16.3267C15.8181 16.3267 15.8181 16.2198 15.8181 16.113C15.8181 15.8992 15.8181 15.5786 15.8181 15.5786C15.8181 15.3648 15.7082 15.2579 15.3787 15.1511L11.8634 13.1204C11.7536 13.0135 11.5339 13.0135 11.424 13.0135C11.3142 13.0135 11.2043 13.0135 10.9846 13.1204L7.1398 15.2579C6.92009 15.3648 6.81024 15.5786 6.81024 16.0061Z" fill="#ccc"/>
  <path d="M15.5978 21.243C15.5978 21.1361 15.488 21.0293 15.3781 20.9224C15.3781 20.9224 14.9387 20.6017 14.719 20.6017C14.6092 20.6017 14.4993 20.6017 14.3895 20.6017C14.2796 20.6017 14.1698 20.6017 13.9501 20.7086L8.8969 23.5944C8.78705 23.5944 8.78705 23.7012 8.78705 23.7012C8.78705 23.8081 8.78705 23.8081 8.8969 23.915C9.1166 24.1287 9.66586 24.3425 9.66586 24.3425C9.77571 24.3425 9.88556 24.4494 9.88556 24.4494C9.99542 24.4494 10.2151 24.3425 10.4348 24.2356L15.2683 21.4568C15.488 21.4568 15.5978 21.3499 15.5978 21.243Z" fill="#ccc"/>
  <path d="M12.8518 19.6401C12.8518 19.5332 12.742 19.4263 12.6321 19.3194C12.6321 19.3194 12.1927 18.9988 11.973 18.9988C11.8632 18.9988 11.7533 18.9988 11.6435 18.9988C11.5336 18.9988 11.4238 18.9988 11.3139 19.1057L6.80999 21.6708C6.70013 21.6708 6.70013 21.7776 6.70013 21.7776C6.70013 21.8845 6.70013 21.8845 6.80999 21.9914C7.02969 22.2051 7.57895 22.4189 7.57895 22.4189C7.6888 22.4189 7.79865 22.5258 7.79865 22.5258C7.9085 22.5258 8.12821 22.4189 8.34791 22.312L12.6321 19.8538C12.742 19.7469 12.8518 19.7469 12.8518 19.6401Z" fill="#ccc"/>
  <path d="M26.8029 12.7997L27.3521 13.1203C27.6817 13.2272 27.7916 13.1203 27.7916 12.9065V12.3721C27.7916 12.0515 27.7916 11.9446 27.5719 11.8378L27.0226 11.5171C26.693 11.4102 26.5832 11.5171 26.5832 11.7309V12.2653C26.5832 12.5859 26.5832 12.6928 26.8029 12.7997Z" fill="#ccc"/>
  <path d="M30.4284 13.441L28.8905 12.586C28.5609 12.4791 28.451 12.586 28.451 12.7997V13.3341C28.451 13.6548 28.4511 13.6548 28.6708 13.8685L29.3299 14.1891C29.6594 14.4029 29.7693 14.6167 29.7693 14.9373V15.8992C29.7693 16.3267 29.7693 16.5405 29.989 16.6474C29.989 16.6474 30.3185 16.8611 30.4284 16.8611C30.6481 16.968 30.8678 16.8611 30.8678 16.6474V14.1891C30.9776 13.8685 30.8678 13.6548 30.4284 13.441Z" fill="#ccc"/>
  <path d="M24.0567 12.9065C23.9468 12.9065 23.7271 12.9065 23.6173 13.0134L20.102 15.0441C19.7724 15.2578 19.6626 15.2578 19.6626 15.4716C19.6626 15.4716 19.6626 15.7922 19.6626 16.006C19.6626 16.1129 19.6626 16.1129 19.6626 16.2197C19.7724 16.3266 19.8823 16.3266 19.8823 16.3266L23.3976 14.2959C23.5074 14.189 23.6173 14.189 23.837 14.189C23.9468 14.189 24.1665 14.189 24.2764 14.2959L27.0227 15.7922C27.2424 15.8991 27.4621 16.2197 27.4621 16.4335V18.3573C27.4621 18.7848 27.4621 18.8917 27.6818 19.1055C27.6818 19.1055 28.0113 19.3192 28.231 19.4261C28.3409 19.4261 28.3409 19.4261 28.4507 19.4261C28.5606 19.4261 28.6704 19.3192 28.6704 19.2123V15.7922C28.6704 15.3647 28.5606 15.2578 28.231 15.0441L24.3862 12.9065C24.2764 13.0134 24.1665 12.9065 24.0567 12.9065Z" fill="#ccc"/>
  <path d="M26.5838 23.5944L21.5306 20.7086C21.4208 20.6017 21.3109 20.6017 21.0912 20.6017C20.9814 20.6017 20.8715 20.6017 20.7617 20.6017C20.542 20.7086 20.1026 20.9224 20.1026 20.9224C19.9927 21.0293 19.8829 21.1361 19.8829 21.243C19.8829 21.3499 19.8829 21.3499 19.9927 21.4568L24.8262 24.2356C25.0459 24.3425 25.2656 24.4494 25.3755 24.4494C25.4853 24.4494 25.5952 24.4494 25.5952 24.3425C25.5952 24.3425 26.1444 24.1287 26.3641 23.915C26.474 23.8081 26.474 23.8081 26.474 23.7012C26.6937 23.7012 26.5838 23.7012 26.5838 23.5944Z" fill="#ccc"/>
  <path d="M24.2766 25.3045L18.4545 21.9912V20.0674L23.6175 17.1817C23.8372 17.0748 24.0569 17.0748 24.2766 17.1817L25.485 17.823C25.8145 17.9298 25.9244 17.823 25.9244 17.6092V17.1817C25.9244 16.8611 25.9244 16.7542 25.7047 16.6473C25.7047 16.6473 24.4963 16.006 24.4963 15.8991C24.2766 15.7923 23.947 15.6854 23.6175 15.8991L18.5643 18.7849V14.4028L23.7273 11.5171C23.947 11.4102 24.1667 11.4102 24.3864 11.5171L25.5948 12.1584C25.9244 12.2653 26.0342 12.1584 26.0342 11.9446V11.4102C26.0342 11.0896 26.0342 10.9827 25.8145 10.8758C25.8145 10.8758 24.6061 10.2346 24.6061 10.1277C24.3864 10.0208 24.0569 9.91394 23.7273 10.1277L18.4545 12.9065V9.48643C18.4545 9.16579 18.1249 8.84515 17.7953 8.84515C17.4658 8.84515 17.1362 9.16579 17.1362 9.48643V12.9065L12.0831 10.0208C11.7535 9.80706 11.424 9.91394 11.2043 10.0208L9.99589 10.769C9.66633 10.9827 9.77618 10.9827 9.77618 11.3034V11.8378C9.77618 12.0515 9.88603 12.1584 10.2156 12.0515L11.424 11.4102C11.6437 11.3034 11.8634 11.3034 12.0831 11.4102L17.2461 14.296V18.678L12.1929 15.7923C11.8634 15.5785 11.5338 15.6854 11.3141 15.7923L10.1057 16.5404C9.77618 16.7542 9.88603 16.7542 9.88603 17.0748V17.6092C9.88603 17.823 9.99589 17.9298 10.3254 17.823L11.5338 17.1817C11.7535 17.0748 11.9732 17.0748 12.1929 17.1817L17.3559 20.0674V21.9912L11.5338 25.3045C11.424 25.3045 11.424 25.4114 11.424 25.4114C11.424 25.5182 11.424 25.5182 11.5338 25.6251C11.7535 25.8389 12.3028 26.0526 12.3028 26.0526C12.4126 26.0526 12.5225 26.1595 12.5225 26.1595C12.6323 26.1595 12.852 26.0526 13.0717 25.9457L17.3559 23.5944V31.2897C17.3559 31.6103 17.6855 31.931 18.0151 31.931C18.3446 31.931 18.6742 31.6103 18.6742 31.2897V23.5944L22.9584 25.9457C23.1781 26.0526 23.3978 26.1595 23.5076 26.1595C23.6175 26.1595 23.7273 26.1595 23.7273 26.0526C23.7273 26.0526 24.2766 25.8389 24.4963 25.6251C24.6061 25.5182 24.6061 25.5182 24.6061 25.4114C24.3864 25.4114 24.3864 25.4114 24.2766 25.3045Z" fill="#ccc"/>
  <path d="M28.6706 21.5638L24.1666 18.9987C24.0568 18.8918 23.9469 18.8918 23.8371 18.8918C23.7272 18.8918 23.6174 18.8918 23.5075 18.8918C23.2878 18.9987 22.8484 19.2124 22.8484 19.2124C22.7386 19.3193 22.6287 19.4262 22.6287 19.5331C22.6287 19.6399 22.6287 19.6399 22.7386 19.7468L27.0228 22.205C27.2425 22.3119 27.4622 22.4188 27.572 22.4188C27.6819 22.4188 27.7917 22.4188 27.7917 22.3119C27.7917 22.3119 28.341 22.0981 28.5607 21.8844C28.6706 21.7775 28.6706 21.7775 28.6706 21.6706C28.7804 21.6706 28.7804 21.6706 28.6706 21.5638Z" fill="white"/>
  <path d="M8.67879 5.31817C8.45909 5.31817 8.34924 5.21129 8.23938 5.10441C8.12953 4.78377 8.23938 4.57002 8.45909 4.35626L10.3266 3.28747C10.5463 3.18059 10.8758 3.28747 10.9857 3.50123C11.0955 3.71499 11.0955 4.03562 10.766 4.1425L8.89849 5.21129C8.89849 5.31817 8.78864 5.31817 8.67879 5.31817Z" fill="#FFD541"/>
  <path d="M0.549721 18.5709C0.330018 18.5709 0.110315 18.3572 0.110315 18.1434V12.5857C0.000463262 10.4482 1.09898 8.52435 2.96646 7.56244L4.72408 6.49365C4.94379 6.38677 5.27334 6.49365 5.38319 6.70741C5.49304 6.92116 5.49304 7.2418 5.16349 7.34868L3.40586 8.31059C1.86794 9.16562 0.989128 10.7688 0.989128 12.4789V18.0365C0.989128 18.3572 0.769424 18.5709 0.549721 18.5709Z" fill="#FFD541"/>
  <path d="M17.796 38.1298C16.6974 38.1298 15.7088 37.916 14.83 37.3816L2.96599 30.7551C1.20837 29.6864 0.109852 27.8694 0 25.7318V22.5255C0 22.3117 0.219703 22.098 0.439406 22.098C0.65911 22.098 0.878813 22.3117 0.878813 22.5255V25.7318C0.878813 27.4419 1.86748 29.0451 3.4054 29.9001L15.3792 36.5266C16.1482 36.9541 16.9171 37.1679 17.796 37.1679C18.6748 37.1679 19.5536 36.9541 20.3225 36.5266L25.0462 33.8546C25.2659 33.7477 25.5954 33.7477 25.7053 34.0684C25.8151 34.2821 25.8151 34.6028 25.4856 34.7097L20.762 37.3816C19.8831 37.8091 18.8945 38.1298 17.796 38.1298Z" fill="#FFD541"/>
  <path d="M32.9555 19.5328C32.7358 19.5328 32.5161 19.3191 32.5161 19.1053V12.4788C32.5161 11.5169 31.9668 10.555 31.088 10.0206L28.5614 8.63121C28.3417 8.52433 28.2319 8.2037 28.3417 7.98994C28.4516 7.77618 28.7811 7.6693 29.0009 7.77618L31.5274 9.16561C32.7358 9.80688 33.5048 11.0894 33.5048 12.372V18.9984C33.3949 19.3191 33.1752 19.5328 32.9555 19.5328Z" fill="#FFD541"/>
  <path d="M28.7808 32.6791C28.671 32.6791 28.4513 32.5722 28.3414 32.4653L27.133 30.8621C27.0232 30.7552 27.0232 30.6484 27.0232 30.4346C27.0232 30.3277 27.133 30.2209 27.2429 30.114L30.868 28.0833C31.7468 27.5489 32.2961 26.6939 32.2961 25.6251V24.1288C32.2961 23.915 32.5158 23.7013 32.7355 23.7013C32.9552 23.7013 33.1749 23.915 33.1749 24.1288V25.6251C33.1749 26.9076 32.4059 28.1902 31.3074 28.8314L28.1217 30.6484L28.7808 31.5034L31.8567 29.7933C33.3946 28.9383 34.2734 27.3351 34.2734 25.6251V12.3721C34.2734 10.6621 33.2847 9.05887 31.7468 8.20384C31.5271 8.09696 31.4173 7.77633 31.5271 7.56257C31.637 7.34881 31.9665 7.24194 32.1862 7.34881C34.0537 8.4176 35.1522 10.2345 35.1522 12.2652V25.5182C35.1522 27.5489 34.0537 29.4727 32.1862 30.5415L28.671 32.4653C29.0005 32.6791 28.8907 32.6791 28.7808 32.6791Z" fill="#FFD541"/>
  <path d="M17.7962 36.0992C17.1371 36.0992 16.478 35.8855 15.9287 35.5648L12.743 33.8548C12.5233 33.7479 12.4135 33.4273 12.5233 33.2135C12.6332 32.9997 12.9627 32.8929 13.1824 32.9997L16.3681 34.7098C16.8075 34.9236 17.2469 35.0304 17.7962 35.0304C18.3455 35.0304 18.7849 34.9236 19.2243 34.6029L25.8154 30.8622C26.0351 30.7553 26.3646 30.7553 26.4745 31.0759C26.5843 31.2897 26.5843 31.6103 26.2548 31.7172L19.6637 35.458C19.1144 35.8855 18.4553 36.0992 17.7962 36.0992Z" fill="#FFD541"/>
  <path d="M8.56816 31.3965C8.45831 31.3965 8.34845 31.3965 8.34845 31.2896L4.06424 28.9383C2.85588 28.297 2.08691 27.0145 2.08691 25.7319V16.4335C2.08691 16.2197 2.30662 16.006 2.52632 16.006C2.74602 16.006 2.96573 16.2197 2.96573 16.4335V25.7319C2.96573 26.6939 3.51498 27.6558 4.3938 28.1902L8.78786 30.5415C9.00756 30.6484 9.11742 30.969 9.00756 31.1828C8.89771 31.2896 8.67801 31.3965 8.56816 31.3965Z" fill="#FFD541"/>
  <path d="M2.52632 13.0135C2.30662 13.0135 2.08691 12.7997 2.08691 12.586C2.08691 11.3034 2.85588 10.0209 3.95439 9.37962L9.33712 6.28014C9.66668 6.06638 9.88638 6.06638 10.1061 6.38702C10.2159 6.60078 10.1061 6.81453 9.88638 7.02829L4.50365 10.0209C3.62484 10.5553 3.07558 11.4103 3.07558 12.4791C3.07558 12.7997 2.85588 13.0135 2.52632 13.0135Z" fill="#FFD541"/>
  <path d="M25.2659 6.81352C25.1561 6.81352 25.0462 6.81352 25.0462 6.70664L19.1143 3.3934C18.2354 2.85901 17.1369 2.96588 16.2581 3.3934L12.633 5.42409C12.4133 5.53097 12.0838 5.53097 11.9739 5.21034C11.8641 4.99658 11.8641 4.67594 12.1936 4.56906L15.8187 2.53837C17.0271 1.8971 18.4551 1.8971 19.6635 2.53837L25.2659 5.63785L25.9251 4.78282L20.2128 1.57646C18.7847 0.721431 16.8074 0.721431 15.2695 1.57646L12.9626 2.85901C12.7429 2.96588 12.4133 2.96588 12.3035 2.64525C12.1936 2.43149 12.1936 2.11085 12.5232 2.00398L14.83 0.721431C16.5877 -0.240477 19.0044 -0.240477 20.762 0.721431L26.9137 4.14155C27.0236 4.24843 27.1334 4.35531 27.1334 4.46219C27.1334 4.56906 27.1334 4.78282 27.0236 4.8897L25.8152 6.49288C25.5955 6.70664 25.4857 6.81352 25.2659 6.81352Z" fill="#FFD541"/>
  <g clip-path="url(#clip0)">
    <path d="M70.6564 9C70.4024 9 70.2071 9.03776 70.0508 9.11329C69.914 9.18882 69.7773 9.30211 69.6405 9.47204L63.9163 16.7603L58.2312 9.45316C58.0944 9.28322 57.9577 9.16993 57.8014 9.09441C57.6451 9.03776 57.4302 9 57.1567 9C56.805 9 56.5315 9.07553 56.2971 9.2077C56.0627 9.35875 55.9454 9.56645 55.9454 9.88744V18.9506H57.9968V12.5309L62.9004 18.7429C63.1349 19.0261 63.4474 19.1583 63.8968 19.1583C64.3266 19.1583 64.6587 19.0261 64.8931 18.7429L69.8163 12.5309V18.9506H71.8677V9.88744C71.8677 9.58533 71.7505 9.35875 71.516 9.2077C71.2816 9.07553 70.9885 9 70.6564 9Z" fill="white"/>
    <path d="M126.335 8.99941C126.081 8.99941 125.886 9.03717 125.73 9.1127C125.593 9.18823 125.456 9.30152 125.319 9.47145L119.595 16.7598L113.91 9.45257C113.773 9.28264 113.637 9.16935 113.48 9.09382C113.324 9.01829 113.109 8.98053 112.836 8.98053C112.484 8.98053 112.21 9.05606 111.976 9.18823C111.742 9.33928 111.624 9.54698 111.624 9.86797V18.9311H113.676V12.5114L118.579 18.7234C118.814 19.0067 119.126 19.1388 119.576 19.1388C120.006 19.1388 120.338 19.0067 120.572 18.7234L125.495 12.5114V18.9311H127.547V9.86797C127.547 9.56586 127.429 9.33928 127.195 9.18823C126.961 9.07494 126.667 8.99941 126.335 8.99941Z" fill="white"/>
    <path d="M78.4905 9.20782H76.2438V18.9507H78.4905V9.20782Z" fill="white"/>
    <path d="M137.217 15.6463H138.995C139.679 15.6463 140.284 15.6085 140.792 15.5141C141.3 15.4197 141.711 15.2875 142.043 15.061C142.375 14.8533 142.609 14.5512 142.766 14.1924C142.922 13.8337 143 13.3616 143 12.7952V12.1154C143 11.5301 142.922 11.0581 142.785 10.6804C142.629 10.3028 142.394 10.0007 142.082 9.77411C141.769 9.54753 141.359 9.39648 140.851 9.32095C140.343 9.22654 139.737 9.18878 139.034 9.18878H131.141V11.0203H138.878C139.249 11.0203 139.542 11.0392 139.796 11.0581C140.05 11.0958 140.226 11.1525 140.382 11.228C140.519 11.3224 140.617 11.4357 140.675 11.6056C140.734 11.7756 140.773 11.9833 140.773 12.2287V12.7763C140.773 13.0406 140.734 13.2483 140.675 13.4183C140.617 13.5882 140.519 13.7015 140.363 13.7959C140.226 13.8903 140.03 13.947 139.776 13.9658C139.542 14.0036 139.229 14.0036 138.858 14.0036H131.122V18.9506H133.349V15.6463H137.217Z" fill="white"/>
    <path d="M44.0282 17.0436C43.8133 17.0059 43.657 16.9304 43.5397 16.8171C43.4225 16.7038 43.3444 16.5527 43.3053 16.3639C43.2662 16.1751 43.2467 15.9296 43.2467 15.6275V14.9478H51.8232V13.2296H41V15.6086C41 16.2317 41.0586 16.7415 41.1758 17.1758C41.293 17.5912 41.5079 17.95 41.801 18.1954C42.094 18.4598 42.4848 18.6486 42.9927 18.7619C43.4811 18.8752 44.1063 18.9318 44.8487 18.9318H51.8818V17.1192H44.8487C44.5166 17.1192 44.2431 17.0814 44.0282 17.0436Z" fill="white"/>
    <path d="M51.8624 9.20782H44.8488C44.1064 9.20782 43.5007 9.26447 42.9928 9.37776C42.5044 9.49105 42.1137 9.67987 41.8011 9.94421C41.508 10.2086 41.2931 10.5484 41.1759 10.9827C41.1759 10.9827 41.1759 11.0016 41.1759 11.0205H51.8624V9.20782Z" fill="white"/>
    <path d="M70.1681 26.4279H41.1759V26.8622H70.1681V26.4279Z" fill="#FFD541"/>
    <path d="M142.981 26.4279H113.988V26.8622H142.981V26.4279Z" fill="#FFD541"/>
    <path d="M86.3246 19.0072C85.5822 19.0072 84.9766 18.9506 84.4687 18.8373C83.9803 18.724 83.5895 18.5352 83.2965 18.2709C83.0034 18.0065 82.7885 17.6666 82.6713 17.2513C82.5541 16.8359 82.4955 16.3072 82.4955 15.6841V12.6064C82.4955 12.0022 82.5541 11.4735 82.6713 11.0581C82.7885 10.6238 83.0034 10.2839 83.2965 10.0196C83.5895 9.75524 83.9803 9.56643 84.4687 9.45314C84.9571 9.33985 85.5822 9.2832 86.3246 9.2832H93.3187V11.1525H86.4419C86.0902 11.1525 85.8167 11.1714 85.6018 11.228C85.3869 11.2847 85.2111 11.3602 85.0743 11.4924C84.9375 11.6245 84.8594 11.7756 84.8008 11.9833C84.7422 12.191 84.7226 12.4364 84.7226 12.7385V15.5897C84.7226 15.8918 84.7422 16.1372 84.8008 16.3449C84.8594 16.5526 84.9375 16.7037 85.0743 16.8359C85.2111 16.968 85.3869 17.0436 85.6018 17.1002C85.8362 17.1568 86.1097 17.1757 86.4614 17.1757H93.3382V19.0072H86.3246Z" fill="white"/>
    <path d="M100.45 19.0072C99.7071 19.0072 99.1015 18.9506 98.5935 18.8373C98.1051 18.724 97.7144 18.5352 97.4214 18.2709C97.1283 18.0065 96.9134 17.6666 96.7962 17.2513C96.679 16.8359 96.6204 16.3072 96.6204 15.6841V12.6064C96.6204 12.0022 96.679 11.4735 96.7962 11.0581C96.9134 10.6238 97.1283 10.2839 97.4214 10.0196C97.7144 9.75524 98.1051 9.56643 98.5935 9.45314C99.082 9.33985 99.7071 9.2832 100.45 9.2832H104.279C105.021 9.2832 105.646 9.33985 106.135 9.45314C106.623 9.56643 107.014 9.75524 107.307 10.0196C107.6 10.2839 107.815 10.6238 107.932 11.0581C108.049 11.4924 108.108 12.0022 108.108 12.6064V15.6652C108.108 16.2883 108.049 16.7981 107.932 17.2324C107.815 17.6478 107.6 18.0065 107.307 18.252C107.014 18.5163 106.623 18.7051 106.135 18.8184C105.646 18.9317 105.021 18.9884 104.279 18.9884H100.45V19.0072ZM105.9 12.7197C105.9 12.4176 105.881 12.1721 105.822 11.9644C105.763 11.7567 105.685 11.6056 105.549 11.4735C105.412 11.3413 105.255 11.2658 105.021 11.2091C104.806 11.1525 104.533 11.1336 104.201 11.1336H100.567C100.215 11.1336 99.922 11.1525 99.7071 11.2091C99.4922 11.2658 99.3164 11.3413 99.1796 11.4735C99.0429 11.6056 98.9647 11.7567 98.9257 11.9644C98.8866 12.1721 98.8671 12.4176 98.8671 12.7197V15.5897C98.8671 15.9107 98.8866 16.1561 98.9257 16.3638C98.9647 16.5715 99.0624 16.7226 99.1796 16.8547C99.3164 16.968 99.4727 17.0624 99.7071 17.1002C99.9416 17.138 100.215 17.1568 100.567 17.1568H104.201C104.533 17.1568 104.806 17.138 105.021 17.1002C105.236 17.0624 105.412 16.968 105.549 16.8547C105.685 16.7414 105.763 16.5715 105.822 16.3638C105.881 16.1561 105.9 15.8918 105.9 15.5897V12.7197Z" fill="white"/>
    <path d="M80.5224 31.0725C80.3856 30.9404 80.2684 30.8649 80.1902 30.8271H80.1512C80.1512 30.8271 80.1121 30.8649 80.034 30.9215C79.9558 30.9781 79.8972 31.0537 79.8191 31.1292C79.7409 31.2047 79.6628 31.2802 79.6042 31.3558C79.5455 31.4313 79.5065 31.4691 79.5065 31.4691V31.5068C79.6432 31.5824 79.7604 31.6579 79.8777 31.7712C79.9949 31.8845 80.0926 31.9977 80.1707 32.0733H80.2098C80.2489 32.0355 80.2879 31.9977 80.3465 31.9411C80.4051 31.8845 80.4638 31.8278 80.5224 31.7712C80.581 31.7145 80.6591 31.639 80.7177 31.5824C80.7763 31.5257 80.835 31.4691 80.874 31.4313V31.3935C80.7763 31.318 80.6591 31.2047 80.5224 31.0725Z" fill="#FFD541"/>
    <path d="M90.6227 26.6355C90.4664 26.4467 90.2906 26.2957 90.0952 26.1635C89.8999 26.0313 89.7045 25.9747 89.5092 25.9747C89.431 25.9747 89.3529 25.9936 89.2356 26.0124C89.1184 26.0313 88.9817 26.1068 88.8449 26.2012C88.6886 26.3145 88.5323 26.4656 88.376 26.6544C88.2197 26.8432 88.0439 27.1264 87.8876 27.4663C87.7704 27.7118 87.6727 27.9195 87.5555 28.0516C87.4383 28.2027 87.3211 28.316 87.2234 28.3915C87.1257 28.467 87.0085 28.5237 86.9108 28.5426C86.8131 28.5615 86.735 28.5803 86.6568 28.5803C86.3638 28.5803 86.1489 28.5615 85.973 28.5237C85.7972 28.4859 85.6605 28.4482 85.5628 28.3726C85.4651 28.2971 85.387 28.2216 85.3674 28.1272C85.3283 28.0328 85.3088 27.9195 85.3088 27.8062C85.3088 27.7118 85.3088 27.6174 85.3283 27.523C85.3479 27.4286 85.3674 27.353 85.387 27.2775L85.4846 27.0132C85.4651 26.9943 85.426 26.9754 85.387 26.9754C85.3479 26.9754 85.3088 26.9943 85.2697 27.032C85.2307 27.0698 85.1721 27.1264 85.0939 27.202C85.0158 27.2775 84.9376 27.353 84.8204 27.4286C84.7032 27.523 84.5664 27.5985 84.3906 27.674C84.1171 27.7873 83.7654 27.9195 83.3552 28.0516C82.9254 28.1838 82.476 28.2971 81.9681 28.3915C81.4601 28.4859 80.9131 28.5615 80.3465 28.637C79.78 28.6936 79.1939 28.7314 78.6078 28.7314C77.9826 28.7314 77.4551 28.6936 77.0058 28.5992C76.5565 28.5237 76.2048 28.3915 75.9118 28.2216C75.6382 28.0516 75.4233 27.844 75.3061 27.5985C75.1694 27.353 75.1108 27.0698 75.1108 26.7677C75.1108 26.7299 75.1108 26.6733 75.1303 26.5789C75.1303 26.4845 75.1498 26.4089 75.1498 26.3523C75.1303 26.3334 75.1108 26.3145 75.0717 26.3145C75.0521 26.3145 75.0326 26.3145 75.0326 26.3334C74.9545 26.4089 74.8763 26.56 74.8177 26.7677C74.7396 26.9754 74.72 27.2397 74.72 27.5418C74.72 27.8251 74.7786 28.1083 74.8763 28.3915C74.974 28.6747 75.1498 28.9202 75.4038 29.1468C75.6578 29.3734 75.9899 29.5433 76.4197 29.6943C76.8495 29.8265 77.3965 29.902 78.0608 29.902C78.471 29.902 78.9594 29.8832 79.5065 29.8265C80.0535 29.7699 80.6396 29.6755 81.2452 29.5622C81.8508 29.4489 82.4565 29.2978 83.0816 29.1279C83.6873 28.958 84.2538 28.7503 84.7813 28.5237C84.8009 28.6559 84.8399 28.788 84.879 28.9013C84.9181 29.0146 84.9962 29.1279 85.133 29.2223C85.2502 29.3167 85.426 29.3922 85.6214 29.4678C85.8168 29.5244 86.0903 29.5622 86.4419 29.5622C86.7936 29.5622 87.0866 29.4678 87.3015 29.2978C87.5164 29.1279 87.6727 28.9202 87.7899 28.7125L87.829 28.637C88.1807 28.9957 88.5714 29.2412 89.0012 29.3922C89.431 29.5433 89.8217 29.6188 90.2125 29.6188C90.2906 29.6188 90.3883 29.5622 90.5055 29.4489C90.6227 29.3356 90.7204 29.2034 90.8376 29.0335C90.9353 28.8636 91.033 28.6747 91.1111 28.4859C91.1893 28.2971 91.2284 28.1083 91.2284 27.9572C91.2284 27.7307 91.1893 27.4852 91.0916 27.2586C90.8962 27.032 90.779 26.8243 90.6227 26.6355ZM90.5055 28.7691C90.4274 28.788 90.3297 28.8069 90.2125 28.8069C90.0562 28.8069 89.8803 28.788 89.685 28.7503C89.4896 28.7125 89.2943 28.6559 89.0793 28.5615C88.884 28.4859 88.6886 28.3726 88.5128 28.2593C88.337 28.1461 88.1807 27.995 88.0634 27.844C88.2197 27.523 88.376 27.2586 88.5714 27.0887C88.7668 26.9188 88.9817 26.8243 89.2356 26.8243C89.3919 26.8243 89.5482 26.881 89.7045 27.0132C89.8608 27.1264 90.0171 27.2775 90.1539 27.4663C90.2906 27.6551 90.3883 27.844 90.486 28.0516C90.5641 28.2593 90.6227 28.467 90.6227 28.637C90.6227 28.6936 90.5837 28.7503 90.5055 28.7691Z" fill="#FFD541"/>
    <path d="M102.735 34.5469L102.501 35.0001L104.533 34.1693C104.669 34.1126 104.787 34.0182 104.904 33.8861C105.002 33.7539 105.08 33.6595 105.138 33.5651L105.099 33.5273L102.735 34.5469Z" fill="#FFD541"/>
    <path d="M105.783 26.6355C105.627 26.4467 105.451 26.2956 105.256 26.1635C105.06 26.0313 104.865 25.9746 104.669 25.9746C104.591 25.9746 104.513 25.9935 104.396 26.0124C104.279 26.0313 104.142 26.1068 104.005 26.2012C103.849 26.3145 103.693 26.4656 103.536 26.6544C103.38 26.8432 103.204 27.1264 103.048 27.4663C102.931 27.7118 102.833 27.9195 102.716 28.0516C102.599 28.2027 102.481 28.316 102.384 28.3915C102.286 28.467 102.169 28.5237 102.071 28.5425C101.973 28.5614 101.895 28.5803 101.817 28.5803C101.583 28.5803 101.368 28.5614 101.172 28.5048C100.977 28.4481 100.782 28.3537 100.567 28.2027C100.371 28.0516 100.157 27.8628 99.9612 27.6362C99.7463 27.3908 99.5118 27.0887 99.2579 26.7299C98.8867 26.2012 98.5936 25.7481 98.3396 25.3704C98.0857 24.9928 97.8903 24.6718 97.734 24.4264C97.5582 24.1242 97.4019 23.8788 97.3042 23.6522C97.4605 23.5578 97.6754 23.4445 97.9489 23.3312C98.2224 23.2179 98.535 23.0858 98.8867 22.9536C99.2383 22.8214 99.59 22.6892 99.9807 22.5571C100.352 22.4249 100.723 22.2927 101.055 22.1794C101.114 22.1606 101.172 22.1039 101.231 22.0284C101.309 21.934 101.368 21.8585 101.426 21.764C101.485 21.6696 101.544 21.5752 101.583 21.4997C101.622 21.4242 101.661 21.3675 101.661 21.3486L101.622 21.3109C101.251 21.3864 100.84 21.4997 100.411 21.6319C99.9807 21.764 99.5509 21.9151 99.1211 22.0661C98.6913 22.2172 98.3006 22.3871 97.9489 22.5382C97.5777 22.6892 97.3042 22.8403 97.0698 22.9536C97.0307 22.9913 96.9721 23.0669 96.9135 23.1613C96.8549 23.2557 96.7963 23.369 96.7572 23.4823C96.7181 23.5956 96.679 23.7277 96.64 23.841C96.6009 23.9543 96.6009 24.0487 96.6009 24.1242C96.6009 24.162 96.6595 24.2564 96.7572 24.4075C96.8549 24.5585 96.9721 24.7662 97.1284 24.9739C97.2847 25.2005 97.441 25.446 97.6168 25.7103C97.7926 25.9746 97.9489 26.239 98.1052 26.5033C98.2615 26.7677 98.3787 26.9943 98.4764 27.2208C98.5741 27.4474 98.6327 27.6173 98.6327 27.7306C98.6327 27.995 98.4569 28.2027 98.1247 28.3537C97.7926 28.5048 97.2065 28.5803 96.386 28.5803H95.5264C95.5264 28.2782 95.4873 27.9761 95.4092 27.674C95.331 27.3719 95.2333 27.0887 95.077 26.8432C94.9403 26.5977 94.7645 26.39 94.5691 26.239C94.3737 26.0879 94.1393 25.9935 93.9049 25.9935C93.6704 25.9935 93.4751 26.0691 93.2797 26.2201C93.0843 26.3712 92.928 26.56 92.7913 26.8054C92.6545 27.032 92.5568 27.2775 92.4787 27.5418C92.4005 27.8062 92.381 28.0516 92.381 28.2782C92.381 29.1279 92.9476 29.5433 94.0807 29.5433H95.0575C95.038 29.751 94.9794 29.9776 94.8621 30.2608C94.7449 30.5251 94.5496 30.7895 94.2761 31.0538C94.0025 31.2993 93.6313 31.5258 93.1625 31.7147C92.6936 31.9035 92.1075 31.9979 91.3846 32.0356L91.3651 32.1112C91.58 32.1867 91.8145 32.2622 92.0684 32.3189C92.2638 32.3755 92.4787 32.4322 92.6936 32.4699C92.9085 32.5077 93.1039 32.5266 93.2602 32.5266C93.4555 32.5266 93.6704 32.451 93.9049 32.3C94.1393 32.1489 94.3737 31.9412 94.5886 31.6769C94.8035 31.4126 94.9989 31.1104 95.1552 30.7517C95.3115 30.3929 95.4287 29.9964 95.4678 29.581H96.1125C96.6204 29.581 97.0307 29.5433 97.3628 29.4677C97.6949 29.3922 97.9685 29.2789 98.1834 29.1279C98.3983 28.9768 98.5545 28.8069 98.6718 28.5992C98.789 28.3915 98.8867 28.1649 98.9648 27.9195C99.1992 28.2216 99.4337 28.4859 99.6486 28.6936C99.8635 28.9013 100.078 29.0712 100.293 29.2034C100.508 29.3356 100.704 29.43 100.918 29.4866C101.133 29.5433 101.329 29.581 101.544 29.581C101.544 29.581 101.544 29.581 101.563 29.581C101.915 29.581 102.188 29.4866 102.403 29.3167C102.618 29.1468 102.774 28.9391 102.892 28.7314L102.931 28.6558C103.282 29.0146 103.673 29.26 104.103 29.4111C104.533 29.5622 104.923 29.6377 105.314 29.6377C105.392 29.6377 105.49 29.581 105.607 29.4677C105.724 29.3545 105.822 29.2223 105.939 29.0524C106.037 28.8824 106.135 28.6936 106.213 28.5048C106.291 28.316 106.33 28.1272 106.33 27.9761C106.33 27.7495 106.291 27.5041 106.193 27.2775C106.057 27.032 105.939 26.8243 105.783 26.6355ZM94.5105 28.6181C93.9439 28.6181 93.4946 28.5803 93.2015 28.5048C92.9085 28.4293 92.7522 28.2971 92.7522 28.0705C92.7522 27.9383 92.7717 27.8062 92.8303 27.674C92.889 27.5418 92.9476 27.4096 93.0453 27.3152C93.1429 27.202 93.2406 27.1264 93.3578 27.0509C93.4751 26.9754 93.5923 26.9565 93.7095 26.9565C93.8853 26.9565 94.0416 26.9943 94.1784 27.0887C94.3347 27.1831 94.4714 27.2964 94.5886 27.4285C94.7059 27.5796 94.8035 27.7495 94.9012 27.9572C94.9794 28.1649 95.038 28.3726 95.0575 28.6181H94.5105ZM105.666 28.7691C105.588 28.788 105.49 28.8069 105.373 28.8069C105.216 28.8069 105.041 28.788 104.845 28.7502C104.65 28.7125 104.455 28.6558 104.24 28.5614C104.044 28.4859 103.849 28.3726 103.673 28.2593C103.497 28.146 103.341 27.995 103.224 27.8439C103.38 27.5229 103.536 27.2586 103.732 27.0887C103.927 26.9187 104.142 26.8243 104.396 26.8243C104.552 26.8243 104.709 26.881 104.865 27.0131C105.021 27.1264 105.177 27.2775 105.314 27.4663C105.451 27.6551 105.549 27.8439 105.646 28.0516C105.724 28.2593 105.783 28.467 105.783 28.637C105.783 28.6936 105.744 28.7502 105.666 28.7691Z" fill="#FFD541"/>
    <path d="M109.436 31.9412C109.3 31.9978 109.163 32.0545 109.046 32.0922C108.928 32.13 108.772 32.1489 108.577 32.1489C108.42 32.1489 108.284 32.1111 108.147 32.0545C108.03 31.9789 107.971 31.8845 107.971 31.7146C107.971 31.6202 107.991 31.5447 108.03 31.4691C108.069 31.3936 108.127 31.337 108.186 31.2992C108.245 31.2614 108.323 31.2237 108.401 31.2048C108.479 31.1859 108.557 31.1859 108.616 31.1859C108.831 31.1859 109.007 31.2237 109.104 31.3181C109.182 31.2237 109.202 31.1104 109.202 30.9782C109.202 30.8838 109.163 30.8083 109.065 30.7705C108.987 30.7327 108.889 30.7139 108.811 30.7139C108.635 30.7139 108.479 30.7705 108.323 30.8649C108.166 30.9593 108.03 31.0726 107.893 31.2048C107.776 31.337 107.678 31.4691 107.6 31.6202C107.522 31.7712 107.483 31.8845 107.483 31.9978C107.483 32.13 107.522 32.2433 107.6 32.3188C107.678 32.3943 107.756 32.451 107.854 32.4887L107.541 32.6587C107.444 32.7153 107.385 32.8097 107.365 32.923C107.346 33.0363 107.346 33.1307 107.346 33.1874L108.01 32.8664C108.206 32.772 108.42 32.6776 108.674 32.5831C108.909 32.4887 109.163 32.3943 109.397 32.3377L109.436 31.9412Z" fill="#FFD541"/>
    <path d="M107.932 23.5011C107.971 23.8976 107.991 24.313 108.03 24.7473C108.049 25.1816 108.069 25.6158 108.088 26.0501C108.108 26.4844 108.108 26.862 108.108 27.183C108.108 27.7872 108.108 28.297 108.088 28.7313C108.069 29.1656 108.049 29.4677 108.01 29.6754L108.069 29.732H108.127C108.264 29.5243 108.381 29.3355 108.479 29.1656C108.577 28.9957 108.655 28.8257 108.694 28.6747C108.753 28.5236 108.772 28.3537 108.792 28.1838C108.811 28.0138 108.811 27.825 108.811 27.6173C108.811 27.2774 108.811 26.8998 108.811 26.4844C108.811 26.069 108.792 25.6536 108.772 25.2193C108.753 24.7851 108.733 24.3697 108.714 23.9543C108.694 23.5389 108.655 23.1612 108.635 22.8025C108.616 22.4437 108.596 22.1416 108.557 21.8773C108.538 21.6129 108.518 21.4241 108.499 21.292L108.46 21.2731L107.893 21.9528C107.854 22.0095 107.834 22.0661 107.815 22.1227C107.795 22.1794 107.795 22.236 107.795 22.3116C107.795 22.3304 107.795 22.3493 107.795 22.3871C107.795 22.4249 107.795 22.4626 107.815 22.4815C107.854 22.7836 107.893 23.1046 107.932 23.5011Z" fill="#FFD541"/>
  </g>
  <defs>
    <clipPath id="clip0">
      <rect width="102" height="26" fill="white" transform="translate(41 9)"/>
    </clipPath>
  </defs>
</svg>
