<svg width="207" height="147" viewBox="0 0 207 147" fill="none" xmlns="http://www.w3.org/2000/svg">
  <g clip-path="url(#clip0)">
    <path d="M60.5295 94.3057C60.0152 94.3057 59.6197 94.3817 59.3033 94.5337C59.0264 94.6857 58.7495 94.9136 58.4726 95.2556L46.8831 109.921L35.3728 95.2176C35.0959 94.8756 34.819 94.6477 34.5026 94.4957C34.1861 94.3817 33.751 94.3057 33.1973 94.3057C32.4853 94.3057 31.9315 94.4577 31.4569 94.7237C30.9822 95.0276 30.7449 95.4456 30.7449 96.0915V114.329H34.8981V101.411L44.8263 113.911C45.3009 114.481 45.9338 114.747 46.8436 114.747C47.7138 114.747 48.3862 114.481 48.8609 113.911L58.8286 101.411V114.329H62.9818V96.0915C62.9818 95.4835 62.7445 95.0276 62.2699 94.7237C61.7952 94.4577 61.2019 94.3057 60.5295 94.3057Z" fill="white"/>
    <path d="M173.26 94.3043C172.746 94.3043 172.35 94.3803 172.034 94.5323C171.757 94.6843 171.48 94.9122 171.203 95.2542L159.614 109.92L148.103 95.2162C147.826 94.8742 147.549 94.6463 147.233 94.4943C146.917 94.3423 146.481 94.2663 145.928 94.2663C145.216 94.2663 144.662 94.4183 144.187 94.6843C143.713 94.9882 143.475 95.4062 143.475 96.0521V114.289H147.629V101.371L157.557 113.871C158.031 114.441 158.664 114.707 159.574 114.707C160.444 114.707 161.117 114.441 161.591 113.871L171.559 101.371V114.289H175.712V96.0521C175.712 95.4441 175.475 94.9882 175 94.6843C174.526 94.4563 173.932 94.3043 173.26 94.3043Z" fill="white"/>
    <path d="M76.3908 94.7236H71.842V114.329H76.3908V94.7236Z" fill="white"/>
    <path d="M195.292 107.68H198.891C200.276 107.68 201.502 107.604 202.53 107.414C203.559 107.224 204.389 106.958 205.062 106.502C205.734 106.084 206.209 105.476 206.525 104.754C206.842 104.032 207 103.082 207 101.943V100.575C207 99.3969 206.842 98.4471 206.565 97.6872C206.249 96.9273 205.774 96.3194 205.141 95.8635C204.508 95.4075 203.677 95.1036 202.649 94.9516C201.621 94.7616 200.394 94.6856 198.97 94.6856H182.99V98.3711H198.654C199.406 98.3711 199.999 98.4091 200.513 98.4471C201.027 98.5231 201.383 98.637 201.7 98.789C201.977 98.979 202.174 99.2069 202.293 99.5489C202.412 99.8908 202.491 100.309 202.491 100.803V101.905C202.491 102.436 202.412 102.854 202.293 103.196C202.174 103.538 201.977 103.766 201.66 103.956C201.383 104.146 200.988 104.26 200.474 104.298C199.999 104.374 199.366 104.374 198.615 104.374H182.951V114.329H187.46V107.68H195.292Z" fill="white"/>
    <path d="M6.61667 110.491C6.18157 110.415 5.86514 110.263 5.62781 110.035C5.39048 109.807 5.23226 109.503 5.15315 109.124C5.07404 108.744 5.03449 108.25 5.03449 107.642V106.274H22.3989V102.816H0.485718V107.604C0.485718 108.858 0.604381 109.883 0.841709 110.757C1.07904 111.593 1.51414 112.315 2.10745 112.809C2.70077 113.341 3.49186 113.721 4.52028 113.949C5.50914 114.177 6.77489 114.291 8.27796 114.291H22.5176V110.643H8.27796C7.60554 110.643 7.05177 110.567 6.61667 110.491Z" fill="white"/>
    <path d="M22.4783 94.7236H8.27818C6.7751 94.7236 5.54891 94.8376 4.52049 95.0656C3.53163 95.2935 2.74054 95.6735 2.10766 96.2054C1.51435 96.7373 1.07925 97.4212 0.841919 98.2951C0.841919 98.2951 0.841919 98.3331 0.841919 98.3711H22.4783V94.7236Z" fill="white"/>
    <path d="M59.5409 129.374H0.841919V130.248H59.5409V129.374Z" fill="#FFD541"/>
    <path d="M206.96 129.374H148.261V130.248H206.96V129.374Z" fill="#FFD541"/>
    <path d="M92.2522 114.443C90.7491 114.443 89.5229 114.329 88.4945 114.101C87.5057 113.873 86.7146 113.493 86.1213 112.961C85.5279 112.429 85.0928 111.745 84.8555 110.909C84.6182 110.073 84.4995 109.009 84.4995 107.756V101.563C84.4995 100.347 84.6182 99.2829 84.8555 98.4471C85.0928 97.5732 85.5279 96.8893 86.1213 96.3574C86.7146 95.8255 87.5057 95.4455 88.4945 95.2176C89.4834 94.9896 90.7491 94.8756 92.2522 94.8756H106.413V98.637H92.4895C91.7776 98.637 91.2238 98.675 90.7887 98.789C90.3536 98.903 89.9976 99.055 89.7207 99.3209C89.4438 99.5869 89.2856 99.8908 89.1669 100.309C89.0483 100.727 89.0087 101.221 89.0087 101.829V107.566C89.0087 108.174 89.0483 108.667 89.1669 109.085C89.2856 109.503 89.4438 109.807 89.7207 110.073C89.9976 110.339 90.3536 110.491 90.7887 110.605C91.2633 110.719 91.8171 110.757 92.5291 110.757H106.452V114.443H92.2522Z" fill="white"/>
    <path d="M120.85 114.443C119.347 114.443 118.121 114.329 117.093 114.101C116.104 113.873 115.313 113.493 114.719 112.961C114.126 112.429 113.691 111.745 113.454 110.909C113.216 110.073 113.098 109.009 113.098 107.756V101.563C113.098 100.347 113.216 99.2829 113.454 98.4471C113.691 97.5732 114.126 96.8893 114.719 96.3574C115.313 95.8255 116.104 95.4455 117.093 95.2176C118.082 94.9896 119.347 94.8756 120.85 94.8756H128.603C130.106 94.8756 131.372 94.9896 132.361 95.2176C133.35 95.4455 134.141 95.8255 134.734 96.3574C135.327 96.8893 135.762 97.5732 136 98.4471C136.237 99.3209 136.356 100.347 136.356 101.563V107.718C136.356 108.971 136.237 109.997 136 110.871C135.762 111.707 135.327 112.429 134.734 112.923C134.141 113.455 133.35 113.835 132.361 114.063C131.372 114.291 130.106 114.405 128.603 114.405H120.85V114.443ZM131.886 101.791C131.886 101.183 131.847 100.689 131.728 100.271C131.609 99.8528 131.451 99.5489 131.174 99.2829C130.897 99.017 130.581 98.865 130.106 98.751C129.671 98.637 129.117 98.599 128.445 98.599H121.088C120.376 98.599 119.782 98.637 119.347 98.751C118.912 98.865 118.556 99.017 118.279 99.2829C118.002 99.5489 117.844 99.8528 117.765 100.271C117.686 100.689 117.646 101.183 117.646 101.791V107.566C117.646 108.212 117.686 108.705 117.765 109.123C117.844 109.541 118.042 109.845 118.279 110.111C118.556 110.339 118.873 110.529 119.347 110.605C119.822 110.681 120.376 110.719 121.088 110.719H128.445C129.117 110.719 129.671 110.681 130.106 110.605C130.541 110.529 130.897 110.339 131.174 110.111C131.451 109.883 131.609 109.541 131.728 109.123C131.847 108.705 131.886 108.174 131.886 107.566V101.791Z" fill="white"/>
    <path d="M80.5045 138.72C80.2276 138.454 79.9903 138.302 79.8321 138.226H79.7529C79.7529 138.226 79.6738 138.302 79.5156 138.416C79.3574 138.53 79.2387 138.682 79.0805 138.834C78.9223 138.986 78.7641 139.138 78.6454 139.29C78.5267 139.442 78.4476 139.518 78.4476 139.518V139.594C78.7245 139.746 78.9618 139.898 79.1992 140.126C79.4365 140.354 79.6343 140.582 79.7925 140.734H79.8716C79.9507 140.658 80.0298 140.582 80.1485 140.468C80.2671 140.354 80.3858 140.24 80.5045 140.126C80.6231 140.012 80.7814 139.86 80.9 139.746C81.0187 139.632 81.1374 139.518 81.2165 139.442V139.366C81.0187 139.214 80.7814 138.986 80.5045 138.72Z" fill="#FFD541"/>
    <path d="M100.954 129.792C100.638 129.412 100.282 129.108 99.8863 128.842C99.4907 128.576 99.0952 128.462 98.6996 128.462C98.5414 128.462 98.3832 128.5 98.1459 128.538C97.9085 128.576 97.6316 128.728 97.3548 128.918C97.0383 129.146 96.7219 129.45 96.4055 129.83C96.089 130.21 95.733 130.78 95.4166 131.464C95.1793 131.958 94.9815 132.376 94.7442 132.642C94.5068 132.946 94.2695 133.173 94.0717 133.325C93.874 133.477 93.6366 133.591 93.4389 133.629C93.2411 133.667 93.0829 133.705 92.9247 133.705C92.3313 133.705 91.8962 133.667 91.5402 133.591C91.1843 133.515 90.9074 133.439 90.7096 133.287C90.5118 133.136 90.3536 132.984 90.3141 132.794C90.2349 132.604 90.1954 132.376 90.1954 132.148C90.1954 131.958 90.1954 131.768 90.2349 131.578C90.2745 131.388 90.3141 131.236 90.3536 131.084L90.5514 130.552C90.5118 130.514 90.4327 130.476 90.3536 130.476C90.2745 130.476 90.1954 130.514 90.1163 130.59C90.0372 130.666 89.9185 130.78 89.7603 130.932C89.6021 131.084 89.4439 131.236 89.2065 131.388C88.9692 131.578 88.6923 131.73 88.3363 131.882C87.7826 132.11 87.0706 132.376 86.2399 132.642C85.3697 132.908 84.46 133.136 83.4316 133.325C82.4031 133.515 81.2956 133.667 80.1485 133.819C79.0015 133.933 77.8148 134.009 76.6282 134.009C75.3624 134.009 74.2945 133.933 73.3847 133.743C72.475 133.591 71.763 133.325 71.1697 132.984C70.6159 132.642 70.1808 132.224 69.9435 131.73C69.6666 131.236 69.5479 130.666 69.5479 130.058C69.5479 129.982 69.5479 129.868 69.5875 129.678C69.5875 129.488 69.627 129.336 69.627 129.222C69.5875 129.184 69.5479 129.146 69.4688 129.146C69.4293 129.146 69.3897 129.146 69.3897 129.184C69.2315 129.336 69.0733 129.64 68.9546 130.058C68.7964 130.476 68.7568 131.008 68.7568 131.616C68.7568 132.186 68.8755 132.756 69.0733 133.325C69.271 133.895 69.627 134.389 70.1412 134.845C70.6555 135.301 71.3279 135.643 72.1981 135.947C73.0683 136.213 74.1758 136.365 75.5207 136.365C76.3513 136.365 77.3402 136.327 78.4477 136.213C79.5552 136.099 80.7419 135.909 81.968 135.681C83.1942 135.453 84.4204 135.149 85.6862 134.807C86.9124 134.465 88.0595 134.047 89.1274 133.591C89.167 133.857 89.2461 134.123 89.3252 134.351C89.4043 134.579 89.5625 134.807 89.8394 134.997C90.0767 135.187 90.4327 135.339 90.8283 135.491C91.2238 135.605 91.7776 135.681 92.4896 135.681C93.2015 135.681 93.7949 135.491 94.23 135.149C94.6651 134.807 94.9815 134.389 95.2188 133.971L95.2979 133.819C96.0099 134.541 96.801 135.035 97.6712 135.339C98.5414 135.643 99.3325 135.795 100.124 135.795C100.282 135.795 100.48 135.681 100.717 135.453C100.954 135.225 101.152 134.959 101.389 134.617C101.587 134.275 101.785 133.895 101.943 133.515C102.101 133.136 102.18 132.756 102.18 132.452C102.18 131.996 102.101 131.502 101.904 131.046C101.508 130.59 101.271 130.172 100.954 129.792ZM100.717 134.085C100.559 134.123 100.361 134.161 100.124 134.161C99.8071 134.161 99.4512 134.123 99.0556 134.047C98.6601 133.971 98.2645 133.857 97.8294 133.667C97.4339 133.515 97.0383 133.287 96.6823 133.06C96.3263 132.832 96.0099 132.528 95.7726 132.224C96.089 131.578 96.4055 131.046 96.801 130.704C97.1965 130.362 97.6316 130.172 98.1459 130.172C98.4623 130.172 98.7787 130.286 99.0952 130.552C99.4116 130.78 99.728 131.084 100.005 131.464C100.282 131.844 100.48 132.224 100.677 132.642C100.836 133.06 100.954 133.477 100.954 133.819C100.954 133.933 100.875 134.047 100.717 134.085Z" fill="#FFD541"/>
    <path d="M125.478 145.711L125.003 146.623L129.117 144.951C129.394 144.838 129.631 144.648 129.868 144.382C130.066 144.116 130.224 143.926 130.343 143.736L130.264 143.66L125.478 145.711Z" fill="#FFD541"/>
    <path d="M131.649 129.792C131.332 129.412 130.976 129.108 130.581 128.842C130.185 128.576 129.79 128.462 129.394 128.462C129.236 128.462 129.078 128.5 128.84 128.538C128.603 128.576 128.326 128.728 128.049 128.918C127.733 129.146 127.416 129.45 127.1 129.83C126.784 130.21 126.428 130.78 126.111 131.464C125.874 131.958 125.676 132.376 125.439 132.641C125.201 132.945 124.964 133.173 124.766 133.325C124.569 133.477 124.331 133.591 124.133 133.629C123.936 133.667 123.777 133.705 123.619 133.705C123.145 133.705 122.709 133.667 122.314 133.553C121.918 133.439 121.523 133.249 121.088 132.945C120.692 132.641 120.257 132.262 119.862 131.806C119.426 131.312 118.952 130.704 118.438 129.982C117.686 128.918 117.093 128.006 116.578 127.246C116.064 126.486 115.669 125.841 115.352 125.347C114.996 124.739 114.68 124.245 114.482 123.789C114.799 123.599 115.234 123.371 115.787 123.143C116.341 122.915 116.974 122.649 117.686 122.383C118.398 122.117 119.11 121.851 119.901 121.585C120.653 121.319 121.404 121.053 122.077 120.825C122.195 120.787 122.314 120.673 122.433 120.521C122.591 120.331 122.709 120.179 122.828 119.989C122.947 119.799 123.065 119.609 123.145 119.458C123.224 119.306 123.303 119.192 123.303 119.154L123.224 119.078C122.472 119.23 121.641 119.458 120.771 119.723C119.901 119.989 119.031 120.293 118.161 120.597C117.29 120.901 116.499 121.243 115.787 121.547C115.036 121.851 114.482 122.155 114.007 122.383C113.928 122.459 113.81 122.611 113.691 122.801C113.572 122.991 113.454 123.219 113.375 123.447C113.295 123.675 113.216 123.941 113.137 124.169C113.058 124.397 113.058 124.587 113.058 124.739C113.058 124.815 113.177 125.005 113.375 125.309C113.572 125.613 113.81 126.03 114.126 126.448C114.443 126.904 114.759 127.398 115.115 127.93C115.471 128.462 115.787 128.994 116.104 129.526C116.42 130.058 116.658 130.514 116.855 130.97C117.053 131.426 117.172 131.768 117.172 131.996C117.172 132.528 116.816 132.945 116.143 133.249C115.471 133.553 114.284 133.705 112.623 133.705H110.883C110.883 133.097 110.804 132.49 110.645 131.882C110.487 131.274 110.289 130.704 109.973 130.21C109.696 129.716 109.34 129.298 108.944 128.994C108.549 128.69 108.074 128.5 107.6 128.5C107.125 128.5 106.729 128.652 106.334 128.956C105.938 129.26 105.622 129.64 105.345 130.134C105.068 130.59 104.87 131.084 104.712 131.616C104.554 132.148 104.514 132.641 104.514 133.097C104.514 134.807 105.661 135.643 107.956 135.643H109.933C109.894 136.061 109.775 136.517 109.538 137.087C109.3 137.619 108.905 138.151 108.351 138.683C107.797 139.176 107.046 139.632 106.097 140.012C105.147 140.392 103.961 140.582 102.497 140.658L102.458 140.81C102.893 140.962 103.367 141.114 103.881 141.228C104.277 141.342 104.712 141.456 105.147 141.532C105.582 141.608 105.978 141.646 106.294 141.646C106.69 141.646 107.125 141.494 107.6 141.19C108.074 140.886 108.549 140.468 108.984 139.936C109.419 139.404 109.815 138.797 110.131 138.075C110.448 137.353 110.685 136.555 110.764 135.719H112.069C113.098 135.719 113.928 135.643 114.601 135.491C115.273 135.339 115.827 135.111 116.262 134.807C116.697 134.503 117.014 134.161 117.251 133.743C117.488 133.325 117.686 132.869 117.844 132.376C118.319 132.983 118.794 133.515 119.229 133.933C119.664 134.351 120.099 134.693 120.534 134.959C120.969 135.225 121.365 135.415 121.8 135.529C122.235 135.643 122.63 135.719 123.065 135.719C123.065 135.719 123.065 135.719 123.105 135.719C123.817 135.719 124.371 135.529 124.806 135.187C125.241 134.845 125.557 134.427 125.795 134.009L125.874 133.857C126.586 134.579 127.377 135.073 128.247 135.377C129.117 135.681 129.908 135.833 130.699 135.833C130.858 135.833 131.055 135.719 131.293 135.491C131.53 135.263 131.728 134.997 131.965 134.655C132.163 134.313 132.361 133.933 132.519 133.553C132.677 133.173 132.756 132.793 132.756 132.49C132.756 132.034 132.677 131.54 132.479 131.084C132.203 130.59 131.965 130.172 131.649 129.792ZM108.826 133.781C107.679 133.781 106.769 133.705 106.176 133.553C105.582 133.401 105.266 133.135 105.266 132.679C105.266 132.414 105.305 132.148 105.424 131.882C105.543 131.616 105.661 131.35 105.859 131.16C106.057 130.932 106.255 130.78 106.492 130.628C106.729 130.476 106.967 130.438 107.204 130.438C107.56 130.438 107.877 130.514 108.153 130.704C108.47 130.894 108.747 131.122 108.984 131.388C109.221 131.692 109.419 132.034 109.617 132.452C109.775 132.869 109.894 133.287 109.933 133.781H108.826ZM131.411 134.085C131.253 134.123 131.055 134.161 130.818 134.161C130.502 134.161 130.146 134.123 129.75 134.047C129.355 133.971 128.959 133.857 128.524 133.667C128.128 133.515 127.733 133.287 127.377 133.059C127.021 132.831 126.704 132.528 126.467 132.224C126.784 131.578 127.1 131.046 127.496 130.704C127.891 130.362 128.326 130.172 128.84 130.172C129.157 130.172 129.473 130.286 129.79 130.552C130.106 130.78 130.423 131.084 130.699 131.464C130.976 131.844 131.174 132.224 131.372 132.641C131.53 133.059 131.649 133.477 131.649 133.819C131.649 133.933 131.57 134.047 131.411 134.085Z" fill="#FFD541"/>
    <path d="M139.045 140.468C138.768 140.582 138.491 140.696 138.254 140.772C138.017 140.848 137.7 140.886 137.305 140.886C136.988 140.886 136.711 140.81 136.435 140.696C136.197 140.544 136.079 140.355 136.079 140.013C136.079 139.823 136.118 139.671 136.197 139.519C136.276 139.367 136.395 139.253 136.514 139.177C136.632 139.101 136.791 139.025 136.949 138.987C137.107 138.949 137.265 138.949 137.384 138.949C137.819 138.949 138.175 139.025 138.373 139.215C138.531 139.025 138.571 138.797 138.571 138.531C138.571 138.341 138.491 138.189 138.294 138.113C138.135 138.037 137.938 137.999 137.779 137.999C137.423 137.999 137.107 138.113 136.791 138.303C136.474 138.493 136.197 138.721 135.92 138.987C135.683 139.253 135.485 139.519 135.327 139.823C135.169 140.127 135.09 140.355 135.09 140.582C135.09 140.848 135.169 141.076 135.327 141.228C135.485 141.38 135.644 141.494 135.841 141.57L135.208 141.912C135.011 142.026 134.892 142.216 134.852 142.444C134.813 142.672 134.813 142.862 134.813 142.976L136.158 142.33C136.553 142.14 136.988 141.95 137.503 141.76C137.977 141.57 138.491 141.38 138.966 141.266L139.045 140.468Z" fill="#FFD541"/>
    <path d="M136 123.485C136.079 124.283 136.118 125.119 136.197 125.993C136.237 126.866 136.276 127.74 136.316 128.614C136.356 129.488 136.356 130.248 136.356 130.894C136.356 132.11 136.356 133.135 136.316 134.009C136.276 134.883 136.237 135.491 136.158 135.909L136.276 136.023H136.395C136.672 135.605 136.909 135.225 137.107 134.883C137.305 134.541 137.463 134.199 137.542 133.895C137.661 133.591 137.7 133.249 137.74 132.907C137.779 132.566 137.779 132.186 137.779 131.768C137.779 131.084 137.779 130.324 137.779 129.488C137.779 128.652 137.74 127.816 137.7 126.942C137.661 126.068 137.621 125.233 137.582 124.397C137.542 123.561 137.463 122.801 137.423 122.079C137.384 121.357 137.344 120.749 137.265 120.217C137.226 119.685 137.186 119.306 137.147 119.04L137.067 119.002L135.92 120.369C135.841 120.483 135.802 120.597 135.762 120.711C135.723 120.825 135.723 120.939 135.723 121.091C135.723 121.129 135.723 121.167 135.723 121.243C135.723 121.319 135.723 121.395 135.762 121.433C135.841 122.041 135.92 122.687 136 123.485Z" fill="#FFD541"/>
  </g>
  <path d="M84.3173 26.8893L85.4294 26.4575C86.0966 26.0257 85.8742 26.0257 85.8742 25.378V24.2985C85.8742 23.8667 85.6518 23.6508 84.9846 23.8667L84.0949 24.2985C83.4277 24.7303 83.6501 24.7303 83.6501 25.378V26.4575C83.4277 27.1052 83.8725 27.3211 84.3173 26.8893Z" fill="white"/>
  <path d="M82.3165 27.3214V26.242C82.3165 25.8102 82.0941 25.5943 81.4269 25.8102L78.3131 27.5373C77.6459 27.9691 77.4235 28.4009 77.4235 29.2645V34.2302C77.4235 34.662 77.8683 34.8779 78.3131 34.662C78.5355 34.662 79.2028 34.2302 79.2028 34.2302C79.6476 34.0143 79.6476 33.5825 79.6476 32.7189V30.7758C79.6476 30.1281 80.0924 29.4804 80.5372 29.2645L81.8717 28.6168C82.3165 27.9691 82.3165 27.9691 82.3165 27.3214Z" fill="white"/>
  <path d="M81.8723 32.7181V39.411C81.8723 39.6269 82.0947 39.8428 82.3171 39.8428C82.5395 39.8428 82.5395 39.8428 82.762 39.8428C83.2068 39.6269 83.874 39.1951 83.874 39.1951C84.3188 38.9792 84.3188 38.7633 84.3188 37.6838V33.7976C84.3188 33.1499 84.5412 32.7181 85.2085 32.5022L90.7688 29.4796C90.9912 29.2638 91.2136 29.2638 91.6584 29.2638C91.8808 29.2638 92.3256 29.2638 92.548 29.4796L99.6652 33.5817C99.8876 33.7976 100.11 33.5817 100.11 33.3658C100.11 33.3658 100.11 33.1499 100.11 32.934C100.11 32.5022 100.11 31.8545 100.11 31.8545C100.11 31.4227 99.8876 31.2068 99.2204 30.9909L92.1032 26.8889C91.8808 26.673 91.436 26.673 91.2136 26.673C90.9912 26.673 90.7688 26.673 90.3239 26.8889L82.5395 31.2068C82.0947 31.4227 81.8723 31.8545 81.8723 32.7181Z" fill="white"/>
  <path d="M99.6627 43.2973C99.6627 43.0814 99.4402 42.8655 99.2178 42.6496C99.2178 42.6496 98.3282 42.0019 97.8834 42.0019C97.661 42.0019 97.4385 42.0019 97.2161 42.0019C96.9937 42.0019 96.7713 42.0019 96.3265 42.2178L86.0956 48.0471C85.8732 48.0471 85.8732 48.263 85.8732 48.263C85.8732 48.4789 85.8732 48.4789 86.0956 48.6948C86.5404 49.1266 87.6525 49.5584 87.6525 49.5584C87.8749 49.5584 88.0973 49.7743 88.0973 49.7743C88.3197 49.7743 88.7645 49.5584 89.2093 49.3425L98.9954 43.7291C99.4402 43.7291 99.6627 43.5132 99.6627 43.2973Z" fill="white"/>
  <path d="M94.1041 40.0582C94.1041 39.8423 93.8817 39.6264 93.6592 39.4105C93.6592 39.4105 92.7696 38.7628 92.3248 38.7628C92.1024 38.7628 91.88 38.7628 91.6575 38.7628C91.4351 38.7628 91.2127 38.7628 90.9903 38.9787L81.8715 44.1603C81.649 44.1603 81.649 44.3762 81.649 44.3762C81.649 44.5921 81.649 44.5921 81.8715 44.808C82.3163 45.2398 83.4283 45.6716 83.4283 45.6716C83.6507 45.6716 83.8732 45.8875 83.8732 45.8875C84.0956 45.8875 84.5404 45.6716 84.9852 45.4557L93.6592 40.49C93.8817 40.2741 94.1041 40.2741 94.1041 40.0582Z" fill="white"/>
  <path d="M122.35 26.2405L123.462 26.8882C124.13 27.1041 124.352 26.8882 124.352 26.4564V25.3769C124.352 24.7292 124.352 24.5133 123.907 24.2974L122.795 23.6497C122.128 23.4338 121.906 23.6497 121.906 24.0815V25.161C121.906 25.8087 121.906 26.0246 122.35 26.2405Z" fill="white"/>
  <path d="M129.69 27.5373L126.576 25.8102C125.909 25.5943 125.686 25.8102 125.686 26.242V27.3214C125.686 27.9691 125.686 27.9691 126.131 28.4009L127.465 29.0486C128.133 29.4804 128.355 29.9122 128.355 30.5599V32.503C128.355 33.3666 128.355 33.7984 128.8 34.0143C128.8 34.0143 129.467 34.4461 129.69 34.4461C130.134 34.662 130.579 34.4461 130.579 34.0143V29.0486C130.802 28.4009 130.579 27.9691 129.69 27.5373Z" fill="white"/>
  <path d="M116.79 26.4576C116.568 26.4576 116.123 26.4576 115.901 26.6734L108.784 30.7755C108.116 31.2073 107.894 31.2073 107.894 31.6391C107.894 31.6391 107.894 32.2868 107.894 32.7186C107.894 32.9345 107.894 32.9345 107.894 33.1504C108.116 33.3663 108.339 33.3663 108.339 33.3663L115.456 29.2642C115.678 29.0483 115.901 29.0483 116.346 29.0483C116.568 29.0483 117.013 29.0483 117.235 29.2642L122.796 32.2868C123.24 32.5027 123.685 33.1504 123.685 33.5822V37.4684C123.685 38.3319 123.685 38.5478 124.13 38.9796C124.13 38.9796 124.797 39.4114 125.242 39.6273C125.465 39.6273 125.465 39.6273 125.687 39.6273C125.909 39.6273 126.132 39.4114 126.132 39.1955V32.2868C126.132 31.4232 125.909 31.2073 125.242 30.7755L117.458 26.4576C117.235 26.6734 117.013 26.4576 116.79 26.4576Z" fill="white"/>
  <path d="M121.906 48.0471L111.675 42.2178C111.453 42.0019 111.23 42.0019 110.785 42.0019C110.563 42.0019 110.341 42.0019 110.118 42.0019C109.673 42.2178 108.784 42.6496 108.784 42.6496C108.561 42.8655 108.339 43.0814 108.339 43.2973C108.339 43.5132 108.339 43.5132 108.561 43.7291L118.347 49.3425C118.792 49.5584 119.237 49.7743 119.459 49.7743C119.682 49.7743 119.904 49.7743 119.904 49.5584C119.904 49.5584 121.016 49.1266 121.461 48.6948C121.684 48.4789 121.684 48.4789 121.684 48.263C122.128 48.263 121.906 48.263 121.906 48.0471Z" fill="white"/>
  <path d="M117.235 51.5013L105.448 44.8085V40.9223L115.901 35.093C116.346 34.8771 116.791 34.8771 117.235 35.093L119.682 36.3884C120.349 36.6043 120.572 36.3884 120.572 35.9566V35.093C120.572 34.4454 120.572 34.2295 120.127 34.0136C120.127 34.0136 117.68 32.7182 117.68 32.5023C117.235 32.2864 116.568 32.0705 115.901 32.5023L105.67 38.3315V29.4797L116.123 23.6504C116.568 23.4345 117.013 23.4345 117.458 23.6504L119.904 24.9458C120.572 25.1617 120.794 24.9458 120.794 24.514V23.4345C120.794 22.7869 120.794 22.571 120.349 22.3551C120.349 22.3551 117.903 21.0597 117.903 20.8438C117.458 20.6279 116.791 20.412 116.123 20.8438L105.448 26.4571V19.5484C105.448 18.9007 104.78 18.253 104.113 18.253C103.446 18.253 102.779 18.9007 102.779 19.5484V26.4571L92.5478 20.6279C91.8805 20.1961 91.2133 20.412 90.7685 20.6279L88.322 22.1392C87.6547 22.571 87.8771 22.571 87.8771 23.2186V24.2981C87.8771 24.7299 88.0996 24.9458 88.7668 24.7299L91.2133 23.4345C91.6581 23.2186 92.1029 23.2186 92.5478 23.4345L103.001 29.2638V38.1156L92.7702 32.2864C92.1029 31.8546 91.4357 32.0705 90.9909 32.2864L88.5444 33.7977C87.8771 34.2295 88.0995 34.2295 88.0995 34.8771V35.9566C88.0995 36.3884 88.322 36.6043 88.9892 36.3884L91.4357 35.093C91.8805 34.8771 92.3254 34.8771 92.7702 35.093L103.223 40.9223V44.8085L91.4357 51.5013C91.2133 51.5013 91.2133 51.7172 91.2133 51.7172C91.2133 51.9331 91.2133 51.9331 91.4357 52.149C91.8805 52.5808 92.9926 53.0126 92.9926 53.0126C93.215 53.0126 93.4374 53.2285 93.4374 53.2285C93.6598 53.2285 94.1046 53.0126 94.5495 52.7967L103.223 48.0469V63.5916C103.223 64.2393 103.891 64.887 104.558 64.887C105.225 64.887 105.892 64.2393 105.892 63.5916V48.0469L114.566 52.7967C115.011 53.0126 115.456 53.2285 115.679 53.2285C115.901 53.2285 116.123 53.2285 116.123 53.0126C116.123 53.0126 117.235 52.5808 117.68 52.149C117.903 51.9331 117.903 51.9331 117.903 51.7172C117.458 51.7172 117.458 51.7172 117.235 51.5013Z" fill="white"/>
  <path d="M126.132 43.9449L117.013 38.7634C116.791 38.5475 116.568 38.5475 116.346 38.5475C116.123 38.5475 115.901 38.5475 115.678 38.5475C115.234 38.7634 114.344 39.1951 114.344 39.1951C114.122 39.411 113.899 39.6269 113.899 39.8428C113.899 40.0587 113.899 40.0587 114.122 40.2746L122.796 45.2403C123.24 45.4562 123.685 45.6721 123.908 45.6721C124.13 45.6721 124.352 45.6721 124.352 45.4562C124.352 45.4562 125.465 45.0244 125.909 44.5926C126.132 44.3767 126.132 44.3767 126.132 44.1608C126.354 44.1608 126.354 44.1608 126.132 43.9449Z" fill="white"/>
  <path d="M85.656 11.1277C85.2112 11.1277 84.9887 10.9118 84.7663 10.6959C84.5439 10.0482 84.7663 9.61639 85.2112 9.1846L88.9921 7.02562C89.437 6.80972 90.1042 7.02562 90.3266 7.45741C90.549 7.88921 90.549 8.5369 89.8818 8.7528L86.1008 10.9118C86.1008 11.1277 85.8784 11.1277 85.656 11.1277Z" fill="#FFD541"/>
  <path d="M69.1968 37.8987C68.7519 37.8987 68.3071 37.4669 68.3071 37.0351V25.8084C68.0847 21.4904 70.3088 17.6042 74.0898 15.6612L77.6484 13.5022C78.0932 13.2863 78.7604 13.5022 78.9829 13.934C79.2053 14.3658 79.2053 15.0135 78.538 15.2294L74.9795 17.1724C71.8657 18.8996 70.0864 22.1381 70.0864 25.5925V36.8192C70.0864 37.4669 69.6416 37.8987 69.1968 37.8987Z" fill="#FFD541"/>
  <path d="M104.115 77.4076C101.891 77.4076 99.889 76.9758 98.1097 75.8963L74.0893 62.5106C70.5308 60.3517 68.3066 56.6814 68.0842 52.3634V45.8865C68.0842 45.4547 68.5291 45.0229 68.9739 45.0229C69.4187 45.0229 69.8635 45.4547 69.8635 45.8865V52.3634C69.8635 55.8178 71.8652 59.0563 74.979 60.7835L99.2218 74.1691C100.779 75.0327 102.336 75.4645 104.115 75.4645C105.894 75.4645 107.673 75.0327 109.23 74.1691L118.794 68.7717C119.239 68.5558 119.906 68.5558 120.128 69.2035C120.351 69.6353 120.351 70.283 119.684 70.4989L110.12 75.8963C108.341 76.7599 106.339 77.4076 104.115 77.4076Z" fill="#FFD541"/>
  <path d="M134.807 39.8422C134.363 39.8422 133.918 39.4104 133.918 38.9786V25.5929C133.918 23.6499 132.806 21.7068 131.026 20.6273L125.911 17.8206C125.466 17.6047 125.244 16.957 125.466 16.5252C125.689 16.0934 126.356 15.8775 126.801 16.0934L131.916 18.9001C134.363 20.1955 135.919 22.7863 135.919 25.377V38.7627C135.697 39.4104 135.252 39.8422 134.807 39.8422Z" fill="#FFD541"/>
  <path d="M126.356 66.3981C126.133 66.3981 125.688 66.1822 125.466 65.9663L123.019 62.7278C122.797 62.5119 122.797 62.296 122.797 61.8642C122.797 61.6483 123.019 61.4324 123.242 61.2165L130.581 57.1144C132.361 56.0349 133.473 54.3078 133.473 52.1488V49.1262C133.473 48.6944 133.918 48.2626 134.362 48.2626C134.807 48.2626 135.252 48.6944 135.252 49.1262V52.1488C135.252 54.7396 133.695 57.3303 131.471 58.6257L125.021 62.296L126.356 64.0232L132.583 60.5688C135.697 58.8416 137.476 55.6031 137.476 52.1488V25.3774C137.476 21.923 135.474 18.6846 132.361 16.9574C131.916 16.7415 131.693 16.0938 131.916 15.662C132.138 15.2302 132.805 15.0143 133.25 15.2302C137.031 17.3892 139.255 21.0595 139.255 25.1615V51.9329C139.255 56.0349 137.031 59.9211 133.25 62.0801L126.133 65.9663C126.8 66.3981 126.578 66.3981 126.356 66.3981Z" fill="#FFD541"/>
  <path d="M104.115 73.3062C102.781 73.3062 101.446 72.8744 100.334 72.2267L93.8841 68.7724C93.4393 68.5565 93.2169 67.9088 93.4393 67.477C93.6617 67.0452 94.3289 66.8293 94.7738 67.0452L101.224 70.4995C102.113 70.9313 103.003 71.1472 104.115 71.1472C105.227 71.1472 106.117 70.9313 107.006 70.2836L120.351 62.7272C120.796 62.5113 121.463 62.5113 121.686 63.159C121.908 63.5908 121.908 64.2385 121.241 64.4544L107.896 72.0108C106.784 72.8744 105.45 73.3062 104.115 73.3062Z" fill="#FFD541"/>
  <path d="M85.4321 63.8069C85.2097 63.8069 84.9872 63.8069 84.9872 63.591L76.3132 58.8413C73.8667 57.5459 72.3098 54.9551 72.3098 52.3643V33.5812C72.3098 33.1494 72.7546 32.7176 73.1995 32.7176C73.6443 32.7176 74.0891 33.1494 74.0891 33.5812V52.3643C74.0891 54.3074 75.2012 56.2505 76.9804 57.33L85.8769 62.0797C86.3217 62.2956 86.5441 62.9433 86.3217 63.3751C86.0993 63.591 85.6545 63.8069 85.4321 63.8069Z" fill="#FFD541"/>
  <path d="M73.1995 26.6722C72.7546 26.6722 72.3098 26.2404 72.3098 25.8086C72.3098 23.2178 73.8667 20.6271 76.0908 19.3317L86.9889 13.0706C87.6562 12.6388 88.101 12.6388 88.5458 13.2865C88.7682 13.7183 88.5458 14.1501 88.101 14.5819L77.2029 20.6271C75.4236 21.7065 74.3115 23.4337 74.3115 25.5927C74.3115 26.2404 73.8667 26.6722 73.1995 26.6722Z" fill="#FFD541"/>
  <path d="M119.238 14.1483C119.016 14.1483 118.794 14.1483 118.794 13.9324L106.783 7.23953C105.004 6.16004 102.78 6.37594 101.001 7.23953L93.6612 11.3416C93.2164 11.5575 92.5492 11.5575 92.3267 10.9098C92.1043 10.478 92.1043 9.83031 92.7716 9.61441L100.111 5.51235C102.558 4.21696 105.449 4.21696 107.896 5.51235L119.238 11.7734L120.573 10.0462L109.008 3.56926C106.116 1.84208 102.113 1.84208 98.9991 3.56926L94.3284 6.16004C93.8836 6.37594 93.2164 6.37594 92.994 5.72824C92.7716 5.29645 92.7716 4.64875 93.4388 4.43286L98.1094 1.84208C101.668 -0.101005 106.561 -0.101005 110.12 1.84208L122.575 8.75082C122.797 8.96672 123.019 9.18261 123.019 9.39851C123.019 9.61441 123.019 10.0462 122.797 10.2621L120.351 13.5006C119.906 13.9324 119.683 14.1483 119.238 14.1483Z" fill="#FFD541"/>
  <defs>
    <clipPath id="clip0">
      <rect width="206.514" height="52.318" fill="white" transform="translate(0.485718 94.3057)"/>
    </clipPath>
  </defs>
</svg>
