<svg width="78" height="72" viewBox="0 0 78 72" fill="none" xmlns="http://www.w3.org/2000/svg">
<path d="M73.2417 1L43.5522 22.875L49.0732 9.98336L73.2417 1Z" fill="#E17726" stroke="#E17726" stroke-width="0.25" stroke-linecap="round" stroke-linejoin="round"/>
<path d="M4.75879 1L34.1839 23.0792L28.9273 9.98333L4.75879 1Z" fill="#E27625" stroke="#E27625" stroke-width="0.25" stroke-linecap="round" stroke-linejoin="round"/>
<path d="M62.5509 51.7205L54.6514 63.7372L71.5663 68.3747L76.4119 51.9832L62.5509 51.7205Z" fill="#E27625" stroke="#E27625" stroke-width="0.25" stroke-linecap="round" stroke-linejoin="round"/>
<path d="M1.61719 51.9832L6.43323 68.3747L23.3189 63.7372L15.4487 51.7205L1.61719 51.9832Z" fill="#E27625" stroke="#E27625" stroke-width="0.25" stroke-linecap="round" stroke-linejoin="round"/>
<path d="M22.4085 31.4208L17.71 38.4792L34.4487 39.2375L33.8908 21.3001L22.4085 31.4208Z" fill="#E27625" stroke="#E27625" stroke-width="0.25" stroke-linecap="round" stroke-linejoin="round"/>
<path d="M55.5922 31.4211L43.934 21.0961L43.5522 39.2378L60.2909 38.4794L55.5922 31.4211Z" fill="#E27625" stroke="#E27625" stroke-width="0.25" stroke-linecap="round" stroke-linejoin="round"/>
<path d="M23.3193 63.7373L33.4506 58.8665L24.729 52.0999L23.3193 63.7373Z" fill="#E27625" stroke="#E27625" stroke-width="0.25" stroke-linecap="round" stroke-linejoin="round"/>
<path d="M44.5503 58.8665L54.6522 63.7373L53.2719 52.0999L44.5503 58.8665Z" fill="#E27625" stroke="#E27625" stroke-width="0.25" stroke-linecap="round" stroke-linejoin="round"/>
<path d="M54.6522 63.7378L44.5503 58.8671L45.3724 65.4003L45.2843 68.1712L54.6522 63.7378Z" fill="#D5BFB2" stroke="#D5BFB2" stroke-width="0.25" stroke-linecap="round" stroke-linejoin="round"/>
<path d="M23.3193 63.7378L32.7166 68.1712L32.6578 65.4003L33.4506 58.8671L23.3193 63.7378Z" fill="#D5BFB2" stroke="#D5BFB2" stroke-width="0.25" stroke-linecap="round" stroke-linejoin="round"/>
<path d="M32.891 47.7833L24.4922 45.3334L30.4241 42.6208L32.891 47.7833Z" fill="#233447" stroke="#233447" stroke-width="0.25" stroke-linecap="round" stroke-linejoin="round"/>
<path d="M45.1084 47.7833L47.5753 42.6208L53.5366 45.3334L45.1084 47.7833Z" fill="#233447" stroke="#233447" stroke-width="0.25" stroke-linecap="round" stroke-linejoin="round"/>
<path d="M23.3179 63.7372L24.7863 51.7205L15.4478 51.9832L23.3179 63.7372Z" fill="#CC6228" stroke="#CC6228" stroke-width="0.25" stroke-linecap="round" stroke-linejoin="round"/>
<path d="M53.2129 51.7205L54.6519 63.7372L62.5514 51.9832L53.2129 51.7205Z" fill="#CC6228" stroke="#CC6228" stroke-width="0.25" stroke-linecap="round" stroke-linejoin="round"/>
<path d="M60.2909 38.4789L43.5522 39.2373L45.1086 47.7833L47.5755 42.6206L53.5368 45.3332L60.2909 38.4789Z" fill="#CC6228" stroke="#CC6228" stroke-width="0.25" stroke-linecap="round" stroke-linejoin="round"/>
<path d="M24.4936 45.3332L30.4255 42.6206L32.8924 47.7833L34.4487 39.2373L17.71 38.4789L24.4936 45.3332Z" fill="#CC6228" stroke="#CC6228" stroke-width="0.25" stroke-linecap="round" stroke-linejoin="round"/>
<path d="M17.71 38.4789L24.7286 52.0999L24.4935 45.3332L17.71 38.4789Z" fill="#E27525" stroke="#E27525" stroke-width="0.25" stroke-linecap="round" stroke-linejoin="round"/>
<path d="M53.5367 45.3332L53.2725 52.0999L60.291 38.4789L53.5367 45.3332Z" fill="#E27525" stroke="#E27525" stroke-width="0.25" stroke-linecap="round" stroke-linejoin="round"/>
<path d="M34.4482 39.2372L32.8916 47.7833L34.8591 57.8747L35.2997 44.5748L34.4482 39.2372Z" fill="#E27525" stroke="#E27525" stroke-width="0.25" stroke-linecap="round" stroke-linejoin="round"/>
<path d="M43.5519 39.2372L42.7295 44.5458L43.1407 57.8747L45.1082 47.7833L43.5519 39.2372Z" fill="#E27525" stroke="#E27525" stroke-width="0.25" stroke-linecap="round" stroke-linejoin="round"/>
<path d="M45.1077 47.7835L43.1401 57.875L44.5498 58.8667L53.2716 52.1001L53.5359 45.3334L45.1077 47.7835Z" fill="#F5841F" stroke="#F5841F" stroke-width="0.25" stroke-linecap="round" stroke-linejoin="round"/>
<path d="M24.4922 45.3334L24.7273 52.1001L33.4489 58.8667L34.8585 57.875L32.891 47.7835L24.4922 45.3334Z" fill="#F5841F" stroke="#F5841F" stroke-width="0.25" stroke-linecap="round" stroke-linejoin="round"/>
<path d="M45.2853 68.1708L45.3733 65.3999L44.6099 64.7582H33.392L32.6578 65.3999L32.7166 68.1708L23.3193 63.7374L26.6083 66.4207L33.2745 71H44.6978L51.3934 66.4207L54.653 63.7374L45.2853 68.1708Z" fill="#C0AC9D" stroke="#C0AC9D" stroke-width="0.25" stroke-linecap="round" stroke-linejoin="round"/>
<path d="M44.5496 58.8665L43.1399 57.875H34.8586L33.4492 58.8665L32.6562 65.4L33.3905 64.7582H44.6083L45.3719 65.4L44.5496 58.8665Z" fill="#161616" stroke="#161616" stroke-width="0.25" stroke-linecap="round" stroke-linejoin="round"/>
<path d="M74.5037 24.3041L77 12.2292L73.241 1L44.5503 22.1459L55.5918 31.4208L71.1853 35.9417L74.6213 31.9459L73.1237 30.8666L75.5022 28.7084L73.6816 27.3084L76.0603 25.5L74.5037 24.3041Z" fill="#763E1A" stroke="#763E1A" stroke-width="0.25" stroke-linecap="round" stroke-linejoin="round"/>
<path d="M1 12.2292L3.5255 24.3041L1.91036 25.5L4.31839 27.3084L2.49768 28.7084L4.87634 30.8666L3.37866 31.9459L6.81452 35.9417L22.4081 31.4208L33.4497 22.1459L4.75889 1L1 12.2292Z" fill="#763E1A" stroke="#763E1A" stroke-width="0.25" stroke-linecap="round" stroke-linejoin="round"/>
<path d="M71.1859 35.9416L55.5924 31.4208L60.291 38.4792L53.2725 52.0999L62.5522 51.9833H76.413L71.1859 35.9416Z" fill="#F5841F" stroke="#F5841F" stroke-width="0.25" stroke-linecap="round" stroke-linejoin="round"/>
<path d="M22.4084 31.4208L6.81501 35.9416L1.61719 51.9833H15.4487L24.7283 52.0999L17.7099 38.4792L22.4084 31.4208Z" fill="#F5841F" stroke="#F5841F" stroke-width="0.25" stroke-linecap="round" stroke-linejoin="round"/>
<path d="M43.5512 39.2374L44.5496 22.1456L49.0719 9.98322H28.9268L33.4491 22.1456L34.4475 39.2374L34.8293 44.604L34.8587 57.8749H43.14L43.1694 44.604L43.5512 39.2374Z" fill="#F5841F" stroke="#F5841F" stroke-width="0.25" stroke-linecap="round" stroke-linejoin="round"/>
</svg>
