<svg width="1633" height="719" viewBox="0 0 1633 719" fill="none" xmlns="http://www.w3.org/2000/svg">
  <path opacity="0.5" d="M203 194.321C221.564 183.603 244.436 183.603 263 194.321L435.961 294.179C454.525 304.897 465.961 324.705 465.961 346.141V545.859C465.961 567.295 454.525 587.103 435.961 597.82L263 697.68C244.436 708.397 221.564 708.397 203 697.68L30.0392 597.82C11.4751 587.103 0.0391693 567.295 0.0391693 545.859V346.141C0.0391693 324.705 11.4751 304.897 30.0392 294.179L203 194.321Z" fill="#EAEEEE"/>
  <path d="M193 280C192 280 191 281 191 282C191 283 192 284 193 284C194 284 195 283 195 282C195 281 194 280 193 280Z" fill="#DBDEDE"/>
  <path d="M158 280C157 280 156 281 156 282C156 283 157 284 158 284C159 284 160 283 160 282C160 281 159 280 158 280Z" fill="#DBDEDE"/>
  <path d="M228 280C227 280 226 281 226 282C226 283 227 284 228 284C229 284 230 283 230 282C230 281 229 280 228 280Z" fill="#DBDEDE"/>
  <path d="M263 280C262 280 261 281 261 282C261 283 262 284 263 284C264 284 265 283 265 282C265 281 264 280 263 280Z" fill="#DBDEDE"/>
  <path d="M298 280C297 280 296 281 296 282C296 283 297 284 298 284C299 284 300 283 300 282C300 281 299 280 298 280Z" fill="#DBDEDE"/>
  <path d="M333 280C332 280 331 281 331 282C331 283 332 284 333 284C334 284 335 283 335 282C335 281 334 280 333 280Z" fill="#DBDEDE"/>
  <path d="M368 280C367 280 366 281 366 282C366 283 367 284 368 284C369 284 370 283 370 282C370 281 369 280 368 280Z" fill="#DBDEDE"/>
  <path d="M403 280C402 280 401 281 401 282C401 283 402 284 403 284C404 284 405 283 405 282C405 281 404 280 403 280Z" fill="#DBDEDE"/>
  <path d="M438 280C437 280 436 281 436 282C436 283 437 284 438 284C439 284 440 283 440 282C440 281 439 280 438 280Z" fill="#DBDEDE"/>
  <path d="M158 0C157 0 156 1 156 2C156 3 157 4 158 4C159 4 160 3 160 2C160 1 159 0 158 0Z" fill="#DBDEDE"/>
  <path d="M158 35C157 35 156 36 156 37C156 38 157 39 158 39C159 39 160 38 160 37C160 36 159 35 158 35Z" fill="#DBDEDE"/>
  <path d="M158 70C157 70 156 71 156 72C156 73 157 74 158 74C159 74 160 73 160 72C160 71 159 70 158 70Z" fill="#DBDEDE"/>
  <path d="M158 105C157 105 156 106 156 107C156 108 157 109 158 109C159 109 160 108 160 107C160 106 159 105 158 105Z" fill="#DBDEDE"/>
  <path d="M158 140C157 140 156 141 156 142C156 143 157 144 158 144C159 144 160 143 160 142C160 141 159 140 158 140Z" fill="#DBDEDE"/>
  <path d="M158 175C157 175 156 176 156 177C156 178 157 179 158 179C159 179 160 178 160 177C160 176 159 175 158 175Z" fill="#DBDEDE"/>
  <path d="M158 210C157 210 156 211 156 212C156 213 157 214 158 214C159 214 160 213 160 212C160 211 159 210 158 210Z" fill="#DBDEDE"/>
  <path d="M158 245C157 245 156 246 156 247C156 248 157 249 158 249C159 249 160 248 160 247C160 246 159 245 158 245Z" fill="#DBDEDE"/>
  <path d="M193 0C192 0 191 1 191 2C191 3 192 4 193 4C194 4 195 3 195 2C195 1 194 0 193 0Z" fill="#DBDEDE"/>
  <path d="M193 35C192 35 191 36 191 37C191 38 192 39 193 39C194 39 195 38 195 37C195 36 194 35 193 35Z" fill="#DBDEDE"/>
  <path d="M193 70C192 70 191 71 191 72C191 73 192 74 193 74C194 74 195 73 195 72C195 71 194 70 193 70Z" fill="#DBDEDE"/>
  <path d="M193 105C192 105 191 106 191 107C191 108 192 109 193 109C194 109 195 108 195 107C195 106 194 105 193 105Z" fill="#DBDEDE"/>
  <path d="M193 140C192 140 191 141 191 142C191 143 192 144 193 144C194 144 195 143 195 142C195 141 194 140 193 140Z" fill="#DBDEDE"/>
  <path d="M193 175C192 175 191 176 191 177C191 178 192 179 193 179C194 179 195 178 195 177C195 176 194 175 193 175Z" fill="#DBDEDE"/>
  <path d="M193 210C192 210 191 211 191 212C191 213 192 214 193 214C194 214 195 213 195 212C195 211 194 210 193 210Z" fill="#DBDEDE"/>
  <path d="M193 245C192 245 191 246 191 247C191 248 192 249 193 249C194 249 195 248 195 247C195 246 194 245 193 245Z" fill="#DBDEDE"/>
  <path d="M228 0C227 0 226 1 226 2C226 3 227 4 228 4C229 4 230 3 230 2C230 1 229 0 228 0Z" fill="#DBDEDE"/>
  <path d="M228 35C227 35 226 36 226 37C226 38 227 39 228 39C229 39 230 38 230 37C230 36 229 35 228 35Z" fill="#DBDEDE"/>
  <path d="M228 70C227 70 226 71 226 72C226 73 227 74 228 74C229 74 230 73 230 72C230 71 229 70 228 70Z" fill="#DBDEDE"/>
  <path d="M228 105C227 105 226 106 226 107C226 108 227 109 228 109C229 109 230 108 230 107C230 106 229 105 228 105Z" fill="#DBDEDE"/>
  <path d="M228 140C227 140 226 141 226 142C226 143 227 144 228 144C229 144 230 143 230 142C230 141 229 140 228 140Z" fill="#DBDEDE"/>
  <path d="M228 175C227 175 226 176 226 177C226 178 227 179 228 179C229 179 230 178 230 177C230 176 229 175 228 175Z" fill="#DBDEDE"/>
  <path d="M228 210C227 210 226 211 226 212C226 213 227 214 228 214C229 214 230 213 230 212C230 211 229 210 228 210Z" fill="#DBDEDE"/>
  <path d="M228 245C227 245 226 246 226 247C226 248 227 249 228 249C229 249 230 248 230 247C230 246 229 245 228 245Z" fill="#DBDEDE"/>
  <path d="M263 0C262 0 261 1 261 2C261 3 262 4 263 4C264 4 265 3 265 2C265 1 264 0 263 0Z" fill="#DBDEDE"/>
  <path d="M263 35C262 35 261 36 261 37C261 38 262 39 263 39C264 39 265 38 265 37C265 36 264 35 263 35Z" fill="#DBDEDE"/>
  <path d="M263 70C262 70 261 71 261 72C261 73 262 74 263 74C264 74 265 73 265 72C265 71 264 70 263 70Z" fill="#DBDEDE"/>
  <path d="M263 105C262 105 261 106 261 107C261 108 262 109 263 109C264 109 265 108 265 107C265 106 264 105 263 105Z" fill="#DBDEDE"/>
  <path d="M263 140C262 140 261 141 261 142C261 143 262 144 263 144C264 144 265 143 265 142C265 141 264 140 263 140Z" fill="#DBDEDE"/>
  <path d="M263 175C262 175 261 176 261 177C261 178 262 179 263 179C264 179 265 178 265 177C265 176 264 175 263 175Z" fill="#DBDEDE"/>
  <path d="M263 210C262 210 261 211 261 212C261 213 262 214 263 214C264 214 265 213 265 212C265 211 264 210 263 210Z" fill="#DBDEDE"/>
  <path d="M263 245C262 245 261 246 261 247C261 248 262 249 263 249C264 249 265 248 265 247C265 246 264 245 263 245Z" fill="#DBDEDE"/>
  <path d="M298 0C297 0 296 1 296 2C296 3 297 4 298 4C299 4 300 3 300 2C300 1 299 0 298 0Z" fill="#DBDEDE"/>
  <path d="M298 35C297 35 296 36 296 37C296 38 297 39 298 39C299 39 300 38 300 37C300 36 299 35 298 35Z" fill="#DBDEDE"/>
  <path d="M298 70C297 70 296 71 296 72C296 73 297 74 298 74C299 74 300 73 300 72C300 71 299 70 298 70Z" fill="#DBDEDE"/>
  <path d="M298 105C297 105 296 106 296 107C296 108 297 109 298 109C299 109 300 108 300 107C300 106 299 105 298 105Z" fill="#DBDEDE"/>
  <path d="M298 140C297 140 296 141 296 142C296 143 297 144 298 144C299 144 300 143 300 142C300 141 299 140 298 140Z" fill="#DBDEDE"/>
  <path d="M298 175C297 175 296 176 296 177C296 178 297 179 298 179C299 179 300 178 300 177C300 176 299 175 298 175Z" fill="#DBDEDE"/>
  <path d="M298 210C297 210 296 211 296 212C296 213 297 214 298 214C299 214 300 213 300 212C300 211 299 210 298 210Z" fill="#DBDEDE"/>
  <path d="M298 245C297 245 296 246 296 247C296 248 297 249 298 249C299 249 300 248 300 247C300 246 299 245 298 245Z" fill="#DBDEDE"/>
  <path d="M333 0C332 0 331 1 331 2C331 3 332 4 333 4C334 4 335 3 335 2C335 1 334 0 333 0Z" fill="#DBDEDE"/>
  <path d="M333 35C332 35 331 36 331 37C331 38 332 39 333 39C334 39 335 38 335 37C335 36 334 35 333 35Z" fill="#DBDEDE"/>
  <path d="M333 70C332 70 331 71 331 72C331 73 332 74 333 74C334 74 335 73 335 72C335 71 334 70 333 70Z" fill="#DBDEDE"/>
  <path d="M333 105C332 105 331 106 331 107C331 108 332 109 333 109C334 109 335 108 335 107C335 106 334 105 333 105Z" fill="#DBDEDE"/>
  <path d="M333 140C332 140 331 141 331 142C331 143 332 144 333 144C334 144 335 143 335 142C335 141 334 140 333 140Z" fill="#DBDEDE"/>
  <path d="M333 175C332 175 331 176 331 177C331 178 332 179 333 179C334 179 335 178 335 177C335 176 334 175 333 175Z" fill="#DBDEDE"/>
  <path d="M333 210C332 210 331 211 331 212C331 213 332 214 333 214C334 214 335 213 335 212C335 211 334 210 333 210Z" fill="#DBDEDE"/>
  <path d="M333 245C332 245 331 246 331 247C331 248 332 249 333 249C334 249 335 248 335 247C335 246 334 245 333 245Z" fill="#DBDEDE"/>
  <path d="M368 0C367 0 366 1 366 2C366 3 367 4 368 4C369 4 370 3 370 2C370 1 369 0 368 0Z" fill="#DBDEDE"/>
  <path d="M368 35C367 35 366 36 366 37C366 38 367 39 368 39C369 39 370 38 370 37C370 36 369 35 368 35Z" fill="#DBDEDE"/>
  <path d="M368 70C367 70 366 71 366 72C366 73 367 74 368 74C369 74 370 73 370 72C370 71 369 70 368 70Z" fill="#DBDEDE"/>
  <path d="M368 105C367 105 366 106 366 107C366 108 367 109 368 109C369 109 370 108 370 107C370 106 369 105 368 105Z" fill="#DBDEDE"/>
  <path d="M368 140C367 140 366 141 366 142C366 143 367 144 368 144C369 144 370 143 370 142C370 141 369 140 368 140Z" fill="#DBDEDE"/>
  <path d="M368 175C367 175 366 176 366 177C366 178 367 179 368 179C369 179 370 178 370 177C370 176 369 175 368 175Z" fill="#DBDEDE"/>
  <path d="M368 210C367 210 366 211 366 212C366 213 367 214 368 214C369 214 370 213 370 212C370 211 369 210 368 210Z" fill="#DBDEDE"/>
  <path d="M368 245C367 245 366 246 366 247C366 248 367 249 368 249C369 249 370 248 370 247C370 246 369 245 368 245Z" fill="#DBDEDE"/>
  <path d="M403 0C402 0 401 1 401 2C401 3 402 4 403 4C404 4 405 3 405 2C405 1 404 0 403 0Z" fill="#DBDEDE"/>
  <path d="M403 35C402 35 401 36 401 37C401 38 402 39 403 39C404 39 405 38 405 37C405 36 404 35 403 35Z" fill="#DBDEDE"/>
  <path d="M403 70C402 70 401 71 401 72C401 73 402 74 403 74C404 74 405 73 405 72C405 71 404 70 403 70Z" fill="#DBDEDE"/>
  <path d="M403 105C402 105 401 106 401 107C401 108 402 109 403 109C404 109 405 108 405 107C405 106 404 105 403 105Z" fill="#DBDEDE"/>
  <path d="M403 140C402 140 401 141 401 142C401 143 402 144 403 144C404 144 405 143 405 142C405 141 404 140 403 140Z" fill="#DBDEDE"/>
  <path d="M403 175C402 175 401 176 401 177C401 178 402 179 403 179C404 179 405 178 405 177C405 176 404 175 403 175Z" fill="#DBDEDE"/>
  <path d="M403 210C402 210 401 211 401 212C401 213 402 214 403 214C404 214 405 213 405 212C405 211 404 210 403 210Z" fill="#DBDEDE"/>
  <path d="M403 245C402 245 401 246 401 247C401 248 402 249 403 249C404 249 405 248 405 247C405 246 404 245 403 245Z" fill="#DBDEDE"/>
  <path d="M438 4C439 4 440 3 440 2C440 1 439 0 438 0C437 0 436 1 436 2C436 3 437 4 438 4Z" fill="#DBDEDE"/>
  <path d="M438 35C437 35 436 36 436 37C436 38 437 39 438 39C439 39 440 38 440 37C440 36 439 35 438 35Z" fill="#DBDEDE"/>
  <path d="M438 70C437 70 436 71 436 72C436 73 437 74 438 74C439 74 440 73 440 72C440 71 439 70 438 70Z" fill="#DBDEDE"/>
  <path d="M438 105C437 105 436 106 436 107C436 108 437 109 438 109C439 109 440 108 440 107C440 106 439 105 438 105Z" fill="#DBDEDE"/>
  <path d="M438 140C437 140 436 141 436 142C436 143 437 144 438 144C439 144 440 143 440 142C440 141 439 140 438 140Z" fill="#DBDEDE"/>
  <path d="M438 175C437 175 436 176 436 177C436 178 437 179 438 179C439 179 440 178 440 177C440 176 439 175 438 175Z" fill="#DBDEDE"/>
  <path d="M438 210C437 210 436 211 436 212C436 213 437 214 438 214C439 214 440 213 440 212C440 211 439 210 438 210Z" fill="#DBDEDE"/>
  <path d="M438 245C437 245 436 246 436 247C436 248 437 249 438 249C439 249 440 248 440 247C440 246 439 245 438 245Z" fill="#DBDEDE"/>
  <path opacity="0.4" d="M1470 408.547C1482.38 401.402 1497.62 401.402 1510 408.547L1612.03 467.453C1624.4 474.598 1632.03 487.803 1632.03 502.094V619.906C1632.03 634.197 1624.4 647.402 1612.03 654.547L1510 713.453C1497.62 720.598 1482.38 720.598 1470 713.453L1367.97 654.547C1355.6 647.402 1347.97 634.197 1347.97 619.906V502.094C1347.97 487.803 1355.6 474.598 1367.97 467.453L1470 408.547Z" fill="#EAEEEE"/>
</svg>
