<?xml version="1.0" encoding="utf-8"?>
<!-- Generator: Adobe Illustrator 24.2.3, SVG Export Plug-In . SVG Version: 6.00 Build 0)  -->
<svg version="1.1" id="Слой_1" xmlns="http://www.w3.org/2000/svg" xmlns:xlink="http://www.w3.org/1999/xlink" x="0px" y="0px"
	 viewBox="0 0 1546 661" style="enable-background:new 0 0 1546 661;" xml:space="preserve">
<style type="text/css">
	.st0{fill:#DBDEDE;}
	.st1{fill:#FFD541;}
	.st2{opacity:0.4;fill:#EAEEEE;enable-background:new    ;}
</style>
<path class="st0" d="M1291,487c-1,0-2,1-2,2s1,2,2,2s2-1,2-2S1292,487,1291,487z"/>
<path class="st0" d="M1256,487c-1,0-2,1-2,2s1,2,2,2s2-1,2-2S1257,487,1256,487z"/>
<path class="st0" d="M1326,487c-1,0-2,1-2,2s1,2,2,2s2-1,2-2S1327,487,1326,487z"/>
<path class="st0" d="M1361,487c-1,0-2,1-2,2s1,2,2,2s2-1,2-2S1362,487,1361,487z"/>
<path class="st0" d="M1396,487c-1,0-2,1-2,2s1,2,2,2s2-1,2-2S1397,487,1396,487z"/>
<path class="st0" d="M1431,487c-1,0-2,1-2,2s1,2,2,2s2-1,2-2S1432,487,1431,487z"/>
<path class="st0" d="M1466,487c-1,0-2,1-2,2s1,2,2,2s2-1,2-2S1467,487,1466,487z"/>
<path class="st0" d="M1501,487c-1,0-2,1-2,2s1,2,2,2s2-1,2-2S1502,487,1501,487z"/>
<path class="st0" d="M1536,487c-1,0-2,1-2,2s1,2,2,2s2-1,2-2S1537,487,1536,487z"/>
<path class="st0" d="M1256,207c-1,0-2,1-2,2s1,2,2,2s2-1,2-2S1257,207,1256,207z"/>
<path class="st0" d="M1256,242c-1,0-2,1-2,2s1,2,2,2s2-1,2-2S1257,242,1256,242z"/>
<path class="st0" d="M1256,277c-1,0-2,1-2,2s1,2,2,2s2-1,2-2S1257,277,1256,277z"/>
<path class="st0" d="M1256,312c-1,0-2,1-2,2s1,2,2,2s2-1,2-2S1257,312,1256,312z"/>
<path class="st0" d="M1256,347c-1,0-2,1-2,2s1,2,2,2s2-1,2-2S1257,347,1256,347z"/>
<path class="st0" d="M1256,382c-1,0-2,1-2,2s1,2,2,2s2-1,2-2S1257,382,1256,382z"/>
<path class="st0" d="M1256,417c-1,0-2,1-2,2s1,2,2,2s2-1,2-2S1257,417,1256,417z"/>
<path class="st0" d="M1256,452c-1,0-2,1-2,2s1,2,2,2s2-1,2-2S1257,452,1256,452z"/>
<path class="st0" d="M1291,207c-1,0-2,1-2,2s1,2,2,2s2-1,2-2S1292,207,1291,207z"/>
<path class="st0" d="M1291,242c-1,0-2,1-2,2s1,2,2,2s2-1,2-2S1292,242,1291,242z"/>
<path class="st0" d="M1291,277c-1,0-2,1-2,2s1,2,2,2s2-1,2-2S1292,277,1291,277z"/>
<path class="st0" d="M1291,312c-1,0-2,1-2,2s1,2,2,2s2-1,2-2S1292,312,1291,312z"/>
<path class="st0" d="M1291,347c-1,0-2,1-2,2s1,2,2,2s2-1,2-2S1292,347,1291,347z"/>
<path class="st0" d="M1291,382c-1,0-2,1-2,2s1,2,2,2s2-1,2-2S1292,382,1291,382z"/>
<path class="st0" d="M1291,417c-1,0-2,1-2,2s1,2,2,2s2-1,2-2S1292,417,1291,417z"/>
<path class="st0" d="M1291,452c-1,0-2,1-2,2s1,2,2,2s2-1,2-2S1292,452,1291,452z"/>
<path class="st0" d="M1326,207c-1,0-2,1-2,2s1,2,2,2s2-1,2-2S1327,207,1326,207z"/>
<path class="st0" d="M1326,242c-1,0-2,1-2,2s1,2,2,2s2-1,2-2S1327,242,1326,242z"/>
<path class="st0" d="M1326,277c-1,0-2,1-2,2s1,2,2,2s2-1,2-2S1327,277,1326,277z"/>
<path class="st0" d="M1326,312c-1,0-2,1-2,2s1,2,2,2s2-1,2-2S1327,312,1326,312z"/>
<path class="st0" d="M1326,347c-1,0-2,1-2,2s1,2,2,2s2-1,2-2S1327,347,1326,347z"/>
<path class="st0" d="M1326,382c-1,0-2,1-2,2s1,2,2,2s2-1,2-2S1327,382,1326,382z"/>
<path class="st0" d="M1326,417c-1,0-2,1-2,2s1,2,2,2s2-1,2-2S1327,417,1326,417z"/>
<path class="st0" d="M1326,452c-1,0-2,1-2,2s1,2,2,2s2-1,2-2S1327,452,1326,452z"/>
<path class="st0" d="M1361,207c-1,0-2,1-2,2s1,2,2,2s2-1,2-2S1362,207,1361,207z"/>
<path class="st0" d="M1361,242c-1,0-2,1-2,2s1,2,2,2s2-1,2-2S1362,242,1361,242z"/>
<path class="st0" d="M1361,277c-1,0-2,1-2,2s1,2,2,2s2-1,2-2S1362,277,1361,277z"/>
<path class="st0" d="M1361,312c-1,0-2,1-2,2s1,2,2,2s2-1,2-2S1362,312,1361,312z"/>
<path class="st0" d="M1361,347c-1,0-2,1-2,2s1,2,2,2s2-1,2-2S1362,347,1361,347z"/>
<path class="st0" d="M1361,382c-1,0-2,1-2,2s1,2,2,2s2-1,2-2S1362,382,1361,382z"/>
<path class="st0" d="M1361,417c-1,0-2,1-2,2s1,2,2,2s2-1,2-2S1362,417,1361,417z"/>
<path class="st0" d="M1361,452c-1,0-2,1-2,2s1,2,2,2s2-1,2-2S1362,452,1361,452z"/>
<path class="st0" d="M1396,207c-1,0-2,1-2,2s1,2,2,2s2-1,2-2S1397,207,1396,207z"/>
<path class="st0" d="M1396,242c-1,0-2,1-2,2s1,2,2,2s2-1,2-2S1397,242,1396,242z"/>
<path class="st0" d="M1396,277c-1,0-2,1-2,2s1,2,2,2s2-1,2-2S1397,277,1396,277z"/>
<path class="st0" d="M1396,312c-1,0-2,1-2,2s1,2,2,2s2-1,2-2S1397,312,1396,312z"/>
<path class="st0" d="M1396,347c-1,0-2,1-2,2s1,2,2,2s2-1,2-2S1397,347,1396,347z"/>
<path class="st0" d="M1396,382c-1,0-2,1-2,2s1,2,2,2s2-1,2-2S1397,382,1396,382z"/>
<path class="st0" d="M1396,417c-1,0-2,1-2,2s1,2,2,2s2-1,2-2S1397,417,1396,417z"/>
<path class="st0" d="M1396,452c-1,0-2,1-2,2s1,2,2,2s2-1,2-2S1397,452,1396,452z"/>
<path class="st0" d="M1431,207c-1,0-2,1-2,2s1,2,2,2s2-1,2-2S1432,207,1431,207z"/>
<path class="st0" d="M1431,242c-1,0-2,1-2,2s1,2,2,2s2-1,2-2S1432,242,1431,242z"/>
<path class="st0" d="M1431,277c-1,0-2,1-2,2s1,2,2,2s2-1,2-2S1432,277,1431,277z"/>
<path class="st0" d="M1431,312c-1,0-2,1-2,2s1,2,2,2s2-1,2-2S1432,312,1431,312z"/>
<path class="st0" d="M1431,347c-1,0-2,1-2,2s1,2,2,2s2-1,2-2S1432,347,1431,347z"/>
<path class="st0" d="M1431,382c-1,0-2,1-2,2s1,2,2,2s2-1,2-2S1432,382,1431,382z"/>
<path class="st0" d="M1431,417c-1,0-2,1-2,2s1,2,2,2s2-1,2-2S1432,417,1431,417z"/>
<path class="st0" d="M1431,452c-1,0-2,1-2,2s1,2,2,2s2-1,2-2S1432,452,1431,452z"/>
<path class="st0" d="M1466,207c-1,0-2,1-2,2s1,2,2,2s2-1,2-2S1467,207,1466,207z"/>
<path class="st0" d="M1466,242c-1,0-2,1-2,2s1,2,2,2s2-1,2-2S1467,242,1466,242z"/>
<path class="st0" d="M1466,277c-1,0-2,1-2,2s1,2,2,2s2-1,2-2S1467,277,1466,277z"/>
<path class="st0" d="M1466,312c-1,0-2,1-2,2s1,2,2,2s2-1,2-2S1467,312,1466,312z"/>
<path class="st0" d="M1466,347c-1,0-2,1-2,2s1,2,2,2s2-1,2-2S1467,347,1466,347z"/>
<path class="st0" d="M1466,382c-1,0-2,1-2,2s1,2,2,2s2-1,2-2S1467,382,1466,382z"/>
<path class="st0" d="M1466,417c-1,0-2,1-2,2s1,2,2,2s2-1,2-2S1467,417,1466,417z"/>
<path class="st0" d="M1466,452c-1,0-2,1-2,2s1,2,2,2s2-1,2-2S1467,452,1466,452z"/>
<path class="st0" d="M1501,207c-1,0-2,1-2,2s1,2,2,2s2-1,2-2S1502,207,1501,207z"/>
<path class="st0" d="M1501,242c-1,0-2,1-2,2s1,2,2,2s2-1,2-2S1502,242,1501,242z"/>
<path class="st0" d="M1501,277c-1,0-2,1-2,2s1,2,2,2s2-1,2-2S1502,277,1501,277z"/>
<path class="st0" d="M1501,312c-1,0-2,1-2,2s1,2,2,2s2-1,2-2S1502,312,1501,312z"/>
<path class="st0" d="M1501,347c-1,0-2,1-2,2s1,2,2,2s2-1,2-2S1502,347,1501,347z"/>
<path class="st0" d="M1501,382c-1,0-2,1-2,2s1,2,2,2s2-1,2-2S1502,382,1501,382z"/>
<path class="st0" d="M1501,417c-1,0-2,1-2,2s1,2,2,2s2-1,2-2S1502,417,1501,417z"/>
<path class="st0" d="M1501,452c-1,0-2,1-2,2s1,2,2,2s2-1,2-2S1502,452,1501,452z"/>
<path class="st0" d="M1536,211c1,0,2-1,2-2s-1-2-2-2s-2,1-2,2S1535,211,1536,211z"/>
<path class="st0" d="M1536,242c-1,0-2,1-2,2s1,2,2,2s2-1,2-2S1537,242,1536,242z"/>
<path class="st0" d="M1536,277c-1,0-2,1-2,2s1,2,2,2s2-1,2-2S1537,277,1536,277z"/>
<path class="st0" d="M1536,312c-1,0-2,1-2,2s1,2,2,2s2-1,2-2S1537,312,1536,312z"/>
<path class="st0" d="M1536,347c-1,0-2,1-2,2s1,2,2,2s2-1,2-2S1537,347,1536,347z"/>
<path class="st0" d="M1536,382c-1,0-2,1-2,2s1,2,2,2s2-1,2-2S1537,382,1536,382z"/>
<path class="st0" d="M1536,417c-1,0-2,1-2,2s1,2,2,2s2-1,2-2S1537,417,1536,417z"/>
<path class="st0" d="M1536,452c-1,0-2,1-2,2s1,2,2,2s2-1,2-2S1537,452,1536,452z"/>
<path class="st1" d="M777,1.3c-2.5-1.4-5.5-1.4-8,0l-44,25.4c-2.5,1.4-4,4.1-4,6.9v50.8c0,2.9,1.5,5.5,4,6.9l44,25.4
	c2.5,1.4,5.5,1.4,8,0l44-25.4c2.5-1.4,4-4.1,4-6.9V33.6c0-2.9-1.5-5.5-4-6.9L777,1.3z"/>
<path class="st2" d="M175,215.3c18.6-10.7,41.4-10.7,60,0l144.4,83.4c18.6,10.7,30,30.5,30,52v166.7c0,21.4-11.4,41.2-30,52
	L235,652.7c-18.6,10.7-41.4,10.7-60,0L30.6,569.3c-18.6-10.7-30-30.5-30-52V350.6c0-21.4,11.4-41.2,30-52L175,215.3z"/>
</svg>
