<svg width="24" height="24" viewBox="0 0 24 24" fill="none" xmlns="http://www.w3.org/2000/svg">
  <path d="M11.775 24C6.52501 24 2.32501 21.0375 2.43751 16.6688C2.55001 12.3 3.93751 10.5 3.39376 9.4125C4.66876 10.05 5.56876 11.2687 5.56876 11.2687C6.11251 5.15625 12.5063 0.75 14.0063 0C14.0625 4.725 19.4063 7.6875 19.1813 15C20.2313 14.4563 20.925 12.7875 20.925 12.7875C22.35 15.525 22.0688 24 11.775 24Z" fill="url(#paint0_linear)"/>
  <path d="M12.15 23.025C8.11875 23.025 4.93125 19.9875 6.5625 15.5813C6.84375 16.5188 7.9125 17.4 7.9125 17.4C7.95 10.8938 13.1813 7.6875 13.1813 7.6875C12.9375 12.0563 16.9313 13.8375 17.3813 17.9063C17.7 20.7188 15.45 23.025 12.15 23.025Z" fill="url(#paint1_linear)"/>
  <path d="M12.2065 22.2C10.4627 22.2 9.41272 20.8688 10.1627 19.125C10.9127 17.3813 12.019 16.8563 11.8877 15.375C13.444 16.0875 14.6252 18.2438 14.4752 19.875C14.344 21.5063 13.594 22.2 12.2065 22.2Z" fill="url(#paint2_linear)"/>
  <defs>
    <linearGradient id="paint0_linear" x1="11.9954" y1="22.0846" x2="11.9954" y2="1.92928" gradientUnits="userSpaceOnUse">
      <stop stop-color="#EF3D33"/>
      <stop offset="1" stop-color="#F6921E"/>
    </linearGradient>
    <linearGradient id="paint1_linear" x1="11.7623" y1="21.8137" x2="11.7623" y2="8.9235" gradientUnits="userSpaceOnUse">
      <stop stop-color="#FBC734"/>
      <stop offset="1" stop-color="#FAD73E"/>
    </linearGradient>
    <linearGradient id="paint2_linear" x1="12.2088" y1="21.6565" x2="12.2088" y2="15.9114" gradientUnits="userSpaceOnUse">
      <stop stop-color="#F8DF44"/>
      <stop offset="1" stop-color="#F9E563"/>
    </linearGradient>
  </defs>
</svg>
