<svg width="24" height="24" viewBox="0 0 24 24" fill="none" xmlns="http://www.w3.org/2000/svg">
  <circle opacity="0.5" cx="12" cy="12" r="11.6" stroke="white" stroke-width="0.8"/>
  <path d="M11.9999 20.8985C9.23068 20.8985 6.78268 19.4806 5.35376 17.3539C5.38699 15.1385 9.78453 13.92 11.9999 13.92C14.2153 13.92 18.6128 15.1385 18.6461 17.3539C17.2171 19.4806 14.7691 20.8985 11.9999 20.8985ZM11.9999 5.16925C12.8812 5.16925 13.7265 5.51936 14.3497 6.14256C14.9729 6.76576 15.323 7.61099 15.323 8.49233C15.323 9.37366 14.9729 10.2189 14.3497 10.8421C13.7265 11.4653 12.8812 11.8154 11.9999 11.8154C11.1186 11.8154 10.2733 11.4653 9.65014 10.8421C9.02694 10.2189 8.67684 9.37366 8.67684 8.49233C8.67684 7.61099 9.02694 6.76576 9.65014 6.14256C10.2733 5.51936 11.1186 5.16925 11.9999 5.16925Z" fill="white"/>
</svg>
