<svg width="75" height="75" viewBox="0 0 75 75" fill="none" xmlns="http://www.w3.org/2000/svg">
  <path opacity="0.3" d="M37.5 75C58.2107 75 75 58.2107 75 37.5C75 16.7893 58.2107 0 37.5 0C16.7893 0 0 16.7893 0 37.5C0 58.2107 16.7893 75 37.5 75Z" fill="#FFD541"/>
  <path d="M38.0914 46.1982C31.3378 46.1982 25.9531 40.9048 25.9531 34.425C25.9531 27.9451 31.4291 22.6517 38.0914 22.6517C44.8451 22.6517 50.2298 27.9451 50.2298 34.425C50.2298 40.9048 44.6626 46.1982 38.0914 46.1982Z" fill="#FFD541"/>
  <path d="M38.0908 12.795V16.4456" stroke="#282D33" stroke-width="2" stroke-miterlimit="10" stroke-linecap="round"/>
  <path d="M28.9644 16.4456V20.0963" stroke="#282D33" stroke-width="2" stroke-miterlimit="10" stroke-linecap="round"/>
  <path d="M47.2173 17.3583V21.0089" stroke="#282D33" stroke-width="2" stroke-miterlimit="10" stroke-linecap="round"/>
  <path d="M38.0908 28.3102V29.2228" stroke="#282D33" stroke-width="2" stroke-miterlimit="10" stroke-linecap="round"/>
  <path d="M38.0908 40.1747V41.0873" stroke="#282D33" stroke-width="2" stroke-miterlimit="10" stroke-linecap="round"/>
  <path d="M35.3531 34.6987H39.9164C41.4679 34.6987 42.6543 35.8852 42.6543 37.4367C42.6543 38.9882 41.4679 40.1747 39.9164 40.1747H34.4404" stroke="#282D33" stroke-width="2" stroke-miterlimit="10" stroke-linecap="round"/>
  <path d="M34.4404 29.2228H39.0037C40.5552 29.2228 41.7417 30.4093 41.7417 31.9608C41.7417 33.5123 40.5552 34.6987 39.0037 34.6987H37.1784" stroke="#282D33" stroke-width="2" stroke-miterlimit="10" stroke-linecap="round"/>
  <path d="M35.353 40.1747V29.2228" stroke="#282D33" stroke-width="2" stroke-miterlimit="10" stroke-linecap="round"/>
  <path d="M28.782 42C27.2305 39.9922 26.3179 37.4367 26.3179 34.6988C26.3179 28.1276 31.6113 22.8342 38.1824 22.8342C44.7535 22.8342 50.0469 28.1276 50.0469 34.6988C50.0469 37.4367 49.1343 39.9922 47.4915 42" stroke="#282D33" stroke-width="2" stroke-miterlimit="10" stroke-linecap="round"/>
  <path d="M68.1177 48.9362C68.1177 50.3964 67.3875 51.8567 66.0186 52.5868L47.7654 62.8998C46.944 63.3562 45.9401 63.63 44.9362 63.63H31.0638C30.0599 63.63 28.9647 63.9038 28.1433 64.4513L24.6752 66.4592L16.2788 53.4082L26.6831 46.7458C27.5957 46.1982 28.6909 45.8332 29.6949 45.8332H44.9362C46.0314 45.8332 47.2178 46.2895 47.948 47.0196C48.6781 47.7497 49.1344 48.7537 49.1344 50.0314C49.1344 51.3091 48.5868 52.4956 47.6742 53.2257L46.3965 53.9558C46.8528 53.7733 47.3091 53.4995 47.6742 53.2257L61.6378 45.1943C63.6457 44.0991 66.2924 44.738 67.3875 46.6546C67.9351 47.4759 68.1177 48.2973 68.1177 48.9362Z" fill="white"/>
  <path d="M49.2258 52.5868L61.7292 45.4681C63.737 44.3729 66.3837 45.0118 67.4789 46.9283C68.5741 48.8449 67.9352 51.4916 66.0186 52.5868L47.7655 62.9911C46.9441 63.4474 45.9402 63.7212 44.9363 63.7212H31.0639C30.06 63.7212 28.9648 63.995 28.1434 64.5426L24.7666 66.4592" stroke="#282D33" stroke-width="2" stroke-miterlimit="10" stroke-linecap="round" stroke-linejoin="round"/>
  <path d="M34.1669 54.4121H45.0275C47.4004 54.4121 49.2257 52.5868 49.2257 50.2139C49.2257 47.841 47.3091 46.0157 45.0275 46.0157H29.7861C28.7822 46.0157 27.5957 46.2895 26.7744 46.8371L16.2788 53.4995" stroke="#282D33" stroke-width="2" stroke-miterlimit="10" stroke-linecap="round" stroke-linejoin="round"/>
  <path d="M8.79492 54.0471L14.4534 50.6702L25.7703 68.3758L20.842 72.2089" stroke="#282D33" stroke-width="2" stroke-miterlimit="10" stroke-linecap="round" stroke-linejoin="round"/>
  <path d="M12.902 59.1579C13.9059 59.1579 14.7273 58.3366 14.7273 57.4239C14.7273 56.42 13.9059 55.6898 12.902 55.6898C11.8981 55.6898 11.0767 56.5112 11.0767 57.4239C11.1679 58.3366 11.9893 59.1579 12.902 59.1579Z" fill="#FFD541"/>
</svg>
