<svg width="24" height="24" viewBox="0 0 24 24" fill="none" xmlns="http://www.w3.org/2000/svg">
  <g opacity="0.4">
    <path fill-rule="evenodd" clip-rule="evenodd" d="M3.66468 14.7416C4.40658 13.9997 5.41282 13.5829 6.46203 13.5829H12.7917C13.8409 13.5829 14.8471 13.9997 15.589 14.7416C16.3309 15.4835 16.7477 16.4898 16.7477 17.539V19.1214C16.7477 19.5584 16.3935 19.9126 15.9565 19.9126C15.5196 19.9126 15.1653 19.5584 15.1653 19.1214V17.539C15.1653 16.9095 14.9152 16.3057 14.4701 15.8606C14.025 15.4154 13.4212 15.1654 12.7917 15.1654H6.46203C5.8325 15.1654 5.22876 15.4154 4.78362 15.8606C4.33848 16.3057 4.0884 16.9095 4.0884 17.539V19.1214C4.0884 19.5584 3.73416 19.9126 3.29719 19.9126C2.86022 19.9126 2.50598 19.5584 2.50598 19.1214V17.539C2.50598 16.4898 2.92278 15.4835 3.66468 14.7416Z" fill="white"/>
    <path fill-rule="evenodd" clip-rule="evenodd" d="M9.62609 5.66955C8.31517 5.66955 7.25246 6.73225 7.25246 8.04317C7.25246 9.35409 8.31517 10.4168 9.62609 10.4168C10.937 10.4168 11.9997 9.35409 11.9997 8.04317C11.9997 6.73225 10.937 5.66955 9.62609 5.66955ZM5.67004 8.04317C5.67004 5.85831 7.44123 4.08713 9.62609 4.08713C11.811 4.08713 13.5821 5.85831 13.5821 8.04317C13.5821 10.228 11.811 11.9992 9.62609 11.9992C7.44123 11.9992 5.67004 10.228 5.67004 8.04317Z" fill="white"/>
    <path fill-rule="evenodd" clip-rule="evenodd" d="M17.5638 14.2775C17.673 13.8544 18.1046 13.6 18.5277 13.7092C19.3764 13.9283 20.1282 14.4231 20.6653 15.1159C21.2023 15.8087 21.494 16.6602 21.4947 17.5367L21.4947 19.1197C21.4947 19.5567 21.1405 19.9109 20.7035 19.9109C20.2665 19.9109 19.9123 19.5567 19.9123 19.1197L19.9123 17.5379C19.9123 17.5378 19.9123 17.5379 19.9123 17.5379C19.9118 17.012 19.7368 16.501 19.4146 16.0854C19.0924 15.6697 18.6413 15.3729 18.1321 15.2414C17.709 15.1321 17.4545 14.7006 17.5638 14.2775Z" fill="white"/>
    <path fill-rule="evenodd" clip-rule="evenodd" d="M14.3993 4.78506C14.5077 4.36174 14.9387 4.10644 15.362 4.21483C16.213 4.43271 16.9672 4.92761 17.5059 5.62151C18.0445 6.31541 18.3368 7.16883 18.3368 8.04724C18.3368 8.92565 18.0445 9.77908 17.5059 10.473C16.9672 11.1669 16.213 11.6618 15.362 11.8797C14.9387 11.988 14.5077 11.7327 14.3993 11.3094C14.2909 10.8861 14.5462 10.4551 14.9695 10.3467C15.4801 10.216 15.9327 9.91903 16.2558 9.50269C16.579 9.08635 16.7544 8.57429 16.7544 8.04724C16.7544 7.5202 16.579 7.00814 16.2558 6.5918C15.9327 6.17546 15.4801 5.87852 14.9695 5.74779C14.5462 5.63941 14.2909 5.20838 14.3993 4.78506Z" fill="white"/>
  </g>
</svg>
