<svg width="40" height="40" viewBox="0 0 40 40" fill="none" xmlns="http://www.w3.org/2000/svg">
  <circle opacity="0.3" cx="28.1481" cy="28.1481" r="11.8519" fill="#FFD541"/>
  <path d="M1.97286 14.9049C1.59756 16.2379 1.40991 17.6185 1.40991 18.9992C1.40991 22.2841 2.44198 25.2835 4.22465 27.7591" stroke="#282D33" stroke-width="1.2" stroke-miterlimit="10" stroke-linecap="round" stroke-linejoin="round"/>
  <path d="M14.9677 4.24081C9.43203 4.62168 4.74081 8.14468 2.62976 13.0959" stroke="#282D33" stroke-width="1.2" stroke-miterlimit="10" stroke-linecap="round" stroke-linejoin="round"/>
  <path d="M30.0267 14.9049C30.402 16.1903 30.5896 17.5709 30.5896 18.9992C30.5896 22.2841 29.5576 25.2835 27.7749 27.7591" stroke="#282D33" stroke-width="1.2" stroke-miterlimit="10" stroke-linecap="round" stroke-linejoin="round"/>
  <path d="M17.0314 4.24081C22.567 4.62168 27.3052 8.14468 29.4162 13.0959" stroke="#282D33" stroke-width="1.2" stroke-miterlimit="10" stroke-linecap="round" stroke-linejoin="round"/>
  <path d="M24.1624 27.4743C26.3203 25.3319 27.6808 22.3326 27.6808 19.0477C27.6808 12.5253 22.4735 7.28845 16.0465 7.28845C9.66649 7.28845 4.45923 12.5253 4.45923 19.0477C4.45923 22.3326 5.81968 25.3319 7.97765 27.4743H24.1624Z" stroke="#282D33" stroke-width="1.2" stroke-miterlimit="10" stroke-linecap="round" stroke-linejoin="round"/>
  <path d="M15.9528 7.19287V9.0972" stroke="#282D33" stroke-width="1.2" stroke-miterlimit="10" stroke-linecap="round" stroke-linejoin="round"/>
  <path d="M8.96301 9.81137L10.0889 11.2872" stroke="#282D33" stroke-width="1.2" stroke-miterlimit="10" stroke-linecap="round" stroke-linejoin="round"/>
  <path d="M4.88123 16.2384L6.66389 16.6669" stroke="#282D33" stroke-width="1.2" stroke-miterlimit="10" stroke-linecap="round" stroke-linejoin="round"/>
  <path d="M5.53784 23.8555L7.22668 23.0938" stroke="#282D33" stroke-width="1.2" stroke-miterlimit="10" stroke-linecap="round" stroke-linejoin="round"/>
  <path d="M23.1772 9.81137L22.0513 11.2872" stroke="#282D33" stroke-width="1.2" stroke-miterlimit="10" stroke-linecap="round" stroke-linejoin="round"/>
  <path d="M27.2581 16.2384L25.4755 16.6669" stroke="#282D33" stroke-width="1.2" stroke-miterlimit="10" stroke-linecap="round" stroke-linejoin="round"/>
  <path d="M26.555 23.8555L24.9131 23.0938" stroke="#282D33" stroke-width="1.2" stroke-miterlimit="10" stroke-linecap="round" stroke-linejoin="round"/>
  <path d="M11.1184 14.2206C15.1184 10.5348 20.8133 11.54 23.7964 16.4823C23.8642 16.5661 23.932 16.7336 23.9998 17.0687L19.9998 20.0006C17.6269 15.8122 12.8133 15.3933 9.42348 18.5765L7.99976 19.498C8.60993 17.4038 9.62687 15.5609 11.1184 14.2206Z" fill="#FFD541" stroke="#282D33" stroke-width="1.2" stroke-miterlimit="10" stroke-linecap="round" stroke-linejoin="round"/>
  <path d="M23.0835 16.9994L17.0318 20.5224C16.375 20.2844 15.6244 20.3796 15.0615 20.8556C14.1701 21.5698 14.0294 22.9028 14.7331 23.855C15.4368 24.7595 16.7503 24.9023 17.6416 24.1882C18.2046 23.7121 18.4861 22.998 18.4392 22.3315L23.318 17.3326L23.0835 16.9994Z" fill="white" stroke="#282D33" stroke-width="1.2" stroke-miterlimit="10" stroke-linecap="round" stroke-linejoin="round"/>
</svg>
