<svg width="40" height="40" viewBox="0 0 40 40" fill="none" xmlns="http://www.w3.org/2000/svg">
  <circle opacity="0.3" cx="28.1481" cy="28.1481" r="11.8519" fill="#FFD541"/>
  <path d="M5.67172 24.0765H1.39771V25.4813C1.39771 26.6753 2.32374 27.5884 3.53471 27.5884H13.5074H20.6308H24.9048C26.1158 27.5884 27.0418 26.6753 27.0418 25.4813V5.81491" stroke="#282D33" stroke-width="1.2" stroke-miterlimit="10" stroke-linecap="round" stroke-linejoin="round"/>
  <path d="M19.206 25.4812V29.6954L17.069 28.9931L14.932 29.6954V25.4812" fill="#FFD541"/>
  <path d="M19.206 25.4812V29.6954L17.069 28.9931L14.932 29.6954V25.4812" stroke="#282D33" stroke-width="1.2" stroke-miterlimit="10" stroke-linecap="round" stroke-linejoin="round"/>
  <path d="M18.2089 15.4373C18.565 15.7885 19.0637 15.9992 19.5623 15.929C20.4884 15.7885 21.2719 16.4909 21.3432 17.4039C21.3432 17.8956 21.6281 18.3873 22.0555 18.6682C22.8391 19.1599 22.9815 20.2134 22.4829 20.9158C22.198 21.3372 22.0555 21.8289 22.2692 22.3205C22.5541 23.1634 21.9843 24.0765 21.1295 24.2872C20.6308 24.4276 20.2034 24.7086 20.061 25.2002C19.7048 26.0431 18.7075 26.3943 17.9239 25.9729C17.4965 25.7621 16.9267 25.7621 16.4993 25.9729C15.7157 26.3943 14.7184 26.0431 14.3623 25.2002C14.1486 24.7086 13.7212 24.3574 13.2938 24.2872C12.3677 24.0765 11.8691 23.1634 12.154 22.3205C12.2965 21.8289 12.2253 21.3372 11.8691 20.9158C11.2992 20.2134 11.5129 19.1599 12.2965 18.6682C12.7239 18.3873 13.0088 17.9658 13.0088 17.4039C13.0801 16.4909 13.8636 15.7885 14.7897 15.929C15.2883 15.9992 15.7869 15.7885 16.1431 15.4373C16.4993 14.8052 17.5678 14.8052 18.2089 15.4373Z" fill="#FFD541" stroke="#282D33" stroke-width="1.2" stroke-miterlimit="10" stroke-linecap="round" stroke-linejoin="round"/>
  <path d="M17.069 22.6717C18.2493 22.6717 19.206 21.7284 19.206 20.5646C19.206 19.4009 18.2493 18.4575 17.069 18.4575C15.8888 18.4575 14.932 19.4009 14.932 20.5646C14.932 21.7284 15.8888 22.6717 17.069 22.6717Z" fill="white" stroke="#282D33" stroke-width="1.2" stroke-miterlimit="10" stroke-linecap="round" stroke-linejoin="round"/>
  <path d="M11.3705 9.32672H22.7679" stroke="#282D33" stroke-width="1.2" stroke-miterlimit="10" stroke-linecap="round" stroke-linejoin="round"/>
  <path d="M14.2198 12.1362H19.9185" stroke="#282D33" stroke-width="1.2" stroke-miterlimit="10" stroke-linecap="round" stroke-linejoin="round"/>
  <path d="M3.53467 27.5884C4.74564 27.5884 5.67168 26.6753 5.67168 25.4813V4.41015C5.67168 3.21612 6.59772 2.30304 7.80869 2.30304C9.01966 2.30304 9.9457 3.21612 9.9457 4.41015V5.81489H30.6035V4.41015C30.6035 3.21612 29.6774 2.30304 28.4664 2.30304H7.80869" stroke="#282D33" stroke-width="1.2" stroke-miterlimit="10" stroke-linecap="round" stroke-linejoin="round"/>
</svg>
