<svg width="40" height="40" viewBox="0 0 40 40" fill="none" xmlns="http://www.w3.org/2000/svg">
  <circle opacity="0.3" cx="28.1481" cy="28.1481" r="11.8519" fill="#FFD541"/>
  <path d="M30.7843 8.08575H4.40454V24.0363H30.7843V8.08575Z" stroke="#282D33" stroke-width="1.2" stroke-miterlimit="10" stroke-linecap="round" stroke-linejoin="round"/>
  <path d="M26.4899 20.9688H8.08544C8.08544 19.9259 7.28791 19.1284 6.245 19.1284V12.9936C7.28791 12.9936 8.08544 12.1961 8.08544 11.1531H26.4899C26.4899 12.1961 27.2874 12.9936 28.3303 12.9936V19.1284C27.2874 19.1284 26.4899 19.9259 26.4899 20.9688Z" fill="#FFD541" stroke="#282D33" stroke-width="1.2" stroke-miterlimit="10" stroke-linecap="round" stroke-linejoin="round"/>
  <path d="M10.5394 16.061H11.7664" stroke="#282D33" stroke-width="1.2" stroke-miterlimit="10" stroke-linecap="round" stroke-linejoin="round"/>
  <path d="M23.4225 16.061H24.6495" stroke="#282D33" stroke-width="1.2" stroke-miterlimit="10" stroke-linecap="round" stroke-linejoin="round"/>
  <path d="M14.527 16.0609C14.527 14.3432 15.8766 12.9935 17.5944 12.9935C19.3121 12.9935 20.6618 14.3432 20.6618 16.0609C20.6618 17.7787 19.3121 19.1283 17.5944 19.1283C15.8766 19.1283 14.527 17.7787 14.527 16.0609Z" fill="white" stroke="#282D33" stroke-width="1.2" stroke-miterlimit="10" stroke-linecap="round" stroke-linejoin="round"/>
  <path d="M5.63153 2.56439C8.02411 2.56439 9.9259 3.36192 9.9259 4.40484V22.8093C9.9259 23.8522 8.02411 24.6497 5.63153 24.6497C3.23895 24.6497 1.33716 23.8522 1.33716 22.8093V4.40484C1.33716 3.36192 3.23895 2.56439 5.63153 2.56439Z" fill="white"/>
  <path d="M9.9259 4.40482V7.47222C9.9259 8.51514 8.02411 9.31267 5.63153 9.31267C3.23895 9.31267 1.33716 8.51514 1.33716 7.47222V4.40482" stroke="#282D33" stroke-width="1.2" stroke-miterlimit="10" stroke-linecap="round" stroke-linejoin="round"/>
  <path d="M9.9259 7.47226V10.5397C9.9259 11.5826 8.02411 12.3801 5.63153 12.3801C3.23895 12.3801 1.33716 11.5826 1.33716 10.5397V7.47226" stroke="#282D33" stroke-width="1.2" stroke-miterlimit="10" stroke-linecap="round" stroke-linejoin="round"/>
  <path d="M9.9259 10.5397V13.6071C9.9259 14.65 8.02411 15.4475 5.63153 15.4475C3.23895 15.4475 1.33716 14.65 1.33716 13.6071V10.5397" stroke="#282D33" stroke-width="1.2" stroke-miterlimit="10" stroke-linecap="round" stroke-linejoin="round"/>
  <path d="M9.9259 13.6071V16.6745C9.9259 17.7174 8.02411 18.5149 5.63153 18.5149C3.23895 18.5149 1.33716 17.7174 1.33716 16.6745V13.6071" stroke="#282D33" stroke-width="1.2" stroke-miterlimit="10" stroke-linecap="round" stroke-linejoin="round"/>
  <path d="M9.9259 16.6745V19.7419C9.9259 20.7848 8.02411 21.5824 5.63153 21.5824C3.23895 21.5824 1.33716 20.7848 1.33716 19.7419V16.6745" stroke="#282D33" stroke-width="1.2" stroke-miterlimit="10" stroke-linecap="round" stroke-linejoin="round"/>
  <path d="M9.9259 16.6745V22.8093C9.9259 23.8522 8.02411 24.6498 5.63153 24.6498C3.23895 24.6498 1.33716 23.8522 1.33716 22.8093V16.6745" stroke="#282D33" stroke-width="1.2" stroke-miterlimit="10" stroke-linecap="round" stroke-linejoin="round"/>
  <path d="M5.63153 6.24528C8.00325 6.24528 9.9259 5.42129 9.9259 4.40484C9.9259 3.38839 8.00325 2.56439 5.63153 2.56439C3.25981 2.56439 1.33716 3.38839 1.33716 4.40484C1.33716 5.42129 3.25981 6.24528 5.63153 6.24528Z" stroke="#282D33" stroke-width="1.2" stroke-miterlimit="10" stroke-linecap="round" stroke-linejoin="round"/>
  <path d="M12.3798 19.7419C14.7724 19.7419 16.6742 20.5394 16.6742 21.5823V27.7171C16.6742 28.7601 14.7724 29.5576 12.3798 29.5576C9.98724 29.5576 8.08545 28.7601 8.08545 27.7171V21.5823C8.08545 20.5394 9.98724 19.7419 12.3798 19.7419Z" fill="white"/>
  <path d="M16.6742 21.5823V24.6497C16.6742 25.6927 14.7724 26.4902 12.3798 26.4902C9.98724 26.4902 8.08545 25.6927 8.08545 24.6497V21.5823" stroke="#282D33" stroke-width="1.2" stroke-miterlimit="10" stroke-linecap="round" stroke-linejoin="round"/>
  <path d="M16.6742 24.6497V27.7171C16.6742 28.76 14.7724 29.5576 12.3798 29.5576C9.98724 29.5576 8.08545 28.76 8.08545 27.7171V24.6497" stroke="#282D33" stroke-width="1.2" stroke-miterlimit="10" stroke-linecap="round" stroke-linejoin="round"/>
  <path d="M12.3798 23.4228C14.7515 23.4228 16.6742 22.5988 16.6742 21.5823C16.6742 20.5659 14.7515 19.7419 12.3798 19.7419C10.0081 19.7419 8.08545 20.5659 8.08545 21.5823C8.08545 22.5988 10.0081 23.4228 12.3798 23.4228Z" stroke="#282D33" stroke-width="1.2" stroke-miterlimit="10" stroke-linecap="round" stroke-linejoin="round"/>
</svg>
