<svg width="40" height="40" viewBox="0 0 40 40" fill="none" xmlns="http://www.w3.org/2000/svg">
  <circle opacity="0.3" cx="28.1481" cy="28.1481" r="11.8519" fill="#FFD541"/>
  <g clip-path="url(#clip0)">
    <path d="M4.37244 24.2803C5.18851 23.4643 6.77264 23.6083 7.82873 24.6644C8.88483 25.7205 9.07684 27.2566 8.21277 28.1207C7.3967 28.9367 3.65238 28.8407 3.65238 28.8407C3.65238 28.8407 3.55637 25.0964 4.37244 24.2803Z" fill="#FFD541" stroke="#282D33" stroke-width="1.2" stroke-miterlimit="10" stroke-linecap="round" stroke-linejoin="round"/>
    <path d="M2.45456 16.4065C3.12662 15.7345 4.37472 15.9265 5.2868 16.8386C6.19888 17.7506 6.3909 18.9987 5.71884 19.6708C5.04678 20.3429 1.97452 20.1508 1.97452 20.1508C1.97452 20.1508 1.7825 17.0786 2.45456 16.4065Z" fill="#FFD541" stroke="#282D33" stroke-width="1.2" stroke-miterlimit="10" stroke-linecap="round" stroke-linejoin="round"/>
    <path d="M12.8232 26.7752C13.4953 26.1031 14.7434 26.2952 15.6555 27.2072C16.5675 28.1193 16.7596 29.3674 16.0875 30.0395C15.4154 30.7115 12.3432 30.5195 12.3432 30.5195C12.3432 30.5195 12.1512 27.4473 12.8232 26.7752Z" fill="#FFD541" stroke="#282D33" stroke-width="1.2" stroke-miterlimit="10" stroke-linecap="round" stroke-linejoin="round"/>
    <path d="M14.2298 27.9173C15.1104 28.5923 16.6328 28.0599 17.7116 26.981L26.2909 18.4018C27.9862 16.7065 28.6822 14.5256 28.9771 13.3821C29.0572 12.9484 28.8451 12.7363 28.4114 12.8164C27.2679 13.1114 25.1578 13.878 23.4625 15.5733L14.7805 24.2553C13.5475 25.4883 13.2272 27.2229 14.2298 27.9173Z" fill="white" stroke="#282D33" stroke-width="1.2" stroke-miterlimit="10" stroke-linecap="round" stroke-linejoin="round"/>
    <path d="M4.33027 18.0178C5.21083 18.6928 6.73326 18.1603 7.81209 17.0815L16.3913 8.50227C18.0866 6.80697 18.8533 4.69678 19.1483 3.55329C19.2284 3.11965 18.9809 2.87217 18.5472 2.95225C17.4038 3.24721 15.2582 3.97854 13.5629 5.67384L4.88092 14.3558C3.64797 15.5888 3.32762 17.3233 4.33027 18.0178Z" fill="white" stroke="#282D33" stroke-width="1.2" stroke-miterlimit="10" stroke-linecap="round" stroke-linejoin="round"/>
    <path d="M28.8557 3.15829C26.5995 0.902099 22.2312 1.62216 19.783 4.07037L6.67783 17.1755L14.8385 25.3362L27.9437 12.2311C30.3919 9.78286 31.1119 5.41449 28.8557 3.15829Z" fill="#FFD541" stroke="#282D33" stroke-width="1.2" stroke-miterlimit="10" stroke-linecap="round" stroke-linejoin="round"/>
    <path d="M16.2772 20.0554L21.0776 15.255C22.5657 13.7669 23.1898 12.2788 23.4778 10.9346C23.6698 10.0706 22.4217 8.82245 21.5576 9.01447C20.2135 9.3025 18.7254 9.92655 17.2373 11.4147L12.4369 16.2151L6.19632 15.735L4.7562 17.1752L7.63644 20.0554V21.9756L10.5647 24.9038L12.4369 24.8558L15.3171 27.7361L16.7572 26.296L16.2772 20.0554Z" fill="white" stroke="#282D33" stroke-width="1.2" stroke-miterlimit="10" stroke-linecap="round" stroke-linejoin="round"/>
    <path d="M13.3984 19.0955L10.9982 21.4957" stroke="#282D33" stroke-width="1.2" stroke-miterlimit="10" stroke-linecap="round" stroke-linejoin="round"/>
    <path d="M26.9001 5.49979L24.9999 7.39999" stroke="#282D33" stroke-width="1.2" stroke-miterlimit="10" stroke-linecap="round" stroke-linejoin="round"/>
    <path d="M11.2853 24.9526L7.54095 21.2083L4.99673 22.7924L9.70114 27.4968L11.2853 24.9526Z" fill="white" stroke="#282D33" stroke-width="1.2" stroke-miterlimit="10" stroke-linecap="round" stroke-linejoin="round"/>
  </g>
  <defs>
    <clipPath id="clip0">
      <rect width="32" height="32" fill="white"/>
    </clipPath>
  </defs>
</svg>
