<svg width="40" height="40" viewBox="0 0 40 40" fill="none" xmlns="http://www.w3.org/2000/svg">
  <circle opacity="0.3" cx="28.1481" cy="28.1481" r="11.8519" fill="#FFD541"/>
  <path d="M16.0455 18.0988C12.6687 18.0988 9.97632 15.4521 9.97632 12.2122C9.97632 8.97223 12.7143 6.32553 16.0455 6.32553C19.4223 6.32553 22.1146 8.97223 22.1146 12.2122C22.1146 15.4521 19.331 18.0988 16.0455 18.0988Z" fill="#FFD541"/>
  <path d="M16.0454 1.39755V3.22286" stroke="#282D33" stroke-width="1.2" stroke-miterlimit="10" stroke-linecap="round"/>
  <path d="M11.4823 3.22299V5.0483" stroke="#282D33" stroke-width="1.2" stroke-miterlimit="10" stroke-linecap="round"/>
  <path d="M20.6085 3.6796V5.50491" stroke="#282D33" stroke-width="1.2" stroke-miterlimit="10" stroke-linecap="round"/>
  <path d="M16.0454 9.15491V9.61123" stroke="#282D33" stroke-width="1.2" stroke-miterlimit="10" stroke-linecap="round"/>
  <path d="M16.0454 15.0868V15.5431" stroke="#282D33" stroke-width="1.2" stroke-miterlimit="10" stroke-linecap="round"/>
  <path d="M14.6763 12.3492H16.9579C17.7337 12.3492 18.3269 12.9424 18.3269 13.7182C18.3269 14.4939 17.7337 15.0871 16.9579 15.0871H14.22" stroke="#282D33" stroke-width="1.2" stroke-miterlimit="10" stroke-linecap="round"/>
  <path d="M14.22 9.61151H16.5016C17.2774 9.61151 17.8706 10.2047 17.8706 10.9805C17.8706 11.7563 17.2774 12.3495 16.5016 12.3495H15.589" stroke="#282D33" stroke-width="1.2" stroke-miterlimit="10" stroke-linecap="round"/>
  <path d="M14.6766 15.0874V9.61151" stroke="#282D33" stroke-width="1.2" stroke-miterlimit="10" stroke-linecap="round"/>
  <path d="M11.3909 16.0001C10.6151 14.9962 10.1588 13.7185 10.1588 12.3495C10.1588 9.06394 12.8055 6.41724 16.0911 6.41724C19.3766 6.41724 22.0233 9.06394 22.0233 12.3495C22.0233 13.7185 21.567 14.9962 20.7456 16.0001" stroke="#282D33" stroke-width="1.2" stroke-miterlimit="10" stroke-linecap="round"/>
  <path d="M31.0585 19.4681C31.0585 20.1982 30.6934 20.9283 30.0089 21.2934L20.8824 26.4499C20.4717 26.6781 19.9697 26.815 19.4677 26.815H12.5316C12.0296 26.815 11.482 26.9519 11.0713 27.2257L9.33726 28.2296L5.13904 21.7041L10.3412 18.3729C10.7975 18.0991 11.3451 17.9166 11.8471 17.9166H19.4677C20.0153 17.9166 20.6086 18.1447 20.9736 18.5098C21.3387 18.8749 21.5668 19.3768 21.5668 20.0157C21.5668 20.6545 21.293 21.2478 20.8367 21.6128L20.1979 21.9779C20.426 21.8866 20.6542 21.7497 20.8367 21.6128L27.8185 17.5971C28.8225 17.0495 30.1458 17.369 30.6934 18.3273C30.9672 18.738 31.0585 19.1487 31.0585 19.4681Z" fill="white"/>
  <path d="M21.6134 21.2936L27.8651 17.7342C28.869 17.1866 30.1923 17.5061 30.7399 18.4643C31.2875 19.4226 30.9681 20.746 30.0098 21.2936L20.8833 26.4957C20.4726 26.7239 19.9706 26.8608 19.4686 26.8608H12.5325C12.0305 26.8608 11.4829 26.9977 11.0722 27.2715L9.38379 28.2298" stroke="#282D33" stroke-width="1.2" stroke-miterlimit="10" stroke-linecap="round" stroke-linejoin="round"/>
  <path d="M14.0831 22.2061H19.5134C20.6998 22.2061 21.6125 21.2934 21.6125 20.107C21.6125 18.9205 20.6542 18.0079 19.5134 18.0079H11.8927C11.3907 18.0079 10.7975 18.1448 10.3868 18.4186L5.13904 21.7498" stroke="#282D33" stroke-width="1.2" stroke-miterlimit="10" stroke-linecap="round" stroke-linejoin="round"/>
  <path d="M1.39746 22.0237L4.22669 20.3353L9.88516 29.188L7.42099 31.1046" stroke="#282D33" stroke-width="1.2" stroke-miterlimit="10" stroke-linecap="round" stroke-linejoin="round"/>
  <path d="M3.45123 24.5791C3.95319 24.5791 4.36389 24.1684 4.36389 23.7121C4.36389 23.2102 3.95319 22.8451 3.45123 22.8451C2.94927 22.8451 2.53857 23.2558 2.53857 23.7121C2.58421 24.1684 2.9949 24.5791 3.45123 24.5791Z" fill="#FFD541"/>
</svg>
