<svg width="40" height="40" viewBox="0 0 40 40" fill="none" xmlns="http://www.w3.org/2000/svg">
  <circle opacity="0.3" cx="28.1481" cy="28.1481" r="11.8519" fill="#FFD541"/>
  <path d="M7.93625 28.6894C11.5233 28.6894 14.4311 25.8173 14.4311 22.2744C14.4311 18.7315 11.5233 15.8594 7.93625 15.8594C4.34925 15.8594 1.44141 18.7315 1.44141 22.2744C1.44141 25.8173 4.34925 28.6894 7.93625 28.6894Z" fill="white" stroke="#282D33" stroke-width="1.2" stroke-miterlimit="10" stroke-linecap="round" stroke-linejoin="round"/>
  <path d="M12.3105 27.0309C11.1618 28.0346 9.6154 28.6892 7.98065 28.6892C6.30171 28.6892 4.7995 28.0783 3.60657 27.0309C4.09258 25.1108 5.85988 23.7143 7.98065 23.7143C10.0572 23.7143 11.8245 25.1544 12.3105 27.0309Z" fill="#FFD541" stroke="#282D33" stroke-width="1.2" stroke-miterlimit="10" stroke-linecap="round" stroke-linejoin="round"/>
  <path d="M7.93624 23.2346C8.9611 23.2346 9.79191 22.414 9.79191 21.4017C9.79191 20.3894 8.9611 19.5688 7.93624 19.5688C6.91138 19.5688 6.08057 20.3894 6.08057 21.4017C6.08057 22.414 6.91138 23.2346 7.93624 23.2346Z" fill="#FFD541" stroke="#282D33" stroke-width="1.2" stroke-miterlimit="10" stroke-linecap="round" stroke-linejoin="round"/>
  <path d="M24.0632 28.6894C27.6502 28.6894 30.558 25.8173 30.558 22.2744C30.558 18.7315 27.6502 15.8594 24.0632 15.8594C20.4762 15.8594 17.5684 18.7315 17.5684 22.2744C17.5684 25.8173 20.4762 28.6894 24.0632 28.6894Z" fill="white" stroke="#282D33" stroke-width="1.2" stroke-miterlimit="10" stroke-linecap="round" stroke-linejoin="round"/>
  <path d="M15.8894 15.2031C19.4764 15.2031 22.3842 12.331 22.3842 8.78808C22.3842 5.24515 19.4764 2.37305 15.8894 2.37305C12.3024 2.37305 9.39453 5.24515 9.39453 8.78808C9.39453 12.331 12.3024 15.2031 15.8894 15.2031Z" fill="white" stroke="#282D33" stroke-width="1.2" stroke-miterlimit="10" stroke-linecap="round" stroke-linejoin="round"/>
  <path d="M20.2637 13.5887C19.1149 14.5924 17.5685 15.247 15.9338 15.247C14.2548 15.247 12.7526 14.6361 11.5597 13.5887C12.0457 11.6686 13.813 10.2721 15.9338 10.2721C18.0104 10.2721 19.7335 11.7122 20.2637 13.5887Z" fill="#FFD541" stroke="#282D33" stroke-width="1.2" stroke-miterlimit="10" stroke-linecap="round" stroke-linejoin="round"/>
  <path d="M15.8894 9.74825C16.9142 9.74825 17.745 8.92765 17.745 7.91538C17.745 6.90312 16.9142 6.08252 15.8894 6.08252C14.8645 6.08252 14.0337 6.90312 14.0337 7.91538C14.0337 8.92765 14.8645 9.74825 15.8894 9.74825Z" fill="#FFD541" stroke="#282D33" stroke-width="1.2" stroke-miterlimit="10" stroke-linecap="round" stroke-linejoin="round"/>
  <path d="M15.8906 17.777V15.6387" stroke="#282D33" stroke-width="1.2" stroke-miterlimit="10" stroke-linecap="round" stroke-linejoin="round"/>
  <path d="M18.1439 19.0429L15.8906 17.7773" stroke="#282D33" stroke-width="1.2" stroke-miterlimit="10" stroke-linecap="round" stroke-linejoin="round"/>
  <path d="M13.6797 19.0429L15.8888 17.7773" stroke="#282D33" stroke-width="1.2" stroke-miterlimit="10" stroke-linecap="round" stroke-linejoin="round"/>
  <path d="M28.3934 27.0315C27.2447 28.0352 25.6983 28.6898 24.0635 28.6898C22.3846 28.6898 20.8824 28.0788 19.6895 27.0315C20.1755 25.1113 21.9428 23.7148 24.0635 23.7148C26.1401 23.7148 27.9074 25.155 28.3934 27.0315Z" fill="#FFD541" stroke="#282D33" stroke-width="1.2" stroke-miterlimit="10" stroke-linecap="round" stroke-linejoin="round"/>
  <path d="M24.0627 23.2321C25.0876 23.2321 25.9184 22.4115 25.9184 21.3993C25.9184 20.387 25.0876 19.5664 24.0627 19.5664C23.0378 19.5664 22.207 20.387 22.207 21.3993C22.207 22.4115 23.0378 23.2321 24.0627 23.2321Z" fill="#FFD541" stroke="#282D33" stroke-width="1.2" stroke-miterlimit="10" stroke-linecap="round" stroke-linejoin="round"/>
</svg>
