<svg width="36" height="36" viewBox="0 0 36 36" fill="none" xmlns="http://www.w3.org/2000/svg">
<circle opacity="0.1" cx="18" cy="18" r="18" fill="white"/>
<path d="M23.6896 19.3778C23.4479 19.5597 23.1257 19.5799 22.8437 19.4384C22.5416 19.2565 22.3805 18.8523 22.3805 18.2864V16.5685C22.3805 15.7398 22.0583 15.1537 21.5145 14.992C20.588 14.7293 19.9032 15.8611 19.6414 16.2855L18.01 18.9331V15.6994C17.9899 14.9516 17.7482 14.507 17.285 14.3655C16.9829 14.2847 16.5196 14.3049 16.0967 14.992L12.4311 20.8734C11.9478 19.9437 11.7061 18.8927 11.7061 17.8417C11.7061 14.3049 14.5257 11.435 18.01 11.435C21.4943 11.435 24.314 14.3251 24.314 17.862V17.8822V17.9024C24.3341 18.5693 24.1126 19.115 23.6896 19.3778ZM25.7037 17.8417V17.8013C25.6835 13.4964 22.2395 10 18.01 10C13.7806 10 10.2963 13.5167 10.2963 17.8417C10.2963 22.1668 13.7604 25.6835 18.01 25.6835C19.9637 25.6835 21.8367 24.9357 23.2465 23.5816C23.5285 23.3188 23.5486 22.854 23.2868 22.571C23.025 22.2881 22.6021 22.2679 22.3201 22.5306C19.8227 24.9155 15.8752 24.7942 13.5187 22.2881C13.4583 22.2275 13.3979 22.1668 13.3576 22.1062L16.6405 16.811V19.2565C16.6405 20.4287 17.1037 20.8127 17.4662 20.9138C17.8288 21.0148 18.433 20.9542 19.0372 19.9437L20.8498 16.9929C20.9103 16.8918 20.9505 16.811 21.011 16.7504V18.2864C21.011 19.3778 21.454 20.267 22.2194 20.6915C22.9243 21.0755 23.7903 21.035 24.4751 20.5904C25.2807 20.0447 25.744 19.0544 25.7037 17.8417Z" fill="white"/>
</svg>
