<svg width="36" height="36" viewBox="0 0 36 36" fill="none" xmlns="http://www.w3.org/2000/svg">
  <circle opacity="0.1" cx="18" cy="18" r="18" fill="white"/>
  <path d="M23.933 11.333H12.0663C11.8718 11.333 11.6853 11.4103 11.5478 11.5478C11.4103 11.6853 11.333 11.8718 11.333 12.0663V23.933C11.333 24.0293 11.352 24.1247 11.3888 24.2136C11.4257 24.3026 11.4797 24.3835 11.5478 24.4516C11.6159 24.5196 11.6967 24.5737 11.7857 24.6105C11.8747 24.6474 11.97 24.6663 12.0663 24.6663H18.453V19.4997H16.7197V17.4997H18.453V15.9997C18.4171 15.6475 18.4587 15.2918 18.5748 14.9574C18.691 14.623 18.8789 14.318 19.1253 14.0639C19.3718 13.8099 19.6709 13.6128 20.0016 13.4865C20.3323 13.3602 20.6866 13.3078 21.0397 13.333C21.5586 13.3298 22.0772 13.3565 22.593 13.413V15.213H21.533C20.693 15.213 20.533 15.613 20.533 16.193V17.4797H22.533L22.273 19.4797H20.533V24.6663H23.933C24.0293 24.6663 24.1247 24.6474 24.2136 24.6105C24.3026 24.5737 24.3835 24.5196 24.4516 24.4516C24.5196 24.3835 24.5737 24.3026 24.6105 24.2136C24.6474 24.1247 24.6663 24.0293 24.6663 23.933V12.0663C24.6663 11.97 24.6474 11.8747 24.6105 11.7857C24.5737 11.6967 24.5196 11.6159 24.4516 11.5478C24.3835 11.4797 24.3026 11.4257 24.2136 11.3888C24.1247 11.352 24.0293 11.333 23.933 11.333Z" fill="white"/>
</svg>
