<svg width="18" height="18" viewBox="0 0 18 18" fill="none" xmlns="http://www.w3.org/2000/svg">
    <path d="M13.0262 5.84216C13.5058 5.84216 13.8946 5.45335 13.8946 4.97374C13.8946 4.49412 13.5058 4.10532 13.0262 4.10532C12.5466 4.10532 12.1578 4.49412 12.1578 4.97374C12.1578 5.45335 12.5466 5.84216 13.0262 5.84216Z" fill="#89919A"/>
    <path d="M12.2368 1.5H5.76316C3.39474 1.5 1.5 3.39474 1.5 5.76316V12.2368C1.5 14.6053 3.39474 16.5 5.76316 16.5H12.2368C14.6053 16.5 16.5 14.6053 16.5 12.2368V5.76316C16.5 3.39474 14.5263 1.5 12.2368 1.5ZM15.0789 12.2368C15.0789 13.8158 13.8158 15.1579 12.1579 15.1579H5.76316C4.18421 15.1579 2.84211 13.8947 2.84211 12.2368V5.76316C2.84211 4.18421 4.10526 2.84211 5.76316 2.84211H12.2368C13.8158 2.84211 15.1579 4.10526 15.1579 5.76316V12.2368H15.0789Z" fill="#89919A"/>
    <path d="M9.00123 5.05273C6.86965 5.05273 5.13281 6.78958 5.13281 8.92116C5.13281 11.0527 6.86965 12.7896 9.00123 12.7896C11.1328 12.7896 12.8697 11.0527 12.8697 8.92116C12.8697 6.78958 11.1328 5.05273 9.00123 5.05273ZM9.00123 11.5264C7.58018 11.5264 6.47492 10.4212 6.47492 9.0001C6.47492 7.57905 7.58018 6.47379 9.00123 6.47379C10.4223 6.47379 11.5275 7.57905 11.5275 9.0001C11.5275 10.4212 10.4223 11.5264 9.00123 11.5264Z" fill="#89919A"/>
</svg>
