<svg width="36" height="36" viewBox="0 0 36 36" fill="none" xmlns="http://www.w3.org/2000/svg">
  <circle opacity="0.1" cx="18" cy="18" r="18" fill="white"/>
  <path d="M12.3384 14.5135C12.3569 14.3313 12.2874 14.1512 12.1513 14.0285L10.7652 12.3588V12.1094H15.0689L18.3955 19.4049L21.32 12.1094H25.4227V12.3588L24.2377 13.495C24.1355 13.5729 24.0848 13.7009 24.106 13.8276V22.1762C24.0848 22.3029 24.1355 22.4309 24.2377 22.5087L25.395 23.645V23.8944H19.5736V23.645L20.7725 22.481C20.8903 22.3632 20.8903 22.3286 20.8903 22.1485V15.4003L17.5569 23.8667H17.1064L13.2255 15.4003V21.0746C13.1931 21.3131 13.2724 21.5533 13.4403 21.7258L14.9996 23.6173V23.8667H10.5781V23.6173L12.1374 21.7258C12.3042 21.553 12.3788 21.3113 12.3384 21.0746V14.5135Z" fill="white"/>
</svg>
