<svg width="36" height="36" viewBox="0 0 36 36" fill="none" xmlns="http://www.w3.org/2000/svg">
<path opacity="0.1" d="M18 36C27.9411 36 36 27.9411 36 18C36 8.05887 27.9411 0 18 0C8.05887 0 0 8.05887 0 18C0 27.9411 8.05887 36 18 36Z" fill="white"/>
<path d="M18 8C12.5 8 8 12.5 8 18C8 23.5 12.5 28 18 28C23.5 28 28 23.5 28 18C28 12.5 23.5 8 18 8ZM21.2 23.2C21.1 23.6 20.6 23.7 20.3 23.6H20.2L17.5 21.5L15.7 23C15.6 23.1 15.5 23.1 15.4 23L15.7 20V19.9C15.7 19.9 20.6 15.5 20.8 15.3C21.1 15.2 21 15.1 21 15.1C21 14.9 20.6 15.1 20.6 15.1L14.1 19.3L11.4 18.4C11.4 18.4 11 18.3 10.9 17.9C10.9 17.6 11.4 17.4 11.4 17.4L22.1 13.1C22.1 13.1 23 12.7 23 13.4L21.2 23.2Z" fill="white"/>
</svg>
