<svg width="36" height="36" viewBox="0 0 36 36" fill="none" xmlns="http://www.w3.org/2000/svg">
  <circle opacity="0.1" cx="18" cy="18" r="18" fill="white"/>
  <path d="M24.6654 13.8746C24.1643 14.092 23.6343 14.2357 23.092 14.3013C23.6641 13.9595 24.0929 13.4218 24.2987 12.788C23.7611 13.108 23.1725 13.3335 22.5587 13.4546C22.1484 13.0097 21.602 12.7135 21.0052 12.6125C20.4085 12.5116 19.7951 12.6115 19.2612 12.8967C18.7274 13.182 18.3033 13.6363 18.0555 14.1885C17.8077 14.7407 17.7502 15.3595 17.892 15.948C16.805 15.893 15.7417 15.6099 14.7711 15.1172C13.8006 14.6245 12.9446 13.9331 12.2587 13.088C12.0181 13.5081 11.8917 13.9838 11.892 14.468C11.8912 14.9175 12.0015 15.3604 12.2132 15.757C12.4249 16.1536 12.7314 16.4918 13.1054 16.7413C12.6707 16.7295 12.2453 16.6128 11.8654 16.4013V16.4346C11.8686 17.0645 12.0894 17.674 12.4902 18.1599C12.8911 18.6458 13.4475 18.9784 14.0654 19.1013C13.8275 19.1737 13.5806 19.2118 13.332 19.2146C13.16 19.2126 12.9883 19.197 12.8187 19.168C12.9946 19.7098 13.3351 20.1834 13.7927 20.5227C14.2504 20.8621 14.8024 21.0503 15.372 21.0613C14.4102 21.8181 13.2226 22.2312 11.9987 22.2346C11.7759 22.2353 11.5532 22.222 11.332 22.1946C12.5817 23.0015 14.0379 23.4298 15.5254 23.428C16.5518 23.4386 17.5701 23.2446 18.5208 22.8573C19.4714 22.47 20.3354 21.8972 21.0622 21.1723C21.789 20.4474 22.364 19.5849 22.7537 18.6352C23.1435 17.6856 23.3401 16.6678 23.332 15.6413C23.332 15.528 23.332 15.408 23.332 15.288C23.8552 14.8978 24.3063 14.4196 24.6654 13.8746Z" fill="white"/>
</svg>
