<svg width="18" height="18" viewBox="0 0 18 18" fill="none" xmlns="http://www.w3.org/2000/svg">
    <path d="M16.1935 5.40226C16.021 4.75876 15.5148 4.25101 14.872 4.07776C13.6975 3.75526 8.99878 3.75001 8.99878 3.75001C8.99878 3.75001 4.30078 3.74476 3.12553 4.05301C2.49553 4.22476 1.97503 4.74376 1.80103 5.38651C1.49128 6.56101 1.48828 8.99701 1.48828 8.99701C1.48828 8.99701 1.48528 11.445 1.79278 12.6075C1.96528 13.2503 2.47153 13.758 3.11503 13.9313C4.30153 14.2538 8.98753 14.259 8.98753 14.259C8.98753 14.259 13.6863 14.2643 14.8608 13.9568C15.5028 13.7843 16.0113 13.2773 16.186 12.6345C16.4965 11.4608 16.4988 9.02551 16.4988 9.02551C16.4988 9.02551 16.5138 6.57676 16.1935 5.40226ZM7.49578 11.2538L7.49953 6.75376L11.4048 9.00751L7.49578 11.2538Z" fill="#89919A"/>
</svg>
