<svg width="36" height="36" viewBox="0 0 36 36" fill="none" xmlns="http://www.w3.org/2000/svg">
<circle opacity="0.1" cx="18" cy="18" r="18" fill="white"/>
<g clip-path="url(#clip0)">
<path d="M16.9366 15.2258C16.3742 15.2258 15.9172 15.6828 15.9172 16.2452C15.9172 16.8077 16.3742 17.2646 16.9366 17.2646C17.4991 17.2646 17.9561 16.8077 17.9561 16.2452C17.9561 15.964 17.8447 15.7121 17.6573 15.5246C17.4698 15.343 17.2179 15.2258 16.9366 15.2258Z" fill="white"/>
<path d="M18.0029 10C13.5914 10 10 13.5914 10 18.0029C10 22.4145 13.5914 26.0059 18.0029 26.0059C22.4145 26.0059 26.0059 22.4145 26.0059 18.0029C26.0059 13.5914 22.4145 10 18.0029 10ZM22.268 19.0516C22.52 18.9462 22.7719 18.8349 23.0062 18.7001C23.1585 18.6122 23.3109 18.5185 23.4515 18.413C23.4808 18.3955 23.5101 18.372 23.5394 18.3544L23.5511 18.3662C23.1878 18.7001 22.7543 18.9462 22.3149 19.1571C21.8696 19.368 21.4068 19.5379 20.9264 19.6609C20.446 19.784 19.948 19.8777 19.4442 19.8308C18.9403 19.784 18.4248 19.6141 18.0908 19.2332L18.0967 19.2274L18.1084 19.2157C18.5185 19.4793 18.993 19.573 19.4617 19.5906C19.9363 19.6082 20.4167 19.5672 20.8854 19.4735C21.3541 19.3797 21.8169 19.2332 22.268 19.0516ZM21.7993 17.6748C21.7993 17.4991 21.9399 17.3585 22.1098 17.3585C22.2856 17.3585 22.4262 17.4991 22.4262 17.669C22.4262 17.8447 22.2856 17.9854 22.1157 17.9854C21.9399 17.9912 21.7993 17.8506 21.7993 17.6748ZM16.9367 17.6748C16.1399 17.6748 15.4896 17.0304 15.4896 16.2278C15.4896 15.431 16.134 14.7807 16.9367 14.7807C17.335 14.7807 17.6983 14.9447 17.9561 15.2025C18.2197 15.4661 18.3779 15.8235 18.3779 16.2219C18.3837 17.0304 17.7334 17.6748 16.9367 17.6748ZM19.2918 25.0685C19.2215 23.0121 20.985 21.0436 21.9985 20.0066C22.2446 19.7605 22.6137 19.4207 22.9652 19.0633C24.3713 17.751 24.6584 16.1867 21.7876 15.4017C21.2428 15.2435 20.6803 15.0209 20.112 14.7982V14.7924C20.1003 14.7514 20.0828 14.7104 20.0593 14.6635C20.0593 14.6635 20.0593 14.6576 20.0535 14.6576C19.7019 13.937 18.788 13.855 18.0205 14.0893H18.0264H18.0205C17.3526 13.9312 16.6964 13.8784 16.0637 14.0308C13.316 14.7865 12.859 16.1223 12.7419 17.7334C12.7419 17.7393 12.7419 17.751 12.7419 17.7569C12.6071 19.368 12.5251 20.6042 11.9978 21.9517C11.2538 20.8151 10.8202 19.4559 10.8202 18.0029C10.8202 14.0425 14.0425 10.8202 18.0029 10.8202C21.9634 10.8202 25.1856 14.0425 25.1856 18.0029C25.1798 21.524 22.6371 24.4592 19.2918 25.0685Z" fill="white"/>
</g>
<defs>
<clipPath id="clip0">
<rect width="16" height="16" fill="white" transform="translate(10 10)"/>
</clipPath>
</defs>
</svg>
