<svg width="36" height="36" viewBox="0 0 36 36" fill="none" xmlns="http://www.w3.org/2000/svg">
  <circle opacity="0.1" cx="18" cy="18" r="18" fill="white"/>
  <g clip-path="url(#clip0)">
    <path d="M22.2303 10.7471H13.769C12.1003 10.7471 10.7471 12.1003 10.7471 13.769V22.2303C10.7471 23.899 12.1003 25.2522 13.769 25.2522H22.2303C23.8996 25.2522 25.2522 23.899 25.2522 22.2303V13.769C25.2522 12.1003 23.8996 10.7471 22.2303 10.7471ZM15.5821 22.2303H13.769V15.5821H15.5821V22.2303ZM14.6755 14.8158C14.0917 14.8158 13.6179 14.3383 13.6179 13.7496C13.6179 13.161 14.0917 12.6835 14.6755 12.6835C15.2594 12.6835 15.7332 13.161 15.7332 13.7496C15.7332 14.3383 15.26 14.8158 14.6755 14.8158ZM22.8347 22.2303H21.0215V18.8433C21.0215 16.8078 18.604 16.9619 18.604 18.8433V22.2303H16.7909V15.5821H18.604V16.6488C19.4477 15.0859 22.8347 14.9705 22.8347 18.1453V22.2303Z" fill="white"/>
  </g>
  <defs>
    <clipPath id="clip0">
      <rect width="14.5051" height="14.5051" fill="white" transform="translate(10.7471 10.7471)"/>
    </clipPath>
  </defs>
</svg>
