<svg width="36" height="36" viewBox="0 0 36 36" fill="none" xmlns="http://www.w3.org/2000/svg">
  <circle opacity="0.1" cx="18" cy="18" r="18" fill="white"/>
  <path d="M20.4164 18.5848C20.4164 17.9174 20.1803 17.3477 19.7081 16.8755C19.236 16.4033 18.6662 16.1672 17.9988 16.1672C17.3315 16.1672 16.7617 16.4033 16.2895 16.8755C15.8174 17.3477 15.5813 17.9174 15.5813 18.5848C15.5813 19.2521 15.8174 19.8219 16.2895 20.2941C16.7617 20.7663 17.3315 21.0024 17.9988 21.0024C18.6662 21.0024 19.236 20.7663 19.7081 20.2941C20.1803 19.8219 20.4164 19.2521 20.4164 18.5848ZM21.7197 18.5848C21.7197 19.6173 21.3576 20.4956 20.6336 21.2196C19.9096 21.9436 19.0313 22.3056 17.9988 22.3056C16.9663 22.3056 16.0881 21.9436 15.3641 21.2196C14.64 20.4956 14.278 19.6173 14.278 18.5848C14.278 17.5523 14.64 16.674 15.3641 15.95C16.0881 15.226 16.9663 14.864 17.9988 14.864C19.0313 14.864 19.9096 15.226 20.6336 15.95C21.3576 16.674 21.7197 17.5523 21.7197 18.5848ZM22.7396 14.7129C22.7396 14.9521 22.6546 15.1567 22.4846 15.3267C22.3146 15.4967 22.11 15.5817 21.8707 15.5817C21.6315 15.5817 21.4269 15.4967 21.2569 15.3267C21.0869 15.1567 21.0019 14.9521 21.0019 14.7129C21.0019 14.4736 21.0869 14.269 21.2569 14.099C21.4269 13.929 21.6315 13.8441 21.8707 13.8441C22.11 13.8441 22.3146 13.929 22.4846 14.099C22.6546 14.269 22.7396 14.4736 22.7396 14.7129ZM17.9988 12.6353C17.9548 12.6353 17.714 12.6337 17.2764 12.6305C16.8388 12.6274 16.5067 12.6274 16.2801 12.6305C16.0534 12.6337 15.7497 12.6431 15.3688 12.6589C14.9879 12.6746 14.6636 12.7061 14.3961 12.7533C14.1285 12.8005 13.9034 12.8588 13.7209 12.928C13.4061 13.0539 13.129 13.2365 12.8898 13.4757C12.6506 13.715 12.468 13.992 12.3421 14.3068C12.2728 14.4894 12.2146 14.7144 12.1674 14.982C12.1201 15.2496 12.0887 15.5738 12.0729 15.9547C12.0572 16.3356 12.0477 16.6394 12.0446 16.866C12.0415 17.0927 12.0415 17.4248 12.0446 17.8623C12.0477 18.2999 12.0493 18.5407 12.0493 18.5848C12.0493 18.6288 12.0477 18.8697 12.0446 19.3072C12.0415 19.7448 12.0415 20.0769 12.0446 20.3035C12.0477 20.5302 12.0572 20.8339 12.0729 21.2148C12.0887 21.5957 12.1201 21.92 12.1674 22.1875C12.2146 22.4551 12.2728 22.6802 12.3421 22.8628C12.468 23.1776 12.6506 23.4546 12.8898 23.6938C13.129 23.9331 13.4061 24.1156 13.7209 24.2415C13.9034 24.3108 14.1285 24.369 14.3961 24.4163C14.6636 24.4635 14.9879 24.4949 15.3688 24.5107C15.7497 24.5264 16.0534 24.5359 16.2801 24.539C16.5067 24.5422 16.8388 24.5422 17.2764 24.539C17.714 24.5359 17.9548 24.5343 17.9988 24.5343C18.0429 24.5343 18.2837 24.5359 18.7213 24.539C19.1588 24.5422 19.4909 24.5422 19.7176 24.539C19.9442 24.5359 20.248 24.5264 20.6289 24.5107C21.0098 24.4949 21.334 24.4635 21.6016 24.4163C21.8692 24.369 22.0943 24.3108 22.2768 24.2415C22.5916 24.1156 22.8686 23.9331 23.1079 23.6938C23.3471 23.4546 23.5297 23.1776 23.6556 22.8628C23.7249 22.6802 23.7831 22.4551 23.8303 22.1875C23.8775 21.92 23.909 21.5957 23.9248 21.2148C23.9405 20.8339 23.9499 20.5302 23.9531 20.3035C23.9562 20.0769 23.9562 19.7448 23.9531 19.3072C23.9499 18.8697 23.9484 18.6288 23.9484 18.5848C23.9484 18.5407 23.9499 18.2999 23.9531 17.8623C23.9562 17.4248 23.9562 17.0927 23.9531 16.866C23.9499 16.6394 23.9405 16.3356 23.9248 15.9547C23.909 15.5738 23.8775 15.2496 23.8303 14.982C23.7831 14.7144 23.7249 14.4894 23.6556 14.3068C23.5297 13.992 23.3471 13.715 23.1079 13.4757C22.8686 13.2365 22.5916 13.0539 22.2768 12.928C22.0943 12.8588 21.8692 12.8005 21.6016 12.7533C21.334 12.7061 21.0098 12.6746 20.6289 12.6589C20.248 12.6431 19.9442 12.6337 19.7176 12.6305C19.4909 12.6274 19.1588 12.6274 18.7213 12.6305C18.2837 12.6337 18.0429 12.6353 17.9988 12.6353ZM25.2516 18.5848C25.2516 20.0265 25.2358 21.0244 25.2044 21.5784C25.1414 22.8879 24.7511 23.9016 24.0334 24.6193C23.3156 25.337 22.302 25.7273 20.9925 25.7903C20.4385 25.8218 19.4406 25.8375 17.9988 25.8375C16.5571 25.8375 15.5592 25.8218 15.0052 25.7903C13.6957 25.7273 12.682 25.337 11.9643 24.6193C11.2466 23.9016 10.8563 22.8879 10.7933 21.5784C10.7618 21.0244 10.7461 20.0265 10.7461 18.5848C10.7461 17.143 10.7618 16.1452 10.7933 15.5911C10.8563 14.2816 11.2466 13.268 11.9643 12.5503C12.682 11.8325 13.6957 11.4422 15.0052 11.3792C15.5592 11.3478 16.5571 11.332 17.9988 11.332C19.4406 11.332 20.4385 11.3478 20.9925 11.3792C22.302 11.4422 23.3156 11.8325 24.0334 12.5503C24.7511 13.268 25.1414 14.2816 25.2044 15.5911C25.2358 16.1452 25.2516 17.143 25.2516 18.5848Z" fill="white"/>
</svg>
