<svg width="36" height="36" viewBox="0 0 36 36" fill="none" xmlns="http://www.w3.org/2000/svg">
  <circle opacity="0.1" cx="18" cy="18" r="18" fill="white"/>
  <g clip-path="url(#clip0)">
    <path d="M19.4359 20.1481C19.4904 20.202 19.4904 20.2899 19.4359 20.3445C19.1375 20.6409 18.6697 20.7853 18.0043 20.7853L17.9992 20.784L17.994 20.7853C17.3293 20.7853 16.8608 20.6409 16.5625 20.3438C16.5079 20.2899 16.5079 20.202 16.5625 20.1481C16.6164 20.0942 16.7049 20.0942 16.7595 20.1481C17.0027 20.39 17.4063 20.5081 17.994 20.5081L17.9992 20.5094L18.0043 20.5081C18.5914 20.5081 18.995 20.39 19.2389 20.1481C19.2934 20.0942 19.382 20.0942 19.4359 20.1481ZM17.2285 18.5966C17.2285 18.2712 16.9629 18.0069 16.6369 18.0069C16.3103 18.0069 16.0446 18.2712 16.0446 18.5966C16.0446 18.9212 16.3103 19.1856 16.6369 19.1856C16.9629 19.1862 17.2285 18.9219 17.2285 18.5966ZM25.6998 17.9998C25.6998 22.2521 22.2521 25.6998 17.9998 25.6998C13.7475 25.6998 10.2998 22.2521 10.2998 17.9998C10.2998 13.7475 13.7475 10.2998 17.9998 10.2998C22.2521 10.2998 25.6998 13.7475 25.6998 17.9998ZM22.4915 17.917C22.4915 17.371 22.0455 16.9269 21.4969 16.9269C21.2293 16.9269 20.9868 17.0341 20.8077 17.2061C20.1301 16.7601 19.2132 16.4765 18.1987 16.4399L18.7538 14.692L20.2572 15.0443L20.2553 15.0661C20.2553 15.5127 20.6204 15.8759 21.0689 15.8759C21.5174 15.8759 21.8819 15.5127 21.8819 15.0661C21.8819 14.6195 21.5174 14.2563 21.0689 14.2563C20.7243 14.2563 20.4311 14.4713 20.3124 14.7722L18.6922 14.3924C18.6216 14.375 18.5491 14.4161 18.5273 14.4854L17.908 16.4348C16.8454 16.4476 15.8836 16.7338 15.1758 17.1926C14.9981 17.029 14.7626 16.9263 14.5021 16.9263C13.9541 16.9269 13.5081 17.371 13.5081 17.917C13.5081 18.2802 13.7077 18.5946 14.0009 18.7672C13.9817 18.8725 13.9689 18.9796 13.9689 19.0881C13.9689 20.5517 15.7687 21.7426 17.9812 21.7426C20.1937 21.7426 21.9935 20.5517 21.9935 19.0881C21.9935 18.9854 21.9826 18.8847 21.9653 18.7852C22.2772 18.6177 22.4915 18.2937 22.4915 17.917ZM19.3653 18.0075C19.0387 18.0075 18.7737 18.2719 18.7737 18.5972C18.7737 18.9219 19.0393 19.1862 19.3653 19.1862C19.6912 19.1862 19.9569 18.9219 19.9569 18.5972C19.9569 18.2719 19.6919 18.0075 19.3653 18.0075Z" fill="white"/>
  </g>
  <defs>
    <clipPath id="clip0">
      <rect width="15.4" height="15.4" fill="white" transform="translate(10.2998 10.2998)"/>
    </clipPath>
  </defs>
</svg>
