<svg width="18" height="18" viewBox="0 0 18 18" fill="none" xmlns="http://www.w3.org/2000/svg">
    <path d="M14.1675 5.25895C14.7735 4.88695 15.1748 4.3792 15.3713 3.73345C14.8178 4.03278 14.2239 4.25029 13.608 4.3792C13.0808 3.8122 12.4133 3.5242 11.613 3.5242C10.8308 3.5242 10.17 3.7987 9.63077 4.3327C9.37035 4.58628 9.16445 4.89036 9.02568 5.22631C8.88692 5.56226 8.81821 5.92301 8.82377 6.28645C8.82377 6.5182 8.85302 6.7252 8.91152 6.9007C6.60452 6.82195 4.69502 5.86495 3.19052 4.02295C2.93552 4.4737 2.80802 4.9327 2.80802 5.40745C2.80802 6.3832 3.21977 7.15645 4.04177 7.7242C3.57302 7.68445 3.15977 7.56595 2.80802 7.3717C2.80802 8.06845 3.01277 8.65045 3.42302 9.1627C3.82153 9.66185 4.38315 10.0047 5.00927 10.131C4.77527 10.191 4.52852 10.2195 4.27502 10.2195C4.04102 10.2195 3.87527 10.2 3.77702 10.1572C3.94952 10.725 4.27502 11.1855 4.74527 11.538C5.21015 11.8909 5.77563 12.0862 6.35927 12.0952C5.36027 12.879 4.21802 13.2667 2.92577 13.2667C2.60927 13.2667 2.38502 13.2622 2.24927 13.2382C3.52202 14.0647 4.93877 14.475 6.50627 14.475C8.11052 14.475 9.52802 14.0685 10.7618 13.2555C11.9955 12.447 12.906 11.4495 13.491 10.275C14.0695 9.13848 14.3707 7.88119 14.37 6.60595V6.25495C14.9092 5.85739 15.376 5.37004 15.75 4.8142C15.245 5.0331 14.7127 5.1827 14.1675 5.25895Z" fill="#89919A"/>
</svg>
