<svg width="42" height="46" viewBox="0 0 42 46" fill="none" xmlns="http://www.w3.org/2000/svg">
  <path opacity="0.7" d="M17 44.6906C19.4752 46.1197 22.5248 46.1197 25 44.6906L37.7846 37.3094C40.2598 35.8803 41.7846 33.2393 41.7846 30.3812V15.6188C41.7846 12.7607 40.2598 10.1197 37.7846 8.6906L25 1.3094C22.5248 -0.119663 19.4752 -0.119663 17 1.3094L4.21539 8.6906C1.74018 10.1197 0.215391 12.7607 0.215391 15.6188V30.3812C0.215391 33.2393 1.74018 35.8803 4.21539 37.3094L17 44.6906Z" fill="#EAEEEE"/>
  <path fill-rule="evenodd" clip-rule="evenodd" d="M21 14C16.0294 14 12 18.0294 12 23C12 27.9706 16.0294 32 21 32C25.9706 32 30 27.9706 30 23C30 18.0294 25.9706 14 21 14ZM10 23C10 16.9249 14.9249 12 21 12C27.0751 12 32 16.9249 32 23C32 29.0751 27.0751 34 21 34C14.9249 34 10 29.0751 10 23Z" fill="#11B382"/>
  <path d="M21.7071 18.2929C21.3166 17.9024 20.6834 17.9024 20.2929 18.2929L16.2929 22.2929C15.9024 22.6834 15.9024 23.3166 16.2929 23.7071C16.6834 24.0976 17.3166 24.0976 17.7071 23.7071L20 21.4142V27C20 27.5523 20.4477 28 21 28C21.5523 28 22 27.5523 22 27V21.4142L24.2929 23.7071C24.6834 24.0976 25.3166 24.0976 25.7071 23.7071C26.0976 23.3166 26.0976 22.6834 25.7071 22.2929L21.7071 18.2929Z" fill="#11B382"/>
</svg>
