<svg width="1920" height="937" viewBox="0 0 1920 937" fill="none" xmlns="http://www.w3.org/2000/svg">
  <path d="M947.54 -286.567C955.432 -288.173 963.566 -288.173 971.458 -286.567L2029.93 -71.2716C2057.88 -65.5855 2077.97 -41.0027 2077.97 -12.4756V664.476C2077.97 693.003 2057.88 717.586 2029.93 723.272L1003.35 932.081C974.412 937.967 944.586 937.967 915.648 932.081L-110.932 723.272C-138.887 717.586 -158.973 693.003 -158.973 664.476V-12.4755C-158.973 -41.0027 -138.887 -65.5855 -110.932 -71.2716L947.54 -286.567Z" fill="url(#paint0_radial)"/>
  <path opacity="0.3" d="M930 -213.679C948.564 -224.397 971.436 -224.397 990 -213.679L1312.78 -27.3205C1331.35 -16.6026 1342.78 3.20508 1342.78 24.641V397.359C1342.78 418.795 1331.35 438.603 1312.78 449.32L990 635.68C971.436 646.397 948.564 646.397 930 635.68L607.217 449.32C588.653 438.603 577.217 418.795 577.217 397.359V24.641C577.217 3.20509 588.653 -16.6025 607.217 -27.3205L930 -213.679Z" fill="#171718"/>
  <path opacity="0.2" d="M930 -294.679C948.564 -305.397 971.436 -305.397 990 -294.679L1202.8 -171.821C1221.36 -161.103 1232.8 -141.295 1232.8 -119.859V125.859C1232.8 147.295 1221.36 167.103 1202.8 177.82L990 300.68C971.436 311.397 948.564 311.397 930 300.68L717.202 177.821C698.638 167.103 687.202 147.295 687.202 125.859V-119.859C687.202 -141.295 698.638 -161.103 717.202 -171.821L930 -294.679Z" fill="#171718"/>
  <g opacity="0.15">
    <path d="M1597 402C1596 402 1595 403 1595 404C1595 405 1596 406 1597 406C1598 406 1599 405 1599 404C1599 403 1598 402 1597 402Z" fill="white"/>
    <path d="M1562 402C1561 402 1560 403 1560 404C1560 405 1561 406 1562 406C1563 406 1564 405 1564 404C1564 403 1563 402 1562 402Z" fill="white"/>
    <path d="M1632 402C1631 402 1630 403 1630 404C1630 405 1631 406 1632 406C1633 406 1634 405 1634 404C1634 403 1633 402 1632 402Z" fill="white"/>
    <path d="M1667 402C1666 402 1665 403 1665 404C1665 405 1666 406 1667 406C1668 406 1669 405 1669 404C1669 403 1668 402 1667 402Z" fill="white"/>
    <path d="M1702 402C1701 402 1700 403 1700 404C1700 405 1701 406 1702 406C1703 406 1704 405 1704 404C1704 403 1703 402 1702 402Z" fill="white"/>
    <path d="M1737 402C1736 402 1735 403 1735 404C1735 405 1736 406 1737 406C1738 406 1739 405 1739 404C1739 403 1738 402 1737 402Z" fill="white"/>
    <path d="M1772 402C1771 402 1770 403 1770 404C1770 405 1771 406 1772 406C1773 406 1774 405 1774 404C1774 403 1773 402 1772 402Z" fill="white"/>
    <path d="M1807 402C1806 402 1805 403 1805 404C1805 405 1806 406 1807 406C1808 406 1809 405 1809 404C1809 403 1808 402 1807 402Z" fill="white"/>
    <path d="M1842 402C1841 402 1840 403 1840 404C1840 405 1841 406 1842 406C1843 406 1844 405 1844 404C1844 403 1843 402 1842 402Z" fill="white"/>
    <path d="M1562 122C1561 122 1560 123 1560 124C1560 125 1561 126 1562 126C1563 126 1564 125 1564 124C1564 123 1563 122 1562 122Z" fill="white"/>
    <path d="M1562 157C1561 157 1560 158 1560 159C1560 160 1561 161 1562 161C1563 161 1564 160 1564 159C1564 158 1563 157 1562 157Z" fill="white"/>
    <path d="M1562 192C1561 192 1560 193 1560 194C1560 195 1561 196 1562 196C1563 196 1564 195 1564 194C1564 193 1563 192 1562 192Z" fill="white"/>
    <path d="M1562 227C1561 227 1560 228 1560 229C1560 230 1561 231 1562 231C1563 231 1564 230 1564 229C1564 228 1563 227 1562 227Z" fill="white"/>
    <path d="M1562 262C1561 262 1560 263 1560 264C1560 265 1561 266 1562 266C1563 266 1564 265 1564 264C1564 263 1563 262 1562 262Z" fill="white"/>
    <path d="M1562 297C1561 297 1560 298 1560 299C1560 300 1561 301 1562 301C1563 301 1564 300 1564 299C1564 298 1563 297 1562 297Z" fill="white"/>
    <path d="M1562 332C1561 332 1560 333 1560 334C1560 335 1561 336 1562 336C1563 336 1564 335 1564 334C1564 333 1563 332 1562 332Z" fill="white"/>
    <path d="M1562 367C1561 367 1560 368 1560 369C1560 370 1561 371 1562 371C1563 371 1564 370 1564 369C1564 368 1563 367 1562 367Z" fill="white"/>
    <path d="M1597 122C1596 122 1595 123 1595 124C1595 125 1596 126 1597 126C1598 126 1599 125 1599 124C1599 123 1598 122 1597 122Z" fill="white"/>
    <path d="M1597 157C1596 157 1595 158 1595 159C1595 160 1596 161 1597 161C1598 161 1599 160 1599 159C1599 158 1598 157 1597 157Z" fill="white"/>
    <path d="M1597 192C1596 192 1595 193 1595 194C1595 195 1596 196 1597 196C1598 196 1599 195 1599 194C1599 193 1598 192 1597 192Z" fill="white"/>
    <path d="M1597 227C1596 227 1595 228 1595 229C1595 230 1596 231 1597 231C1598 231 1599 230 1599 229C1599 228 1598 227 1597 227Z" fill="white"/>
    <path d="M1597 262C1596 262 1595 263 1595 264C1595 265 1596 266 1597 266C1598 266 1599 265 1599 264C1599 263 1598 262 1597 262Z" fill="white"/>
    <path d="M1597 297C1596 297 1595 298 1595 299C1595 300 1596 301 1597 301C1598 301 1599 300 1599 299C1599 298 1598 297 1597 297Z" fill="white"/>
    <path d="M1597 332C1596 332 1595 333 1595 334C1595 335 1596 336 1597 336C1598 336 1599 335 1599 334C1599 333 1598 332 1597 332Z" fill="white"/>
    <path d="M1597 367C1596 367 1595 368 1595 369C1595 370 1596 371 1597 371C1598 371 1599 370 1599 369C1599 368 1598 367 1597 367Z" fill="white"/>
    <path d="M1632 122C1631 122 1630 123 1630 124C1630 125 1631 126 1632 126C1633 126 1634 125 1634 124C1634 123 1633 122 1632 122Z" fill="white"/>
    <path d="M1632 157C1631 157 1630 158 1630 159C1630 160 1631 161 1632 161C1633 161 1634 160 1634 159C1634 158 1633 157 1632 157Z" fill="white"/>
    <path d="M1632 192C1631 192 1630 193 1630 194C1630 195 1631 196 1632 196C1633 196 1634 195 1634 194C1634 193 1633 192 1632 192Z" fill="white"/>
    <path d="M1632 227C1631 227 1630 228 1630 229C1630 230 1631 231 1632 231C1633 231 1634 230 1634 229C1634 228 1633 227 1632 227Z" fill="white"/>
    <path d="M1632 262C1631 262 1630 263 1630 264C1630 265 1631 266 1632 266C1633 266 1634 265 1634 264C1634 263 1633 262 1632 262Z" fill="white"/>
    <path d="M1632 297C1631 297 1630 298 1630 299C1630 300 1631 301 1632 301C1633 301 1634 300 1634 299C1634 298 1633 297 1632 297Z" fill="white"/>
    <path d="M1632 332C1631 332 1630 333 1630 334C1630 335 1631 336 1632 336C1633 336 1634 335 1634 334C1634 333 1633 332 1632 332Z" fill="white"/>
    <path d="M1632 367C1631 367 1630 368 1630 369C1630 370 1631 371 1632 371C1633 371 1634 370 1634 369C1634 368 1633 367 1632 367Z" fill="white"/>
    <path d="M1667 122C1666 122 1665 123 1665 124C1665 125 1666 126 1667 126C1668 126 1669 125 1669 124C1669 123 1668 122 1667 122Z" fill="white"/>
    <path d="M1667 157C1666 157 1665 158 1665 159C1665 160 1666 161 1667 161C1668 161 1669 160 1669 159C1669 158 1668 157 1667 157Z" fill="white"/>
    <path d="M1667 192C1666 192 1665 193 1665 194C1665 195 1666 196 1667 196C1668 196 1669 195 1669 194C1669 193 1668 192 1667 192Z" fill="white"/>
    <path d="M1667 227C1666 227 1665 228 1665 229C1665 230 1666 231 1667 231C1668 231 1669 230 1669 229C1669 228 1668 227 1667 227Z" fill="white"/>
    <path d="M1667 262C1666 262 1665 263 1665 264C1665 265 1666 266 1667 266C1668 266 1669 265 1669 264C1669 263 1668 262 1667 262Z" fill="white"/>
    <path d="M1667 297C1666 297 1665 298 1665 299C1665 300 1666 301 1667 301C1668 301 1669 300 1669 299C1669 298 1668 297 1667 297Z" fill="white"/>
    <path d="M1667 332C1666 332 1665 333 1665 334C1665 335 1666 336 1667 336C1668 336 1669 335 1669 334C1669 333 1668 332 1667 332Z" fill="white"/>
    <path d="M1667 367C1666 367 1665 368 1665 369C1665 370 1666 371 1667 371C1668 371 1669 370 1669 369C1669 368 1668 367 1667 367Z" fill="white"/>
    <path d="M1702 122C1701 122 1700 123 1700 124C1700 125 1701 126 1702 126C1703 126 1704 125 1704 124C1704 123 1703 122 1702 122Z" fill="white"/>
    <path d="M1702 157C1701 157 1700 158 1700 159C1700 160 1701 161 1702 161C1703 161 1704 160 1704 159C1704 158 1703 157 1702 157Z" fill="white"/>
    <path d="M1702 192C1701 192 1700 193 1700 194C1700 195 1701 196 1702 196C1703 196 1704 195 1704 194C1704 193 1703 192 1702 192Z" fill="white"/>
    <path d="M1702 227C1701 227 1700 228 1700 229C1700 230 1701 231 1702 231C1703 231 1704 230 1704 229C1704 228 1703 227 1702 227Z" fill="white"/>
    <path d="M1702 262C1701 262 1700 263 1700 264C1700 265 1701 266 1702 266C1703 266 1704 265 1704 264C1704 263 1703 262 1702 262Z" fill="white"/>
    <path d="M1702 297C1701 297 1700 298 1700 299C1700 300 1701 301 1702 301C1703 301 1704 300 1704 299C1704 298 1703 297 1702 297Z" fill="white"/>
    <path d="M1702 332C1701 332 1700 333 1700 334C1700 335 1701 336 1702 336C1703 336 1704 335 1704 334C1704 333 1703 332 1702 332Z" fill="white"/>
    <path d="M1702 367C1701 367 1700 368 1700 369C1700 370 1701 371 1702 371C1703 371 1704 370 1704 369C1704 368 1703 367 1702 367Z" fill="white"/>
    <path d="M1737 122C1736 122 1735 123 1735 124C1735 125 1736 126 1737 126C1738 126 1739 125 1739 124C1739 123 1738 122 1737 122Z" fill="white"/>
    <path d="M1737 157C1736 157 1735 158 1735 159C1735 160 1736 161 1737 161C1738 161 1739 160 1739 159C1739 158 1738 157 1737 157Z" fill="white"/>
    <path d="M1737 192C1736 192 1735 193 1735 194C1735 195 1736 196 1737 196C1738 196 1739 195 1739 194C1739 193 1738 192 1737 192Z" fill="white"/>
    <path d="M1737 227C1736 227 1735 228 1735 229C1735 230 1736 231 1737 231C1738 231 1739 230 1739 229C1739 228 1738 227 1737 227Z" fill="white"/>
    <path d="M1737 262C1736 262 1735 263 1735 264C1735 265 1736 266 1737 266C1738 266 1739 265 1739 264C1739 263 1738 262 1737 262Z" fill="white"/>
    <path d="M1737 297C1736 297 1735 298 1735 299C1735 300 1736 301 1737 301C1738 301 1739 300 1739 299C1739 298 1738 297 1737 297Z" fill="white"/>
    <path d="M1737 332C1736 332 1735 333 1735 334C1735 335 1736 336 1737 336C1738 336 1739 335 1739 334C1739 333 1738 332 1737 332Z" fill="white"/>
    <path d="M1737 367C1736 367 1735 368 1735 369C1735 370 1736 371 1737 371C1738 371 1739 370 1739 369C1739 368 1738 367 1737 367Z" fill="white"/>
    <path d="M1772 122C1771 122 1770 123 1770 124C1770 125 1771 126 1772 126C1773 126 1774 125 1774 124C1774 123 1773 122 1772 122Z" fill="white"/>
    <path d="M1772 157C1771 157 1770 158 1770 159C1770 160 1771 161 1772 161C1773 161 1774 160 1774 159C1774 158 1773 157 1772 157Z" fill="white"/>
    <path d="M1772 192C1771 192 1770 193 1770 194C1770 195 1771 196 1772 196C1773 196 1774 195 1774 194C1774 193 1773 192 1772 192Z" fill="white"/>
    <path d="M1772 227C1771 227 1770 228 1770 229C1770 230 1771 231 1772 231C1773 231 1774 230 1774 229C1774 228 1773 227 1772 227Z" fill="white"/>
    <path d="M1772 262C1771 262 1770 263 1770 264C1770 265 1771 266 1772 266C1773 266 1774 265 1774 264C1774 263 1773 262 1772 262Z" fill="white"/>
    <path d="M1772 297C1771 297 1770 298 1770 299C1770 300 1771 301 1772 301C1773 301 1774 300 1774 299C1774 298 1773 297 1772 297Z" fill="white"/>
    <path d="M1772 332C1771 332 1770 333 1770 334C1770 335 1771 336 1772 336C1773 336 1774 335 1774 334C1774 333 1773 332 1772 332Z" fill="white"/>
    <path d="M1772 367C1771 367 1770 368 1770 369C1770 370 1771 371 1772 371C1773 371 1774 370 1774 369C1774 368 1773 367 1772 367Z" fill="white"/>
    <path d="M1807 122C1806 122 1805 123 1805 124C1805 125 1806 126 1807 126C1808 126 1809 125 1809 124C1809 123 1808 122 1807 122Z" fill="white"/>
    <path d="M1807 157C1806 157 1805 158 1805 159C1805 160 1806 161 1807 161C1808 161 1809 160 1809 159C1809 158 1808 157 1807 157Z" fill="white"/>
    <path d="M1807 192C1806 192 1805 193 1805 194C1805 195 1806 196 1807 196C1808 196 1809 195 1809 194C1809 193 1808 192 1807 192Z" fill="white"/>
    <path d="M1807 227C1806 227 1805 228 1805 229C1805 230 1806 231 1807 231C1808 231 1809 230 1809 229C1809 228 1808 227 1807 227Z" fill="white"/>
    <path d="M1807 262C1806 262 1805 263 1805 264C1805 265 1806 266 1807 266C1808 266 1809 265 1809 264C1809 263 1808 262 1807 262Z" fill="white"/>
    <path d="M1807 297C1806 297 1805 298 1805 299C1805 300 1806 301 1807 301C1808 301 1809 300 1809 299C1809 298 1808 297 1807 297Z" fill="white"/>
    <path d="M1807 332C1806 332 1805 333 1805 334C1805 335 1806 336 1807 336C1808 336 1809 335 1809 334C1809 333 1808 332 1807 332Z" fill="white"/>
    <path d="M1807 367C1806 367 1805 368 1805 369C1805 370 1806 371 1807 371C1808 371 1809 370 1809 369C1809 368 1808 367 1807 367Z" fill="white"/>
    <path d="M1842 126C1843 126 1844 125 1844 124C1844 123 1843 122 1842 122C1841 122 1840 123 1840 124C1840 125 1841 126 1842 126Z" fill="white"/>
    <path d="M1842 157C1841 157 1840 158 1840 159C1840 160 1841 161 1842 161C1843 161 1844 160 1844 159C1844 158 1843 157 1842 157Z" fill="white"/>
    <path d="M1842 192C1841 192 1840 193 1840 194C1840 195 1841 196 1842 196C1843 196 1844 195 1844 194C1844 193 1843 192 1842 192Z" fill="white"/>
    <path d="M1842 227C1841 227 1840 228 1840 229C1840 230 1841 231 1842 231C1843 231 1844 230 1844 229C1844 228 1843 227 1842 227Z" fill="white"/>
    <path d="M1842 262C1841 262 1840 263 1840 264C1840 265 1841 266 1842 266C1843 266 1844 265 1844 264C1844 263 1843 262 1842 262Z" fill="white"/>
    <path d="M1842 297C1841 297 1840 298 1840 299C1840 300 1841 301 1842 301C1843 301 1844 300 1844 299C1844 298 1843 297 1842 297Z" fill="white"/>
    <path d="M1842 332C1841 332 1840 333 1840 334C1840 335 1841 336 1842 336C1843 336 1844 335 1844 334C1844 333 1843 332 1842 332Z" fill="white"/>
    <path d="M1842 367C1841 367 1840 368 1840 369C1840 370 1841 371 1842 371C1843 371 1844 370 1844 369C1844 368 1843 367 1842 367Z" fill="white"/>
  </g>
  <g opacity="0.15">
    <path d="M11 603C10 603 9 604 9 605C9 606 10 607 11 607C12 607 13 606 13 605C13 604 12 603 11 603Z" fill="white"/>
    <path d="M46 603C45 603 44 604 44 605C44 606 45 607 46 607C47 607 48 606 48 605C48 604 47 603 46 603Z" fill="white"/>
    <path d="M81 603C80 603 79 604 79 605C79 606 80 607 81 607C82 607 83 606 83 605C83 604 82 603 81 603Z" fill="white"/>
    <path d="M116 603C115 603 114 604 114 605C114 606 115 607 116 607C117 607 118 606 118 605C118 604 117 603 116 603Z" fill="white"/>
    <path d="M151 603C150 603 149 604 149 605C149 606 150 607 151 607C152 607 153 606 153 605C153 604 152 603 151 603Z" fill="white"/>
    <path d="M186 603C185 603 184 604 184 605C184 606 185 607 186 607C187 607 188 606 188 605C188 604 187 603 186 603Z" fill="white"/>
    <path d="M221 603C220 603 219 604 219 605C219 606 220 607 221 607C222 607 223 606 223 605C223 604 222 603 221 603Z" fill="white"/>
    <path d="M256 603C255 603 254 604 254 605C254 606 255 607 256 607C257 607 258 606 258 605C258 604 257 603 256 603Z" fill="white"/>
    <path d="M11 323C10 323 9 324 9 325C9 326 10 327 11 327C12 327 13 326 13 325C13 324 12 323 11 323Z" fill="white"/>
    <path d="M11 358C10 358 9 359 9 360C9 361 10 362 11 362C12 362 13 361 13 360C13 359 12 358 11 358Z" fill="white"/>
    <path d="M11 393C10 393 9 394 9 395C9 396 10 397 11 397C12 397 13 396 13 395C13 394 12 393 11 393Z" fill="white"/>
    <path d="M11 428C10 428 9 429 9 430C9 431 10 432 11 432C12 432 13 431 13 430C13 429 12 428 11 428Z" fill="white"/>
    <path d="M11 463C10 463 9 464 9 465C9 466 10 467 11 467C12 467 13 466 13 465C13 464 12 463 11 463Z" fill="white"/>
    <path d="M11 498C10 498 9 499 9 500C9 501 10 502 11 502C12 502 13 501 13 500C13 499 12 498 11 498Z" fill="white"/>
    <path d="M11 533C10 533 9 534 9 535C9 536 10 537 11 537C12 537 13 536 13 535C13 534 12 533 11 533Z" fill="white"/>
    <path d="M11 568C10 568 9 569 9 570C9 571 10 572 11 572C12 572 13 571 13 570C13 569 12 568 11 568Z" fill="white"/>
    <path d="M46 323C45 323 44 324 44 325C44 326 45 327 46 327C47 327 48 326 48 325C48 324 47 323 46 323Z" fill="white"/>
    <path d="M46 358C45 358 44 359 44 360C44 361 45 362 46 362C47 362 48 361 48 360C48 359 47 358 46 358Z" fill="white"/>
    <path d="M46 393C45 393 44 394 44 395C44 396 45 397 46 397C47 397 48 396 48 395C48 394 47 393 46 393Z" fill="white"/>
    <path d="M46 428C45 428 44 429 44 430C44 431 45 432 46 432C47 432 48 431 48 430C48 429 47 428 46 428Z" fill="white"/>
    <path d="M46 463C45 463 44 464 44 465C44 466 45 467 46 467C47 467 48 466 48 465C48 464 47 463 46 463Z" fill="white"/>
    <path d="M46 498C45 498 44 499 44 500C44 501 45 502 46 502C47 502 48 501 48 500C48 499 47 498 46 498Z" fill="white"/>
    <path d="M46 533C45 533 44 534 44 535C44 536 45 537 46 537C47 537 48 536 48 535C48 534 47 533 46 533Z" fill="white"/>
    <path d="M46 568C45 568 44 569 44 570C44 571 45 572 46 572C47 572 48 571 48 570C48 569 47 568 46 568Z" fill="white"/>
    <path d="M81 323C80 323 79 324 79 325C79 326 80 327 81 327C82 327 83 326 83 325C83 324 82 323 81 323Z" fill="white"/>
    <path d="M81 358C80 358 79 359 79 360C79 361 80 362 81 362C82 362 83 361 83 360C83 359 82 358 81 358Z" fill="white"/>
    <path d="M81 393C80 393 79 394 79 395C79 396 80 397 81 397C82 397 83 396 83 395C83 394 82 393 81 393Z" fill="white"/>
    <path d="M81 428C80 428 79 429 79 430C79 431 80 432 81 432C82 432 83 431 83 430C83 429 82 428 81 428Z" fill="white"/>
    <path d="M81 463C80 463 79 464 79 465C79 466 80 467 81 467C82 467 83 466 83 465C83 464 82 463 81 463Z" fill="white"/>
    <path d="M81 498C80 498 79 499 79 500C79 501 80 502 81 502C82 502 83 501 83 500C83 499 82 498 81 498Z" fill="white"/>
    <path d="M81 533C80 533 79 534 79 535C79 536 80 537 81 537C82 537 83 536 83 535C83 534 82 533 81 533Z" fill="white"/>
    <path d="M81 568C80 568 79 569 79 570C79 571 80 572 81 572C82 572 83 571 83 570C83 569 82 568 81 568Z" fill="white"/>
    <path d="M116 323C115 323 114 324 114 325C114 326 115 327 116 327C117 327 118 326 118 325C118 324 117 323 116 323Z" fill="white"/>
    <path d="M116 358C115 358 114 359 114 360C114 361 115 362 116 362C117 362 118 361 118 360C118 359 117 358 116 358Z" fill="white"/>
    <path d="M116 393C115 393 114 394 114 395C114 396 115 397 116 397C117 397 118 396 118 395C118 394 117 393 116 393Z" fill="white"/>
    <path d="M116 428C115 428 114 429 114 430C114 431 115 432 116 432C117 432 118 431 118 430C118 429 117 428 116 428Z" fill="white"/>
    <path d="M116 463C115 463 114 464 114 465C114 466 115 467 116 467C117 467 118 466 118 465C118 464 117 463 116 463Z" fill="white"/>
    <path d="M116 498C115 498 114 499 114 500C114 501 115 502 116 502C117 502 118 501 118 500C118 499 117 498 116 498Z" fill="white"/>
    <path d="M116 533C115 533 114 534 114 535C114 536 115 537 116 537C117 537 118 536 118 535C118 534 117 533 116 533Z" fill="white"/>
    <path d="M116 568C115 568 114 569 114 570C114 571 115 572 116 572C117 572 118 571 118 570C118 569 117 568 116 568Z" fill="white"/>
    <path d="M151 323C150 323 149 324 149 325C149 326 150 327 151 327C152 327 153 326 153 325C153 324 152 323 151 323Z" fill="white"/>
    <path d="M151 358C150 358 149 359 149 360C149 361 150 362 151 362C152 362 153 361 153 360C153 359 152 358 151 358Z" fill="white"/>
    <path d="M151 393C150 393 149 394 149 395C149 396 150 397 151 397C152 397 153 396 153 395C153 394 152 393 151 393Z" fill="white"/>
    <path d="M151 428C150 428 149 429 149 430C149 431 150 432 151 432C152 432 153 431 153 430C153 429 152 428 151 428Z" fill="white"/>
    <path d="M151 463C150 463 149 464 149 465C149 466 150 467 151 467C152 467 153 466 153 465C153 464 152 463 151 463Z" fill="white"/>
    <path d="M151 498C150 498 149 499 149 500C149 501 150 502 151 502C152 502 153 501 153 500C153 499 152 498 151 498Z" fill="white"/>
    <path d="M151 533C150 533 149 534 149 535C149 536 150 537 151 537C152 537 153 536 153 535C153 534 152 533 151 533Z" fill="white"/>
    <path d="M151 568C150 568 149 569 149 570C149 571 150 572 151 572C152 572 153 571 153 570C153 569 152 568 151 568Z" fill="white"/>
    <path d="M186 323C185 323 184 324 184 325C184 326 185 327 186 327C187 327 188 326 188 325C188 324 187 323 186 323Z" fill="white"/>
    <path d="M186 358C185 358 184 359 184 360C184 361 185 362 186 362C187 362 188 361 188 360C188 359 187 358 186 358Z" fill="white"/>
    <path d="M186 393C185 393 184 394 184 395C184 396 185 397 186 397C187 397 188 396 188 395C188 394 187 393 186 393Z" fill="white"/>
    <path d="M186 428C185 428 184 429 184 430C184 431 185 432 186 432C187 432 188 431 188 430C188 429 187 428 186 428Z" fill="white"/>
    <path d="M186 463C185 463 184 464 184 465C184 466 185 467 186 467C187 467 188 466 188 465C188 464 187 463 186 463Z" fill="white"/>
    <path d="M186 498C185 498 184 499 184 500C184 501 185 502 186 502C187 502 188 501 188 500C188 499 187 498 186 498Z" fill="white"/>
    <path d="M186 533C185 533 184 534 184 535C184 536 185 537 186 537C187 537 188 536 188 535C188 534 187 533 186 533Z" fill="white"/>
    <path d="M186 568C185 568 184 569 184 570C184 571 185 572 186 572C187 572 188 571 188 570C188 569 187 568 186 568Z" fill="white"/>
    <path d="M221 323C220 323 219 324 219 325C219 326 220 327 221 327C222 327 223 326 223 325C223 324 222 323 221 323Z" fill="white"/>
    <path d="M221 358C220 358 219 359 219 360C219 361 220 362 221 362C222 362 223 361 223 360C223 359 222 358 221 358Z" fill="white"/>
    <path d="M221 393C220 393 219 394 219 395C219 396 220 397 221 397C222 397 223 396 223 395C223 394 222 393 221 393Z" fill="white"/>
    <path d="M221 428C220 428 219 429 219 430C219 431 220 432 221 432C222 432 223 431 223 430C223 429 222 428 221 428Z" fill="white"/>
    <path d="M221 463C220 463 219 464 219 465C219 466 220 467 221 467C222 467 223 466 223 465C223 464 222 463 221 463Z" fill="white"/>
    <path d="M221 498C220 498 219 499 219 500C219 501 220 502 221 502C222 502 223 501 223 500C223 499 222 498 221 498Z" fill="white"/>
    <path d="M221 533C220 533 219 534 219 535C219 536 220 537 221 537C222 537 223 536 223 535C223 534 222 533 221 533Z" fill="white"/>
    <path d="M221 568C220 568 219 569 219 570C219 571 220 572 221 572C222 572 223 571 223 570C223 569 222 568 221 568Z" fill="white"/>
    <path d="M256 327C257 327 258 326 258 325C258 324 257 323 256 323C255 323 254 324 254 325C254 326 255 327 256 327Z" fill="white"/>
    <path d="M256 358C255 358 254 359 254 360C254 361 255 362 256 362C257 362 258 361 258 360C258 359 257 358 256 358Z" fill="white"/>
    <path d="M256 393C255 393 254 394 254 395C254 396 255 397 256 397C257 397 258 396 258 395C258 394 257 393 256 393Z" fill="white"/>
    <path d="M256 428C255 428 254 429 254 430C254 431 255 432 256 432C257 432 258 431 258 430C258 429 257 428 256 428Z" fill="white"/>
    <path d="M256 463C255 463 254 464 254 465C254 466 255 467 256 467C257 467 258 466 258 465C258 464 257 463 256 463Z" fill="white"/>
    <path d="M256 498C255 498 254 499 254 500C254 501 255 502 256 502C257 502 258 501 258 500C258 499 257 498 256 498Z" fill="white"/>
    <path d="M256 533C255 533 254 534 254 535C254 536 255 537 256 537C257 537 258 536 258 535C258 534 257 533 256 533Z" fill="white"/>
    <path d="M256 568C255 568 254 569 254 570C254 571 255 572 256 572C257 572 258 571 258 570C258 569 257 568 256 568Z" fill="white"/>
  </g>
  <defs>
    <radialGradient id="paint0_radial" cx="0" cy="0" r="1" gradientUnits="userSpaceOnUse" gradientTransform="translate(959.499 1221) rotate(-90) scale(1280.5)">
      <stop stop-color="#049370"/>
      <stop offset="1" stop-color="#051812"/>
    </radialGradient>
  </defs>
</svg>
