<svg width="234" height="76" viewBox="0 0 234 76" fill="none" xmlns="http://www.w3.org/2000/svg">
    <path opacity="0.3" d="M102 -179.34C111.282 -184.699 122.718 -184.699 132 -179.34L218.047 -129.66C227.329 -124.301 233.047 -114.397 233.047 -103.679V-4.32051C233.047 6.39746 227.329 16.3013 218.047 21.6602L132 71.3398C122.718 76.6987 111.282 76.6987 102 71.3398L15.9526 21.6603C6.67057 16.3013 0.952599 6.39746 0.952599 -4.32051V-103.679C0.952599 -114.397 6.67056 -124.301 15.9526 -129.66L102 -179.34Z" fill="#171718"/>
    <g opacity="0.1">
        <path d="M81 40C80.5 40 80 40.5 80 41C80 41.5 80.5 42 81 42C81.5 42 82 41.5 82 41C82 40.5 81.5 40 81 40Z" fill="white"/>
        <path d="M69 40C68.5 40 68 40.5 68 41C68 41.5 68.5 42 69 42C69.5 42 70 41.5 70 41C70 40.5 69.5 40 69 40Z" fill="white"/>
        <path d="M93 40C92.5 40 92 40.5 92 41C92 41.5 92.5 42 93 42C93.5 42 94 41.5 94 41C94 40.5 93.5 40 93 40Z" fill="white"/>
        <path d="M105 40C104.5 40 104 40.5 104 41C104 41.5 104.5 42 105 42C105.5 42 106 41.5 106 41C106 40.5 105.5 40 105 40Z" fill="white"/>
        <path d="M117 40C116.5 40 116 40.5 116 41C116 41.5 116.5 42 117 42C117.5 42 118 41.5 118 41C118 40.5 117.5 40 117 40Z" fill="white"/>
        <path d="M129 40C128.5 40 128 40.5 128 41C128 41.5 128.5 42 129 42C129.5 42 130 41.5 130 41C130 40.5 129.5 40 129 40Z" fill="white"/>
        <path d="M141 40C140.5 40 140 40.5 140 41C140 41.5 140.5 42 141 42C141.5 42 142 41.5 142 41C142 40.5 141.5 40 141 40Z" fill="white"/>
        <path d="M153 40C152.5 40 152 40.5 152 41C152 41.5 152.5 42 153 42C153.5 42 154 41.5 154 41C154 40.5 153.5 40 153 40Z" fill="white"/>
        <path d="M165 40C164.5 40 164 40.5 164 41C164 41.5 164.5 42 165 42C165.5 42 166 41.5 166 41C166 40.5 165.5 40 165 40Z" fill="white"/>
        <path d="M69 4C68.5 4 68 4.5 68 5C68 5.5 68.5 6 69 6C69.5 6 70 5.5 70 5C70 4.5 69.5 4 69 4Z" fill="white"/>
        <path d="M69 16C68.5 16 68 16.5 68 17C68 17.5 68.5 18 69 18C69.5 18 70 17.5 70 17C70 16.5 69.5 16 69 16Z" fill="white"/>
        <path d="M69 28C68.5 28 68 28.5 68 29C68 29.5 68.5 30 69 30C69.5 30 70 29.5 70 29C70 28.5 69.5 28 69 28Z" fill="white"/>
        <path d="M81 4C80.5 4 80 4.5 80 5C80 5.5 80.5 6 81 6C81.5 6 82 5.5 82 5C82 4.5 81.5 4 81 4Z" fill="white"/>
        <path d="M81 16C80.5 16 80 16.5 80 17C80 17.5 80.5 18 81 18C81.5 18 82 17.5 82 17C82 16.5 81.5 16 81 16Z" fill="white"/>
        <path d="M81 28C80.5 28 80 28.5 80 29C80 29.5 80.5 30 81 30C81.5 30 82 29.5 82 29C82 28.5 81.5 28 81 28Z" fill="white"/>
        <path d="M93 4C92.5 4 92 4.5 92 5C92 5.5 92.5 6 93 6C93.5 6 94 5.5 94 5C94 4.5 93.5 4 93 4Z" fill="white"/>
        <path d="M93 16C92.5 16 92 16.5 92 17C92 17.5 92.5 18 93 18C93.5 18 94 17.5 94 17C94 16.5 93.5 16 93 16Z" fill="white"/>
        <path d="M93 28C92.5 28 92 28.5 92 29C92 29.5 92.5 30 93 30C93.5 30 94 29.5 94 29C94 28.5 93.5 28 93 28Z" fill="white"/>
        <path d="M105 4C104.5 4 104 4.5 104 5C104 5.5 104.5 6 105 6C105.5 6 106 5.5 106 5C106 4.5 105.5 4 105 4Z" fill="white"/>
        <path d="M105 16C104.5 16 104 16.5 104 17C104 17.5 104.5 18 105 18C105.5 18 106 17.5 106 17C106 16.5 105.5 16 105 16Z" fill="white"/>
        <path d="M105 28C104.5 28 104 28.5 104 29C104 29.5 104.5 30 105 30C105.5 30 106 29.5 106 29C106 28.5 105.5 28 105 28Z" fill="white"/>
        <path d="M117 4C116.5 4 116 4.5 116 5C116 5.5 116.5 6 117 6C117.5 6 118 5.5 118 5C118 4.5 117.5 4 117 4Z" fill="white"/>
        <path d="M117 16C116.5 16 116 16.5 116 17C116 17.5 116.5 18 117 18C117.5 18 118 17.5 118 17C118 16.5 117.5 16 117 16Z" fill="white"/>
        <path d="M117 28C116.5 28 116 28.5 116 29C116 29.5 116.5 30 117 30C117.5 30 118 29.5 118 29C118 28.5 117.5 28 117 28Z" fill="white"/>
        <path d="M129 4C128.5 4 128 4.5 128 5C128 5.5 128.5 6 129 6C129.5 6 130 5.5 130 5C130 4.5 129.5 4 129 4Z" fill="white"/>
        <path d="M129 16C128.5 16 128 16.5 128 17C128 17.5 128.5 18 129 18C129.5 18 130 17.5 130 17C130 16.5 129.5 16 129 16Z" fill="white"/>
        <path d="M129 28C128.5 28 128 28.5 128 29C128 29.5 128.5 30 129 30C129.5 30 130 29.5 130 29C130 28.5 129.5 28 129 28Z" fill="white"/>
        <path d="M141 4C140.5 4 140 4.5 140 5C140 5.5 140.5 6 141 6C141.5 6 142 5.5 142 5C142 4.5 141.5 4 141 4Z" fill="white"/>
        <path d="M141 16C140.5 16 140 16.5 140 17C140 17.5 140.5 18 141 18C141.5 18 142 17.5 142 17C142 16.5 141.5 16 141 16Z" fill="white"/>
        <path d="M141 28C140.5 28 140 28.5 140 29C140 29.5 140.5 30 141 30C141.5 30 142 29.5 142 29C142 28.5 141.5 28 141 28Z" fill="white"/>
        <path d="M153 4C152.5 4 152 4.5 152 5C152 5.5 152.5 6 153 6C153.5 6 154 5.5 154 5C154 4.5 153.5 4 153 4Z" fill="white"/>
        <path d="M153 16C152.5 16 152 16.5 152 17C152 17.5 152.5 18 153 18C153.5 18 154 17.5 154 17C154 16.5 153.5 16 153 16Z" fill="white"/>
        <path d="M153 28C152.5 28 152 28.5 152 29C152 29.5 152.5 30 153 30C153.5 30 154 29.5 154 29C154 28.5 153.5 28 153 28Z" fill="white"/>
        <path d="M165 4C164.5 4 164 4.5 164 5C164 5.5 164.5 6 165 6C165.5 6 166 5.5 166 5C166 4.5 165.5 4 165 4Z" fill="white"/>
        <path d="M165 16C164.5 16 164 16.5 164 17C164 17.5 164.5 18 165 18C165.5 18 166 17.5 166 17C166 16.5 165.5 16 165 16Z" fill="white"/>
        <path d="M165 28C164.5 28 164 28.5 164 29C164 29.5 164.5 30 165 30C165.5 30 166 29.5 166 29C166 28.5 165.5 28 165 28Z" fill="white"/>
    </g>
</svg>
