<svg width="1484" height="384" viewBox="0 0 1484 384" fill="none" xmlns="http://www.w3.org/2000/svg">
  <path d="M1229 280C1228 280 1227 281 1227 282C1227 283 1228 284 1229 284C1230 284 1231 283 1231 282C1231 281 1230 280 1229 280Z" fill="#DBDEDE"/>
  <path d="M1194 280C1193 280 1192 281 1192 282C1192 283 1193 284 1194 284C1195 284 1196 283 1196 282C1196 281 1195 280 1194 280Z" fill="#DBDEDE"/>
  <path d="M1264 280C1263 280 1262 281 1262 282C1262 283 1263 284 1264 284C1265 284 1266 283 1266 282C1266 281 1265 280 1264 280Z" fill="#DBDEDE"/>
  <path d="M1299 280C1298 280 1297 281 1297 282C1297 283 1298 284 1299 284C1300 284 1301 283 1301 282C1301 281 1300 280 1299 280Z" fill="#DBDEDE"/>
  <path d="M1334 280C1333 280 1332 281 1332 282C1332 283 1333 284 1334 284C1335 284 1336 283 1336 282C1336 281 1335 280 1334 280Z" fill="#DBDEDE"/>
  <path d="M1369 280C1368 280 1367 281 1367 282C1367 283 1368 284 1369 284C1370 284 1371 283 1371 282C1371 281 1370 280 1369 280Z" fill="#DBDEDE"/>
  <path d="M1404 280C1403 280 1402 281 1402 282C1402 283 1403 284 1404 284C1405 284 1406 283 1406 282C1406 281 1405 280 1404 280Z" fill="#DBDEDE"/>
  <path d="M1439 280C1438 280 1437 281 1437 282C1437 283 1438 284 1439 284C1440 284 1441 283 1441 282C1441 281 1440 280 1439 280Z" fill="#DBDEDE"/>
  <path d="M1474 280C1473 280 1472 281 1472 282C1472 283 1473 284 1474 284C1475 284 1476 283 1476 282C1476 281 1475 280 1474 280Z" fill="#DBDEDE"/>
  <path d="M1194 0C1193 0 1192 1 1192 2C1192 3 1193 4 1194 4C1195 4 1196 3 1196 2C1196 1 1195 0 1194 0Z" fill="#DBDEDE"/>
  <path d="M1194 35C1193 35 1192 36 1192 37C1192 38 1193 39 1194 39C1195 39 1196 38 1196 37C1196 36 1195 35 1194 35Z" fill="#DBDEDE"/>
  <path d="M1194 70C1193 70 1192 71 1192 72C1192 73 1193 74 1194 74C1195 74 1196 73 1196 72C1196 71 1195 70 1194 70Z" fill="#DBDEDE"/>
  <path d="M1194 105C1193 105 1192 106 1192 107C1192 108 1193 109 1194 109C1195 109 1196 108 1196 107C1196 106 1195 105 1194 105Z" fill="#DBDEDE"/>
  <path d="M1194 140C1193 140 1192 141 1192 142C1192 143 1193 144 1194 144C1195 144 1196 143 1196 142C1196 141 1195 140 1194 140Z" fill="#DBDEDE"/>
  <path d="M1194 175C1193 175 1192 176 1192 177C1192 178 1193 179 1194 179C1195 179 1196 178 1196 177C1196 176 1195 175 1194 175Z" fill="#DBDEDE"/>
  <path d="M1194 210C1193 210 1192 211 1192 212C1192 213 1193 214 1194 214C1195 214 1196 213 1196 212C1196 211 1195 210 1194 210Z" fill="#DBDEDE"/>
  <path d="M1194 245C1193 245 1192 246 1192 247C1192 248 1193 249 1194 249C1195 249 1196 248 1196 247C1196 246 1195 245 1194 245Z" fill="#DBDEDE"/>
  <path d="M1229 0C1228 0 1227 1 1227 2C1227 3 1228 4 1229 4C1230 4 1231 3 1231 2C1231 1 1230 0 1229 0Z" fill="#DBDEDE"/>
  <path d="M1229 35C1228 35 1227 36 1227 37C1227 38 1228 39 1229 39C1230 39 1231 38 1231 37C1231 36 1230 35 1229 35Z" fill="#DBDEDE"/>
  <path d="M1229 70C1228 70 1227 71 1227 72C1227 73 1228 74 1229 74C1230 74 1231 73 1231 72C1231 71 1230 70 1229 70Z" fill="#DBDEDE"/>
  <path d="M1229 105C1228 105 1227 106 1227 107C1227 108 1228 109 1229 109C1230 109 1231 108 1231 107C1231 106 1230 105 1229 105Z" fill="#DBDEDE"/>
  <path d="M1229 140C1228 140 1227 141 1227 142C1227 143 1228 144 1229 144C1230 144 1231 143 1231 142C1231 141 1230 140 1229 140Z" fill="#DBDEDE"/>
  <path d="M1229 175C1228 175 1227 176 1227 177C1227 178 1228 179 1229 179C1230 179 1231 178 1231 177C1231 176 1230 175 1229 175Z" fill="#DBDEDE"/>
  <path d="M1229 210C1228 210 1227 211 1227 212C1227 213 1228 214 1229 214C1230 214 1231 213 1231 212C1231 211 1230 210 1229 210Z" fill="#DBDEDE"/>
  <path d="M1229 245C1228 245 1227 246 1227 247C1227 248 1228 249 1229 249C1230 249 1231 248 1231 247C1231 246 1230 245 1229 245Z" fill="#DBDEDE"/>
  <path d="M1264 0C1263 0 1262 1 1262 2C1262 3 1263 4 1264 4C1265 4 1266 3 1266 2C1266 1 1265 0 1264 0Z" fill="#DBDEDE"/>
  <path d="M1264 35C1263 35 1262 36 1262 37C1262 38 1263 39 1264 39C1265 39 1266 38 1266 37C1266 36 1265 35 1264 35Z" fill="#DBDEDE"/>
  <path d="M1264 70C1263 70 1262 71 1262 72C1262 73 1263 74 1264 74C1265 74 1266 73 1266 72C1266 71 1265 70 1264 70Z" fill="#DBDEDE"/>
  <path d="M1264 105C1263 105 1262 106 1262 107C1262 108 1263 109 1264 109C1265 109 1266 108 1266 107C1266 106 1265 105 1264 105Z" fill="#DBDEDE"/>
  <path d="M1264 140C1263 140 1262 141 1262 142C1262 143 1263 144 1264 144C1265 144 1266 143 1266 142C1266 141 1265 140 1264 140Z" fill="#DBDEDE"/>
  <path d="M1264 175C1263 175 1262 176 1262 177C1262 178 1263 179 1264 179C1265 179 1266 178 1266 177C1266 176 1265 175 1264 175Z" fill="#DBDEDE"/>
  <path d="M1264 210C1263 210 1262 211 1262 212C1262 213 1263 214 1264 214C1265 214 1266 213 1266 212C1266 211 1265 210 1264 210Z" fill="#DBDEDE"/>
  <path d="M1264 245C1263 245 1262 246 1262 247C1262 248 1263 249 1264 249C1265 249 1266 248 1266 247C1266 246 1265 245 1264 245Z" fill="#DBDEDE"/>
  <path d="M1299 0C1298 0 1297 1 1297 2C1297 3 1298 4 1299 4C1300 4 1301 3 1301 2C1301 1 1300 0 1299 0Z" fill="#DBDEDE"/>
  <path d="M1299 35C1298 35 1297 36 1297 37C1297 38 1298 39 1299 39C1300 39 1301 38 1301 37C1301 36 1300 35 1299 35Z" fill="#DBDEDE"/>
  <path d="M1299 70C1298 70 1297 71 1297 72C1297 73 1298 74 1299 74C1300 74 1301 73 1301 72C1301 71 1300 70 1299 70Z" fill="#DBDEDE"/>
  <path d="M1299 105C1298 105 1297 106 1297 107C1297 108 1298 109 1299 109C1300 109 1301 108 1301 107C1301 106 1300 105 1299 105Z" fill="#DBDEDE"/>
  <path d="M1299 140C1298 140 1297 141 1297 142C1297 143 1298 144 1299 144C1300 144 1301 143 1301 142C1301 141 1300 140 1299 140Z" fill="#DBDEDE"/>
  <path d="M1299 175C1298 175 1297 176 1297 177C1297 178 1298 179 1299 179C1300 179 1301 178 1301 177C1301 176 1300 175 1299 175Z" fill="#DBDEDE"/>
  <path d="M1299 210C1298 210 1297 211 1297 212C1297 213 1298 214 1299 214C1300 214 1301 213 1301 212C1301 211 1300 210 1299 210Z" fill="#DBDEDE"/>
  <path d="M1299 245C1298 245 1297 246 1297 247C1297 248 1298 249 1299 249C1300 249 1301 248 1301 247C1301 246 1300 245 1299 245Z" fill="#DBDEDE"/>
  <path d="M1334 0C1333 0 1332 1 1332 2C1332 3 1333 4 1334 4C1335 4 1336 3 1336 2C1336 1 1335 0 1334 0Z" fill="#DBDEDE"/>
  <path d="M1334 35C1333 35 1332 36 1332 37C1332 38 1333 39 1334 39C1335 39 1336 38 1336 37C1336 36 1335 35 1334 35Z" fill="#DBDEDE"/>
  <path d="M1334 70C1333 70 1332 71 1332 72C1332 73 1333 74 1334 74C1335 74 1336 73 1336 72C1336 71 1335 70 1334 70Z" fill="#DBDEDE"/>
  <path d="M1334 105C1333 105 1332 106 1332 107C1332 108 1333 109 1334 109C1335 109 1336 108 1336 107C1336 106 1335 105 1334 105Z" fill="#DBDEDE"/>
  <path d="M1334 140C1333 140 1332 141 1332 142C1332 143 1333 144 1334 144C1335 144 1336 143 1336 142C1336 141 1335 140 1334 140Z" fill="#DBDEDE"/>
  <path d="M1334 175C1333 175 1332 176 1332 177C1332 178 1333 179 1334 179C1335 179 1336 178 1336 177C1336 176 1335 175 1334 175Z" fill="#DBDEDE"/>
  <path d="M1334 210C1333 210 1332 211 1332 212C1332 213 1333 214 1334 214C1335 214 1336 213 1336 212C1336 211 1335 210 1334 210Z" fill="#DBDEDE"/>
  <path d="M1334 245C1333 245 1332 246 1332 247C1332 248 1333 249 1334 249C1335 249 1336 248 1336 247C1336 246 1335 245 1334 245Z" fill="#DBDEDE"/>
  <path d="M1369 0C1368 0 1367 1 1367 2C1367 3 1368 4 1369 4C1370 4 1371 3 1371 2C1371 1 1370 0 1369 0Z" fill="#DBDEDE"/>
  <path d="M1369 35C1368 35 1367 36 1367 37C1367 38 1368 39 1369 39C1370 39 1371 38 1371 37C1371 36 1370 35 1369 35Z" fill="#DBDEDE"/>
  <path d="M1369 70C1368 70 1367 71 1367 72C1367 73 1368 74 1369 74C1370 74 1371 73 1371 72C1371 71 1370 70 1369 70Z" fill="#DBDEDE"/>
  <path d="M1369 105C1368 105 1367 106 1367 107C1367 108 1368 109 1369 109C1370 109 1371 108 1371 107C1371 106 1370 105 1369 105Z" fill="#DBDEDE"/>
  <path d="M1369 140C1368 140 1367 141 1367 142C1367 143 1368 144 1369 144C1370 144 1371 143 1371 142C1371 141 1370 140 1369 140Z" fill="#DBDEDE"/>
  <path d="M1369 175C1368 175 1367 176 1367 177C1367 178 1368 179 1369 179C1370 179 1371 178 1371 177C1371 176 1370 175 1369 175Z" fill="#DBDEDE"/>
  <path d="M1369 210C1368 210 1367 211 1367 212C1367 213 1368 214 1369 214C1370 214 1371 213 1371 212C1371 211 1370 210 1369 210Z" fill="#DBDEDE"/>
  <path d="M1369 245C1368 245 1367 246 1367 247C1367 248 1368 249 1369 249C1370 249 1371 248 1371 247C1371 246 1370 245 1369 245Z" fill="#DBDEDE"/>
  <path d="M1404 0C1403 0 1402 1 1402 2C1402 3 1403 4 1404 4C1405 4 1406 3 1406 2C1406 1 1405 0 1404 0Z" fill="#DBDEDE"/>
  <path d="M1404 35C1403 35 1402 36 1402 37C1402 38 1403 39 1404 39C1405 39 1406 38 1406 37C1406 36 1405 35 1404 35Z" fill="#DBDEDE"/>
  <path d="M1404 70C1403 70 1402 71 1402 72C1402 73 1403 74 1404 74C1405 74 1406 73 1406 72C1406 71 1405 70 1404 70Z" fill="#DBDEDE"/>
  <path d="M1404 105C1403 105 1402 106 1402 107C1402 108 1403 109 1404 109C1405 109 1406 108 1406 107C1406 106 1405 105 1404 105Z" fill="#DBDEDE"/>
  <path d="M1404 140C1403 140 1402 141 1402 142C1402 143 1403 144 1404 144C1405 144 1406 143 1406 142C1406 141 1405 140 1404 140Z" fill="#DBDEDE"/>
  <path d="M1404 175C1403 175 1402 176 1402 177C1402 178 1403 179 1404 179C1405 179 1406 178 1406 177C1406 176 1405 175 1404 175Z" fill="#DBDEDE"/>
  <path d="M1404 210C1403 210 1402 211 1402 212C1402 213 1403 214 1404 214C1405 214 1406 213 1406 212C1406 211 1405 210 1404 210Z" fill="#DBDEDE"/>
  <path d="M1404 245C1403 245 1402 246 1402 247C1402 248 1403 249 1404 249C1405 249 1406 248 1406 247C1406 246 1405 245 1404 245Z" fill="#DBDEDE"/>
  <path d="M1439 0C1438 0 1437 1 1437 2C1437 3 1438 4 1439 4C1440 4 1441 3 1441 2C1441 1 1440 0 1439 0Z" fill="#DBDEDE"/>
  <path d="M1439 35C1438 35 1437 36 1437 37C1437 38 1438 39 1439 39C1440 39 1441 38 1441 37C1441 36 1440 35 1439 35Z" fill="#DBDEDE"/>
  <path d="M1439 70C1438 70 1437 71 1437 72C1437 73 1438 74 1439 74C1440 74 1441 73 1441 72C1441 71 1440 70 1439 70Z" fill="#DBDEDE"/>
  <path d="M1439 105C1438 105 1437 106 1437 107C1437 108 1438 109 1439 109C1440 109 1441 108 1441 107C1441 106 1440 105 1439 105Z" fill="#DBDEDE"/>
  <path d="M1439 140C1438 140 1437 141 1437 142C1437 143 1438 144 1439 144C1440 144 1441 143 1441 142C1441 141 1440 140 1439 140Z" fill="#DBDEDE"/>
  <path d="M1439 175C1438 175 1437 176 1437 177C1437 178 1438 179 1439 179C1440 179 1441 178 1441 177C1441 176 1440 175 1439 175Z" fill="#DBDEDE"/>
  <path d="M1439 210C1438 210 1437 211 1437 212C1437 213 1438 214 1439 214C1440 214 1441 213 1441 212C1441 211 1440 210 1439 210Z" fill="#DBDEDE"/>
  <path d="M1439 245C1438 245 1437 246 1437 247C1437 248 1438 249 1439 249C1440 249 1441 248 1441 247C1441 246 1440 245 1439 245Z" fill="#DBDEDE"/>
  <path d="M1474 4C1475 4 1476 3 1476 2C1476 1 1475 0 1474 0C1473 0 1472 1 1472 2C1472 3 1473 4 1474 4Z" fill="#DBDEDE"/>
  <path d="M1474 35C1473 35 1472 36 1472 37C1472 38 1473 39 1474 39C1475 39 1476 38 1476 37C1476 36 1475 35 1474 35Z" fill="#DBDEDE"/>
  <path d="M1474 70C1473 70 1472 71 1472 72C1472 73 1473 74 1474 74C1475 74 1476 73 1476 72C1476 71 1475 70 1474 70Z" fill="#DBDEDE"/>
  <path d="M1474 105C1473 105 1472 106 1472 107C1472 108 1473 109 1474 109C1475 109 1476 108 1476 107C1476 106 1475 105 1474 105Z" fill="#DBDEDE"/>
  <path d="M1474 140C1473 140 1472 141 1472 142C1472 143 1473 144 1474 144C1475 144 1476 143 1476 142C1476 141 1475 140 1474 140Z" fill="#DBDEDE"/>
  <path d="M1474 175C1473 175 1472 176 1472 177C1472 178 1473 179 1474 179C1475 179 1476 178 1476 177C1476 176 1475 175 1474 175Z" fill="#DBDEDE"/>
  <path d="M1474 210C1473 210 1472 211 1472 212C1472 213 1473 214 1474 214C1475 214 1476 213 1476 212C1476 211 1475 210 1474 210Z" fill="#DBDEDE"/>
  <path d="M1474 245C1473 245 1472 246 1472 247C1472 248 1473 249 1474 249C1475 249 1476 248 1476 247C1476 246 1475 245 1474 245Z" fill="#DBDEDE"/>
  <path opacity="0.4" d="M123 73.547C135.376 66.4017 150.624 66.4017 163 73.547L265.028 132.453C277.404 139.598 285.028 152.803 285.028 167.094V284.906C285.028 299.197 277.404 312.402 265.028 319.547L163 378.453C150.624 385.598 135.376 385.598 123 378.453L20.9718 319.547C8.59579 312.402 0.971832 299.197 0.971832 284.906V167.094C0.971832 152.803 8.59579 139.598 20.9718 132.453L123 73.547Z" fill="#EAEEEE"/>
</svg>
