<svg width="32" height="32" viewBox="0 0 32 32" fill="none" xmlns="http://www.w3.org/2000/svg">
  <path fill-rule="evenodd" clip-rule="evenodd" d="M2.6665 12.1764C2.6665 11.2397 3.15797 10.3717 3.96118 9.88976L14.6278 3.48976C15.4723 2.98307 16.5273 2.98307 17.3718 3.48976L28.0385 9.88976C28.8417 10.3717 29.3332 11.2397 29.3332 12.1764V26.6666C29.3332 28.1393 28.1393 29.3332 26.6665 29.3332H5.33317C3.86041 29.3332 2.6665 28.1393 2.6665 26.6666V12.1764ZM26.6665 13.1579V26.6666H5.33317V13.1579L15.9998 20.269L26.6665 13.1579ZM24.9112 11.1232L15.9998 5.77641L7.0885 11.1232L15.9998 17.0641L24.9112 11.1232Z" fill="#A6ADC0"/>
</svg>
