<svg width="140" height="179" viewBox="0 0 140 179" fill="none" xmlns="http://www.w3.org/2000/svg">
  <path opacity="0.1" d="M70.1182 179C108.316 179 139.281 161.11 139.281 139.042C139.281 116.975 108.316 99.085 70.1182 99.085C31.9204 99.085 0.955078 116.975 0.955078 139.042C0.955078 161.11 31.9204 179 70.1182 179Z" fill="#20332D"/>
  <path opacity="0.3" d="M70.1188 167.256C97.1141 167.256 118.998 154.624 118.998 139.042C118.998 123.46 97.1141 110.828 70.1188 110.828C43.1235 110.828 21.2395 123.46 21.2395 139.042C21.2395 154.624 43.1235 167.256 70.1188 167.256Z" fill="#20332D"/>
  <path d="M101.311 29.3886L51.2111 0.411776C50.3723 -0.0457529 49.686 -0.122008 49.076 0.183012L45.6445 2.16564L47.8559 3.53822V120.818C47.8559 123.258 49.3048 126.08 51.1349 127.147L100.624 155.743L99.9379 158.259L103.369 156.277C104.056 155.895 104.513 154.98 104.513 153.608V35.6415C104.589 33.2013 103.064 30.3799 101.311 29.3886Z" fill="url(#paint0_linear)"/>
  <path d="M97.8002 158.107L47.7008 129.207C45.8707 128.139 44.4219 125.318 44.4219 122.877V4.9112C44.4219 2.47104 45.8707 1.40348 47.7008 2.39479L97.8002 31.3716C99.6303 32.4392 101.079 35.2606 101.079 37.7008V155.591C101.079 158.031 99.6303 159.175 97.8002 158.107Z" fill="url(#paint1_linear)"/>
  <path d="M101.079 155.666L44.4219 122.953V4.83423L101.079 37.6238V155.666Z" fill="#4D5C58"/>
  <path opacity="0.4" d="M92.0817 157.955L41.5248 128.75C39.6184 127.682 38.4746 125.623 38.4746 123.412V12.385C38.4746 10.8599 40.1522 9.86861 41.5248 10.6312L92.0817 39.8367C93.9881 40.9043 95.1319 42.9632 95.1319 45.1746V156.278C95.0557 157.803 93.3781 158.718 92.0817 157.955Z" fill="white"/>
  <path d="M93.0731 158.487C92.6918 158.487 92.3106 158.41 91.9293 158.182L41.3724 128.976C39.3898 127.832 38.1697 125.697 38.1697 123.486V12.3825C38.1697 11.5437 38.551 10.8574 39.3135 10.4761C39.9998 10.0949 40.8386 10.0949 41.5249 10.4761L92.1581 39.6817C94.1407 40.8255 95.3608 42.9607 95.3608 45.1721V156.275C95.3608 157.114 94.9795 157.8 94.2169 158.182C93.8357 158.334 93.4544 158.487 93.0731 158.487ZM40.4573 10.5524C40.1523 10.5524 39.8473 10.6287 39.5423 10.7812C39.0085 11.0862 38.6272 11.6962 38.6272 12.3063V123.409C38.6272 125.545 39.771 127.451 41.6011 128.519L92.1581 157.724C92.6918 158.029 93.3781 158.029 93.9882 157.724C94.522 157.419 94.9032 156.809 94.9032 156.199V45.1721C94.9032 43.0369 93.7594 41.1306 91.9293 40.063L41.2961 10.7812C41.0674 10.6287 40.7623 10.5524 40.4573 10.5524Z" fill="white"/>
  <path d="M76.5269 21.8385L69.054 17.5682C68.8252 17.4157 68.5964 17.0344 68.5964 16.6531C68.5964 16.3481 68.8252 16.1956 69.054 16.2719L76.5269 20.6184C76.7557 20.7709 76.9845 21.1522 76.9845 21.5335C76.9845 21.8385 76.7557 21.991 76.5269 21.8385Z" fill="#465651"/>
  <path opacity="0.2" d="M79.5728 88.8687C80.5642 89.4787 81.403 88.8687 81.403 87.4961V46.471C81.403 45.0984 80.5642 43.4971 79.5728 42.887L38.5478 19.248C38.4715 19.7056 38.3953 20.2394 38.3953 20.6969V65.0772L79.5728 88.8687Z" fill="#122620"/>
  <path d="M48.767 73.6925V74.6838C47.9282 74.3025 46.7844 74.0738 45.4881 74.2263C40.8365 74.5313 35.4224 78.2678 33.4398 82.4618C32.906 83.6056 32.601 84.6732 32.6773 85.6645L31.7622 85.3595L32.7535 86.8846C33.5923 88.1809 35.2699 88.9435 37.6338 88.7147C42.2854 88.4097 47.6995 84.6732 49.6821 80.4792C50.6734 78.4203 50.6734 76.5902 49.8346 75.2939L48.767 73.6925Z" fill="#F4A856"/>
  <path d="M48.6144 78.8784C46.5555 83.0724 41.2177 86.7326 36.5661 87.1139C31.9146 87.4189 29.7795 84.3687 31.8383 80.1747C33.8972 75.9807 39.2351 72.3205 43.8866 71.9392C48.5381 71.5579 50.6733 74.6844 48.6144 78.8784Z" fill="#FCCC6B"/>
  <path d="M48.6144 78.8784C46.5555 83.0724 41.2177 86.7326 36.5661 87.1139C31.9146 87.4189 29.7795 84.3687 31.8383 80.1747C33.8972 75.9807 39.2351 72.3205 43.8866 71.9392C48.5381 71.5579 50.6733 74.6844 48.6144 78.8784Z" fill="url(#paint2_radial)"/>
  <path d="M43.1251 83.6804C41.295 84.9767 39.0836 85.8155 37.101 85.968C35.1946 86.1205 33.6695 85.5867 32.907 84.4429C32.1444 83.2991 32.1444 81.6977 32.9832 80.0201C34.6608 76.5124 39.2361 73.386 43.2014 73.0809C45.1077 72.9284 46.6328 73.4622 47.3954 74.606C48.1579 75.7499 48.1579 77.3512 47.3191 79.0288C46.4803 80.7827 44.9552 82.384 43.1251 83.6804ZM37.406 75.4448C35.5759 76.6649 34.0508 78.2663 33.212 80.0201C32.3732 81.6977 32.3732 83.2228 33.0595 84.2904C33.822 85.358 35.1946 85.8917 37.101 85.7392C40.99 85.4342 45.489 82.384 47.1666 78.8763C48.0054 77.1987 48.0054 75.6736 47.3191 74.606C46.5566 73.5385 45.184 73.0047 43.2776 73.1572C41.3712 73.386 39.2361 74.2248 37.406 75.4448Z" fill="#F4A856"/>
  <path d="M47.3193 78.9535C45.6417 82.4612 41.0664 85.5877 37.1774 85.8165C33.2884 86.1215 31.5346 83.4526 33.2122 79.9448C34.8898 76.4371 39.4651 73.3107 43.354 73.0819C47.243 72.8531 48.9969 75.4458 47.3193 78.9535Z" fill="url(#paint3_radial)"/>
  <path d="M33.4405 80.3261C35.1181 76.8184 39.6934 73.6919 43.5824 73.4632C45.4125 73.3106 46.7851 73.8444 47.5476 74.7595C46.8613 73.6157 45.4125 72.9294 43.3536 73.0819C39.4646 73.3869 34.8893 76.4371 33.2117 79.9448C32.2967 81.7749 32.3729 83.3763 33.2117 84.4438C32.6017 83.4525 32.6017 82.0037 33.4405 80.3261Z" fill="#F4A856"/>
  <path d="M48.3874 78.5711C46.3285 82.7651 40.9907 86.4253 36.3391 86.8066C34.1277 86.9591 32.4501 86.349 31.6113 85.2052C32.4501 86.5778 34.1277 87.3404 36.5679 87.1879C41.2194 86.8828 46.6335 83.1463 48.6161 78.9523C49.6837 76.7409 49.6075 74.9108 48.6161 73.6145C49.3787 74.7583 49.3787 76.5122 48.3874 78.5711Z" fill="#FCE586"/>
  <path d="M47.2425 83.8351C48.3101 82.7676 49.1489 81.6237 49.6826 80.4037C50.674 78.3448 50.674 76.5147 49.8352 75.2183L48.7676 73.6932C48.7676 73.6932 48.7676 73.617 48.6913 73.617L48.6151 73.5407C47.7 72.3969 46.0987 71.7106 43.811 71.8631C41.2184 72.0919 38.3207 73.312 35.9568 75.1421L44.3448 83.8351H47.2425Z" fill="#F4A856"/>
  <path d="M74.3127 46.3158L14.7577 11.9249C14.3002 11.6198 13.8426 11.6198 13.5376 11.8486L12.6226 12.3824C12.6226 12.3824 12.8513 12.3824 13.0038 12.4587C12.9276 12.6874 12.8513 12.9924 12.8513 13.3737V54.3988C12.8513 55.7714 13.6901 57.3727 14.6814 57.9828L74.3127 92.2974C74.3889 92.3737 74.5414 92.3737 74.6177 92.4499V92.9075L75.5328 92.3737C75.914 92.1449 76.1428 91.6111 76.1428 90.8486V49.8998C76.1428 48.5272 75.304 46.9258 74.3127 46.3158Z" fill="white"/>
  <path d="M73.3989 92.7542L13.9202 58.4395C12.9289 57.8295 12.0901 56.2282 12.0901 54.8556V13.8305C12.0901 12.4579 12.9289 11.8479 13.9202 12.4579L73.3989 46.8488C74.3902 47.4589 75.2291 49.0602 75.2291 50.4328V91.4579C75.3053 92.7542 74.4665 93.3642 73.3989 92.7542Z" fill="url(#paint4_linear)"/>
  <path d="M55.7061 48.9829V43.1113L56.9261 43.7976C57.1549 43.9501 57.3837 44.1026 57.5362 44.2551C57.6887 44.4077 57.8412 44.5602 57.9937 44.7889C58.1462 44.9414 58.2225 45.1702 58.2987 45.399C58.375 45.6277 58.375 45.9328 58.375 46.1615C58.375 46.8478 58.1462 47.1528 57.6124 46.9241C57.9174 47.1528 58.1462 47.4578 58.2987 47.7629C58.4512 48.0679 58.5275 48.4492 58.5275 48.9067C58.5275 49.4405 58.375 49.8217 58.1462 49.9743C57.9174 50.1268 57.5362 50.0505 57.0786 49.8218L55.7061 48.9829ZM56.6211 46.009L56.9261 46.1615C57.2311 46.314 57.3837 46.3903 57.4599 46.314C57.5362 46.2378 57.6124 46.009 57.6124 45.704C57.6124 45.5515 57.6124 45.399 57.5362 45.2465C57.5362 45.094 57.4599 45.0177 57.3837 44.9414C57.3074 44.8652 57.2311 44.7889 57.1549 44.7127C57.0786 44.6364 56.9261 44.5602 56.7736 44.4839L56.6211 44.4077V46.009ZM56.6211 48.7542L56.9261 48.9829C57.2311 49.1355 57.3837 49.2117 57.5362 49.0592C57.6124 48.9829 57.6887 48.7542 57.6887 48.4492C57.6887 48.0679 57.6124 47.8391 57.5362 47.6104C57.3837 47.3816 57.2311 47.1528 56.9261 47.0003L56.6211 46.7716V48.7542Z" fill="white"/>
  <path d="M58.9077 50.8137L59.9753 45.5521L60.9666 46.0859L61.9579 52.5676L61.1191 52.0338L60.8903 50.5849L59.9753 50.0512L59.7465 51.2712L58.9077 50.8137ZM60.0515 49.4411L60.7378 49.8224L60.4328 47.2297L60.0515 49.4411Z" fill="white"/>
  <path d="M62.418 52.8009V46.9293L63.028 47.3106L64.2481 51.3521V48.0731L65.0106 48.5307V54.4023L64.4006 54.021L63.1805 49.827V53.3347L62.418 52.8009Z" fill="white"/>
  <path d="M65.772 54.7814V48.9098L66.687 49.4436V51.96L67.6783 49.9774L68.5934 50.5111L67.6021 52.6463L68.6697 56.5353L67.7546 56.0015L66.9158 52.6463L66.7633 52.9513V55.3152L65.772 54.7814Z" fill="white"/>
  <path d="M28.4852 58.3657L17.1995 51.8078V50.2827L28.4852 56.8406V58.3657Z" fill="white"/>
  <path d="M42.3607 66.3715L31.075 59.8135V58.2885L42.3607 64.8464V66.3715Z" fill="white"/>
  <path d="M56.242 74.377L44.9563 67.819V66.2939L56.242 72.8519V74.377Z" fill="white"/>
  <path d="M70.1199 82.3861L58.8342 75.8282V74.3794L70.1199 80.8611V82.3861Z" fill="white"/>
  <path opacity="0.2" d="M73.3989 46.8488L13.9202 12.4579C12.9289 11.8479 12.0901 12.4579 12.0901 13.8305V54.8556C12.0901 55.0843 12.0901 55.3894 12.1663 55.6181C15.369 53.3305 28.1798 46.2388 52.8101 59.8121C61.732 64.7687 69.2812 64.0824 75.3053 60.8797V50.3565C75.3053 48.984 74.4665 47.3826 73.3989 46.8488Z" fill="white"/>
  <path opacity="0.2" d="M36.7204 44.7137C45.1084 43.6461 52.0476 41.0534 57.843 37.8507L13.9202 12.4579C12.9289 11.8479 12.0901 12.4579 12.0901 13.8305V53.1017C16.4366 49.6702 23.9096 46.3913 36.7204 44.7137Z" fill="white"/>
  <path d="M50.2179 143.997L49.6841 144.836C49.2266 143.997 48.3878 143.235 47.2439 142.549C43.2024 140.185 36.7208 140.185 32.6793 142.472C31.5355 143.082 30.7729 143.845 30.2391 144.684L29.6291 143.921V145.751C29.5528 147.276 30.5441 148.878 32.603 150.098C36.6445 152.462 43.1262 152.462 47.1677 150.174C49.1503 149.03 50.2179 147.505 50.2179 145.98V143.997Z" fill="#F4A856"/>
  <path d="M47.1671 148.194C43.1256 150.481 36.5677 150.481 32.6025 148.117C28.5609 145.753 28.6372 142.017 32.6025 139.653C36.644 137.365 43.2019 137.365 47.1671 139.729C51.2086 142.093 51.2086 145.906 47.1671 148.194Z" fill="#FCCC6B"/>
  <path d="M47.1671 148.194C43.1256 150.481 36.5677 150.481 32.6025 148.117C28.5609 145.753 28.6372 142.017 32.6025 139.653C36.644 137.365 43.2019 137.365 47.1671 139.729C51.2086 142.093 51.2086 145.906 47.1671 148.194Z" fill="url(#paint5_radial)"/>
  <path d="M39.9222 149.029C37.6346 149.029 35.4232 148.495 33.6693 147.504C31.9917 146.513 31.0767 145.216 31.0767 143.844C31.0767 142.471 31.9917 141.175 33.6693 140.26C37.1008 138.277 42.5911 138.353 46.0226 140.336C47.7002 141.327 48.6153 142.624 48.6153 143.996C48.6153 145.369 47.7002 146.665 46.0226 147.58C44.345 148.571 42.1336 149.029 39.9222 149.029ZM39.846 139.04C37.6346 139.04 35.4994 139.497 33.8218 140.488C32.2205 141.404 31.3054 142.624 31.3054 143.92C31.3054 145.216 32.1442 146.436 33.7456 147.428C37.1008 149.41 42.5149 149.41 45.9463 147.504C47.5477 146.589 48.4627 145.369 48.4627 144.072C48.4627 142.776 47.6239 141.556 46.0226 140.565C44.345 139.497 42.0573 139.04 39.846 139.04Z" fill="#F4A856"/>
  <path d="M46.0227 147.505C42.6675 149.411 37.1771 149.411 33.7457 147.429C30.3904 145.446 30.3904 142.32 33.7457 140.337C37.1009 138.431 42.5912 138.431 46.0227 140.413C49.4541 142.396 49.3779 145.599 46.0227 147.505Z" fill="url(#paint6_radial)"/>
  <path d="M33.8224 140.797C37.1776 138.89 42.6679 138.89 46.0994 140.873C47.7008 141.788 48.5396 143.008 48.6158 144.228C48.6921 142.855 47.8533 141.483 46.0994 140.492C42.7442 138.509 37.2538 138.509 33.8224 140.415C32.0685 141.407 31.1535 142.779 31.306 144.152C31.306 142.932 32.1448 141.712 33.8224 140.797Z" fill="#F4A856"/>
  <path d="M47.1677 147.81C43.1262 150.098 36.5683 150.098 32.603 147.734C30.6967 146.59 29.7053 145.141 29.6291 143.692C29.5528 145.294 30.5441 146.895 32.603 148.115C36.6445 150.479 43.1262 150.479 47.1677 148.191C49.3028 146.971 50.2941 145.37 50.2179 143.769C50.1416 145.217 49.1503 146.666 47.1677 147.81Z" fill="#FCE586"/>
  <path d="M51.9725 141.482L51.4387 142.321C50.9812 141.482 50.1424 140.719 48.9986 140.033C44.9571 137.669 38.4754 137.669 34.4339 139.957C33.2901 140.567 32.5275 141.33 31.9938 142.168L31.3837 141.406V143.236C31.3075 144.761 32.2988 146.362 34.3577 147.582C38.3992 149.946 44.8808 149.946 48.9223 147.659C50.905 146.515 51.9725 144.99 51.9725 143.465V141.482Z" fill="#F4A856"/>
  <path d="M48.9205 145.677C44.879 147.965 38.3211 147.965 34.3559 145.601C30.3144 143.237 30.3906 139.5 34.3559 137.136C38.3974 134.849 44.9553 134.849 48.9205 137.213C53.0383 139.577 52.962 143.313 48.9205 145.677Z" fill="#FCCC6B"/>
  <path d="M48.9205 145.677C44.879 147.965 38.3211 147.965 34.3559 145.601C30.3144 143.237 30.3906 139.5 34.3559 137.136C38.3974 134.849 44.9553 134.849 48.9205 137.213C53.0383 139.577 52.962 143.313 48.9205 145.677Z" fill="url(#paint7_radial)"/>
  <path d="M41.7513 146.514C39.4637 146.514 37.2523 145.98 35.4984 144.989C33.8208 143.997 32.9058 142.701 32.9058 141.328C32.9058 139.956 33.8208 138.659 35.4984 137.744C38.9299 135.762 44.4202 135.838 47.8517 137.821C49.5293 138.812 50.4444 140.108 50.4444 141.481C50.4444 142.853 49.5293 144.15 47.8517 145.065C46.0978 145.98 43.9627 146.514 41.7513 146.514ZM41.5988 136.524C39.3874 136.524 37.2523 136.982 35.5747 137.973C33.9733 138.888 33.0583 140.108 33.0583 141.405C33.0583 142.701 33.8971 143.921 35.4984 144.912C38.8536 146.895 44.2677 146.895 47.6992 144.989C49.3005 144.073 50.2156 142.853 50.2156 141.557C50.2156 140.261 49.3768 139.041 47.7754 138.049C46.0978 136.982 43.8864 136.524 41.5988 136.524Z" fill="#F4A856"/>
  <path d="M47.7773 144.99C44.4221 146.896 38.9318 146.896 35.5003 144.913C32.1451 142.931 32.1451 139.804 35.5003 137.822C38.8555 135.915 44.3458 135.915 47.7773 137.898C51.2088 139.881 51.2088 143.007 47.7773 144.99Z" fill="url(#paint8_radial)"/>
  <path d="M35.577 138.279C38.9322 136.373 44.4226 136.373 47.854 138.356C49.4554 139.271 50.2942 140.491 50.3705 141.711C50.4467 140.338 49.6079 138.966 47.854 137.974C44.4988 135.992 39.0085 135.992 35.577 137.898C33.8232 138.889 32.9081 140.262 33.0606 141.635C33.1369 140.338 33.9757 139.194 35.577 138.279Z" fill="#F4A856"/>
  <path d="M48.9223 145.295C44.8808 147.582 38.3229 147.582 34.3577 145.218C32.4513 144.075 31.46 142.626 31.3837 141.177C31.3075 142.778 32.2988 144.38 34.3577 145.6C38.3992 147.964 44.8808 147.964 48.9223 145.676C51.0575 144.456 52.0488 142.855 51.9725 141.253C51.8963 142.702 50.9049 144.151 48.9223 145.295Z" fill="#FCE586"/>
  <path d="M65.6225 153.989L65.0887 154.827C64.6312 153.989 63.7924 153.226 62.6486 152.54C58.5308 150.252 52.0491 150.252 48.0076 152.54C46.8638 153.15 46.1013 153.912 45.5675 154.751L44.9575 153.989V155.819C44.8812 157.344 45.8725 158.945 47.9314 160.165C51.9729 162.529 58.4545 162.529 62.4961 160.242C64.4787 159.098 65.5462 157.573 65.5462 156.048L65.6225 153.989Z" fill="#F4A856"/>
  <path d="M65.5776 154.048C65.5924 150.763 60.9954 148.079 55.3099 148.054C49.6245 148.028 45.0036 150.671 44.9888 153.955C44.9741 157.24 49.5711 159.924 55.2566 159.95C60.942 159.975 65.5629 157.333 65.5776 154.048Z" fill="#FCCC6B"/>
  <path d="M62.5718 158.26C58.5303 160.548 51.9724 160.548 48.0071 158.184C44.0419 155.82 44.0419 152.083 48.0071 149.719C52.0486 147.432 58.6066 147.432 62.5718 149.796C66.6133 152.16 66.6133 155.896 62.5718 158.26Z" fill="url(#paint9_radial)"/>
  <path d="M55.3287 159.098C53.0411 159.098 50.8297 158.564 49.0758 157.573C47.3982 156.581 46.4832 155.285 46.4832 153.912C46.4832 152.54 47.3982 151.243 49.0758 150.328C52.5073 148.346 57.9976 148.422 61.4291 150.405C63.1067 151.396 64.0218 152.692 64.0218 154.065C64.0218 155.437 63.1067 156.734 61.4291 157.649C59.7515 158.564 57.5401 159.098 55.3287 159.098ZM55.2525 149.032C53.0411 149.032 50.9059 149.49 49.2283 150.481C47.627 151.396 46.7119 152.616 46.7119 153.912C46.7119 155.209 47.5507 156.429 49.1521 157.42C52.5073 159.403 57.9214 159.403 61.3528 157.496C62.9542 156.581 63.8692 155.361 63.8692 154.065C63.8692 152.769 63.0304 151.548 61.4291 150.557C59.6752 149.566 57.4638 149.032 55.2525 149.032Z" fill="#F4A856"/>
  <path d="M61.3528 157.574C57.9975 159.48 52.5072 159.48 49.0757 157.498C45.7205 155.515 45.7205 152.389 49.0757 150.406C52.4309 148.5 57.9213 148.5 61.3528 150.482C64.7842 152.465 64.7842 155.591 61.3528 157.574Z" fill="url(#paint10_radial)"/>
  <path d="M49.1527 150.864C52.5079 148.957 57.9983 148.957 61.4297 150.94C63.0311 151.855 63.8699 153.075 63.9461 154.295C64.0224 152.922 63.1836 151.55 61.4297 150.559C58.0745 148.576 52.5842 148.576 49.1527 150.482C47.3988 151.474 46.4838 152.846 46.6363 154.219C46.7126 152.922 47.5514 151.779 49.1527 150.864Z" fill="#F4A856"/>
  <path d="M62.5705 157.801C58.529 160.089 51.9711 160.089 48.0059 157.725C46.0995 156.581 45.1082 155.132 45.0319 153.683C44.9557 155.284 45.947 156.886 48.0059 158.106C52.0474 160.47 58.529 160.47 62.5705 158.182C64.7057 156.962 65.697 155.361 65.6207 153.759C65.4682 155.284 64.4769 156.733 62.5705 157.801Z" fill="#FCE586"/>
  <path d="M44.9547 157.574L44.4209 158.412C43.9634 157.574 43.1246 156.811 41.9808 156.125C37.9393 153.761 31.4576 153.761 27.4161 156.049C26.2723 156.659 25.5097 157.421 24.9759 158.26L24.3659 157.497V159.328C24.2896 160.853 25.281 162.454 27.3398 163.674C31.3813 166.038 37.863 166.038 41.9045 163.75C43.8871 162.607 44.9547 161.081 44.9547 159.556V157.574Z" fill="#F4A856"/>
  <path d="M44.9419 157.577C44.9566 154.292 40.3596 151.608 34.6742 151.583C28.9887 151.557 24.3678 154.199 24.3531 157.484C24.3384 160.769 28.9354 163.453 34.6208 163.478C40.3062 163.504 44.9272 160.862 44.9419 157.577Z" fill="#FCCC6B"/>
  <path d="M41.9037 161.768C37.8622 164.055 31.3043 164.055 27.339 161.692C23.2975 159.328 23.3738 155.591 27.339 153.227C31.3805 150.94 37.9384 150.94 41.9037 153.304C45.9452 155.744 45.9452 159.48 41.9037 161.768Z" fill="url(#paint11_radial)"/>
  <path d="M34.661 162.68C32.3733 162.68 30.162 162.146 28.4081 161.155C26.7305 160.163 25.8154 158.867 25.8154 157.495C25.8154 156.122 26.7305 154.826 28.4081 153.911C31.8396 151.928 37.3299 152.004 40.7614 153.987C42.439 154.978 43.354 156.274 43.354 157.647C43.354 159.02 42.439 160.316 40.7614 161.231C39.0838 162.146 36.8724 162.68 34.661 162.68ZM34.5847 152.614C32.3733 152.614 30.2382 153.072 28.5606 154.063C26.9593 154.978 26.0442 156.198 26.0442 157.495C26.0442 158.791 26.883 160.011 28.4843 161.002C31.8396 162.985 37.2536 162.985 40.6851 161.079C42.2865 160.163 43.2015 158.943 43.2015 157.647C43.2015 156.351 42.3627 155.131 40.6851 154.139C39.0075 153.148 36.7961 152.614 34.5847 152.614Z" fill="#F4A856"/>
  <path d="M40.7614 161.156C37.4062 163.062 31.9159 163.062 28.4844 161.08C25.1292 159.097 25.1292 155.971 28.4844 153.988C31.8396 152.082 37.33 152.082 40.7614 154.064C44.1167 156.047 44.1167 159.173 40.7614 161.156Z" fill="url(#paint12_radial)"/>
  <path d="M28.4847 154.446C31.8399 152.539 37.3303 152.539 40.7618 154.522C42.3631 155.437 43.2019 156.657 43.2782 157.877C43.3544 156.504 42.5156 155.132 40.7618 154.141C37.4065 152.158 31.9162 152.158 28.4847 154.064C26.7309 155.056 25.8158 156.428 25.9683 157.801C26.0446 156.504 26.8834 155.361 28.4847 154.446Z" fill="#F4A856"/>
  <path d="M41.9045 161.385C37.863 163.672 31.3051 163.672 27.3398 161.308C25.4335 160.165 24.4422 158.716 24.3659 157.267C24.2896 158.868 25.281 160.47 27.3398 161.69C31.3813 164.054 37.863 164.054 41.9045 161.766C44.0396 160.546 45.0309 158.945 44.9547 157.343C44.8784 158.868 43.8109 160.317 41.9045 161.385Z" fill="#FCE586"/>
  <path d="M54.7164 153.835L54.1826 154.674C53.7251 153.835 52.8863 153.073 51.7425 152.387C47.701 150.023 41.2193 150.023 37.1778 152.31C36.034 152.92 35.2714 153.683 34.7377 154.522L34.1276 153.759V155.589C34.0514 157.114 35.0427 158.716 37.1016 159.936C41.1431 162.3 47.6247 162.3 51.6662 160.012C53.6488 158.868 54.7164 157.343 54.7164 155.818V153.835Z" fill="#F4A856"/>
  <path d="M54.6892 153.785C54.704 150.5 50.1069 147.817 44.4215 147.791C38.7361 147.766 34.1152 150.408 34.1004 153.693C34.0857 156.978 38.6827 159.661 44.3681 159.687C50.0536 159.712 54.6745 157.07 54.6892 153.785Z" fill="#FCCC6B"/>
  <path d="M51.6661 158.031C47.6246 160.319 41.0667 160.319 37.1014 157.955C33.0599 155.591 33.0599 151.854 37.1014 149.49C41.1429 147.203 47.7009 147.203 51.6661 149.567C55.7076 151.931 55.7076 155.667 51.6661 158.031Z" fill="url(#paint13_radial)"/>
  <path d="M44.4225 158.869C42.1348 158.869 39.9234 158.335 38.1696 157.344C36.492 156.352 35.5769 155.056 35.5769 153.684C35.5769 152.311 36.492 151.015 38.1696 150.1C41.601 148.117 47.0914 148.193 50.5228 150.176C52.2004 151.167 53.1155 152.463 53.1155 153.836C53.1155 155.209 52.2004 156.505 50.5228 157.42C48.8452 158.335 46.6338 158.869 44.4225 158.869ZM44.3462 148.879C42.1348 148.879 39.9997 149.337 38.3221 150.328C36.7207 151.243 35.8057 152.463 35.8057 153.76C35.8057 155.056 36.6445 156.276 38.2458 157.267C41.601 159.25 47.0151 159.25 50.4466 157.344C52.0479 156.429 52.963 155.209 52.963 153.912C52.963 152.616 52.1242 151.396 50.5228 150.405C48.769 149.337 46.5576 148.879 44.3462 148.879Z" fill="#F4A856"/>
  <path d="M50.5229 157.343C47.1677 159.249 41.6774 159.249 38.2459 157.267C34.8907 155.284 34.8907 152.158 38.2459 150.175C41.6011 148.269 47.0915 148.269 50.5229 150.251C53.8781 152.234 53.8781 155.36 50.5229 157.343Z" fill="url(#paint14_radial)"/>
  <path d="M38.3192 150.633C41.6744 148.726 47.1648 148.726 50.5962 150.709C52.1976 151.624 53.0364 152.844 53.1126 154.064C53.1889 152.692 52.3501 151.319 50.5962 150.328C47.241 148.345 41.7507 148.345 38.3192 150.252C36.5653 151.243 35.6503 152.615 35.8028 153.988C35.8028 152.692 36.6416 151.548 38.3192 150.633Z" fill="#F4A856"/>
  <path d="M51.6662 157.646C47.6247 159.934 41.0668 159.934 37.1016 157.57C35.1952 156.426 34.2039 154.978 34.1276 153.529C34.0514 155.13 35.0427 156.731 37.1016 157.951C41.1431 160.315 47.6247 160.315 51.6662 158.028C53.8014 156.808 54.7927 155.206 54.7164 153.605C54.6402 155.054 53.6488 156.503 51.6662 157.646Z" fill="#FCE586"/>
  <path d="M57.3849 151.775L56.8511 152.614C56.3936 151.775 55.5548 151.013 54.4109 150.326C50.3694 147.962 43.8878 147.962 39.8463 150.25C38.7024 150.86 37.9399 151.623 37.4061 152.461L36.7961 151.699V153.529C36.7198 155.054 37.7111 156.655 39.77 157.875C43.8115 160.239 50.2932 160.239 54.3347 157.952C56.3173 156.808 57.3849 155.283 57.3849 153.758V151.775Z" fill="#F4A856"/>
  <path d="M54.3336 155.97C50.2921 158.258 43.7342 158.258 39.7689 155.894C35.7274 153.53 35.7274 149.793 39.7689 147.429C43.8104 145.142 50.3683 145.142 54.3336 147.506C58.3751 149.87 58.3751 153.606 54.3336 155.97Z" fill="#FCCC6B"/>
  <path d="M54.3336 155.97C50.2921 158.258 43.7342 158.258 39.7689 155.894C35.7274 153.53 35.7274 149.793 39.7689 147.429C43.8104 145.142 50.3683 145.142 54.3336 147.506C58.3751 149.87 58.3751 153.606 54.3336 155.97Z" fill="url(#paint15_radial)"/>
  <path d="M47.0912 156.81C44.8035 156.81 42.5921 156.276 40.8383 155.285C39.1607 154.294 38.2456 152.998 38.2456 151.625C38.2456 150.252 39.1607 148.956 40.8383 148.041C44.2697 146.058 49.7601 146.135 53.1915 148.117C54.8691 149.109 55.7842 150.405 55.7842 151.777C55.7842 153.15 54.8691 154.446 53.1915 155.361C51.5139 156.276 49.3025 156.81 47.0912 156.81ZM47.0149 146.821C44.8035 146.821 42.6684 147.278 40.9908 148.27C39.3894 149.185 38.4744 150.405 38.4744 151.701C38.4744 152.997 39.3132 154.218 40.9145 155.209C44.2697 157.192 49.6838 157.192 53.1153 155.285C54.7166 154.37 55.6317 153.15 55.6317 151.854C55.6317 150.557 54.7929 149.337 53.1915 148.346C51.4377 147.278 49.2263 146.821 47.0149 146.821Z" fill="#F4A856"/>
  <path d="M53.1916 155.286C49.8364 157.193 44.3461 157.193 40.9146 155.21C37.5594 153.227 37.5594 150.101 40.9146 148.118C44.2698 146.212 49.7602 146.212 53.1916 148.195C56.5468 150.177 56.5468 153.304 53.1916 155.286Z" fill="url(#paint16_radial)"/>
  <path d="M40.9896 148.576C44.3448 146.67 49.8352 146.67 53.2666 148.652C54.868 149.567 55.7068 150.787 55.783 152.007C55.8593 150.635 55.0205 149.262 53.2666 148.271C49.9114 146.288 44.4211 146.288 40.9896 148.195C39.2358 149.186 38.3207 150.559 38.4732 151.931C38.4732 150.635 39.312 149.491 40.9896 148.576Z" fill="#F4A856"/>
  <path d="M54.3347 155.59C50.2932 157.877 43.7353 157.877 39.77 155.513C37.8636 154.369 36.8723 152.921 36.7961 151.472C36.7198 153.073 37.7111 154.674 39.77 155.895C43.8115 158.258 50.2932 158.258 54.3347 155.971C56.4698 154.751 57.4611 153.149 57.3849 151.548C57.3086 152.997 56.3173 154.446 54.3347 155.59Z" fill="#FCE586"/>
  <path d="M58.8343 147.811L58.3005 148.65C57.843 147.811 57.0042 147.048 55.8604 146.362C51.8189 143.998 45.3372 143.998 41.2957 146.286C40.1519 146.896 39.3894 147.658 38.8556 148.497L38.2455 147.735V149.565C38.1693 151.09 39.1606 152.691 41.2195 153.911C45.261 156.275 51.7426 156.275 55.7841 153.987C57.7668 152.844 58.8343 151.318 58.8343 149.793V147.811Z" fill="#F4A856"/>
  <path d="M58.7771 147.796C58.7919 144.511 54.1949 141.828 48.5094 141.802C42.824 141.776 38.2031 144.419 38.1883 147.704C38.1736 150.989 42.7706 153.672 48.456 153.698C54.1415 153.723 58.7624 151.081 58.7771 147.796Z" fill="#FCCC6B"/>
  <path d="M55.7821 152.005C51.7406 154.292 45.1827 154.292 41.2174 151.928C37.1759 149.564 37.2522 145.828 41.2174 143.464C45.2589 141.176 51.8169 141.176 55.7821 143.54C59.8236 145.904 59.8236 149.641 55.7821 152.005Z" fill="url(#paint17_radial)"/>
  <path d="M48.5387 152.844C46.251 152.844 44.0396 152.31 42.2858 151.319C40.6082 150.328 39.6931 149.031 39.6931 147.659C39.6931 146.286 40.6082 144.99 42.2858 144.075C45.7172 142.092 51.2076 142.169 54.6391 144.151C56.3167 145.142 57.2317 146.439 57.2317 147.811C57.2317 149.184 56.3167 150.48 54.6391 151.395C52.9614 152.31 50.7501 152.844 48.5387 152.844ZM48.4624 142.855C46.251 142.855 44.1159 143.312 42.4383 144.304C40.8369 145.219 39.9219 146.439 39.9219 147.735C39.9219 149.031 40.7607 150.252 42.362 151.243C45.7172 153.225 51.1313 153.225 54.5628 151.319C56.1641 150.404 57.0792 149.184 57.0792 147.888C57.0792 146.591 56.2404 145.371 54.6391 144.38C52.8852 143.312 50.6738 142.855 48.4624 142.855Z" fill="#F4A856"/>
  <path d="M54.563 151.317C51.2077 153.223 45.7174 153.223 42.2859 151.24C38.9307 149.258 38.9307 146.131 42.2859 144.149C45.6411 142.242 51.1315 142.242 54.563 144.225C57.9944 146.208 57.9944 149.334 54.563 151.317Z" fill="url(#paint18_radial)"/>
  <path d="M42.3627 144.608C45.7179 142.702 51.2082 142.702 54.6397 144.684C56.241 145.599 57.0798 146.82 57.1561 148.04C57.2323 146.667 56.3935 145.294 54.6397 144.303C51.2845 142.321 45.7941 142.321 42.3627 144.227C40.6088 145.218 39.6937 146.591 39.8463 147.963C39.9225 146.667 40.7613 145.523 42.3627 144.608Z" fill="#F4A856"/>
  <path d="M55.7841 151.622C51.7426 153.909 45.1847 153.909 41.2195 151.546C39.3131 150.402 38.3218 148.953 38.2455 147.504C38.1693 149.105 39.1606 150.707 41.2195 151.927C45.261 154.291 51.7426 154.291 55.7841 152.003C57.9193 150.783 58.9106 149.182 58.8343 147.58C58.6818 149.029 57.6905 150.478 55.7841 151.622Z" fill="#FCE586"/>
  <path d="M65.926 149.412L65.1635 150.099C64.8585 149.184 64.2484 148.268 63.2571 147.353C59.8256 144.227 53.4202 142.854 48.9975 144.303C47.7774 144.685 46.8623 145.295 46.176 145.981L45.7185 145.066L45.3372 146.82C44.956 148.345 45.6423 150.099 47.3961 151.624C50.8276 154.75 57.233 156.123 61.6558 154.674C63.8671 153.988 65.1635 152.691 65.4685 151.166L65.926 149.412Z" fill="#F4A856"/>
  <path d="M62.1123 152.92C57.6896 154.369 51.2842 152.996 47.8527 149.87C44.4212 146.743 45.1838 143.083 49.6066 141.634C54.0293 140.185 60.4347 141.558 63.8662 144.684C67.2977 147.811 66.5351 151.471 62.1123 152.92Z" fill="#FCCC6B"/>
  <path d="M62.1123 152.92C57.6896 154.369 51.2842 152.996 47.8527 149.87C44.4212 146.743 45.1838 143.083 49.6066 141.634C54.0293 140.185 60.4347 141.558 63.8662 144.684C67.2977 147.811 66.5351 151.471 62.1123 152.92Z" fill="url(#paint19_radial)"/>
  <path d="M54.87 152.235C52.6586 151.777 50.5235 150.786 49.0746 149.49C47.6258 148.193 47.0157 146.745 47.3208 145.448C47.6258 144.076 48.7696 143.084 50.5997 142.474C54.3362 141.254 59.7503 142.398 62.648 145.067C64.0968 146.363 64.7068 147.812 64.4018 149.109C64.0968 150.481 62.953 151.472 61.1229 152.082C59.2928 152.693 57.0051 152.693 54.87 152.235ZM56.7763 142.474C54.6412 142.017 52.4298 142.017 50.5997 142.627C48.8458 143.161 47.702 144.228 47.4733 145.525C47.1682 146.821 47.7783 148.193 49.1509 149.414C52.0486 152.006 57.3864 153.15 61.0466 151.93C62.8005 151.396 63.9443 150.329 64.1731 149.032C64.4781 147.736 63.868 146.363 62.4955 145.143C61.0466 143.847 58.9877 142.932 56.7763 142.474Z" fill="#F4A856"/>
  <path d="M61.1222 152.006C57.3857 153.226 52.0479 152.082 49.1502 149.414C46.2525 146.821 46.9388 143.694 50.5991 142.474C54.3356 141.254 59.6734 142.398 62.5711 145.067C65.4688 147.736 64.7825 150.786 61.1222 152.006Z" fill="url(#paint20_radial)"/>
  <path d="M50.5213 142.93C54.2578 141.71 59.5956 142.854 62.4933 145.522C63.8659 146.743 64.4759 148.115 64.2472 149.335C64.6284 148.039 64.0947 146.514 62.5696 145.141C59.6719 142.549 54.334 141.405 50.5976 142.549C48.6149 143.159 47.5474 144.379 47.3186 145.675C47.6999 144.455 48.7674 143.464 50.5213 142.93Z" fill="#F4A856"/>
  <path d="M62.1895 152.537C57.7667 153.986 51.3613 152.613 47.9299 149.487C46.2523 147.961 45.566 146.36 45.7947 144.911C45.3372 146.436 46.0235 148.19 47.8536 149.868C51.2851 152.994 57.6905 154.367 62.1133 152.918C64.4009 152.155 65.7735 150.783 66.0023 149.258C65.5447 150.63 64.3246 151.85 62.1895 152.537Z" fill="#FCE586"/>
  <path d="M50.2151 106.025L49.3001 106.483C49.3001 105.491 48.9188 104.424 48.3088 103.28C45.9449 99.2386 40.302 96.0359 35.6505 96.0359C34.3542 96.0359 33.2866 96.2646 32.4478 96.7221L32.2953 95.7308L31.3802 97.3322C30.5414 98.6285 30.6939 100.535 31.8377 102.594C34.2016 106.635 39.8445 109.838 44.496 109.838C46.8599 109.838 48.4613 108.999 49.2238 107.703L50.2151 106.025Z" fill="#F4A856"/>
  <path d="M50.1469 105.974C51.7772 103.122 49.0974 98.5228 44.1613 95.7011C39.2252 92.8795 33.9021 92.904 32.2718 95.756C30.6414 98.6079 33.3213 103.207 38.2574 106.029C43.1935 108.851 48.5166 108.826 50.1469 105.974Z" fill="#FCCC6B"/>
  <path d="M45.488 108.157C40.8364 108.157 35.1936 104.954 32.8297 100.913C30.4658 96.8712 32.3721 93.5923 37.0237 93.5923C41.6752 93.5923 47.3181 96.795 49.682 100.836C51.9696 104.878 50.1395 108.157 45.488 108.157Z" fill="url(#paint21_radial)"/>
  <path d="M38.7773 105.336C36.7946 104.193 35.117 102.667 34.1257 100.99C33.1344 99.3122 32.9819 97.7871 33.6682 96.5671C34.3545 95.347 35.8033 94.7369 37.7097 94.7369C41.675 94.7369 46.479 97.4821 48.3854 100.837C49.3767 102.515 49.5292 104.04 48.8429 105.26C48.1566 106.48 46.7078 107.09 44.8014 107.09C42.8188 107.09 40.6836 106.404 38.7773 105.336ZM43.5813 96.5671C41.675 95.4995 39.5398 94.8132 37.6335 94.8132C35.8033 94.8132 34.4308 95.4232 33.7445 96.5671C33.1344 97.7109 33.2869 99.236 34.202 100.837C36.1846 104.193 40.9124 106.861 44.8014 106.861C46.6315 106.861 48.0041 106.251 48.6904 105.108C49.3004 103.964 49.1479 102.439 48.2329 100.837C47.2416 99.1597 45.564 97.6346 43.5813 96.5671Z" fill="#F4A856"/>
  <path d="M44.8017 106.939C40.9127 106.939 36.1086 104.271 34.126 100.839C32.1434 97.4839 33.7447 94.7387 37.6337 94.6625C41.5227 94.6625 46.3267 97.3314 48.3094 100.763C50.292 104.194 48.6906 106.939 44.8017 106.939Z" fill="url(#paint22_radial)"/>
  <path d="M37.4822 95.1182C41.3712 95.1182 46.1752 97.7871 48.1578 101.219C49.0729 102.82 49.2254 104.269 48.6916 105.336C49.4542 104.193 49.3779 102.591 48.3866 100.837C46.404 97.4821 41.6762 94.7369 37.7109 94.7369C35.6521 94.7369 34.2795 95.4995 33.6694 96.7196C34.2795 95.7283 35.6521 95.1182 37.4822 95.1182Z" fill="#F4A856"/>
  <path d="M45.6396 107.777C40.9881 107.777 35.3452 104.574 32.9813 100.533C31.8375 98.6266 31.685 96.8727 32.3713 95.5764C31.5325 96.949 31.6087 98.7791 32.8288 100.914C35.1927 104.956 40.8356 108.158 45.4871 108.158C47.9273 108.158 49.6049 107.243 50.2912 105.795C49.4524 107.015 47.9273 107.777 45.6396 107.777Z" fill="#FCE586"/>
  <path d="M48.2347 124.02L48.1585 125.011C47.3197 124.554 46.2521 124.249 44.8795 124.249C40.228 124.173 34.5089 127.375 32.145 131.417C31.4587 132.561 31.1537 133.552 31.0774 134.543L30.1624 134.162L31.0774 135.763C31.84 137.136 33.4413 137.975 35.8052 138.051C40.4568 138.127 46.1759 134.925 48.5398 130.883C49.7598 128.9 49.8361 127.07 49.1498 125.698L48.2347 124.02Z" fill="#F4A856"/>
  <path d="M47.6229 129.205C45.259 133.17 39.5399 136.373 34.8884 136.373C30.2368 136.296 28.4067 133.017 30.7706 129.052C33.1345 125.087 38.8536 121.884 43.5052 121.884C48.1567 121.884 49.9868 125.163 47.6229 129.205Z" fill="#FCCC6B"/>
  <path d="M47.6229 129.205C45.259 133.17 39.5399 136.373 34.8884 136.373C30.2368 136.296 28.4067 133.017 30.7706 129.052C33.1345 125.087 38.8536 121.884 43.5052 121.884C48.1567 121.884 49.9868 125.163 47.6229 129.205Z" fill="url(#paint23_radial)"/>
  <path d="M41.7494 133.476C39.7668 134.62 37.5554 135.23 35.5727 135.23C33.6664 135.23 32.2175 134.544 31.5312 133.324C30.8449 132.104 30.9975 130.579 31.9888 128.901C33.9714 125.546 38.8517 122.801 42.7407 122.877C44.6471 122.877 46.0959 123.563 46.7822 124.783C47.4685 126.003 47.316 127.529 46.3247 129.206C45.3334 130.884 43.6558 132.409 41.7494 133.476ZM36.7166 124.86C34.8102 125.927 33.1326 127.452 32.2175 129.054C31.3025 130.655 31.0737 132.18 31.76 133.324C32.37 134.468 33.7426 135.078 35.649 135.154C39.538 135.23 44.2658 132.561 46.2484 129.206C47.1635 127.605 47.3922 126.08 46.7059 124.936C46.0959 123.792 44.7233 123.182 42.817 123.106C40.8343 123.106 38.6992 123.716 36.7166 124.86Z" fill="#F4A856"/>
  <path d="M46.2487 129.203C44.2661 132.558 39.462 135.227 35.573 135.227C31.6841 135.151 30.0827 132.406 32.1416 129.05C34.1242 125.695 38.9283 123.026 42.8172 123.026C46.7062 123.026 48.2313 125.848 46.2487 129.203Z" fill="url(#paint24_radial)"/>
  <path d="M32.2976 129.359C34.2802 126.004 39.0843 123.335 42.9733 123.335C44.8034 123.335 46.176 124.021 46.786 125.012C46.176 123.792 44.8034 123.03 42.7445 122.953C38.8555 122.877 34.0515 125.622 32.0688 128.978C31.0013 130.731 30.925 132.333 31.6876 133.477C31.23 132.409 31.3825 130.96 32.2976 129.359Z" fill="#F4A856"/>
  <path d="M47.4722 128.824C45.1083 132.789 39.3892 135.992 34.7376 135.992C32.5263 135.992 30.9249 135.229 30.1624 133.933C30.8486 135.382 32.5263 136.297 34.9664 136.297C39.6179 136.373 45.3371 133.171 47.701 129.129C48.921 127.07 48.9973 125.164 48.1585 123.791C48.7685 125.164 48.5398 126.918 47.4722 128.824Z" fill="#FCE586"/>
  <path d="M106.492 101.369L81.6328 74.6801L56.7737 72.6975C56.7737 72.6975 52.8085 106.402 81.6328 142.166C110.533 139.649 106.492 101.369 106.492 101.369Z" fill="url(#paint25_linear)"/>
  <path d="M56.773 72.6229L51.1301 75.8256L76.0654 77.8845L81.632 74.6056L56.773 72.6229Z" fill="url(#paint26_linear)"/>
  <path d="M100.925 104.574L76.0655 77.885L65.7711 76.8175L51.1302 75.8262C51.1302 75.8262 47.1649 109.531 75.9892 145.294C104.89 142.93 100.925 104.574 100.925 104.574Z" fill="url(#paint27_linear)"/>
  <path d="M100.925 104.574L76.0656 77.8849L51.2065 75.9023C51.8928 75.521 51.8928 75.521 51.8928 75.521L77.1332 77.5799L101.992 104.269C101.992 104.269 105.347 136.296 83.8436 143.693C104.127 135.61 100.925 104.574 100.925 104.574Z" fill="white"/>
  <path opacity="0.2" d="M97.8735 104.954L75.5309 80.9341L66.3041 80.0191L53.112 79.104C53.112 79.104 49.528 109.453 75.4546 141.557C101.458 139.422 97.8735 104.954 97.8735 104.954Z" fill="white"/>
  <defs>
    <linearGradient id="paint0_linear" x1="45.6955" y1="79.1461" x2="198.576" y2="79.1461" gradientUnits="userSpaceOnUse">
      <stop stop-color="#7F8A87"/>
      <stop offset="0.4355" stop-color="#727E7A"/>
      <stop offset="1" stop-color="#65726E"/>
    </linearGradient>
    <linearGradient id="paint1_linear" x1="33.1992" y1="29.6324" x2="136.492" y2="82.5159" gradientUnits="userSpaceOnUse">
      <stop stop-color="#A0A8A6"/>
      <stop offset="1" stop-color="#BFC4C3"/>
    </linearGradient>
    <radialGradient id="paint2_radial" cx="0" cy="0" r="1" gradientUnits="userSpaceOnUse" gradientTransform="translate(33.376 80.0654) rotate(-51.5165) scale(14.7386)">
      <stop stop-color="#FCE586"/>
      <stop offset="0.2273" stop-color="#FCDB7B"/>
      <stop offset="0.6161" stop-color="#FCD06F"/>
      <stop offset="1" stop-color="#FCCC6B"/>
    </radialGradient>
    <radialGradient id="paint3_radial" cx="0" cy="0" r="1" gradientUnits="userSpaceOnUse" gradientTransform="translate(48.1516 82.6791) rotate(-51.5165) scale(35.0605)">
      <stop stop-color="#FCE586"/>
      <stop offset="0.2273" stop-color="#FCDB7B"/>
      <stop offset="0.6161" stop-color="#FCD06F"/>
      <stop offset="1" stop-color="#FCCC6B"/>
    </radialGradient>
    <linearGradient id="paint4_linear" x1="12.0318" y1="52.6172" x2="75.2711" y2="52.6172" gradientUnits="userSpaceOnUse">
      <stop stop-color="#BFC4C3"/>
      <stop offset="1" stop-color="#A0A8A6"/>
    </linearGradient>
    <radialGradient id="paint5_radial" cx="0" cy="0" r="1" gradientUnits="userSpaceOnUse" gradientTransform="translate(33.9271 140.534) rotate(-17.0741) scale(14.7385)">
      <stop stop-color="#FCE586"/>
      <stop offset="0.2273" stop-color="#FCDB7B"/>
      <stop offset="0.6161" stop-color="#FCD06F"/>
      <stop offset="1" stop-color="#FCCC6B"/>
    </radialGradient>
    <radialGradient id="paint6_radial" cx="0" cy="0" r="1" gradientUnits="userSpaceOnUse" gradientTransform="translate(44.632 151.044) rotate(-17.0741) scale(35.0606)">
      <stop stop-color="#FCE586"/>
      <stop offset="0.2273" stop-color="#FCDB7B"/>
      <stop offset="0.6161" stop-color="#FCD06F"/>
      <stop offset="1" stop-color="#FCCC6B"/>
    </radialGradient>
    <radialGradient id="paint7_radial" cx="0" cy="0" r="1" gradientUnits="userSpaceOnUse" gradientTransform="translate(35.6983 138.005) rotate(-17.0741) scale(14.7386)">
      <stop stop-color="#FCE586"/>
      <stop offset="0.2273" stop-color="#FCDB7B"/>
      <stop offset="0.6161" stop-color="#FCD06F"/>
      <stop offset="1" stop-color="#FCCC6B"/>
    </radialGradient>
    <radialGradient id="paint8_radial" cx="0" cy="0" r="1" gradientUnits="userSpaceOnUse" gradientTransform="translate(46.4044 148.516) rotate(-17.0741) scale(35.0606)">
      <stop stop-color="#FCE586"/>
      <stop offset="0.2273" stop-color="#FCDB7B"/>
      <stop offset="0.6161" stop-color="#FCD06F"/>
      <stop offset="1" stop-color="#FCCC6B"/>
    </radialGradient>
    <radialGradient id="paint9_radial" cx="0" cy="0" r="1" gradientUnits="userSpaceOnUse" gradientTransform="translate(49.3002 150.574) rotate(-17.0741) scale(14.7385)">
      <stop stop-color="#FCE586"/>
      <stop offset="0.2273" stop-color="#FCDB7B"/>
      <stop offset="0.6161" stop-color="#FCD06F"/>
      <stop offset="1" stop-color="#FCCC6B"/>
    </radialGradient>
    <radialGradient id="paint10_radial" cx="0" cy="0" r="1" gradientUnits="userSpaceOnUse" gradientTransform="translate(60.0067 161.086) rotate(-17.0741) scale(35.0606)">
      <stop stop-color="#FCE586"/>
      <stop offset="0.2273" stop-color="#FCDB7B"/>
      <stop offset="0.6161" stop-color="#FCD06F"/>
      <stop offset="1" stop-color="#FCCC6B"/>
    </radialGradient>
    <radialGradient id="paint11_radial" cx="0" cy="0" r="1" gradientUnits="userSpaceOnUse" gradientTransform="translate(28.6586 154.154) rotate(-17.0741) scale(14.7385)">
      <stop stop-color="#FCE586"/>
      <stop offset="0.2273" stop-color="#FCDB7B"/>
      <stop offset="0.6161" stop-color="#FCD06F"/>
      <stop offset="1" stop-color="#FCCC6B"/>
    </radialGradient>
    <radialGradient id="paint12_radial" cx="0" cy="0" r="1" gradientUnits="userSpaceOnUse" gradientTransform="translate(39.3657 164.664) rotate(-17.0741) scale(35.0606)">
      <stop stop-color="#FCE586"/>
      <stop offset="0.2273" stop-color="#FCDB7B"/>
      <stop offset="0.6161" stop-color="#FCD06F"/>
      <stop offset="1" stop-color="#FCCC6B"/>
    </radialGradient>
    <radialGradient id="paint13_radial" cx="0" cy="0" r="1" gradientUnits="userSpaceOnUse" gradientTransform="translate(38.4249 150.358) rotate(-17.0741) scale(14.7385)">
      <stop stop-color="#FCE586"/>
      <stop offset="0.2273" stop-color="#FCDB7B"/>
      <stop offset="0.6161" stop-color="#FCD06F"/>
      <stop offset="1" stop-color="#FCCC6B"/>
    </radialGradient>
    <radialGradient id="paint14_radial" cx="0" cy="0" r="1" gradientUnits="userSpaceOnUse" gradientTransform="translate(49.131 160.869) rotate(-17.0741) scale(35.0607)">
      <stop stop-color="#FCE586"/>
      <stop offset="0.2273" stop-color="#FCDB7B"/>
      <stop offset="0.6161" stop-color="#FCD06F"/>
      <stop offset="1" stop-color="#FCCC6B"/>
    </radialGradient>
    <radialGradient id="paint15_radial" cx="0" cy="0" r="1" gradientUnits="userSpaceOnUse" gradientTransform="translate(41.0925 148.294) rotate(-17.0741) scale(14.7385)">
      <stop stop-color="#FCE586"/>
      <stop offset="0.2273" stop-color="#FCDB7B"/>
      <stop offset="0.6161" stop-color="#FCD06F"/>
      <stop offset="1" stop-color="#FCCC6B"/>
    </radialGradient>
    <radialGradient id="paint16_radial" cx="0" cy="0" r="1" gradientUnits="userSpaceOnUse" gradientTransform="translate(51.7998 158.808) rotate(-17.0741) scale(35.0607)">
      <stop stop-color="#FCE586"/>
      <stop offset="0.2273" stop-color="#FCDB7B"/>
      <stop offset="0.6161" stop-color="#FCD06F"/>
      <stop offset="1" stop-color="#FCCC6B"/>
    </radialGradient>
    <radialGradient id="paint17_radial" cx="0" cy="0" r="1" gradientUnits="userSpaceOnUse" gradientTransform="translate(42.5062 144.326) rotate(-17.0741) scale(14.7385)">
      <stop stop-color="#FCE586"/>
      <stop offset="0.2273" stop-color="#FCDB7B"/>
      <stop offset="0.6161" stop-color="#FCD06F"/>
      <stop offset="1" stop-color="#FCCC6B"/>
    </radialGradient>
    <radialGradient id="paint18_radial" cx="0" cy="0" r="1" gradientUnits="userSpaceOnUse" gradientTransform="translate(53.2126 154.837) rotate(-17.0741) scale(35.0606)">
      <stop stop-color="#FCE586"/>
      <stop offset="0.2273" stop-color="#FCDB7B"/>
      <stop offset="0.6161" stop-color="#FCD06F"/>
      <stop offset="1" stop-color="#FCCC6B"/>
    </radialGradient>
    <radialGradient id="paint19_radial" cx="0" cy="0" r="1" gradientUnits="userSpaceOnUse" gradientTransform="translate(50.69 142.706) rotate(-5.26135) scale(14.7385)">
      <stop stop-color="#FCE586"/>
      <stop offset="0.2273" stop-color="#FCDB7B"/>
      <stop offset="0.6161" stop-color="#FCD06F"/>
      <stop offset="1" stop-color="#FCCC6B"/>
    </radialGradient>
    <radialGradient id="paint20_radial" cx="0" cy="0" r="1" gradientUnits="userSpaceOnUse" gradientTransform="translate(59.018 155.188) rotate(-5.26134) scale(35.0607)">
      <stop stop-color="#FCE586"/>
      <stop offset="0.2273" stop-color="#FCDB7B"/>
      <stop offset="0.6161" stop-color="#FCD06F"/>
      <stop offset="1" stop-color="#FCCC6B"/>
    </radialGradient>
    <radialGradient id="paint21_radial" cx="0" cy="0" r="1" gradientUnits="userSpaceOnUse" gradientTransform="translate(37.7146 94.9566) rotate(12.4213) scale(14.7386)">
      <stop stop-color="#FCE586"/>
      <stop offset="0.2273" stop-color="#FCDB7B"/>
      <stop offset="0.6161" stop-color="#FCD06F"/>
      <stop offset="1" stop-color="#FCCC6B"/>
    </radialGradient>
    <radialGradient id="paint22_radial" cx="0" cy="0" r="1" gradientUnits="userSpaceOnUse" gradientTransform="translate(41.8567 109.38) rotate(12.4213) scale(35.0605)">
      <stop stop-color="#FCE586"/>
      <stop offset="0.2273" stop-color="#FCDB7B"/>
      <stop offset="0.6161" stop-color="#FCD06F"/>
      <stop offset="1" stop-color="#FCCC6B"/>
    </radialGradient>
    <radialGradient id="paint23_radial" cx="0" cy="0" r="1" gradientUnits="userSpaceOnUse" gradientTransform="translate(32.3254 129.07) rotate(-46.6167) scale(14.7386)">
      <stop stop-color="#FCE586"/>
      <stop offset="0.2273" stop-color="#FCDB7B"/>
      <stop offset="0.6161" stop-color="#FCD06F"/>
      <stop offset="1" stop-color="#FCCC6B"/>
    </radialGradient>
    <radialGradient id="paint24_radial" cx="0" cy="0" r="1" gradientUnits="userSpaceOnUse" gradientTransform="translate(46.8207 132.935) rotate(-46.6167) scale(35.0605)">
      <stop stop-color="#FCE586"/>
      <stop offset="0.2273" stop-color="#FCDB7B"/>
      <stop offset="0.6161" stop-color="#FCD06F"/>
      <stop offset="1" stop-color="#FCCC6B"/>
    </radialGradient>
    <linearGradient id="paint25_linear" x1="74.4354" y1="100.883" x2="149.218" y2="123.831" gradientUnits="userSpaceOnUse">
      <stop stop-color="#5E6C67"/>
      <stop offset="0.907" stop-color="#485853"/>
      <stop offset="1" stop-color="#465651"/>
    </linearGradient>
    <linearGradient id="paint26_linear" x1="81.6298" y1="75.2473" x2="51.1596" y2="75.2473" gradientUnits="userSpaceOnUse">
      <stop stop-color="#465651"/>
      <stop offset="1" stop-color="#5E6C67"/>
    </linearGradient>
    <linearGradient id="paint27_linear" x1="50.9717" y1="97.1352" x2="101.095" y2="97.1352" gradientUnits="userSpaceOnUse">
      <stop stop-color="#BFC4C3"/>
      <stop offset="1" stop-color="#A0A8A6"/>
    </linearGradient>
  </defs>
</svg>
