<svg width="42" height="46" viewBox="0 0 42 46" fill="none" xmlns="http://www.w3.org/2000/svg">
  <path opacity="0.7" d="M17 44.6906C19.4752 46.1197 22.5248 46.1197 25 44.6906L37.7846 37.3094C40.2598 35.8803 41.7846 33.2393 41.7846 30.3812V15.6188C41.7846 12.7607 40.2598 10.1197 37.7846 8.6906L25 1.3094C22.5248 -0.119663 19.4752 -0.119663 17 1.3094L4.21539 8.6906C1.74018 10.1197 0.215391 12.7607 0.215391 15.6188V30.3812C0.215391 33.2393 1.74018 35.8803 4.21539 37.3094L17 44.6906Z" fill="#EAEEEE"/>
  <path d="M20.775 35C15.525 35 11.325 32.0375 11.4375 27.6688C11.55 23.3 12.9375 21.5 12.3938 20.4125C13.6688 21.05 14.5688 22.2687 14.5688 22.2687C15.1125 16.1562 21.5063 11.75 23.0063 11C23.0625 15.725 28.4063 18.6875 28.1813 26C29.2313 25.4563 29.925 23.7875 29.925 23.7875C31.35 26.525 31.0688 35 20.775 35Z" fill="url(#paint0_linear)"/>
  <path d="M21.15 34.025C17.1188 34.025 13.9313 30.9875 15.5625 26.5813C15.8438 27.5188 16.9125 28.4 16.9125 28.4C16.95 21.8938 22.1813 18.6875 22.1813 18.6875C21.9375 23.0563 25.9313 24.8375 26.3813 28.9063C26.7 31.7188 24.45 34.025 21.15 34.025Z" fill="url(#paint1_linear)"/>
  <path d="M21.2065 33.2C19.4627 33.2 18.4127 31.8688 19.1627 30.125C19.9127 28.3813 21.019 27.8563 20.8877 26.375C22.444 27.0875 23.6252 29.2438 23.4752 30.875C23.344 32.5063 22.594 33.2 21.2065 33.2Z" fill="url(#paint2_linear)"/>
  <defs>
    <linearGradient id="paint0_linear" x1="20.9954" y1="33.0846" x2="20.9954" y2="12.9293" gradientUnits="userSpaceOnUse">
      <stop stop-color="#EF3D33"/>
      <stop offset="1" stop-color="#F6921E"/>
    </linearGradient>
    <linearGradient id="paint1_linear" x1="20.7623" y1="32.8137" x2="20.7623" y2="19.9235" gradientUnits="userSpaceOnUse">
      <stop stop-color="#FBC734"/>
      <stop offset="1" stop-color="#FAD73E"/>
    </linearGradient>
    <linearGradient id="paint2_linear" x1="21.2088" y1="32.6565" x2="21.2088" y2="26.9114" gradientUnits="userSpaceOnUse">
      <stop stop-color="#F8DF44"/>
      <stop offset="1" stop-color="#F9E563"/>
    </linearGradient>
  </defs>
</svg>
