<svg width="16" height="16" viewBox="0 0 16 16" fill="none" xmlns="http://www.w3.org/2000/svg">
<circle cx="8" cy="8" r="7.25" stroke="#0AAE4D" stroke-width="1.5"/>
<path d="M7.0918 9.59766C7.09961 9.13281 7.15234 8.76562 7.25 8.49609C7.34766 8.22656 7.54688 7.92773 7.84766 7.59961L8.61523 6.80859C8.94336 6.4375 9.10742 6.03906 9.10742 5.61328C9.10742 5.20312 9 4.88281 8.78516 4.65234C8.57031 4.41797 8.25781 4.30078 7.84766 4.30078C7.44922 4.30078 7.12891 4.40625 6.88672 4.61719C6.64453 4.82812 6.52344 5.11133 6.52344 5.4668H5.43945C5.44727 4.83398 5.67188 4.32422 6.11328 3.9375C6.55859 3.54687 7.13672 3.35156 7.84766 3.35156C8.58594 3.35156 9.16016 3.55078 9.57031 3.94922C9.98438 4.34375 10.1914 4.88672 10.1914 5.57812C10.1914 6.26172 9.875 6.93555 9.24219 7.59961L8.60352 8.23242C8.31836 8.54883 8.17578 9.00391 8.17578 9.59766H7.0918ZM7.04492 11.4551C7.04492 11.2793 7.09766 11.1328 7.20312 11.0156C7.3125 10.8945 7.47266 10.834 7.68359 10.834C7.89453 10.834 8.05469 10.8945 8.16406 11.0156C8.27344 11.1328 8.32812 11.2793 8.32812 11.4551C8.32812 11.6309 8.27344 11.7773 8.16406 11.8945C8.05469 12.0078 7.89453 12.0645 7.68359 12.0645C7.47266 12.0645 7.3125 12.0078 7.20312 11.8945C7.09766 11.7773 7.04492 11.6309 7.04492 11.4551Z" fill="#0AAE4D"/>
</svg>
