<svg width="218" height="122" viewBox="0 0 218 122" fill="none" xmlns="http://www.w3.org/2000/svg">
  <g opacity="0.15" clip-path="url(#clip0)">
    <path d="M172.393 93.3517L175.583 95.2844C177.369 96.1863 178.135 95.5421 178.135 94.2536V90.9037C178.007 88.8422 178.39 88.5846 176.604 87.425L173.413 85.4923C171.627 84.5904 170.861 85.2346 170.861 86.5231V89.873C170.861 91.9345 170.606 92.1921 172.393 93.3517Z" fill="white"/>
    <path d="M193.193 97.2162L184.005 91.8048C182.219 90.9029 181.453 91.5471 181.453 92.8356V96.3143C181.581 98.3758 181.198 98.247 182.984 99.5354L186.557 101.597C188.216 102.628 189.237 104.303 189.237 106.235V112.549C189.237 115.383 189.365 116.156 190.768 117.058C190.768 117.058 192.682 118.218 193.321 118.604C194.341 118.991 196 118.475 196 117.316V102.112C196 99.6642 195.362 98.5047 193.193 97.2162Z" fill="white"/>
    <path d="M177.37 131.875C177.37 131.875 179.029 132.906 180.432 133.679C180.815 133.937 181.326 133.937 181.708 133.937C182.474 133.937 183.112 133.422 183.112 132.52V112.162C183.112 109.843 182.474 108.813 180.56 107.524L158.101 94.6398C157.336 94.2533 156.57 93.9956 155.804 93.9956C155.039 93.9956 154.145 94.2533 153.252 94.7687L133.09 107.009C131.176 108.039 130.666 108.426 130.666 109.843C130.666 109.843 130.538 111.776 130.666 113.064C130.666 113.451 130.793 113.837 130.921 114.095C131.304 114.739 131.942 114.868 132.452 114.61L152.997 102.499C153.763 102.113 154.528 101.855 155.421 101.855C156.187 101.855 157.08 102.113 157.846 102.499L173.542 111.647C175.073 112.549 175.966 114.095 175.966 115.77V127.752C175.966 130.329 175.966 130.973 177.37 131.875Z" fill="white"/>
    <path d="M63.5445 95.2844L66.607 93.4806C68.3935 92.321 68.1383 92.0633 68.1383 90.0018V86.5231C68.1383 85.2346 67.3727 84.5904 65.5862 85.4923L62.5236 87.2961C60.7371 88.4557 60.9923 88.7134 60.9923 90.7749V94.1248C60.8647 95.5421 61.758 96.1863 63.5445 95.2844Z" fill="white"/>
    <path d="M57.5471 96.1858V92.707C57.5471 91.4186 56.7815 90.7744 54.995 91.6763L45.8073 97.0877C43.7656 98.3761 43 99.5357 43 101.984V117.058C43 118.218 44.5313 118.862 45.6797 118.347C46.3178 118.089 48.2319 116.801 48.2319 116.801C49.6355 115.899 49.7631 115.126 49.7631 112.291V112.033V105.978C49.7631 104.045 50.784 102.37 52.3153 101.339L55.8882 99.278C57.8023 98.2473 57.4195 98.2473 57.5471 96.1858Z" fill="white"/>
    <path d="M56.0154 112.162V132.52C56.0154 133.293 56.6534 133.937 57.4191 133.937C57.8019 133.937 58.1847 133.808 58.5675 133.679C59.9712 133.035 61.6301 131.875 61.6301 131.875C63.0337 130.973 63.0337 130.329 63.1613 127.624V115.641C63.1613 113.966 64.0546 112.42 65.5859 111.518L81.2814 102.37C81.9195 101.984 82.8127 101.726 83.706 101.726C84.4716 101.726 85.3648 101.984 86.1305 102.37L106.675 114.482C107.313 114.739 107.824 114.61 108.206 113.966C108.334 113.709 108.462 113.322 108.462 112.935C108.589 111.647 108.462 109.714 108.462 109.714C108.334 108.297 107.951 108.039 106.037 106.88L85.7477 94.7687C84.8544 94.2533 84.0888 93.9956 83.1955 93.9956C82.4299 93.9956 81.6643 94.2533 80.8986 94.6398L58.5675 107.653C56.6534 108.813 56.0154 109.972 56.0154 112.162Z" fill="white"/>
    <path d="M157.335 168.467L123.52 148.754V137.029L153.507 119.635C154.783 118.862 156.314 118.862 157.59 119.635L164.481 123.629C166.268 124.531 167.033 123.887 167.033 122.599V119.249C166.906 117.187 167.289 116.93 165.502 115.77L158.356 111.647C156.952 110.874 155.294 110.487 153.124 111.518L123.52 128.654V102.37L153.507 84.9765C154.783 84.2035 156.314 84.2035 157.59 84.9765L164.481 88.9706C166.268 89.8725 167.033 89.2283 167.033 87.9399V84.59C166.906 82.5285 167.289 82.2708 165.502 81.1112L158.356 76.9883C156.952 76.2152 155.294 75.8287 153.124 76.8594L123.52 93.9955V72.9941C123.52 70.8038 121.733 69 119.564 69C117.394 69 115.608 70.8038 115.608 72.9941V93.9955L86.1309 76.6017C83.9616 75.571 82.1751 75.9575 80.8991 76.7306C80.7715 76.7306 73.7531 80.8535 73.7531 80.8535C71.9666 82.0131 72.2218 82.2708 72.2218 84.3323V87.6822C72.2218 88.9706 72.9875 89.6148 74.774 88.7129L81.6647 84.7188C82.9408 83.9458 84.472 83.9458 85.7481 84.7188L115.608 102.499V128.654L86.1309 111.26C83.9616 110.23 82.1751 110.616 80.8991 111.389C80.7715 111.389 73.7531 115.512 73.7531 115.512C71.9666 116.672 72.2218 116.93 72.2218 118.991V122.341C72.2218 123.629 72.9875 124.274 74.774 123.372L81.6647 119.378C82.9408 118.604 84.472 118.604 85.7481 119.378L115.736 136.9V148.625L81.6647 168.467C81.2819 168.724 80.8991 169.111 80.8991 169.369C80.8991 169.755 81.1543 170.142 81.7923 170.657C83.3236 171.817 86.2585 173.234 86.3861 173.234C86.8966 173.492 87.407 173.62 87.9174 173.62C88.8107 173.62 89.8315 173.234 91.1076 172.461L115.736 158.159V204.285C115.736 206.475 117.522 208.279 119.691 208.279C121.861 208.279 123.647 206.475 123.647 204.285V158.288L148.148 172.461C149.424 173.234 150.572 173.62 151.338 173.62C151.848 173.62 152.359 173.492 152.869 173.234C152.869 173.234 155.932 171.817 157.463 170.657C158.101 170.142 158.356 169.755 158.356 169.369C158.101 168.982 157.718 168.724 157.335 168.467Z" fill="white"/>
  </g>
  <g opacity="0.1" clip-path="url(#clip1)">
    <path d="M58.4717 36.7796C57.2753 36.7796 56.2285 36.1712 55.6304 35.1065C54.7331 33.4335 55.1817 31.4563 56.8267 30.5438L69.3883 23.0912C71.0333 22.1787 72.9773 22.6349 73.8746 24.308C74.7719 25.981 74.3232 27.9582 72.6783 28.8707L60.1166 36.3233C59.5185 36.6275 58.9203 36.7796 58.4717 36.7796Z" fill="white"/>
    <path d="M3.43949 130.012C1.64497 130.012 0.149543 128.491 0.149543 126.666L0 87.4263C0 72.9775 7.47715 59.5934 19.7397 52.445L31.7031 45.2967C33.3481 44.3841 35.2922 44.8404 36.1894 46.5134C37.0867 48.0343 36.638 50.1636 34.9931 51.0762L23.0296 58.2245C12.8607 64.3082 6.57989 75.411 6.57989 87.4263L6.72944 126.666C6.72944 128.491 5.23401 130.012 3.43949 130.012Z" fill="white"/>
    <path d="M221.473 137.008C219.678 137.008 218.183 135.487 218.183 133.662L218.034 86.6657C218.034 79.6694 214.295 73.1294 208.313 69.7834L191.116 59.7453C189.471 58.8327 189.022 56.8555 189.919 55.1825C190.817 53.5095 192.761 53.0532 194.406 53.9657L211.603 64.0038C219.529 68.7187 224.613 77.388 224.613 86.6657L224.763 133.662C224.763 135.487 223.268 137.008 221.473 137.008Z" fill="white"/>
    <path d="M193.958 229.481C192.911 229.481 191.864 229.025 191.266 228.112L183.19 216.553C182.592 215.793 182.443 214.88 182.592 213.967C182.742 213.055 183.34 212.294 184.088 211.838L208.613 197.389C214.594 193.891 218.183 187.351 218.183 180.355V169.709C218.183 167.883 219.679 166.362 221.473 166.362C223.268 166.362 224.763 167.883 224.763 169.709V180.355C224.763 189.785 219.828 198.454 211.903 203.169L190.518 215.793L194.705 221.876L215.492 209.557C225.661 203.473 231.941 192.37 231.941 180.355L231.642 86.9701C231.642 74.9548 225.212 63.852 215.043 57.9204C213.398 57.0079 212.95 55.0307 213.847 53.3576C214.744 51.6846 216.688 51.2284 218.333 52.1409C230.596 59.2893 238.222 72.6734 238.372 86.9701L238.671 180.355C238.671 194.652 231.194 208.188 218.931 215.336L195.453 229.177C195.154 229.329 194.556 229.481 193.958 229.481Z" fill="white"/>
    <path d="M57.2751 220.659C56.6769 220.659 56.2283 220.507 55.6301 220.203L27.2169 203.625C19.2911 198.91 14.2067 190.241 14.2067 180.963L13.9076 115.716C13.9076 113.89 15.403 112.37 17.1975 112.37C19.1416 112.37 20.4875 113.89 20.4875 115.716L20.7866 180.811C20.7866 187.807 24.5251 194.347 30.5069 197.693L58.92 214.272C60.565 215.184 61.0136 217.161 60.1164 218.834C59.5182 220.051 58.4714 220.659 57.2751 220.659Z" fill="white"/>
    <path d="M17.1975 90.7725C15.403 90.7725 13.9076 89.2516 13.9076 87.4265C13.9076 77.9967 18.8425 69.3274 26.7683 64.6126L63.2568 43.0154C64.7522 42.1029 66.8458 42.5591 67.7431 44.2322C68.6403 45.7531 68.1917 47.8824 66.5467 48.7949L30.0582 70.3921C24.0765 73.8902 20.4875 80.4302 20.4875 87.4265C20.4875 89.2516 18.9921 90.7725 17.1975 90.7725Z" fill="white"/>
    <path d="M170.33 47.1219C169.731 47.1219 169.283 46.9698 168.685 46.6656L128.607 23.3954C122.775 20.0494 115.148 20.0494 109.316 23.3954L84.791 37.8442C83.146 38.7568 81.2019 38.3005 80.3047 36.6275C79.4074 35.1066 79.856 32.9773 81.501 32.0647L106.026 17.6159C113.802 12.901 123.971 12.901 131.897 17.4638L169.432 39.3651L173.769 33.2814L135.486 11.0759C125.616 5.2964 112.307 5.2964 102.437 11.228L86.8846 20.5057C85.2396 21.4182 83.2955 20.9619 82.3983 19.2889C81.501 17.768 81.9496 15.6387 83.5946 14.7261L99.1471 5.44849C111.111 -1.54777 126.962 -1.69986 138.776 5.2964L180.199 29.327C180.947 29.7833 181.545 30.5438 181.844 31.4563C181.994 32.3689 181.844 33.2814 181.246 34.194L173.171 45.753C172.423 46.6656 171.376 47.1219 170.33 47.1219Z" fill="white"/>
  </g>
  <defs>
    <clipPath id="clip0">
      <rect width="153" height="53" fill="white" transform="translate(43 69)"/>
    </clipPath>
    <clipPath id="clip1">
      <rect width="218" height="121.875" fill="white" transform="translate(0 0.125)"/>
    </clipPath>
  </defs>
</svg>
