<svg width="148" height="134" viewBox="0 0 148 134" fill="none" xmlns="http://www.w3.org/2000/svg">
  <g clip-path="url(#clip0)">
    <g filter="url(#filter0_d)">
      <circle cx="74" cy="58" r="46" fill="#FFD541"/>
    </g>
  </g>
  <g filter="url(#filter1_d)">
    <circle cx="74" cy="58" r="42" fill="white"/>
  </g>
  <circle opacity="0.3" cx="74" cy="58" r="30" fill="#FFD541"/>
  <g clip-path="url(#clip1)">
    <path d="M64.4122 40.9216C60.9201 40.9216 58.063 42.3185 58.063 44.0962V59.9693L70.7614 52.9851V44.0962C70.7614 42.3185 67.9043 40.9216 64.4122 40.9216Z" stroke="#282D33" stroke-width="1.2" stroke-miterlimit="10" stroke-linecap="round" stroke-linejoin="round"/>
    <path d="M70.7614 44.0962C70.7614 42.3185 67.9043 40.9216 64.4122 40.9216C60.9201 40.9216 58.063 42.3185 58.063 44.0962C58.063 45.874 60.9201 47.2708 64.4122 47.2708C67.9043 47.2708 70.7614 45.874 70.7614 44.0962Z" stroke="#282D33" stroke-width="1.2" stroke-miterlimit="10" stroke-linecap="round" stroke-linejoin="round"/>
    <path d="M58.0624 44.0974V47.272C58.0624 49.0498 60.9195 50.4466 64.4116 50.4466C67.9036 50.4466 70.7608 49.0498 70.7608 47.272V44.0974" stroke="#282D33" stroke-width="1.2" stroke-miterlimit="10" stroke-linecap="round" stroke-linejoin="round"/>
    <path d="M58.0624 47.2693V50.4439C58.0624 51.8407 59.9036 53.0471 62.5068 53.4915" stroke="#282D33" stroke-width="1.2" stroke-miterlimit="10" stroke-linecap="round" stroke-linejoin="round"/>
    <path d="M58.063 50.4456V53.6202C58.063 54.509 58.7614 55.3344 59.9678 55.9059" stroke="#282D33" stroke-width="1.2" stroke-miterlimit="10" stroke-linecap="round" stroke-linejoin="round"/>
    <path d="M58.063 50.4456V57.4297" stroke="#282D33" stroke-width="1.2" stroke-miterlimit="10" stroke-linecap="round" stroke-linejoin="round"/>
    <path d="M93.4284 55.5864L67.8411 69.0468L54.3807 61.9356L79.968 48.5388L93.4284 55.5864Z" stroke="#282D33" stroke-width="1.2" stroke-miterlimit="10" stroke-linecap="round" stroke-linejoin="round"/>
    <path d="M93.4284 58.6995L67.8411 72.1598L54.3807 65.1122" stroke="#282D33" stroke-width="1.2" stroke-miterlimit="10" stroke-linecap="round" stroke-linejoin="round"/>
    <path d="M93.4284 61.8083L67.8411 75.2687L54.3807 68.221" stroke="#282D33" stroke-width="1.2" stroke-miterlimit="10" stroke-linecap="round" stroke-linejoin="round"/>
    <path d="M86.2542 55.1428L80.8574 52.2856C79.9685 52.7301 78.8891 52.6666 78.1907 52.2856L61.5558 61.0475C62.4447 61.492 62.3177 62.0634 61.5558 62.4444L66.9526 65.3015C67.7145 64.9206 68.7304 64.8571 69.6193 65.3015L86.2542 56.6031C85.4923 56.1587 85.3653 55.5872 86.2542 55.1428Z" fill="white" stroke="#282D33" stroke-width="1.2" stroke-miterlimit="10" stroke-linecap="round" stroke-linejoin="round"/>
    <path d="M80.2852 54.8899V56.1597" stroke="#282D33" stroke-width="1.2" stroke-miterlimit="10" stroke-linecap="round" stroke-linejoin="round"/>
    <path d="M67.5878 61.238V62.5079" stroke="#282D33" stroke-width="1.2" stroke-miterlimit="10" stroke-linecap="round" stroke-linejoin="round"/>
    <path d="M77.1106 64.0327L63.1423 56.1597L69.4915 52.9851L84.0947 60.6042V68.2867L77.1106 72.0327V64.0327Z" fill="#FFD541" stroke="#282D33" stroke-width="1.2" stroke-miterlimit="10" stroke-linecap="round" stroke-linejoin="round"/>
    <path d="M75.8412 57.7468C76.9841 58.3817 77.1111 59.3341 76.0317 59.842C74.9523 60.35 73.1746 60.35 71.9682 59.7785C70.8254 59.1436 70.6984 58.1912 71.7777 57.6833C72.8571 57.1119 74.6349 57.1754 75.8412 57.7468Z" fill="white" stroke="#282D33" stroke-width="1.2" stroke-miterlimit="10" stroke-linecap="round" stroke-linejoin="round"/>
  </g>
  <defs>
    <filter id="filter0_d" x="3" y="-4" width="142" height="142" filterUnits="userSpaceOnUse" color-interpolation-filters="sRGB">
      <feFlood flood-opacity="0" result="BackgroundImageFix"/>
      <feColorMatrix in="SourceAlpha" type="matrix" values="0 0 0 0 0 0 0 0 0 0 0 0 0 0 0 0 0 0 127 0"/>
      <feOffset dy="9"/>
      <feGaussianBlur stdDeviation="12.5"/>
      <feColorMatrix type="matrix" values="0 0 0 0 0.2875 0 0 0 0 0.2875 0 0 0 0 0.2875 0 0 0 0.07 0"/>
      <feBlend mode="normal" in2="BackgroundImageFix" result="effect1_dropShadow"/>
      <feBlend mode="normal" in="SourceGraphic" in2="effect1_dropShadow" result="shape"/>
    </filter>
    <filter id="filter1_d" x="7" y="0" width="134" height="134" filterUnits="userSpaceOnUse" color-interpolation-filters="sRGB">
      <feFlood flood-opacity="0" result="BackgroundImageFix"/>
      <feColorMatrix in="SourceAlpha" type="matrix" values="0 0 0 0 0 0 0 0 0 0 0 0 0 0 0 0 0 0 127 0"/>
      <feOffset dy="9"/>
      <feGaussianBlur stdDeviation="12.5"/>
      <feColorMatrix type="matrix" values="0 0 0 0 0.2875 0 0 0 0 0.2875 0 0 0 0 0.2875 0 0 0 0.07 0"/>
      <feBlend mode="normal" in2="BackgroundImageFix" result="effect1_dropShadow"/>
      <feBlend mode="normal" in="SourceGraphic" in2="effect1_dropShadow" result="shape"/>
    </filter>
    <clipPath id="clip0">
      <rect width="148" height="77" fill="white" transform="translate(0 57)"/>
    </clipPath>
    <clipPath id="clip1">
      <rect width="40" height="40" fill="white" transform="translate(54 38)"/>
    </clipPath>
  </defs>
</svg>
