<svg width="42" height="46" viewBox="0 0 42 46" fill="none" xmlns="http://www.w3.org/2000/svg">
  <path opacity="0.7" d="M17 44.6906C19.4752 46.1197 22.5248 46.1197 25 44.6906L37.7846 37.3094C40.2598 35.8803 41.7846 33.2393 41.7846 30.3812V15.6188C41.7846 12.7607 40.2598 10.1197 37.7846 8.6906L25 1.3094C22.5248 -0.119663 19.4752 -0.119663 17 1.3094L4.21539 8.6906C1.74018 10.1197 0.215391 12.7607 0.215391 15.6188V30.3812C0.215391 33.2393 1.74018 35.8803 4.21539 37.3094L17 44.6906Z" fill="#EAEEEE"/>
  <path fill-rule="evenodd" clip-rule="evenodd" d="M12.6647 25.7416C13.4066 24.9997 14.4128 24.5829 15.462 24.5829H21.7917C22.8409 24.5829 23.8471 24.9997 24.589 25.7416C25.3309 26.4835 25.7477 27.4897 25.7477 28.5389V30.1213C25.7477 30.5583 25.3935 30.9126 24.9565 30.9126C24.5196 30.9126 24.1653 30.5583 24.1653 30.1213V28.5389C24.1653 27.9094 23.9152 27.3057 23.4701 26.8605C23.025 26.4154 22.4212 26.1653 21.7917 26.1653H15.462C14.8325 26.1653 14.2288 26.4154 13.7836 26.8605C13.3385 27.3057 13.0884 27.9094 13.0884 28.5389V30.1213C13.0884 30.5583 12.7342 30.9126 12.2972 30.9126C11.8602 30.9126 11.506 30.5583 11.506 30.1213V28.5389C11.506 27.4897 11.9228 26.4835 12.6647 25.7416Z" fill="#A6ADC0"/>
  <path fill-rule="evenodd" clip-rule="evenodd" d="M18.6261 16.6696C17.3152 16.6696 16.2525 17.7323 16.2525 19.0432C16.2525 20.3541 17.3152 21.4168 18.6261 21.4168C19.937 21.4168 20.9997 20.3541 20.9997 19.0432C20.9997 17.7323 19.937 16.6696 18.6261 16.6696ZM14.67 19.0432C14.67 16.8583 16.4412 15.0872 18.6261 15.0872C20.811 15.0872 22.5821 16.8583 22.5821 19.0432C22.5821 21.2281 20.811 22.9992 18.6261 22.9992C16.4412 22.9992 14.67 21.2281 14.67 19.0432Z" fill="#A6ADC0"/>
  <path fill-rule="evenodd" clip-rule="evenodd" d="M26.5638 25.2774C26.673 24.8543 27.1046 24.5999 27.5277 24.7092C28.3764 24.9283 29.1282 25.4231 29.6653 26.1158C30.2023 26.8086 30.494 27.6601 30.4947 28.5366L30.4947 30.1196C30.4947 30.5566 30.1405 30.9108 29.7035 30.9108C29.2665 30.9108 28.9123 30.5566 28.9123 30.1196L28.9123 28.5378C28.9123 28.5377 28.9123 28.5379 28.9123 28.5378C28.9118 28.012 28.7368 27.5009 28.4146 27.0853C28.0924 26.6697 27.6413 26.3728 27.1321 26.2413C26.709 26.1321 26.4545 25.7005 26.5638 25.2774Z" fill="#A6ADC0"/>
  <path fill-rule="evenodd" clip-rule="evenodd" d="M23.3993 15.7851C23.5077 15.3618 23.9387 15.1065 24.362 15.2149C25.213 15.4327 25.9672 15.9276 26.5059 16.6215C27.0445 17.3154 27.3368 18.1689 27.3368 19.0473C27.3368 19.9257 27.0445 20.7791 26.5059 21.473C25.9672 22.1669 25.213 22.6618 24.362 22.8797C23.9387 22.9881 23.5077 22.7328 23.3993 22.3095C23.2909 21.8861 23.5462 21.4551 23.9695 21.3467C24.4801 21.216 24.9327 20.9191 25.2558 20.5027C25.579 20.0864 25.7544 19.5743 25.7544 19.0473C25.7544 18.5202 25.579 18.0082 25.2558 17.5918C24.9327 17.1755 24.4801 16.8786 23.9695 16.7478C23.5462 16.6394 23.2909 16.2084 23.3993 15.7851Z" fill="#A6ADC0"/>
</svg>
